<svg width="50" height="50" viewBox="0 0 50 50" fill="none" xmlns="http://www.w3.org/2000/svg">
<rect width="50" height="50" rx="4" fill="#7289DA"/>
<rect x="11.8728" y="8.1543" width="27.9208" height="27.9208" fill="white"/>
<path d="M41.027 3H9.78052C7.14541 3 5 5.15373 5 7.8226V39.4736C5 42.1425 7.14525 44.2962 9.78036 44.2962H36.2235L34.9875 39.9653L37.9723 42.7511L40.7938 45.3731L45.8073 49.8211V7.8226C45.8073 5.15373 43.6621 3 41.027 3ZM32.0261 33.5743C32.0261 33.5743 31.1867 32.5676 30.4871 31.6779C33.5419 30.8117 34.7077 28.8921 34.7077 28.8921C33.7516 29.5242 32.8422 29.9691 32.0261 30.2732C30.8602 30.7649 29.7409 31.0925 28.645 31.2799C26.4063 31.7013 24.3543 31.5843 22.6055 31.2566C21.2762 30.9989 20.1336 30.6244 19.1777 30.25C18.6413 30.0392 18.0583 29.7817 17.4753 29.454C17.4054 29.4071 17.3355 29.3837 17.2655 29.3368C17.2189 29.3134 17.1955 29.2901 17.1722 29.2667C16.7525 29.0326 16.5193 28.8687 16.5193 28.8687C16.5193 28.8687 17.6386 30.7416 20.6 31.631C19.9006 32.5208 19.0377 33.5742 19.0377 33.5742C13.8842 33.4103 11.9256 30.0158 11.9256 30.0158C11.9256 22.4776 15.2834 16.3674 15.2834 16.3674C18.6413 13.839 21.8359 13.9093 21.8359 13.9093L22.0691 14.1903C17.8718 15.4074 15.9364 17.257 15.9364 17.257C15.9364 17.257 16.4493 16.9762 17.312 16.5782C19.8072 15.4778 21.7894 15.1736 22.6055 15.1033C22.7453 15.0798 22.862 15.0564 23.0019 15.0564C24.5646 14.852 26.146 14.8364 27.7123 15.0097C29.9274 15.2672 32.306 15.9227 34.731 17.257C34.731 17.257 32.8889 15.5013 28.9247 14.2839L29.2512 13.9095C29.2512 13.9095 32.4458 13.839 35.8036 16.3676C35.8036 16.3676 39.1616 22.4776 39.1616 30.0158C39.1616 30.0158 37.1795 33.4103 32.0261 33.5742V33.5743ZM21.183 22.6415C19.8539 22.6415 18.8047 23.812 18.8047 25.24C18.8047 26.6681 19.8771 27.8386 21.183 27.8386C22.5122 27.8386 23.5614 26.6681 23.5614 25.24C23.5849 23.812 22.5122 22.6415 21.1831 22.6415H21.183ZM29.6943 22.6415C28.3651 22.6415 27.3157 23.812 27.3157 25.24C27.3157 26.6681 28.3885 27.8386 29.6943 27.8386C31.0234 27.8386 32.0726 26.6681 32.0726 25.24C32.0726 23.812 31.0234 22.6415 29.6943 22.6415Z" fill="#7289DA"/>
</svg>
