<svg width="379" height="199" viewBox="0 0 379 199" fill="none" xmlns="http://www.w3.org/2000/svg">
<path d="M8.33388 179.08C8.01388 179.08 7.75788 178.989 7.56588 178.808C7.38454 178.616 7.29388 178.365 7.29388 178.056V169.416H4.38188C3.74188 169.416 3.42188 169.133 3.42188 168.568C3.42188 168.003 3.74188 167.72 4.38188 167.72H12.2699C12.9099 167.72 13.2299 168.003 13.2299 168.568C13.2299 169.133 12.9099 169.416 12.2699 169.416H9.35788V178.056C9.35788 178.365 9.26188 178.616 9.06988 178.808C8.88854 178.989 8.64321 179.08 8.33388 179.08ZM18.8025 179.144C17.7038 179.144 16.7492 178.909 15.9385 178.44C15.1385 177.971 14.5198 177.299 14.0825 176.424C13.6452 175.549 13.4265 174.525 13.4265 173.352C13.4265 172.179 13.6398 171.16 14.0665 170.296C14.5038 169.421 15.1278 168.749 15.9385 168.28C16.7492 167.811 17.7038 167.576 18.8025 167.576C19.9012 167.576 20.8505 167.811 21.6505 168.28C22.4612 168.749 23.0798 169.421 23.5065 170.296C23.9438 171.16 24.1625 172.179 24.1625 173.352C24.1625 174.525 23.9438 175.549 23.5065 176.424C23.0692 177.299 22.4452 177.971 21.6345 178.44C20.8345 178.909 19.8905 179.144 18.8025 179.144ZM18.8025 177.496C19.8372 177.496 20.6425 177.139 21.2185 176.424C21.8052 175.709 22.0985 174.685 22.0985 173.352C22.0985 172.019 21.8052 171 21.2185 170.296C20.6425 169.581 19.8372 169.224 18.8025 169.224C17.7572 169.224 16.9412 169.581 16.3545 170.296C15.7785 171 15.4905 172.019 15.4905 173.352C15.4905 174.685 15.7785 175.709 16.3545 176.424C16.9412 177.139 17.7572 177.496 18.8025 177.496ZM34.9993 177.448C35.2126 177.651 35.3193 177.88 35.3193 178.136C35.3193 178.381 35.2233 178.6 35.0312 178.792C34.8499 178.973 34.6313 179.064 34.3753 179.064C34.1086 179.064 33.8633 178.952 33.6393 178.728L28.3113 173.736V178.056C28.3113 178.365 28.2153 178.616 28.0233 178.808C27.8419 179 27.5913 179.096 27.2713 179.096C26.9619 179.096 26.7113 179 26.5193 178.808C26.3379 178.616 26.2473 178.365 26.2473 178.056V168.664C26.2473 168.355 26.3379 168.109 26.5193 167.928C26.7113 167.736 26.9619 167.64 27.2713 167.64C27.5913 167.64 27.8419 167.736 28.0233 167.928C28.2153 168.109 28.3113 168.355 28.3113 168.664V172.776L33.4633 167.944C33.6553 167.752 33.8739 167.656 34.1193 167.656C34.3646 167.656 34.5779 167.752 34.7593 167.944C34.9513 168.125 35.0473 168.339 35.0473 168.584C35.0473 168.829 34.9406 169.053 34.7273 169.256L30.4233 173.192L34.9993 177.448ZM37.8018 179C37.4924 179 37.2471 178.915 37.0658 178.744C36.8951 178.573 36.8098 178.333 36.8098 178.024V168.696C36.8098 168.387 36.8951 168.147 37.0658 167.976C37.2471 167.805 37.4924 167.72 37.8018 167.72H43.5778C43.8871 167.72 44.1271 167.789 44.2978 167.928C44.4684 168.067 44.5538 168.264 44.5538 168.52C44.5538 168.787 44.4684 168.995 44.2978 169.144C44.1271 169.283 43.8871 169.352 43.5778 169.352H38.8258V172.456H43.2578C43.5671 172.456 43.8071 172.525 43.9778 172.664C44.1484 172.803 44.2338 173.005 44.2338 173.272C44.2338 173.528 44.1484 173.725 43.9778 173.864C43.8071 174.003 43.5671 174.072 43.2578 174.072H38.8258V177.368H43.5778C43.8871 177.368 44.1271 177.443 44.2978 177.592C44.4684 177.731 44.5538 177.933 44.5538 178.2C44.5538 178.456 44.4684 178.653 44.2978 178.792C44.1271 178.931 43.8871 179 43.5778 179H37.8018ZM54.7756 167.64C55.0743 167.64 55.309 167.736 55.4796 167.928C55.661 168.109 55.7516 168.355 55.7516 168.664V178.056C55.7516 178.365 55.661 178.616 55.4796 178.808C55.2983 179 55.0636 179.096 54.7756 179.096C54.4343 179.096 54.173 178.973 53.9916 178.728L48.1516 171.128V178.056C48.1516 178.365 48.0663 178.616 47.8956 178.808C47.725 179 47.4903 179.096 47.1916 179.096C46.893 179.096 46.6583 179 46.4876 178.808C46.317 178.616 46.2316 178.365 46.2316 178.056V168.664C46.2316 168.355 46.3223 168.109 46.5036 167.928C46.685 167.736 46.925 167.64 47.2236 167.64C47.5543 167.64 47.8103 167.763 47.9916 168.008L53.8156 175.576V168.664C53.8156 168.355 53.901 168.109 54.0716 167.928C54.253 167.736 54.4876 167.64 54.7756 167.64ZM63.5205 179C63.2112 179 62.9658 178.915 62.7845 178.744C62.6138 178.573 62.5285 178.333 62.5285 178.024V168.696C62.5285 168.387 62.6138 168.147 62.7845 167.976C62.9658 167.805 63.2112 167.72 63.5205 167.72H66.6885C68.5338 167.72 69.9632 168.216 70.9765 169.208C72.0005 170.189 72.5125 171.571 72.5125 173.352C72.5125 175.144 72.0005 176.536 70.9765 177.528C69.9632 178.509 68.5338 179 66.6885 179H63.5205ZM66.5605 177.32C69.1525 177.32 70.4485 175.997 70.4485 173.352C70.4485 170.717 69.1525 169.4 66.5605 169.4H64.5925V177.32H66.5605ZM75.583 179C75.2737 179 75.0283 178.915 74.847 178.744C74.6763 178.573 74.591 178.333 74.591 178.024V168.696C74.591 168.387 74.6763 168.147 74.847 167.976C75.0283 167.805 75.2737 167.72 75.583 167.72H81.359C81.6683 167.72 81.9083 167.789 82.079 167.928C82.2497 168.067 82.335 168.264 82.335 168.52C82.335 168.787 82.2497 168.995 82.079 169.144C81.9083 169.283 81.6683 169.352 81.359 169.352H76.607V172.456H81.039C81.3483 172.456 81.5883 172.525 81.759 172.664C81.9297 172.803 82.015 173.005 82.015 173.272C82.015 173.528 81.9297 173.725 81.759 173.864C81.5883 174.003 81.3483 174.072 81.039 174.072H76.607V177.368H81.359C81.6683 177.368 81.9083 177.443 82.079 177.592C82.2497 177.731 82.335 177.933 82.335 178.2C82.335 178.456 82.2497 178.653 82.079 178.792C81.9083 178.931 81.6683 179 81.359 179H75.583ZM92.2209 168.168C92.3915 167.805 92.6742 167.624 93.0689 167.624C93.3355 167.624 93.5755 167.709 93.7889 167.88C94.0022 168.051 94.1089 168.264 94.1089 168.52C94.1089 168.637 94.0769 168.771 94.0129 168.92L89.5809 178.456C89.4849 178.659 89.3355 178.819 89.1329 178.936C88.9409 179.043 88.7329 179.096 88.5089 179.096C88.2849 179.096 88.0715 179.043 87.8689 178.936C87.6769 178.819 87.5329 178.659 87.4369 178.456L83.0209 168.92C82.9569 168.771 82.9249 168.643 82.9249 168.536C82.9249 168.269 83.0315 168.051 83.2449 167.88C83.4689 167.709 83.7195 167.624 83.9969 167.624C84.1782 167.624 84.3435 167.672 84.4929 167.768C84.6529 167.853 84.7755 167.987 84.8609 168.168L88.5409 176.344L92.2209 168.168ZM96.4268 179C96.1174 179 95.8721 178.915 95.6908 178.744C95.5201 178.573 95.4348 178.333 95.4348 178.024V168.696C95.4348 168.387 95.5201 168.147 95.6908 167.976C95.8721 167.805 96.1174 167.72 96.4268 167.72H102.203C102.512 167.72 102.752 167.789 102.923 167.928C103.093 168.067 103.179 168.264 103.179 168.52C103.179 168.787 103.093 168.995 102.923 169.144C102.752 169.283 102.512 169.352 102.203 169.352H97.4508V172.456H101.883C102.192 172.456 102.432 172.525 102.603 172.664C102.773 172.803 102.859 173.005 102.859 173.272C102.859 173.528 102.773 173.725 102.603 173.864C102.432 174.003 102.192 174.072 101.883 174.072H97.4508V177.368H102.203C102.512 177.368 102.752 177.443 102.923 177.592C103.093 177.731 103.179 177.933 103.179 178.2C103.179 178.456 103.093 178.653 102.923 178.792C102.752 178.931 102.512 179 102.203 179H96.4268ZM105.833 179C105.523 179 105.283 178.915 105.113 178.744C104.942 178.573 104.857 178.339 104.857 178.04V168.664C104.857 168.355 104.947 168.109 105.129 167.928C105.321 167.736 105.571 167.64 105.881 167.64C106.201 167.64 106.451 167.736 106.633 167.928C106.825 168.109 106.921 168.355 106.921 168.664V177.304H111.417C112.057 177.304 112.377 177.587 112.377 178.152C112.377 178.717 112.057 179 111.417 179H105.833ZM118.146 179.144C117.048 179.144 116.093 178.909 115.282 178.44C114.482 177.971 113.864 177.299 113.426 176.424C112.989 175.549 112.77 174.525 112.77 173.352C112.77 172.179 112.984 171.16 113.41 170.296C113.848 169.421 114.472 168.749 115.282 168.28C116.093 167.811 117.048 167.576 118.146 167.576C119.245 167.576 120.194 167.811 120.994 168.28C121.805 168.749 122.424 169.421 122.85 170.296C123.288 171.16 123.506 172.179 123.506 173.352C123.506 174.525 123.288 175.549 122.85 176.424C122.413 177.299 121.789 177.971 120.978 178.44C120.178 178.909 119.234 179.144 118.146 179.144ZM118.146 177.496C119.181 177.496 119.986 177.139 120.562 176.424C121.149 175.709 121.442 174.685 121.442 173.352C121.442 172.019 121.149 171 120.562 170.296C119.986 169.581 119.181 169.224 118.146 169.224C117.101 169.224 116.285 169.581 115.698 170.296C115.122 171 114.834 172.019 114.834 173.352C114.834 174.685 115.122 175.709 115.698 176.424C116.285 177.139 117.101 177.496 118.146 177.496ZM126.615 179.096C126.306 179.096 126.055 179.005 125.863 178.824C125.682 178.632 125.591 178.376 125.591 178.056V168.696C125.591 168.387 125.676 168.147 125.847 167.976C126.028 167.805 126.274 167.72 126.583 167.72H130.519C131.724 167.72 132.663 168.024 133.335 168.632C134.007 169.229 134.343 170.072 134.343 171.16C134.343 172.248 134.007 173.096 133.335 173.704C132.663 174.312 131.724 174.616 130.519 174.616H127.655V178.056C127.655 178.376 127.559 178.632 127.367 178.824C127.186 179.005 126.935 179.096 126.615 179.096ZM130.263 173.032C131.682 173.032 132.391 172.413 132.391 171.176C132.391 169.939 131.682 169.32 130.263 169.32H127.655V173.032H130.263ZM146.17 167.64C146.468 167.64 146.708 167.736 146.89 167.928C147.071 168.109 147.162 168.355 147.162 168.664V178.136C147.162 178.435 147.076 178.669 146.906 178.84C146.735 179.011 146.511 179.096 146.234 179.096C145.956 179.096 145.738 179.011 145.578 178.84C145.418 178.669 145.338 178.435 145.338 178.136V171.544L142.618 176.696C142.49 176.931 142.351 177.107 142.202 177.224C142.052 177.331 141.876 177.384 141.674 177.384C141.471 177.384 141.295 177.331 141.146 177.224C140.996 177.117 140.858 176.941 140.73 176.696L137.994 171.624V178.136C137.994 178.424 137.908 178.659 137.738 178.84C137.578 179.011 137.359 179.096 137.082 179.096C136.804 179.096 136.586 179.011 136.426 178.84C136.266 178.669 136.186 178.435 136.186 178.136V168.664C136.186 168.355 136.271 168.109 136.442 167.928C136.623 167.736 136.863 167.64 137.162 167.64C137.578 167.64 137.903 167.869 138.138 168.328L141.69 175.096L145.226 168.328C145.46 167.869 145.775 167.64 146.17 167.64ZM150.599 179C150.289 179 150.044 178.915 149.863 178.744C149.692 178.573 149.607 178.333 149.607 178.024V168.696C149.607 168.387 149.692 168.147 149.863 167.976C150.044 167.805 150.289 167.72 150.599 167.72H156.375C156.684 167.72 156.924 167.789 157.095 167.928C157.265 168.067 157.351 168.264 157.351 168.52C157.351 168.787 157.265 168.995 157.095 169.144C156.924 169.283 156.684 169.352 156.375 169.352H151.623V172.456H156.055C156.364 172.456 156.604 172.525 156.775 172.664C156.945 172.803 157.031 173.005 157.031 173.272C157.031 173.528 156.945 173.725 156.775 173.864C156.604 174.003 156.364 174.072 156.055 174.072H151.623V177.368H156.375C156.684 177.368 156.924 177.443 157.095 177.592C157.265 177.731 157.351 177.933 157.351 178.2C157.351 178.456 157.265 178.653 157.095 178.792C156.924 178.931 156.684 179 156.375 179H150.599ZM167.573 167.64C167.871 167.64 168.106 167.736 168.277 167.928C168.458 168.109 168.549 168.355 168.549 168.664V178.056C168.549 178.365 168.458 178.616 168.277 178.808C168.095 179 167.861 179.096 167.573 179.096C167.231 179.096 166.97 178.973 166.789 178.728L160.949 171.128V178.056C160.949 178.365 160.863 178.616 160.693 178.808C160.522 179 160.287 179.096 159.989 179.096C159.69 179.096 159.455 179 159.285 178.808C159.114 178.616 159.029 178.365 159.029 178.056V168.664C159.029 168.355 159.119 168.109 159.301 167.928C159.482 167.736 159.722 167.64 160.021 167.64C160.351 167.64 160.607 167.763 160.789 168.008L166.613 175.576V168.664C166.613 168.355 166.698 168.109 166.869 167.928C167.05 167.736 167.285 167.64 167.573 167.64ZM174.678 179.08C174.358 179.08 174.102 178.989 173.91 178.808C173.728 178.616 173.638 178.365 173.638 178.056V169.416H170.726C170.086 169.416 169.766 169.133 169.766 168.568C169.766 168.003 170.086 167.72 170.726 167.72H178.614C179.254 167.72 179.574 168.003 179.574 168.568C179.574 169.133 179.254 169.416 178.614 169.416H175.702V178.056C175.702 178.365 175.606 178.616 175.414 178.808C175.232 178.989 174.987 179.08 174.678 179.08Z" fill="white"/>
<path d="M222.638 178C222.328 178 222.083 177.915 221.902 177.744C221.731 177.573 221.646 177.333 221.646 177.024V167.696C221.646 167.387 221.731 167.147 221.902 166.976C222.083 166.805 222.328 166.72 222.638 166.72H225.806C227.651 166.72 229.08 167.216 230.094 168.208C231.118 169.189 231.63 170.571 231.63 172.352C231.63 174.144 231.118 175.536 230.094 176.528C229.08 177.509 227.651 178 225.806 178H222.638ZM225.678 176.32C228.27 176.32 229.566 174.997 229.566 172.352C229.566 169.717 228.27 168.4 225.678 168.4H223.71V176.32H225.678ZM234.7 178C234.391 178 234.146 177.915 233.964 177.744C233.794 177.573 233.708 177.333 233.708 177.024V167.696C233.708 167.387 233.794 167.147 233.964 166.976C234.146 166.805 234.391 166.72 234.7 166.72H240.476C240.786 166.72 241.026 166.789 241.196 166.928C241.367 167.067 241.452 167.264 241.452 167.52C241.452 167.787 241.367 167.995 241.196 168.144C241.026 168.283 240.786 168.352 240.476 168.352H235.724V171.456H240.156C240.466 171.456 240.706 171.525 240.876 171.664C241.047 171.803 241.132 172.005 241.132 172.272C241.132 172.528 241.047 172.725 240.876 172.864C240.706 173.003 240.466 173.072 240.156 173.072H235.724V176.368H240.476C240.786 176.368 241.026 176.443 241.196 176.592C241.367 176.731 241.452 176.933 241.452 177.2C241.452 177.456 241.367 177.653 241.196 177.792C241.026 177.931 240.786 178 240.476 178H234.7ZM251.338 167.168C251.509 166.805 251.791 166.624 252.186 166.624C252.453 166.624 252.693 166.709 252.906 166.88C253.119 167.051 253.226 167.264 253.226 167.52C253.226 167.637 253.194 167.771 253.13 167.92L248.698 177.456C248.602 177.659 248.453 177.819 248.25 177.936C248.058 178.043 247.85 178.096 247.626 178.096C247.402 178.096 247.189 178.043 246.986 177.936C246.794 177.819 246.65 177.659 246.554 177.456L242.138 167.92C242.074 167.771 242.042 167.643 242.042 167.536C242.042 167.269 242.149 167.051 242.362 166.88C242.586 166.709 242.837 166.624 243.114 166.624C243.295 166.624 243.461 166.672 243.61 166.768C243.77 166.853 243.893 166.987 243.978 167.168L247.658 175.344L251.338 167.168ZM255.544 178C255.235 178 254.989 177.915 254.808 177.744C254.637 177.573 254.552 177.333 254.552 177.024V167.696C254.552 167.387 254.637 167.147 254.808 166.976C254.989 166.805 255.235 166.72 255.544 166.72H261.32C261.629 166.72 261.869 166.789 262.04 166.928C262.211 167.067 262.296 167.264 262.296 167.52C262.296 167.787 262.211 167.995 262.04 168.144C261.869 168.283 261.629 168.352 261.32 168.352H256.568V171.456H261C261.309 171.456 261.549 171.525 261.72 171.664C261.891 171.803 261.976 172.005 261.976 172.272C261.976 172.528 261.891 172.725 261.72 172.864C261.549 173.003 261.309 173.072 261 173.072H256.568V176.368H261.32C261.629 176.368 261.869 176.443 262.04 176.592C262.211 176.731 262.296 176.933 262.296 177.2C262.296 177.456 262.211 177.653 262.04 177.792C261.869 177.931 261.629 178 261.32 178H255.544ZM264.95 178C264.64 178 264.4 177.915 264.23 177.744C264.059 177.573 263.974 177.339 263.974 177.04V167.664C263.974 167.355 264.064 167.109 264.246 166.928C264.438 166.736 264.688 166.64 264.998 166.64C265.318 166.64 265.568 166.736 265.75 166.928C265.942 167.109 266.038 167.355 266.038 167.664V176.304H270.534C271.174 176.304 271.494 176.587 271.494 177.152C271.494 177.717 271.174 178 270.534 178H264.95ZM277.263 178.144C276.165 178.144 275.21 177.909 274.399 177.44C273.599 176.971 272.981 176.299 272.543 175.424C272.106 174.549 271.887 173.525 271.887 172.352C271.887 171.179 272.101 170.16 272.527 169.296C272.965 168.421 273.589 167.749 274.399 167.28C275.21 166.811 276.165 166.576 277.263 166.576C278.362 166.576 279.311 166.811 280.111 167.28C280.922 167.749 281.541 168.421 281.967 169.296C282.405 170.16 282.623 171.179 282.623 172.352C282.623 173.525 282.405 174.549 281.967 175.424C281.53 176.299 280.906 176.971 280.095 177.44C279.295 177.909 278.351 178.144 277.263 178.144ZM277.263 176.496C278.298 176.496 279.103 176.139 279.679 175.424C280.266 174.709 280.559 173.685 280.559 172.352C280.559 171.019 280.266 170 279.679 169.296C279.103 168.581 278.298 168.224 277.263 168.224C276.218 168.224 275.402 168.581 274.815 169.296C274.239 170 273.951 171.019 273.951 172.352C273.951 173.685 274.239 174.709 274.815 175.424C275.402 176.139 276.218 176.496 277.263 176.496ZM285.732 178.096C285.423 178.096 285.172 178.005 284.98 177.824C284.799 177.632 284.708 177.376 284.708 177.056V167.696C284.708 167.387 284.794 167.147 284.964 166.976C285.146 166.805 285.391 166.72 285.7 166.72H289.636C290.842 166.72 291.78 167.024 292.452 167.632C293.124 168.229 293.46 169.072 293.46 170.16C293.46 171.248 293.124 172.096 292.452 172.704C291.78 173.312 290.842 173.616 289.636 173.616H286.772V177.056C286.772 177.376 286.676 177.632 286.484 177.824C286.303 178.005 286.052 178.096 285.732 178.096ZM289.38 172.032C290.799 172.032 291.508 171.413 291.508 170.176C291.508 168.939 290.799 168.32 289.38 168.32H286.772V172.032H289.38ZM305.287 166.64C305.585 166.64 305.825 166.736 306.007 166.928C306.188 167.109 306.279 167.355 306.279 167.664V177.136C306.279 177.435 306.193 177.669 306.023 177.84C305.852 178.011 305.628 178.096 305.351 178.096C305.073 178.096 304.855 178.011 304.695 177.84C304.535 177.669 304.455 177.435 304.455 177.136V170.544L301.735 175.696C301.607 175.931 301.468 176.107 301.319 176.224C301.169 176.331 300.993 176.384 300.791 176.384C300.588 176.384 300.412 176.331 300.263 176.224C300.113 176.117 299.975 175.941 299.847 175.696L297.111 170.624V177.136C297.111 177.424 297.025 177.659 296.855 177.84C296.695 178.011 296.476 178.096 296.199 178.096C295.921 178.096 295.703 178.011 295.543 177.84C295.383 177.669 295.303 177.435 295.303 177.136V167.664C295.303 167.355 295.388 167.109 295.559 166.928C295.74 166.736 295.98 166.64 296.279 166.64C296.695 166.64 297.02 166.869 297.255 167.328L300.807 174.096L304.343 167.328C304.577 166.869 304.892 166.64 305.287 166.64ZM309.716 178C309.406 178 309.161 177.915 308.98 177.744C308.809 177.573 308.724 177.333 308.724 177.024V167.696C308.724 167.387 308.809 167.147 308.98 166.976C309.161 166.805 309.406 166.72 309.716 166.72H315.492C315.801 166.72 316.041 166.789 316.212 166.928C316.382 167.067 316.468 167.264 316.468 167.52C316.468 167.787 316.382 167.995 316.212 168.144C316.041 168.283 315.801 168.352 315.492 168.352H310.74V171.456H315.172C315.481 171.456 315.721 171.525 315.892 171.664C316.062 171.803 316.148 172.005 316.148 172.272C316.148 172.528 316.062 172.725 315.892 172.864C315.721 173.003 315.481 173.072 315.172 173.072H310.74V176.368H315.492C315.801 176.368 316.041 176.443 316.212 176.592C316.382 176.731 316.468 176.933 316.468 177.2C316.468 177.456 316.382 177.653 316.212 177.792C316.041 177.931 315.801 178 315.492 178H309.716ZM326.69 166.64C326.988 166.64 327.223 166.736 327.394 166.928C327.575 167.109 327.666 167.355 327.666 167.664V177.056C327.666 177.365 327.575 177.616 327.394 177.808C327.212 178 326.978 178.096 326.69 178.096C326.348 178.096 326.087 177.973 325.906 177.728L320.066 170.128V177.056C320.066 177.365 319.98 177.616 319.81 177.808C319.639 178 319.404 178.096 319.106 178.096C318.807 178.096 318.572 178 318.402 177.808C318.231 177.616 318.146 177.365 318.146 177.056V167.664C318.146 167.355 318.236 167.109 318.418 166.928C318.599 166.736 318.839 166.64 319.138 166.64C319.468 166.64 319.724 166.763 319.906 167.008L325.73 174.576V167.664C325.73 167.355 325.815 167.109 325.986 166.928C326.167 166.736 326.402 166.64 326.69 166.64ZM333.795 178.08C333.475 178.08 333.219 177.989 333.027 177.808C332.845 177.616 332.755 177.365 332.755 177.056V168.416H329.843C329.203 168.416 328.883 168.133 328.883 167.568C328.883 167.003 329.203 166.72 329.843 166.72H337.731C338.371 166.72 338.691 167.003 338.691 167.568C338.691 168.133 338.371 168.416 337.731 168.416H334.819V177.056C334.819 177.365 334.723 177.616 334.531 177.808C334.349 177.989 334.104 178.08 333.795 178.08ZM349.279 178.144C348.18 178.144 347.226 177.909 346.415 177.44C345.615 176.971 344.996 176.299 344.559 175.424C344.122 174.549 343.903 173.525 343.903 172.352C343.903 171.179 344.116 170.16 344.543 169.296C344.98 168.421 345.604 167.749 346.415 167.28C347.226 166.811 348.18 166.576 349.279 166.576C350.378 166.576 351.327 166.811 352.127 167.28C352.938 167.749 353.556 168.421 353.983 169.296C354.42 170.16 354.639 171.179 354.639 172.352C354.639 173.525 354.42 174.549 353.983 175.424C353.546 176.299 352.922 176.971 352.111 177.44C351.311 177.909 350.367 178.144 349.279 178.144ZM349.279 176.496C350.314 176.496 351.119 176.139 351.695 175.424C352.282 174.709 352.575 173.685 352.575 172.352C352.575 171.019 352.282 170 351.695 169.296C351.119 168.581 350.314 168.224 349.279 168.224C348.234 168.224 347.418 168.581 346.831 169.296C346.255 170 345.967 171.019 345.967 172.352C345.967 173.685 346.255 174.709 346.831 175.424C347.418 176.139 348.234 176.496 349.279 176.496ZM357.748 178.096C357.438 178.096 357.188 178 356.996 177.808C356.814 177.616 356.724 177.365 356.724 177.056V167.696C356.724 167.387 356.809 167.147 356.98 166.976C357.161 166.805 357.406 166.72 357.716 166.72H363.332C363.982 166.72 364.308 166.997 364.308 167.552C364.308 168.096 363.982 168.368 363.332 168.368H358.756V171.44H363.012C363.662 171.44 363.988 171.717 363.988 172.272C363.988 172.816 363.662 173.088 363.012 173.088H358.756V177.056C358.756 177.365 358.665 177.616 358.484 177.808C358.302 178 358.057 178.096 357.748 178.096ZM231.484 196.528C231.655 196.731 231.74 196.933 231.74 197.136C231.74 197.392 231.639 197.616 231.436 197.808C231.244 198 231.02 198.096 230.764 198.096C230.497 198.096 230.263 197.979 230.06 197.744L226.812 193.712L223.548 197.744C223.356 197.968 223.127 198.08 222.86 198.08C222.604 198.08 222.375 197.989 222.172 197.808C221.98 197.616 221.884 197.392 221.884 197.136C221.884 196.923 221.964 196.72 222.124 196.528L225.612 192.272L222.268 188.192C222.108 188.021 222.028 187.819 222.028 187.584C222.028 187.328 222.124 187.109 222.316 186.928C222.508 186.736 222.732 186.64 222.988 186.64C223.255 186.64 223.489 186.757 223.692 186.992L226.812 190.848L229.932 186.992C230.124 186.757 230.353 186.64 230.62 186.64C230.876 186.64 231.1 186.736 231.292 186.928C231.495 187.109 231.596 187.328 231.596 187.584C231.596 187.819 231.516 188.021 231.356 188.192L228.012 192.272L231.484 196.528ZM234.317 198C234.008 198 233.768 197.915 233.597 197.744C233.426 197.573 233.341 197.339 233.341 197.04V187.664C233.341 187.355 233.432 187.109 233.613 186.928C233.805 186.736 234.056 186.64 234.365 186.64C234.685 186.64 234.936 186.736 235.117 186.928C235.309 187.109 235.405 187.355 235.405 187.664V196.304H239.901C240.541 196.304 240.861 196.587 240.861 197.152C240.861 197.717 240.541 198 239.901 198H234.317ZM243.208 198C242.899 198 242.653 197.915 242.472 197.744C242.301 197.573 242.216 197.333 242.216 197.024V187.696C242.216 187.387 242.301 187.147 242.472 186.976C242.653 186.805 242.899 186.72 243.208 186.72H246.376C248.221 186.72 249.651 187.216 250.664 188.208C251.688 189.189 252.2 190.571 252.2 192.352C252.2 194.144 251.688 195.536 250.664 196.528C249.651 197.509 248.221 198 246.376 198H243.208ZM246.248 196.32C248.84 196.32 250.136 194.997 250.136 192.352C250.136 189.717 248.84 188.4 246.248 188.4H244.28V196.32H246.248ZM272.766 187.264C272.841 187.051 272.958 186.891 273.118 186.784C273.289 186.677 273.476 186.624 273.678 186.624C273.934 186.624 274.153 186.704 274.334 186.864C274.526 187.024 274.622 187.237 274.622 187.504C274.622 187.6 274.596 187.739 274.542 187.92L271.102 197.44C271.017 197.653 270.873 197.819 270.67 197.936C270.478 198.053 270.265 198.112 270.03 198.112C269.796 198.112 269.577 198.053 269.374 197.936C269.172 197.819 269.033 197.653 268.958 197.44L266.302 189.904L263.598 197.44C263.513 197.653 263.369 197.819 263.166 197.936C262.974 198.053 262.761 198.112 262.526 198.112C262.292 198.112 262.073 198.053 261.87 197.936C261.678 197.819 261.545 197.653 261.47 197.44L258.03 187.92C257.977 187.76 257.95 187.621 257.95 187.504C257.95 187.237 258.046 187.024 258.238 186.864C258.441 186.704 258.676 186.624 258.942 186.624C259.156 186.624 259.348 186.677 259.518 186.784C259.689 186.891 259.812 187.051 259.886 187.264L262.606 195.088L265.406 187.312C265.481 187.099 265.604 186.933 265.774 186.816C265.945 186.688 266.132 186.624 266.334 186.624C266.537 186.624 266.724 186.688 266.894 186.816C267.076 186.933 267.204 187.104 267.278 187.328L269.998 195.184L272.766 187.264ZM285.204 186.64C285.513 186.64 285.759 186.736 285.94 186.928C286.121 187.109 286.212 187.355 286.212 187.664V197.056C286.212 197.365 286.116 197.616 285.924 197.808C285.743 198 285.503 198.096 285.204 198.096C284.895 198.096 284.649 198 284.468 197.808C284.287 197.616 284.196 197.365 284.196 197.056V193.104H278.42V197.056C278.42 197.365 278.324 197.616 278.132 197.808C277.951 198 277.705 198.096 277.396 198.096C277.097 198.096 276.852 198 276.66 197.808C276.479 197.616 276.388 197.365 276.388 197.056V187.664C276.388 187.355 276.479 187.109 276.66 186.928C276.841 186.736 277.087 186.64 277.396 186.64C277.705 186.64 277.951 186.736 278.132 186.928C278.324 187.109 278.42 187.355 278.42 187.664V191.44H284.196V187.664C284.196 187.355 284.287 187.109 284.468 186.928C284.649 186.736 284.895 186.64 285.204 186.64ZM289.662 198.096C289.353 198.096 289.102 198 288.91 197.808C288.729 197.616 288.638 197.365 288.638 197.056V187.664C288.638 187.355 288.729 187.109 288.91 186.928C289.102 186.736 289.353 186.64 289.662 186.64C289.982 186.64 290.233 186.736 290.414 186.928C290.606 187.109 290.702 187.355 290.702 187.664V197.056C290.702 197.365 290.606 197.616 290.414 197.808C290.233 198 289.982 198.096 289.662 198.096ZM296.834 198.08C296.514 198.08 296.258 197.989 296.066 197.808C295.885 197.616 295.794 197.365 295.794 197.056V188.416H292.882C292.242 188.416 291.922 188.133 291.922 187.568C291.922 187.003 292.242 186.72 292.882 186.72H300.77C301.41 186.72 301.73 187.003 301.73 187.568C301.73 188.133 301.41 188.416 300.77 188.416H297.858V197.056C297.858 197.365 297.762 197.616 297.57 197.808C297.389 197.989 297.143 198.08 296.834 198.08ZM303.942 198C303.633 198 303.388 197.915 303.206 197.744C303.036 197.573 302.95 197.333 302.95 197.024V187.696C302.95 187.387 303.036 187.147 303.206 186.976C303.388 186.805 303.633 186.72 303.942 186.72H309.718C310.028 186.72 310.268 186.789 310.438 186.928C310.609 187.067 310.694 187.264 310.694 187.52C310.694 187.787 310.609 187.995 310.438 188.144C310.268 188.283 310.028 188.352 309.718 188.352H304.966V191.456H309.398C309.708 191.456 309.948 191.525 310.118 191.664C310.289 191.803 310.374 192.005 310.374 192.272C310.374 192.528 310.289 192.725 310.118 192.864C309.948 193.003 309.708 193.072 309.398 193.072H304.966V196.368H309.718C310.028 196.368 310.268 196.443 310.438 196.592C310.609 196.731 310.694 196.933 310.694 197.2C310.694 197.456 310.609 197.653 310.438 197.792C310.268 197.931 310.028 198 309.718 198H303.942ZM313.396 198.096C313.087 198.096 312.836 198.005 312.644 197.824C312.463 197.632 312.372 197.376 312.372 197.056V187.696C312.372 187.387 312.458 187.147 312.628 186.976C312.81 186.805 313.055 186.72 313.364 186.72H317.3C318.506 186.72 319.444 187.024 320.116 187.632C320.788 188.229 321.124 189.072 321.124 190.16C321.124 191.248 320.788 192.096 320.116 192.704C319.444 193.312 318.506 193.616 317.3 193.616H314.436V197.056C314.436 197.376 314.34 197.632 314.148 197.824C313.967 198.005 313.716 198.096 313.396 198.096ZM317.044 192.032C318.463 192.032 319.172 191.413 319.172 190.176C319.172 188.939 318.463 188.32 317.044 188.32H314.436V192.032H317.044ZM331.956 196.768C332.02 196.907 332.052 197.045 332.052 197.184C332.052 197.429 331.95 197.637 331.748 197.808C331.556 197.979 331.332 198.064 331.076 198.064C330.905 198.064 330.745 198.021 330.596 197.936C330.446 197.84 330.329 197.696 330.244 197.504L329.284 195.36H323.652L322.692 197.504C322.606 197.696 322.489 197.84 322.34 197.936C322.19 198.021 322.025 198.064 321.844 198.064C321.598 198.064 321.374 197.979 321.172 197.808C320.969 197.637 320.868 197.429 320.868 197.184C320.868 197.045 320.9 196.907 320.964 196.768L325.38 187.28C325.476 187.067 325.62 186.907 325.812 186.8C326.014 186.683 326.228 186.624 326.452 186.624C326.676 186.624 326.884 186.683 327.076 186.8C327.278 186.907 327.428 187.067 327.524 187.28L331.956 196.768ZM324.356 193.76H328.58L326.468 189.008L324.356 193.76ZM334.631 198.096C334.321 198.096 334.071 198.005 333.879 197.824C333.697 197.632 333.607 197.376 333.607 197.056V187.696C333.607 187.387 333.692 187.147 333.863 186.976C334.044 186.805 334.289 186.72 334.599 186.72H338.535C339.74 186.72 340.679 187.024 341.351 187.632C342.023 188.229 342.359 189.072 342.359 190.16C342.359 191.248 342.023 192.096 341.351 192.704C340.679 193.312 339.74 193.616 338.535 193.616H335.671V197.056C335.671 197.376 335.575 197.632 335.383 197.824C335.201 198.005 334.951 198.096 334.631 198.096ZM338.279 192.032C339.697 192.032 340.407 191.413 340.407 190.176C340.407 188.939 339.697 188.32 338.279 188.32H335.671V192.032H338.279ZM345.161 198C344.852 198 344.606 197.915 344.425 197.744C344.254 197.573 344.169 197.333 344.169 197.024V187.696C344.169 187.387 344.254 187.147 344.425 186.976C344.606 186.805 344.852 186.72 345.161 186.72H350.937C351.246 186.72 351.486 186.789 351.657 186.928C351.828 187.067 351.913 187.264 351.913 187.52C351.913 187.787 351.828 187.995 351.657 188.144C351.486 188.283 351.246 188.352 350.937 188.352H346.185V191.456H350.617C350.926 191.456 351.166 191.525 351.337 191.664C351.508 191.803 351.593 192.005 351.593 192.272C351.593 192.528 351.508 192.725 351.337 192.864C351.166 193.003 350.926 193.072 350.617 193.072H346.185V196.368H350.937C351.246 196.368 351.486 196.443 351.657 196.592C351.828 196.731 351.913 196.933 351.913 197.2C351.913 197.456 351.828 197.653 351.657 197.792C351.486 197.931 351.246 198 350.937 198H345.161ZM362.615 196.704C362.743 196.896 362.807 197.083 362.807 197.264C362.807 197.509 362.706 197.712 362.503 197.872C362.311 198.032 362.082 198.112 361.815 198.112C361.644 198.112 361.479 198.075 361.319 198C361.17 197.915 361.042 197.792 360.935 197.632L358.807 194.4C358.594 194.059 358.364 193.819 358.119 193.68C357.884 193.541 357.575 193.472 357.191 193.472H355.623V197.056C355.623 197.376 355.532 197.632 355.351 197.824C355.17 198.005 354.924 198.096 354.615 198.096C354.306 198.096 354.055 198.005 353.863 197.824C353.682 197.632 353.591 197.376 353.591 197.056V187.696C353.591 187.387 353.676 187.147 353.847 186.976C354.028 186.805 354.274 186.72 354.583 186.72H358.583C359.863 186.72 360.834 187.008 361.495 187.584C362.167 188.149 362.503 188.971 362.503 190.048C362.503 190.923 362.252 191.643 361.751 192.208C361.26 192.763 360.562 193.12 359.655 193.28C359.964 193.355 360.236 193.488 360.471 193.68C360.706 193.872 360.935 194.139 361.159 194.48L362.615 196.704ZM358.295 191.888C359.074 191.888 359.644 191.744 360.007 191.456C360.37 191.157 360.551 190.704 360.551 190.096C360.551 189.477 360.37 189.029 360.007 188.752C359.644 188.464 359.074 188.32 358.295 188.32H355.607V191.888H358.295Z" fill="white"/>
<path d="M75.2649 104.336C75.9049 104.336 76.2249 104.608 76.2249 105.152C76.2249 105.717 75.9049 106 75.2649 106H69.1849C68.9075 106 68.6889 105.92 68.5289 105.76C68.3689 105.589 68.2889 105.381 68.2889 105.136C68.2889 104.816 68.4115 104.528 68.6569 104.272L72.3049 100.352C72.7529 99.8613 73.0782 99.4133 73.2809 99.008C73.4942 98.592 73.6009 98.1813 73.6009 97.776C73.6009 97.2747 73.4569 96.8907 73.1689 96.624C72.8809 96.3573 72.4702 96.224 71.9369 96.224C71.4995 96.224 71.0729 96.3093 70.6569 96.48C70.2515 96.64 69.8409 96.864 69.4249 97.152C69.3182 97.2267 69.2115 97.2907 69.1049 97.344C68.9982 97.3867 68.8915 97.408 68.7849 97.408C68.6035 97.408 68.4435 97.3227 68.3049 97.152C68.1769 96.9813 68.1129 96.7787 68.1129 96.544C68.1129 96.384 68.1395 96.2453 68.1929 96.128C68.2569 96.0107 68.3529 95.8987 68.4809 95.792C68.9502 95.4187 69.4995 95.1253 70.1289 94.912C70.7582 94.688 71.3875 94.576 72.0169 94.576C73.1155 94.576 73.9902 94.8533 74.6409 95.408C75.3022 95.9627 75.6329 96.7093 75.6329 97.648C75.6329 98.2987 75.4942 98.912 75.2169 99.488C74.9395 100.053 74.4702 100.688 73.8089 101.392L71.0409 104.336H75.2649ZM81.7063 106.144C80.3729 106.144 79.3543 105.653 78.6503 104.672C77.9463 103.68 77.5943 102.24 77.5943 100.352C77.5943 98.4747 77.9463 97.0453 78.6503 96.064C79.3543 95.072 80.3729 94.576 81.7063 94.576C83.0396 94.576 84.0583 95.072 84.7623 96.064C85.4663 97.0453 85.8183 98.4747 85.8183 100.352C85.8183 102.229 85.4663 103.664 84.7623 104.656C84.0583 105.648 83.0396 106.144 81.7063 106.144ZM81.7063 104.528C82.4316 104.528 82.9596 104.197 83.2903 103.536C83.6209 102.864 83.7863 101.803 83.7863 100.352C83.7863 98.8907 83.6209 97.8347 83.2903 97.184C82.9596 96.5227 82.4316 96.192 81.7063 96.192C80.9809 96.192 80.4529 96.5227 80.1223 97.184C79.7916 97.8453 79.6263 98.9013 79.6263 100.352C79.6263 101.803 79.7916 102.864 80.1223 103.536C80.4529 104.197 80.9809 104.528 81.7063 104.528ZM94.468 104.336C95.108 104.336 95.428 104.608 95.428 105.152C95.428 105.717 95.108 106 94.468 106H88.388C88.1107 106 87.892 105.92 87.732 105.76C87.572 105.589 87.492 105.381 87.492 105.136C87.492 104.816 87.6147 104.528 87.86 104.272L91.508 100.352C91.956 99.8613 92.2813 99.4133 92.484 99.008C92.6973 98.592 92.804 98.1813 92.804 97.776C92.804 97.2747 92.66 96.8907 92.372 96.624C92.084 96.3573 91.6733 96.224 91.14 96.224C90.7027 96.224 90.276 96.3093 89.86 96.48C89.4547 96.64 89.044 96.864 88.628 97.152C88.5213 97.2267 88.4147 97.2907 88.308 97.344C88.2013 97.3867 88.0947 97.408 87.988 97.408C87.8067 97.408 87.6467 97.3227 87.508 97.152C87.38 96.9813 87.316 96.7787 87.316 96.544C87.316 96.384 87.3427 96.2453 87.396 96.128C87.46 96.0107 87.556 95.8987 87.684 95.792C88.1533 95.4187 88.7027 95.1253 89.332 94.912C89.9613 94.688 90.5907 94.576 91.22 94.576C92.3187 94.576 93.1933 94.8533 93.844 95.408C94.5053 95.9627 94.836 96.7093 94.836 97.648C94.836 98.2987 94.6973 98.912 94.42 99.488C94.1427 100.053 93.6733 100.688 93.012 101.392L90.244 104.336H94.468ZM104.125 104.336C104.765 104.336 105.085 104.608 105.085 105.152C105.085 105.717 104.765 106 104.125 106H98.7174C98.0667 106 97.7414 105.717 97.7414 105.152C97.7414 104.608 98.0667 104.336 98.7174 104.336H100.381V97.04L98.8454 97.984C98.696 98.0693 98.5627 98.112 98.4454 98.112C98.2214 98.112 98.0294 98.016 97.8694 97.824C97.72 97.632 97.6454 97.4187 97.6454 97.184C97.6454 96.8747 97.784 96.6347 98.0614 96.464L100.541 94.928C100.861 94.736 101.165 94.64 101.453 94.64C101.752 94.64 101.992 94.7307 102.173 94.912C102.355 95.0933 102.445 95.344 102.445 95.664V104.336H104.125Z" fill="#F1C12B"/>
<path d="M281.265 103.336C281.905 103.336 282.225 103.608 282.225 104.152C282.225 104.717 281.905 105 281.265 105H275.185C274.908 105 274.689 104.92 274.529 104.76C274.369 104.589 274.289 104.381 274.289 104.136C274.289 103.816 274.412 103.528 274.657 103.272L278.305 99.352C278.753 98.8613 279.078 98.4133 279.281 98.008C279.494 97.592 279.601 97.1813 279.601 96.776C279.601 96.2747 279.457 95.8907 279.169 95.624C278.881 95.3573 278.47 95.224 277.937 95.224C277.5 95.224 277.073 95.3093 276.657 95.48C276.252 95.64 275.841 95.864 275.425 96.152C275.318 96.2267 275.212 96.2907 275.105 96.344C274.998 96.3867 274.892 96.408 274.785 96.408C274.604 96.408 274.444 96.3227 274.305 96.152C274.177 95.9813 274.113 95.7787 274.113 95.544C274.113 95.384 274.14 95.2453 274.193 95.128C274.257 95.0107 274.353 94.8987 274.481 94.792C274.95 94.4187 275.5 94.1253 276.129 93.912C276.758 93.688 277.388 93.576 278.017 93.576C279.116 93.576 279.99 93.8533 280.641 94.408C281.302 94.9627 281.633 95.7093 281.633 96.648C281.633 97.2987 281.494 97.912 281.217 98.488C280.94 99.0533 280.47 99.688 279.809 100.392L277.041 103.336H281.265ZM287.706 105.144C286.373 105.144 285.354 104.653 284.65 103.672C283.946 102.68 283.594 101.24 283.594 99.352C283.594 97.4747 283.946 96.0453 284.65 95.064C285.354 94.072 286.373 93.576 287.706 93.576C289.04 93.576 290.058 94.072 290.762 95.064C291.466 96.0453 291.818 97.4747 291.818 99.352C291.818 101.229 291.466 102.664 290.762 103.656C290.058 104.648 289.04 105.144 287.706 105.144ZM287.706 103.528C288.432 103.528 288.96 103.197 289.29 102.536C289.621 101.864 289.786 100.803 289.786 99.352C289.786 97.8907 289.621 96.8347 289.29 96.184C288.96 95.5227 288.432 95.192 287.706 95.192C286.981 95.192 286.453 95.5227 286.122 96.184C285.792 96.8453 285.626 97.9013 285.626 99.352C285.626 100.803 285.792 101.864 286.122 102.536C286.453 103.197 286.981 103.528 287.706 103.528ZM300.468 103.336C301.108 103.336 301.428 103.608 301.428 104.152C301.428 104.717 301.108 105 300.468 105H294.388C294.111 105 293.892 104.92 293.732 104.76C293.572 104.589 293.492 104.381 293.492 104.136C293.492 103.816 293.615 103.528 293.86 103.272L297.508 99.352C297.956 98.8613 298.281 98.4133 298.484 98.008C298.697 97.592 298.804 97.1813 298.804 96.776C298.804 96.2747 298.66 95.8907 298.372 95.624C298.084 95.3573 297.673 95.224 297.14 95.224C296.703 95.224 296.276 95.3093 295.86 95.48C295.455 95.64 295.044 95.864 294.628 96.152C294.521 96.2267 294.415 96.2907 294.308 96.344C294.201 96.3867 294.095 96.408 293.988 96.408C293.807 96.408 293.647 96.3227 293.508 96.152C293.38 95.9813 293.316 95.7787 293.316 95.544C293.316 95.384 293.343 95.2453 293.396 95.128C293.46 95.0107 293.556 94.8987 293.684 94.792C294.153 94.4187 294.703 94.1253 295.332 93.912C295.961 93.688 296.591 93.576 297.22 93.576C298.319 93.576 299.193 93.8533 299.844 94.408C300.505 94.9627 300.836 95.7093 300.836 96.648C300.836 97.2987 300.697 97.912 300.42 98.488C300.143 99.0533 299.673 99.688 299.012 100.392L296.244 103.336H300.468ZM310.125 103.336C310.765 103.336 311.085 103.608 311.085 104.152C311.085 104.717 310.765 105 310.125 105H304.717C304.067 105 303.741 104.717 303.741 104.152C303.741 103.608 304.067 103.336 304.717 103.336H306.381V96.04L304.845 96.984C304.696 97.0693 304.563 97.112 304.445 97.112C304.221 97.112 304.029 97.016 303.869 96.824C303.72 96.632 303.645 96.4187 303.645 96.184C303.645 95.8747 303.784 95.6347 304.061 95.464L306.541 93.928C306.861 93.736 307.165 93.64 307.453 93.64C307.752 93.64 307.992 93.7307 308.173 93.912C308.355 94.0933 308.445 94.344 308.445 94.664V103.336H310.125Z" fill="#F1C12B"/>
<path d="M79.5054 76.64C79.8041 76.64 80.0441 76.736 80.2254 76.928C80.4068 77.1093 80.4974 77.3547 80.4974 77.664V87.136C80.4974 87.4347 80.4121 87.6693 80.2414 87.84C80.0708 88.0107 79.8468 88.096 79.5694 88.096C79.2921 88.096 79.0734 88.0107 78.9134 87.84C78.7534 87.6693 78.6734 87.4347 78.6734 87.136V80.544L75.9534 85.696C75.8254 85.9307 75.6868 86.1067 75.5374 86.224C75.3881 86.3307 75.2121 86.384 75.0094 86.384C74.8068 86.384 74.6308 86.3307 74.4814 86.224C74.3321 86.1173 74.1934 85.9413 74.0654 85.696L71.3294 80.624V87.136C71.3294 87.424 71.2441 87.6587 71.0734 87.84C70.9134 88.0107 70.6948 88.096 70.4174 88.096C70.1401 88.096 69.9214 88.0107 69.7614 87.84C69.6014 87.6693 69.5214 87.4347 69.5214 87.136V77.664C69.5214 77.3547 69.6068 77.1093 69.7774 76.928C69.9588 76.736 70.1988 76.64 70.4974 76.64C70.9134 76.64 71.2388 76.8693 71.4734 77.328L75.0254 84.096L78.5614 77.328C78.7961 76.8693 79.1108 76.64 79.5054 76.64ZM93.1666 86.768C93.2306 86.9067 93.2626 87.0453 93.2626 87.184C93.2626 87.4293 93.1612 87.6373 92.9586 87.808C92.7666 87.9787 92.5426 88.064 92.2866 88.064C92.1159 88.064 91.9559 88.0213 91.8066 87.936C91.6572 87.84 91.5399 87.696 91.4546 87.504L90.4946 85.36H84.8626L83.9026 87.504C83.8172 87.696 83.6999 87.84 83.5506 87.936C83.4012 88.0213 83.2359 88.064 83.0546 88.064C82.8092 88.064 82.5852 87.9787 82.3826 87.808C82.1799 87.6373 82.0786 87.4293 82.0786 87.184C82.0786 87.0453 82.1106 86.9067 82.1746 86.768L86.5906 77.28C86.6866 77.0667 86.8306 76.9067 87.0226 76.8C87.2252 76.6827 87.4386 76.624 87.6626 76.624C87.8866 76.624 88.0946 76.6827 88.2866 76.8C88.4892 76.9067 88.6386 77.0667 88.7346 77.28L93.1666 86.768ZM85.5666 83.76H89.7906L87.6786 79.008L85.5666 83.76ZM103.842 86.704C103.97 86.896 104.034 87.0827 104.034 87.264C104.034 87.5093 103.932 87.712 103.73 87.872C103.538 88.032 103.308 88.112 103.042 88.112C102.871 88.112 102.706 88.0747 102.546 88C102.396 87.9147 102.268 87.792 102.162 87.632L100.034 84.4C99.8202 84.0587 99.5909 83.8187 99.3456 83.68C99.1109 83.5413 98.8016 83.472 98.4176 83.472H96.8496V87.056C96.8496 87.376 96.7589 87.632 96.5776 87.824C96.3962 88.0053 96.1509 88.096 95.8416 88.096C95.5322 88.096 95.2816 88.0053 95.0896 87.824C94.9082 87.632 94.8176 87.376 94.8176 87.056V77.696C94.8176 77.3867 94.9029 77.1467 95.0736 76.976C95.2549 76.8053 95.5002 76.72 95.8096 76.72H99.8096C101.09 76.72 102.06 77.008 102.722 77.584C103.394 78.1493 103.73 78.9707 103.73 80.048C103.73 80.9227 103.479 81.6427 102.978 82.208C102.487 82.7627 101.788 83.12 100.882 83.28C101.191 83.3547 101.463 83.488 101.698 83.68C101.932 83.872 102.162 84.1387 102.386 84.48L103.842 86.704ZM99.5216 81.888C100.3 81.888 100.871 81.744 101.234 81.456C101.596 81.1573 101.778 80.704 101.778 80.096C101.778 79.4773 101.596 79.0293 101.234 78.752C100.871 78.464 100.3 78.32 99.5216 78.32H96.8336V81.888H99.5216Z" fill="#F1C12B"/>
<path d="M287.159 85.768C287.223 85.9067 287.255 86.0453 287.255 86.184C287.255 86.4293 287.153 86.6373 286.951 86.808C286.759 86.9787 286.535 87.064 286.279 87.064C286.108 87.064 285.948 87.0213 285.799 86.936C285.649 86.84 285.532 86.696 285.447 86.504L284.487 84.36H278.855L277.895 86.504C277.809 86.696 277.692 86.84 277.543 86.936C277.393 87.0213 277.228 87.064 277.047 87.064C276.801 87.064 276.577 86.9787 276.375 86.808C276.172 86.6373 276.071 86.4293 276.071 86.184C276.071 86.0453 276.103 85.9067 276.167 85.768L280.583 76.28C280.679 76.0667 280.823 75.9067 281.015 75.8C281.217 75.6827 281.431 75.624 281.655 75.624C281.879 75.624 282.087 75.6827 282.279 75.8C282.481 75.9067 282.631 76.0667 282.727 76.28L287.159 85.768ZM279.559 82.76H283.783L281.671 78.008L279.559 82.76ZM289.834 87.096C289.524 87.096 289.274 87.0053 289.082 86.824C288.9 86.632 288.81 86.376 288.81 86.056V76.696C288.81 76.3867 288.895 76.1467 289.066 75.976C289.247 75.8053 289.492 75.72 289.802 75.72H293.738C294.943 75.72 295.882 76.024 296.554 76.632C297.226 77.2293 297.562 78.072 297.562 79.16C297.562 80.248 297.226 81.096 296.554 81.704C295.882 82.312 294.943 82.616 293.738 82.616H290.874V86.056C290.874 86.376 290.778 86.632 290.586 86.824C290.404 87.0053 290.154 87.096 289.834 87.096ZM293.482 81.032C294.9 81.032 295.61 80.4133 295.61 79.176C295.61 77.9387 294.9 77.32 293.482 77.32H290.874V81.032H293.482ZM308.396 85.704C308.524 85.896 308.588 86.0827 308.588 86.264C308.588 86.5093 308.487 86.712 308.284 86.872C308.092 87.032 307.863 87.112 307.596 87.112C307.426 87.112 307.26 87.0747 307.1 87C306.951 86.9147 306.823 86.792 306.716 86.632L304.588 83.4C304.375 83.0587 304.146 82.8187 303.9 82.68C303.666 82.5413 303.356 82.472 302.972 82.472H301.404V86.056C301.404 86.376 301.314 86.632 301.132 86.824C300.951 87.0053 300.706 87.096 300.396 87.096C300.087 87.096 299.836 87.0053 299.644 86.824C299.463 86.632 299.372 86.376 299.372 86.056V76.696C299.372 76.3867 299.458 76.1467 299.628 75.976C299.81 75.8053 300.055 75.72 300.364 75.72H304.364C305.644 75.72 306.615 76.008 307.276 76.584C307.948 77.1493 308.284 77.9707 308.284 79.048C308.284 79.9227 308.034 80.6427 307.532 81.208C307.042 81.7627 306.343 82.12 305.436 82.28C305.746 82.3547 306.018 82.488 306.252 82.68C306.487 82.872 306.716 83.1387 306.94 83.48L308.396 85.704ZM304.076 80.888C304.855 80.888 305.426 80.744 305.788 80.456C306.151 80.1573 306.332 79.704 306.332 79.096C306.332 78.4773 306.151 78.0293 305.788 77.752C305.426 77.464 304.855 77.32 304.076 77.32H301.388V80.888H304.076Z" fill="#F1C12B"/>
<g filter="url(#filter0_d)">
<path d="M44.0698 65.8799L44.0789 65.8746L44.0879 65.8693L83.9355 42.1825C84.7154 41.7355 85.5997 41.5 86.5 41.5C87.4003 41.5 88.2846 41.7355 89.0645 42.1825L128.912 65.8693L128.921 65.8746L128.93 65.8799C129.712 66.33 130.361 66.9772 130.812 67.7559C131.263 68.5345 131.5 69.4174 131.5 70.3159V115.661C131.5 116.559 131.263 117.442 130.812 118.221C130.361 119 129.712 119.647 128.93 120.097L128.921 120.102L128.912 120.107L89.0643 143.794C88.2844 144.241 87.4002 144.477 86.5 144.477C85.5998 144.477 84.7156 144.241 83.9357 143.794L44.0879 120.107L44.0789 120.102L44.0698 120.097C43.2878 119.647 42.639 119 42.1881 118.221C41.7372 117.442 41.5 116.559 41.5 115.661V70.3159C41.5 70.3159 41.5 70.3159 41.5 70.3159C41.5 69.4174 41.7372 68.5345 42.1881 67.7559C42.639 66.9772 43.2878 66.33 44.0698 65.8799Z" stroke="#F1C12B" stroke-width="3"/>
</g>
<g filter="url(#filter1_d)">
<path d="M250.07 65.8799L250.079 65.8746L250.088 65.8693L289.935 42.1825C290.715 41.7355 291.6 41.5 292.5 41.5C293.4 41.5 294.285 41.7355 295.065 42.1825L334.912 65.8693L334.921 65.8746L334.93 65.8799C335.712 66.33 336.361 66.9772 336.812 67.7559C337.263 68.5345 337.5 69.4174 337.5 70.3159V115.661C337.5 116.559 337.263 117.442 336.812 118.221C336.361 119 335.712 119.647 334.93 120.097L334.921 120.102L334.912 120.107L295.064 143.794C294.284 144.241 293.4 144.477 292.5 144.477C291.6 144.477 290.716 144.241 289.936 143.794L250.088 120.107L250.079 120.102L250.07 120.097C249.288 119.647 248.639 119 248.188 118.221C247.737 117.442 247.5 116.559 247.5 115.661V70.3159C247.5 70.3159 247.5 70.3159 247.5 70.3159C247.5 69.4174 247.737 68.5345 248.188 67.7559C248.639 66.9772 249.288 66.33 250.07 65.8799Z" stroke="#F1C12B" stroke-width="3"/>
</g>
<path d="M147.07 65.8799L147.079 65.8746L147.088 65.8693L186.935 42.1825C187.715 41.7355 188.6 41.5 189.5 41.5C190.4 41.5 191.285 41.7355 192.065 42.1825L231.912 65.8693L231.921 65.8746L231.93 65.8799C232.712 66.33 233.361 66.9772 233.812 67.7559C234.263 68.5345 234.5 69.4174 234.5 70.3159V115.661C234.5 116.559 234.263 117.442 233.812 118.221C233.361 119 232.712 119.647 231.93 120.097L231.921 120.102L231.912 120.107L192.064 143.794C191.284 144.241 190.4 144.477 189.5 144.477C188.6 144.477 187.716 144.241 186.936 143.794L147.088 120.107L147.079 120.102L147.07 120.097C146.288 119.647 145.639 119 145.188 118.221C144.737 117.442 144.5 116.559 144.5 115.661V70.3159C144.5 70.3159 144.5 70.3159 144.5 70.3159C144.5 69.4174 144.737 68.5345 145.188 67.7559C145.639 66.9772 146.288 66.33 147.07 65.8799Z" stroke="#212151" stroke-width="3"/>
<defs>
<filter id="filter0_d" x="0" y="0" width="173" height="185.977" filterUnits="userSpaceOnUse" color-interpolation-filters="sRGB">
<feFlood flood-opacity="0" result="BackgroundImageFix"/>
<feColorMatrix in="SourceAlpha" type="matrix" values="0 0 0 0 0 0 0 0 0 0 0 0 0 0 0 0 0 0 127 0"/>
<feOffset/>
<feGaussianBlur stdDeviation="20"/>
<feColorMatrix type="matrix" values="0 0 0 0 0.945098 0 0 0 0 0.756863 0 0 0 0 0.168627 0 0 0 1 0"/>
<feBlend mode="normal" in2="BackgroundImageFix" result="effect1_dropShadow"/>
<feBlend mode="normal" in="SourceGraphic" in2="effect1_dropShadow" result="shape"/>
</filter>
<filter id="filter1_d" x="206" y="0" width="173" height="185.977" filterUnits="userSpaceOnUse" color-interpolation-filters="sRGB">
<feFlood flood-opacity="0" result="BackgroundImageFix"/>
<feColorMatrix in="SourceAlpha" type="matrix" values="0 0 0 0 0 0 0 0 0 0 0 0 0 0 0 0 0 0 127 0"/>
<feOffset/>
<feGaussianBlur stdDeviation="20"/>
<feColorMatrix type="matrix" values="0 0 0 0 0.945098 0 0 0 0 0.756863 0 0 0 0 0.168627 0 0 0 1 0"/>
<feBlend mode="normal" in2="BackgroundImageFix" result="effect1_dropShadow"/>
<feBlend mode="normal" in="SourceGraphic" in2="effect1_dropShadow" result="shape"/>
</filter>
</defs>
</svg>
