<svg width="346" height="236" viewBox="0 0 346 236" fill="none" xmlns="http://www.w3.org/2000/svg">
<path d="M8.0383 171.112C7.71164 171.112 7.4783 171 7.3383 170.776C7.1983 170.552 7.20297 170.281 7.3523 169.964L11.0483 161.774C11.1696 161.503 11.3143 161.312 11.4823 161.2C11.6596 161.079 11.8603 161.018 12.0843 161.018C12.299 161.018 12.4903 161.079 12.6583 161.2C12.8356 161.312 12.985 161.503 13.1063 161.774L16.8163 169.964C16.9656 170.291 16.975 170.566 16.8443 170.79C16.7136 171.005 16.4896 171.112 16.1723 171.112C15.911 171.112 15.7056 171.051 15.5563 170.93C15.4163 170.799 15.2903 170.603 15.1783 170.342L14.4783 168.718H9.6623L8.9763 170.342C8.85497 170.613 8.72897 170.809 8.5983 170.93C8.46764 171.051 8.28097 171.112 8.0383 171.112ZM12.0563 163.076L10.2783 167.29H13.8623L12.0843 163.076H12.0563ZM22.7452 171.14C21.7185 171.14 20.8365 170.935 20.0992 170.524C19.3712 170.104 18.8112 169.516 18.4192 168.76C18.0272 167.995 17.8312 167.094 17.8312 166.058C17.8312 165.022 18.0272 164.126 18.4192 163.37C18.8112 162.614 19.3712 162.031 20.0992 161.62C20.8365 161.2 21.7185 160.99 22.7452 160.99C23.2585 160.99 23.7625 161.055 24.2572 161.186C24.7519 161.317 25.1859 161.503 25.5592 161.746C25.8019 161.905 25.9465 162.096 25.9932 162.32C26.0399 162.535 26.0119 162.735 25.9092 162.922C25.8065 163.099 25.6525 163.221 25.4472 163.286C25.2419 163.342 25.0132 163.286 24.7612 163.118C24.4719 162.931 24.1592 162.796 23.8232 162.712C23.4872 162.628 23.1465 162.586 22.8012 162.586C21.8025 162.586 21.0419 162.889 20.5192 163.496C19.9965 164.093 19.7352 164.947 19.7352 166.058C19.7352 167.169 19.9965 168.027 20.5192 168.634C21.0419 169.241 21.8025 169.544 22.8012 169.544C23.1559 169.544 23.5059 169.502 23.8512 169.418C24.1965 169.325 24.5232 169.185 24.8312 168.998C25.0832 168.839 25.3072 168.788 25.5032 168.844C25.6992 168.9 25.8439 169.017 25.9372 169.194C26.0399 169.362 26.0725 169.549 26.0352 169.754C25.9979 169.959 25.8719 170.141 25.6572 170.3C25.2839 170.571 24.8359 170.781 24.3132 170.93C23.7999 171.07 23.2772 171.14 22.7452 171.14ZM28.5648 171.112C27.9675 171.112 27.6688 170.804 27.6688 170.188V161.942C27.6688 161.326 27.9675 161.018 28.5648 161.018C29.1622 161.018 29.4608 161.326 29.4608 161.942V165.246H34.5428V161.942C34.5428 161.326 34.8415 161.018 35.4388 161.018C36.0362 161.018 36.3348 161.326 36.3348 161.942V170.188C36.3348 170.804 36.0362 171.112 35.4388 171.112C34.8415 171.112 34.5428 170.804 34.5428 170.188V166.744H29.4608V170.188C29.4608 170.804 29.1622 171.112 28.5648 171.112ZM39.3929 171.112C38.7956 171.112 38.4969 170.804 38.4969 170.188V161.942C38.4969 161.326 38.7956 161.018 39.3929 161.018C39.9903 161.018 40.2889 161.326 40.2889 161.942V170.188C40.2889 170.804 39.9903 171.112 39.3929 171.112ZM43.4001 171C42.7655 171 42.4481 170.683 42.4481 170.048V162.082C42.4481 161.447 42.7655 161.13 43.4001 161.13H48.3981C48.8835 161.13 49.1261 161.363 49.1261 161.83C49.1261 162.315 48.8835 162.558 48.3981 162.558H44.1701V165.274H48.0901C48.5755 165.274 48.8181 165.512 48.8181 165.988C48.8181 166.464 48.5755 166.702 48.0901 166.702H44.1701V169.572H48.3981C48.8835 169.572 49.1261 169.81 49.1261 170.286C49.1261 170.762 48.8835 171 48.3981 171H43.4001ZM54.6806 171.112C54.2046 171.112 53.864 170.879 53.6586 170.412L50.0046 162.208C49.8553 161.853 49.86 161.569 50.0186 161.354C50.1866 161.13 50.4293 161.018 50.7466 161.018C51.0173 161.018 51.218 161.079 51.3486 161.2C51.4886 161.312 51.6053 161.485 51.6986 161.718L54.7086 168.704L57.7186 161.704C57.8213 161.48 57.9426 161.312 58.0826 161.2C58.2226 161.079 58.4186 161.018 58.6706 161.018C58.9693 161.018 59.1933 161.13 59.3426 161.354C59.5013 161.578 59.5013 161.863 59.3426 162.208L55.6886 170.412C55.586 170.645 55.4553 170.823 55.2966 170.944C55.1473 171.056 54.942 171.112 54.6806 171.112ZM61.6931 171C61.0584 171 60.7411 170.683 60.7411 170.048V162.082C60.7411 161.447 61.0584 161.13 61.6931 161.13H66.6911C67.1764 161.13 67.4191 161.363 67.4191 161.83C67.4191 162.315 67.1764 162.558 66.6911 162.558H62.4631V165.274H66.3831C66.8684 165.274 67.1111 165.512 67.1111 165.988C67.1111 166.464 66.8684 166.702 66.3831 166.702H62.4631V169.572H66.6911C67.1764 169.572 67.4191 169.81 67.4191 170.286C67.4191 170.762 67.1764 171 66.6911 171H61.6931ZM76.1714 171.112C75.574 171.112 75.2754 170.804 75.2754 170.188V162.628H72.5454C72.032 162.628 71.7754 162.376 71.7754 161.872C71.7754 161.377 72.032 161.13 72.5454 161.13H79.7974C80.3107 161.13 80.5674 161.377 80.5674 161.872C80.5674 162.376 80.3107 162.628 79.7974 162.628H77.0674V170.188C77.0674 170.804 76.7687 171.112 76.1714 171.112ZM85.4131 171.14C84.4611 171.14 83.6258 170.93 82.9071 170.51C82.1978 170.09 81.6471 169.502 81.2551 168.746C80.8631 167.981 80.6671 167.085 80.6671 166.058C80.6671 165.022 80.8631 164.126 81.2551 163.37C81.6471 162.614 82.1978 162.031 82.9071 161.62C83.6165 161.2 84.4518 160.99 85.4131 160.99C86.3745 160.99 87.2098 161.2 87.9191 161.62C88.6285 162.031 89.1791 162.614 89.5711 163.37C89.9631 164.126 90.1591 165.017 90.1591 166.044C90.1591 167.08 89.9631 167.981 89.5711 168.746C89.1791 169.502 88.6285 170.09 87.9191 170.51C87.2098 170.93 86.3745 171.14 85.4131 171.14ZM85.4131 169.6C86.3185 169.6 87.0231 169.287 87.5271 168.662C88.0311 168.037 88.2831 167.169 88.2831 166.058C88.2831 164.938 88.0311 164.07 87.5271 163.454C87.0325 162.838 86.3278 162.53 85.4131 162.53C84.5078 162.53 83.8031 162.838 83.2991 163.454C82.7951 164.07 82.5431 164.938 82.5431 166.058C82.5431 167.169 82.7951 168.037 83.2991 168.662C83.8031 169.287 84.5078 169.6 85.4131 169.6ZM92.8773 171.112C92.28 171.112 91.9813 170.804 91.9813 170.188V161.928C91.9813 161.321 92.28 161.018 92.8773 161.018C93.4747 161.018 93.7733 161.321 93.7733 161.928V165.498H93.8013L97.8193 161.466C97.9687 161.317 98.118 161.205 98.2673 161.13C98.4167 161.055 98.5847 161.018 98.7713 161.018C99.042 161.018 99.2333 161.088 99.3453 161.228C99.4667 161.368 99.5133 161.531 99.4853 161.718C99.4667 161.905 99.378 162.077 99.2193 162.236L95.5373 165.876L99.4153 169.81C99.6113 169.997 99.714 170.193 99.7233 170.398C99.7327 170.603 99.6673 170.776 99.5273 170.916C99.3967 171.047 99.2007 171.112 98.9393 171.112C98.7153 171.112 98.5333 171.065 98.3933 170.972C98.2627 170.879 98.1087 170.743 97.9313 170.566L93.8013 166.436H93.7733V170.188C93.7733 170.804 93.4747 171.112 92.8773 171.112ZM102.244 171C101.609 171 101.292 170.683 101.292 170.048V162.082C101.292 161.447 101.609 161.13 102.244 161.13H107.242C107.727 161.13 107.97 161.363 107.97 161.83C107.97 162.315 107.727 162.558 107.242 162.558H103.014V165.274H106.934C107.419 165.274 107.662 165.512 107.662 165.988C107.662 166.464 107.419 166.702 106.934 166.702H103.014V169.572H107.242C107.727 169.572 107.97 169.81 107.97 170.286C107.97 170.762 107.727 171 107.242 171H102.244ZM110.485 171.112C109.925 171.112 109.645 170.823 109.645 170.244V161.914C109.645 161.625 109.715 161.405 109.855 161.256C110.005 161.097 110.196 161.018 110.429 161.018C110.644 161.018 110.803 161.06 110.905 161.144C111.017 161.219 111.148 161.349 111.297 161.536L116.295 168.018V161.872C116.295 161.303 116.575 161.018 117.135 161.018C117.686 161.018 117.961 161.303 117.961 161.872V170.272C117.961 170.533 117.896 170.739 117.765 170.888C117.635 171.037 117.457 171.112 117.233 171.112C117.019 171.112 116.846 171.07 116.715 170.986C116.594 170.902 116.459 170.767 116.309 170.58L111.311 164.084V170.244C111.311 170.823 111.036 171.112 110.485 171.112ZM124.815 171.112C124.217 171.112 123.919 170.804 123.919 170.188V161.942C123.919 161.326 124.217 161.018 124.815 161.018C125.412 161.018 125.711 161.326 125.711 161.942V165.246H130.793V161.942C130.793 161.326 131.091 161.018 131.689 161.018C132.286 161.018 132.585 161.326 132.585 161.942V170.188C132.585 170.804 132.286 171.112 131.689 171.112C131.091 171.112 130.793 170.804 130.793 170.188V166.744H125.711V170.188C125.711 170.804 125.412 171.112 124.815 171.112ZM139.171 171.14C138.219 171.14 137.384 170.93 136.665 170.51C135.956 170.09 135.405 169.502 135.013 168.746C134.621 167.981 134.425 167.085 134.425 166.058C134.425 165.022 134.621 164.126 135.013 163.37C135.405 162.614 135.956 162.031 136.665 161.62C137.374 161.2 138.21 160.99 139.171 160.99C140.132 160.99 140.968 161.2 141.677 161.62C142.386 162.031 142.937 162.614 143.329 163.37C143.721 164.126 143.917 165.017 143.917 166.044C143.917 167.08 143.721 167.981 143.329 168.746C142.937 169.502 142.386 170.09 141.677 170.51C140.968 170.93 140.132 171.14 139.171 171.14ZM139.171 169.6C140.076 169.6 140.781 169.287 141.285 168.662C141.789 168.037 142.041 167.169 142.041 166.058C142.041 164.938 141.789 164.07 141.285 163.454C140.79 162.838 140.086 162.53 139.171 162.53C138.266 162.53 137.561 162.838 137.057 163.454C136.553 164.07 136.301 164.938 136.301 166.058C136.301 167.169 136.553 168.037 137.057 168.662C137.561 169.287 138.266 169.6 139.171 169.6ZM146.649 171C146.042 171 145.739 170.692 145.739 170.076V161.998C145.739 161.391 146.038 161.088 146.635 161.088C147.232 161.088 147.531 161.391 147.531 161.998V169.474H151.591C152.114 169.474 152.375 169.726 152.375 170.23C152.375 170.743 152.114 171 151.591 171H146.649ZM154.552 171C153.918 171 153.6 170.683 153.6 170.048V162.082C153.6 161.447 153.918 161.13 154.552 161.13H157.268C158.92 161.13 160.194 161.555 161.09 162.404C161.996 163.253 162.448 164.471 162.448 166.058C162.448 167.635 161.996 168.853 161.09 169.712C160.194 170.571 158.92 171 157.268 171H154.552ZM155.392 169.516H157.156C159.434 169.516 160.572 168.363 160.572 166.058C160.572 163.762 159.434 162.614 157.156 162.614H155.392V169.516ZM165.217 171C164.582 171 164.265 170.683 164.265 170.048V162.082C164.265 161.447 164.582 161.13 165.217 161.13H170.215C170.7 161.13 170.943 161.363 170.943 161.83C170.943 162.315 170.7 162.558 170.215 162.558H165.987V165.274H169.907C170.392 165.274 170.635 165.512 170.635 165.988C170.635 166.464 170.392 166.702 169.907 166.702H165.987V169.572H170.215C170.7 169.572 170.943 169.81 170.943 170.286C170.943 170.762 170.7 171 170.215 171H165.217ZM173.514 171.112C172.917 171.112 172.618 170.804 172.618 170.188V162.04C172.618 161.433 172.921 161.13 173.528 161.13H176.902C177.985 161.13 178.82 161.391 179.408 161.914C179.996 162.427 180.29 163.151 180.29 164.084C180.29 164.821 180.099 165.433 179.716 165.918C179.333 166.394 178.783 166.716 178.064 166.884C178.54 167.033 178.932 167.393 179.24 167.962L180.29 169.908C180.449 170.207 180.477 170.482 180.374 170.734C180.281 170.986 180.043 171.112 179.66 171.112C179.408 171.112 179.203 171.061 179.044 170.958C178.885 170.846 178.745 170.678 178.624 170.454L177.21 167.85C177.042 167.533 176.841 167.323 176.608 167.22C176.384 167.108 176.095 167.052 175.74 167.052H174.41V170.188C174.41 170.804 174.111 171.112 173.514 171.112ZM174.41 165.722H176.594C177.901 165.722 178.554 165.19 178.554 164.126C178.554 163.071 177.901 162.544 176.594 162.544H174.41V165.722ZM49.6885 191.14C48.7365 191.14 47.9012 190.93 47.1825 190.51C46.4732 190.09 45.9225 189.502 45.5305 188.746C45.1385 187.981 44.9425 187.085 44.9425 186.058C44.9425 185.022 45.1385 184.126 45.5305 183.37C45.9225 182.614 46.4732 182.031 47.1825 181.62C47.8919 181.2 48.7272 180.99 49.6885 180.99C50.6499 180.99 51.4852 181.2 52.1945 181.62C52.9039 182.031 53.4545 182.614 53.8465 183.37C54.2385 184.126 54.4345 185.017 54.4345 186.044C54.4345 187.08 54.2385 187.981 53.8465 188.746C53.4545 189.502 52.9039 190.09 52.1945 190.51C51.4852 190.93 50.6499 191.14 49.6885 191.14ZM49.6885 189.6C50.5939 189.6 51.2985 189.287 51.8025 188.662C52.3065 188.037 52.5585 187.169 52.5585 186.058C52.5585 184.938 52.3065 184.07 51.8025 183.454C51.3079 182.838 50.6032 182.53 49.6885 182.53C48.7832 182.53 48.0785 182.838 47.5745 183.454C47.0705 184.07 46.8185 184.938 46.8185 186.058C46.8185 187.169 47.0705 188.037 47.5745 188.662C48.0785 189.287 48.7832 189.6 49.6885 189.6ZM57.1807 191.112C56.5647 191.112 56.2567 190.795 56.2567 190.16V182.082C56.2567 181.447 56.574 181.13 57.2087 181.13H62.0947C62.58 181.13 62.8227 181.363 62.8227 181.83C62.8227 182.315 62.58 182.558 62.0947 182.558H58.0487V185.344H61.8007C62.286 185.344 62.5287 185.577 62.5287 186.044C62.5287 186.529 62.286 186.772 61.8007 186.772H58.0487V190.16C58.0487 190.795 57.7594 191.112 57.1807 191.112ZM72.3428 191.14C71.3908 191.14 70.5555 190.93 69.8368 190.51C69.1275 190.09 68.5768 189.502 68.1848 188.746C67.7928 187.981 67.5968 187.085 67.5968 186.058C67.5968 185.022 67.7928 184.126 68.1848 183.37C68.5768 182.614 69.1275 182.031 69.8368 181.62C70.5462 181.2 71.3815 180.99 72.3428 180.99C73.3042 180.99 74.1395 181.2 74.8488 181.62C75.5582 182.031 76.1088 182.614 76.5008 183.37C76.8928 184.126 77.0888 185.017 77.0888 186.044C77.0888 187.08 76.8928 187.981 76.5008 188.746C76.1088 189.502 75.5582 190.09 74.8488 190.51C74.1395 190.93 73.3042 191.14 72.3428 191.14ZM72.3428 189.6C73.2482 189.6 73.9528 189.287 74.4568 188.662C74.9608 188.037 75.2128 187.169 75.2128 186.058C75.2128 184.938 74.9608 184.07 74.4568 183.454C73.9622 182.838 73.2575 182.53 72.3428 182.53C71.4375 182.53 70.7328 182.838 70.2288 183.454C69.7248 184.07 69.4728 184.938 69.4728 186.058C69.4728 187.169 69.7248 188.037 70.2288 188.662C70.7328 189.287 71.4375 189.6 72.3428 189.6ZM82.5849 191.112C82.1089 191.112 81.7682 190.879 81.5629 190.412L77.9089 182.208C77.7596 181.853 77.7642 181.569 77.9229 181.354C78.0909 181.13 78.3336 181.018 78.6509 181.018C78.9216 181.018 79.1222 181.079 79.2529 181.2C79.3929 181.312 79.5096 181.485 79.6029 181.718L82.6129 188.704L85.6229 181.704C85.7256 181.48 85.8469 181.312 85.9869 181.2C86.1269 181.079 86.3229 181.018 86.5749 181.018C86.8736 181.018 87.0976 181.13 87.2469 181.354C87.4056 181.578 87.4056 181.863 87.2469 182.208L83.5929 190.412C83.4902 190.645 83.3596 190.823 83.2009 190.944C83.0516 191.056 82.8462 191.112 82.5849 191.112ZM89.5974 191C88.9627 191 88.6454 190.683 88.6454 190.048V182.082C88.6454 181.447 88.9627 181.13 89.5974 181.13H94.5954C95.0807 181.13 95.3234 181.363 95.3234 181.83C95.3234 182.315 95.0807 182.558 94.5954 182.558H90.3674V185.274H94.2874C94.7727 185.274 95.0154 185.512 95.0154 185.988C95.0154 186.464 94.7727 186.702 94.2874 186.702H90.3674V189.572H94.5954C95.0807 189.572 95.3234 189.81 95.3234 190.286C95.3234 190.762 95.0807 191 94.5954 191H89.5974ZM97.8949 191.112C97.2976 191.112 96.9989 190.804 96.9989 190.188V182.04C96.9989 181.433 97.3022 181.13 97.9089 181.13H101.283C102.366 181.13 103.201 181.391 103.789 181.914C104.377 182.427 104.671 183.151 104.671 184.084C104.671 184.821 104.48 185.433 104.097 185.918C103.714 186.394 103.164 186.716 102.445 186.884C102.921 187.033 103.313 187.393 103.621 187.962L104.671 189.908C104.83 190.207 104.858 190.482 104.755 190.734C104.662 190.986 104.424 191.112 104.041 191.112C103.789 191.112 103.584 191.061 103.425 190.958C103.266 190.846 103.126 190.678 103.005 190.454L101.591 187.85C101.423 187.533 101.222 187.323 100.989 187.22C100.765 187.108 100.476 187.052 100.121 187.052H98.7909V190.188C98.7909 190.804 98.4922 191.112 97.8949 191.112ZM98.7909 185.722H100.975C102.282 185.722 102.935 185.19 102.935 184.126C102.935 183.071 102.282 182.544 100.975 182.544H98.7909V185.722ZM113.603 191.14C113.109 191.14 112.605 191.075 112.091 190.944C111.578 190.813 111.107 190.613 110.677 190.342C110.453 190.202 110.318 190.034 110.271 189.838C110.234 189.633 110.262 189.446 110.355 189.278C110.449 189.101 110.584 188.984 110.761 188.928C110.948 188.863 111.158 188.895 111.391 189.026C111.737 189.222 112.087 189.371 112.441 189.474C112.796 189.577 113.174 189.628 113.575 189.628C114.163 189.628 114.621 189.479 114.947 189.18C115.283 188.872 115.451 188.461 115.451 187.948C115.451 187.425 115.293 187.005 114.975 186.688C114.658 186.361 114.224 186.198 113.673 186.198C113.375 186.198 113.085 186.249 112.805 186.352C112.525 186.445 112.25 186.613 111.979 186.856C111.895 186.931 111.788 187.005 111.657 187.08C111.527 187.145 111.387 187.178 111.237 187.178C110.761 187.178 110.523 186.949 110.523 186.492V181.914C110.523 181.391 110.785 181.13 111.307 181.13H115.913C116.436 181.13 116.697 181.377 116.697 181.872C116.697 182.367 116.436 182.614 115.913 182.614H112.273V185.288C112.768 184.915 113.375 184.728 114.093 184.728C114.719 184.728 115.26 184.863 115.717 185.134C116.184 185.395 116.543 185.764 116.795 186.24C117.057 186.707 117.187 187.253 117.187 187.878C117.187 188.522 117.043 189.091 116.753 189.586C116.464 190.071 116.049 190.454 115.507 190.734C114.975 191.005 114.341 191.14 113.603 191.14ZM121.914 191.14C120.747 191.14 119.856 190.701 119.24 189.824C118.624 188.937 118.316 187.677 118.316 186.044C118.316 184.392 118.624 183.137 119.24 182.278C119.856 181.419 120.747 180.99 121.914 180.99C123.09 180.99 123.981 181.419 124.588 182.278C125.204 183.137 125.512 184.387 125.512 186.03C125.512 187.673 125.204 188.937 124.588 189.824C123.972 190.701 123.081 191.14 121.914 191.14ZM121.914 189.67C122.549 189.67 123.015 189.376 123.314 188.788C123.622 188.2 123.776 187.281 123.776 186.03C123.776 184.779 123.622 183.874 123.314 183.314C123.015 182.745 122.549 182.46 121.914 182.46C121.289 182.46 120.822 182.745 120.514 183.314C120.206 183.874 120.052 184.779 120.052 186.03C120.052 187.281 120.206 188.2 120.514 188.788C120.822 189.376 121.289 189.67 121.914 189.67ZM130.308 191.14C129.142 191.14 128.25 190.701 127.634 189.824C127.018 188.937 126.71 187.677 126.71 186.044C126.71 184.392 127.018 183.137 127.634 182.278C128.25 181.419 129.142 180.99 130.308 180.99C131.484 180.99 132.376 181.419 132.982 182.278C133.598 183.137 133.906 184.387 133.906 186.03C133.906 187.673 133.598 188.937 132.982 189.824C132.366 190.701 131.475 191.14 130.308 191.14ZM130.308 189.67C130.943 189.67 131.41 189.376 131.708 188.788C132.016 188.2 132.17 187.281 132.17 186.03C132.17 184.779 132.016 183.874 131.708 183.314C131.41 182.745 130.943 182.46 130.308 182.46C129.683 182.46 129.216 182.745 128.908 183.314C128.6 183.874 128.446 184.779 128.446 186.03C128.446 187.281 128.6 188.2 128.908 188.788C129.216 189.376 129.683 189.67 130.308 189.67ZM136.477 191.112C135.88 191.112 135.581 190.804 135.581 190.188V181.928C135.581 181.321 135.88 181.018 136.477 181.018C137.074 181.018 137.373 181.321 137.373 181.928V185.498H137.401L141.419 181.466C141.568 181.317 141.718 181.205 141.867 181.13C142.016 181.055 142.184 181.018 142.371 181.018C142.642 181.018 142.833 181.088 142.945 181.228C143.066 181.368 143.113 181.531 143.085 181.718C143.066 181.905 142.978 182.077 142.819 182.236L139.137 185.876L143.015 189.81C143.211 189.997 143.314 190.193 143.323 190.398C143.332 190.603 143.267 190.776 143.127 190.916C142.996 191.047 142.8 191.112 142.539 191.112C142.315 191.112 142.133 191.065 141.993 190.972C141.862 190.879 141.708 190.743 141.531 190.566L137.401 186.436H137.373V190.188C137.373 190.804 137.074 191.112 136.477 191.112Z" fill="white"/>
<path d="M81.2649 108.336C81.9049 108.336 82.2249 108.608 82.2249 109.152C82.2249 109.717 81.9049 110 81.2649 110H75.1849C74.9075 110 74.6889 109.92 74.5289 109.76C74.3689 109.589 74.2889 109.381 74.2889 109.136C74.2889 108.816 74.4115 108.528 74.6569 108.272L78.3049 104.352C78.7529 103.861 79.0782 103.413 79.2809 103.008C79.4942 102.592 79.6009 102.181 79.6009 101.776C79.6009 101.275 79.4569 100.891 79.1689 100.624C78.8809 100.357 78.4702 100.224 77.9369 100.224C77.4995 100.224 77.0729 100.309 76.6569 100.48C76.2515 100.64 75.8409 100.864 75.4249 101.152C75.3182 101.227 75.2115 101.291 75.1049 101.344C74.9982 101.387 74.8915 101.408 74.7849 101.408C74.6035 101.408 74.4435 101.323 74.3049 101.152C74.1769 100.981 74.1129 100.779 74.1129 100.544C74.1129 100.384 74.1395 100.245 74.1929 100.128C74.2569 100.011 74.3529 99.8987 74.4809 99.792C74.9502 99.4187 75.4995 99.1253 76.1289 98.912C76.7582 98.688 77.3875 98.576 78.0169 98.576C79.1155 98.576 79.9902 98.8533 80.6409 99.408C81.3022 99.9627 81.6329 100.709 81.6329 101.648C81.6329 102.299 81.4942 102.912 81.2169 103.488C80.9395 104.053 80.4702 104.688 79.8089 105.392L77.0409 108.336H81.2649ZM87.7063 110.144C86.3729 110.144 85.3543 109.653 84.6503 108.672C83.9463 107.68 83.5943 106.24 83.5943 104.352C83.5943 102.475 83.9463 101.045 84.6503 100.064C85.3543 99.072 86.3729 98.576 87.7063 98.576C89.0396 98.576 90.0583 99.072 90.7623 100.064C91.4663 101.045 91.8183 102.475 91.8183 104.352C91.8183 106.229 91.4663 107.664 90.7623 108.656C90.0583 109.648 89.0396 110.144 87.7063 110.144ZM87.7063 108.528C88.4316 108.528 88.9596 108.197 89.2903 107.536C89.6209 106.864 89.7863 105.803 89.7863 104.352C89.7863 102.891 89.6209 101.835 89.2903 101.184C88.9596 100.523 88.4316 100.192 87.7063 100.192C86.9809 100.192 86.4529 100.523 86.1223 101.184C85.7916 101.845 85.6263 102.901 85.6263 104.352C85.6263 105.803 85.7916 106.864 86.1223 107.536C86.4529 108.197 86.9809 108.528 87.7063 108.528ZM100.468 108.336C101.108 108.336 101.428 108.608 101.428 109.152C101.428 109.717 101.108 110 100.468 110H94.388C94.1107 110 93.892 109.92 93.732 109.76C93.572 109.589 93.492 109.381 93.492 109.136C93.492 108.816 93.6147 108.528 93.86 108.272L97.508 104.352C97.956 103.861 98.2813 103.413 98.484 103.008C98.6973 102.592 98.804 102.181 98.804 101.776C98.804 101.275 98.66 100.891 98.372 100.624C98.084 100.357 97.6733 100.224 97.14 100.224C96.7027 100.224 96.276 100.309 95.86 100.48C95.4547 100.64 95.044 100.864 94.628 101.152C94.5213 101.227 94.4147 101.291 94.308 101.344C94.2013 101.387 94.0947 101.408 93.988 101.408C93.8067 101.408 93.6467 101.323 93.508 101.152C93.38 100.981 93.316 100.779 93.316 100.544C93.316 100.384 93.3427 100.245 93.396 100.128C93.46 100.011 93.556 99.8987 93.684 99.792C94.1533 99.4187 94.7027 99.1253 95.332 98.912C95.9613 98.688 96.5907 98.576 97.22 98.576C98.3187 98.576 99.1933 98.8533 99.844 99.408C100.505 99.9627 100.836 100.709 100.836 101.648C100.836 102.299 100.697 102.912 100.42 103.488C100.143 104.053 99.6733 104.688 99.012 105.392L96.244 108.336H100.468ZM110.125 108.336C110.765 108.336 111.085 108.608 111.085 109.152C111.085 109.717 110.765 110 110.125 110H104.717C104.067 110 103.741 109.717 103.741 109.152C103.741 108.608 104.067 108.336 104.717 108.336H106.381V101.04L104.845 101.984C104.696 102.069 104.563 102.112 104.445 102.112C104.221 102.112 104.029 102.016 103.869 101.824C103.72 101.632 103.645 101.419 103.645 101.184C103.645 100.875 103.784 100.635 104.061 100.464L106.541 98.928C106.861 98.736 107.165 98.64 107.453 98.64C107.752 98.64 107.992 98.7307 108.173 98.912C108.355 99.0933 108.445 99.344 108.445 99.664V108.336H110.125Z" fill="#F1C12B"/>
<path d="M82.2556 92.144C81.157 92.144 80.2023 91.9093 79.3916 91.44C78.5916 90.9707 77.973 90.2987 77.5356 89.424C77.0983 88.5493 76.8796 87.5253 76.8796 86.352C76.8796 85.1787 77.093 84.16 77.5196 83.296C77.957 82.4213 78.581 81.7493 79.3916 81.28C80.2023 80.8107 81.157 80.576 82.2556 80.576C83.3543 80.576 84.3036 80.8107 85.1036 81.28C85.9143 81.7493 86.533 82.4213 86.9596 83.296C87.397 84.16 87.6156 85.1787 87.6156 86.352C87.6156 87.5253 87.397 88.5493 86.9596 89.424C86.5223 90.2987 85.8983 90.9707 85.0876 91.44C84.2876 91.9093 83.3436 92.144 82.2556 92.144ZM82.2556 90.496C83.2903 90.496 84.0956 90.1387 84.6716 89.424C85.2583 88.7093 85.5516 87.6853 85.5516 86.352C85.5516 85.0187 85.2583 84 84.6716 83.296C84.0956 82.5813 83.2903 82.224 82.2556 82.224C81.2103 82.224 80.3943 82.5813 79.8076 83.296C79.2316 84 78.9436 85.0187 78.9436 86.352C78.9436 87.6853 79.2316 88.7093 79.8076 89.424C80.3943 90.1387 81.2103 90.496 82.2556 90.496ZM94.7404 92.144C93.6524 92.144 92.6977 91.9093 91.8764 91.44C91.0657 90.9707 90.4417 90.2987 90.0044 89.424C89.567 88.5493 89.3484 87.5253 89.3484 86.352C89.3484 85.1787 89.567 84.16 90.0044 83.296C90.4417 82.4213 91.0657 81.7493 91.8764 81.28C92.6977 80.8107 93.6524 80.576 94.7404 80.576C95.4444 80.576 96.1057 80.6827 96.7244 80.896C97.343 81.0987 97.8924 81.3973 98.3724 81.792C98.511 81.8987 98.607 82.0107 98.6604 82.128C98.7137 82.2453 98.7404 82.3893 98.7404 82.56C98.7404 82.7947 98.6764 82.992 98.5484 83.152C98.4204 83.312 98.2657 83.392 98.0844 83.392C97.871 83.392 97.6524 83.3173 97.4284 83.168C96.9697 82.8267 96.543 82.592 96.1484 82.464C95.7537 82.3253 95.3164 82.256 94.8364 82.256C93.727 82.256 92.8844 82.6027 92.3084 83.296C91.743 83.9893 91.4604 85.008 91.4604 86.352C91.4604 87.7067 91.743 88.7307 92.3084 89.424C92.8844 90.1173 93.727 90.464 94.8364 90.464C95.295 90.464 95.7164 90.3947 96.1004 90.256C96.495 90.1173 96.9377 89.8827 97.4284 89.552C97.535 89.488 97.6417 89.4347 97.7484 89.392C97.855 89.3493 97.967 89.328 98.0844 89.328C98.2657 89.328 98.4204 89.408 98.5484 89.568C98.6764 89.728 98.7404 89.9253 98.7404 90.16C98.7404 90.32 98.7137 90.464 98.6604 90.592C98.607 90.7093 98.511 90.8213 98.3724 90.928C97.8924 91.3227 97.343 91.6267 96.7244 91.84C96.1057 92.0427 95.4444 92.144 94.7404 92.144ZM104.084 92.08C103.764 92.08 103.508 91.9893 103.316 91.808C103.135 91.616 103.044 91.3653 103.044 91.056V82.416H100.132C99.4919 82.416 99.1719 82.1333 99.1719 81.568C99.1719 81.0027 99.4919 80.72 100.132 80.72H108.02C108.66 80.72 108.98 81.0027 108.98 81.568C108.98 82.1333 108.66 82.416 108.02 82.416H105.108V91.056C105.108 91.3653 105.012 91.616 104.82 91.808C104.639 91.9893 104.393 92.08 104.084 92.08Z" fill="#F1C12B"/>
<g filter="url(#filter0_d)">
<path d="M134.93 120.097L134.921 120.102L134.912 120.107L95.0645 143.794C94.2846 144.241 93.4003 144.477 92.5 144.477C91.5997 144.477 90.7154 144.241 89.9354 143.794L50.0879 120.107L50.0789 120.102L50.0698 120.097C49.2878 119.647 48.639 118.999 48.1881 118.221C47.7372 117.442 47.5 116.559 47.5 115.661V70.3158C47.5 69.4173 47.7372 68.5343 48.1881 67.7557C48.639 66.977 49.2878 66.3299 50.0698 65.8797L50.0789 65.8745L50.0879 65.8691L89.9353 42.1824C90.7153 41.7354 91.5996 41.4999 92.5 41.4999C93.4004 41.4999 94.2847 41.7353 95.0647 42.1824L134.912 65.8691L134.921 65.8745L134.93 65.8797C135.712 66.3299 136.361 66.977 136.812 67.7557C137.263 68.5343 137.5 69.4173 137.5 70.3157V115.661C137.5 115.661 137.5 115.661 137.5 115.661C137.5 116.559 137.263 117.442 136.812 118.221C136.361 118.999 135.712 119.647 134.93 120.097Z" stroke="#F1C12B" stroke-width="3"/>
</g>
<path d="M288.93 210.097L288.921 210.102L288.912 210.107L249.065 233.794C248.285 234.241 247.4 234.477 246.5 234.477C245.6 234.477 244.715 234.241 243.935 233.794L204.088 210.107L204.079 210.102L204.07 210.097C203.288 209.647 202.639 208.999 202.188 208.221C201.737 207.442 201.5 206.559 201.5 205.661V160.316C201.5 159.417 201.737 158.534 202.188 157.756C202.639 156.977 203.288 156.33 204.07 155.88L204.079 155.874L204.088 155.869L243.935 132.182C244.715 131.735 245.6 131.5 246.5 131.5C247.4 131.5 248.285 131.735 249.065 132.182L288.912 155.869L288.921 155.874L288.93 155.88C289.712 156.33 290.361 156.977 290.812 157.756C291.263 158.534 291.5 159.417 291.5 160.316V205.661C291.5 205.661 291.5 205.661 291.5 205.661C291.5 206.559 291.263 207.442 290.812 208.221C290.361 208.999 289.712 209.647 288.93 210.097Z" stroke="#212151" stroke-width="3"/>
<path d="M238.93 120.097L238.921 120.102L238.912 120.107L199.065 143.794C198.285 144.241 197.4 144.477 196.5 144.477C195.6 144.477 194.715 144.241 193.935 143.794L154.088 120.107L154.079 120.102L154.07 120.097C153.288 119.647 152.639 118.999 152.188 118.221C151.737 117.442 151.5 116.559 151.5 115.661V70.3158C151.5 69.4173 151.737 68.5343 152.188 67.7557C152.639 66.977 153.288 66.3299 154.07 65.8797L154.079 65.8745L154.088 65.8691L193.935 42.1824C194.715 41.7354 195.6 41.4999 196.5 41.4999C197.4 41.4999 198.285 41.7353 199.065 42.1824L238.912 65.8691L238.921 65.8745L238.93 65.8797C239.712 66.3299 240.361 66.977 240.812 67.7557C241.263 68.5343 241.5 69.4173 241.5 70.3157V115.661C241.5 115.661 241.5 115.661 241.5 115.661C241.5 116.559 241.263 117.442 240.812 118.221C240.361 118.999 239.712 119.647 238.93 120.097Z" stroke="#212151" stroke-width="3"/>
<path d="M341.93 122.097L341.921 122.102L341.912 122.107L302.065 145.794C301.285 146.241 300.4 146.477 299.5 146.477C298.6 146.477 297.715 146.241 296.935 145.794L257.088 122.107L257.079 122.102L257.07 122.097C256.288 121.647 255.639 120.999 255.188 120.221C254.737 119.442 254.5 118.559 254.5 117.661V72.3158C254.5 71.4173 254.737 70.5343 255.188 69.7557C255.639 68.977 256.288 68.3299 257.07 67.8797L257.079 67.8745L257.088 67.8691L296.935 44.1824C297.715 43.7354 298.6 43.4999 299.5 43.4999C300.4 43.4999 301.285 43.7353 302.065 44.1824L341.912 67.8691L341.921 67.8745L341.93 67.8797C342.712 68.3299 343.361 68.977 343.812 69.7557C344.263 70.5343 344.5 71.4173 344.5 72.3157V117.661C344.5 117.661 344.5 117.661 344.5 117.661C344.5 118.559 344.263 119.442 343.812 120.221C343.361 120.999 342.712 121.647 341.93 122.097Z" stroke="#212151" stroke-width="3"/>
<defs>
<filter id="filter0_d" x="6" y="0" width="173" height="185.977" filterUnits="userSpaceOnUse" color-interpolation-filters="sRGB">
<feFlood flood-opacity="0" result="BackgroundImageFix"/>
<feColorMatrix in="SourceAlpha" type="matrix" values="0 0 0 0 0 0 0 0 0 0 0 0 0 0 0 0 0 0 127 0"/>
<feOffset/>
<feGaussianBlur stdDeviation="20"/>
<feColorMatrix type="matrix" values="0 0 0 0 0.945098 0 0 0 0 0.756863 0 0 0 0 0.168627 0 0 0 1 0"/>
<feBlend mode="normal" in2="BackgroundImageFix" result="effect1_dropShadow"/>
<feBlend mode="normal" in="SourceGraphic" in2="effect1_dropShadow" result="shape"/>
</filter>
</defs>
</svg>
