<svg width="350" height="236" viewBox="0 0 350 236" fill="none" xmlns="http://www.w3.org/2000/svg">
<path d="M168.581 178.768C168.645 178.907 168.677 179.045 168.677 179.184C168.677 179.429 168.575 179.637 168.373 179.808C168.181 179.979 167.957 180.064 167.701 180.064C167.53 180.064 167.37 180.021 167.221 179.936C167.071 179.84 166.954 179.696 166.869 179.504L165.909 177.36H160.277L159.317 179.504C159.231 179.696 159.114 179.84 158.965 179.936C158.815 180.021 158.65 180.064 158.469 180.064C158.223 180.064 157.999 179.979 157.797 179.808C157.594 179.637 157.493 179.429 157.493 179.184C157.493 179.045 157.525 178.907 157.589 178.768L162.005 169.28C162.101 169.067 162.245 168.907 162.437 168.8C162.639 168.683 162.853 168.624 163.077 168.624C163.301 168.624 163.509 168.683 163.701 168.8C163.903 168.907 164.053 169.067 164.149 169.28L168.581 178.768ZM160.981 175.76H165.205L163.093 171.008L160.981 175.76ZM171.256 180.096C170.946 180.096 170.696 180.005 170.504 179.824C170.322 179.632 170.232 179.376 170.232 179.056V169.696C170.232 169.387 170.317 169.147 170.488 168.976C170.669 168.805 170.914 168.72 171.224 168.72H175.16C176.365 168.72 177.304 169.024 177.976 169.632C178.648 170.229 178.984 171.072 178.984 172.16C178.984 173.248 178.648 174.096 177.976 174.704C177.304 175.312 176.365 175.616 175.16 175.616H172.296V179.056C172.296 179.376 172.2 179.632 172.008 179.824C171.826 180.005 171.576 180.096 171.256 180.096ZM174.904 174.032C176.322 174.032 177.032 173.413 177.032 172.176C177.032 170.939 176.322 170.32 174.904 170.32H172.296V174.032H174.904ZM181.818 180.096C181.509 180.096 181.258 180.005 181.066 179.824C180.885 179.632 180.794 179.376 180.794 179.056V169.696C180.794 169.387 180.879 169.147 181.05 168.976C181.231 168.805 181.477 168.72 181.786 168.72H185.722C186.927 168.72 187.866 169.024 188.538 169.632C189.21 170.229 189.546 171.072 189.546 172.16C189.546 173.248 189.21 174.096 188.538 174.704C187.866 175.312 186.927 175.616 185.722 175.616H182.858V179.056C182.858 179.376 182.762 179.632 182.57 179.824C182.389 180.005 182.138 180.096 181.818 180.096ZM185.466 174.032C186.885 174.032 187.594 173.413 187.594 172.176C187.594 170.939 186.885 170.32 185.466 170.32H182.858V174.032H185.466ZM192.333 180C192.023 180 191.783 179.915 191.613 179.744C191.442 179.573 191.357 179.339 191.357 179.04V169.664C191.357 169.355 191.447 169.109 191.629 168.928C191.821 168.736 192.071 168.64 192.381 168.64C192.701 168.64 192.951 168.736 193.133 168.928C193.325 169.109 193.421 169.355 193.421 169.664V178.304H197.917C198.557 178.304 198.877 178.587 198.877 179.152C198.877 179.717 198.557 180 197.917 180H192.333ZM205.303 168.992C205.495 168.757 205.724 168.64 205.991 168.64C206.236 168.64 206.455 168.736 206.647 168.928C206.839 169.109 206.935 169.328 206.935 169.584C206.935 169.797 206.855 170 206.695 170.192L203.063 174.624V179.056C203.063 179.387 202.967 179.643 202.775 179.824C202.583 180.005 202.338 180.096 202.039 180.096C201.73 180.096 201.479 180.005 201.287 179.824C201.095 179.643 200.999 179.387 200.999 179.056V174.624L197.367 170.192C197.207 170 197.127 169.797 197.127 169.584C197.127 169.328 197.223 169.109 197.415 168.928C197.607 168.736 197.826 168.64 198.071 168.64C198.338 168.64 198.567 168.757 198.759 168.992L202.039 173.056L205.303 168.992ZM213.599 180.096C213.29 180.096 213.039 180 212.847 179.808C212.666 179.616 212.575 179.365 212.575 179.056V169.696C212.575 169.387 212.661 169.147 212.831 168.976C213.013 168.805 213.258 168.72 213.567 168.72H219.183C219.834 168.72 220.159 168.997 220.159 169.552C220.159 170.096 219.834 170.368 219.183 170.368H214.607V173.44H218.863C219.514 173.44 219.839 173.717 219.839 174.272C219.839 174.816 219.514 175.088 218.863 175.088H214.607V179.056C214.607 179.365 214.517 179.616 214.335 179.808C214.154 180 213.909 180.096 213.599 180.096ZM226.506 180.144C225.407 180.144 224.452 179.909 223.642 179.44C222.842 178.971 222.223 178.299 221.786 177.424C221.348 176.549 221.13 175.525 221.13 174.352C221.13 173.179 221.343 172.16 221.77 171.296C222.207 170.421 222.831 169.749 223.642 169.28C224.452 168.811 225.407 168.576 226.506 168.576C227.604 168.576 228.554 168.811 229.354 169.28C230.164 169.749 230.783 170.421 231.21 171.296C231.647 172.16 231.866 173.179 231.866 174.352C231.866 175.525 231.647 176.549 231.21 177.424C230.772 178.299 230.148 178.971 229.338 179.44C228.538 179.909 227.594 180.144 226.506 180.144ZM226.506 178.496C227.54 178.496 228.346 178.139 228.922 177.424C229.508 176.709 229.802 175.685 229.802 174.352C229.802 173.019 229.508 172 228.922 171.296C228.346 170.581 227.54 170.224 226.506 170.224C225.46 170.224 224.644 170.581 224.058 171.296C223.482 172 223.194 173.019 223.194 174.352C223.194 175.685 223.482 176.709 224.058 177.424C224.644 178.139 225.46 178.496 226.506 178.496ZM242.974 178.704C243.102 178.896 243.166 179.083 243.166 179.264C243.166 179.509 243.065 179.712 242.862 179.872C242.67 180.032 242.441 180.112 242.174 180.112C242.004 180.112 241.838 180.075 241.678 180C241.529 179.915 241.401 179.792 241.294 179.632L239.166 176.4C238.953 176.059 238.724 175.819 238.478 175.68C238.244 175.541 237.934 175.472 237.55 175.472H235.982V179.056C235.982 179.376 235.892 179.632 235.71 179.824C235.529 180.005 235.284 180.096 234.974 180.096C234.665 180.096 234.414 180.005 234.222 179.824C234.041 179.632 233.95 179.376 233.95 179.056V169.696C233.95 169.387 234.036 169.147 234.206 168.976C234.388 168.805 234.633 168.72 234.942 168.72H238.942C240.222 168.72 241.193 169.008 241.854 169.584C242.526 170.149 242.862 170.971 242.862 172.048C242.862 172.923 242.612 173.643 242.11 174.208C241.62 174.763 240.921 175.12 240.014 175.28C240.324 175.355 240.596 175.488 240.83 175.68C241.065 175.872 241.294 176.139 241.518 176.48L242.974 178.704ZM238.654 173.888C239.433 173.888 240.004 173.744 240.366 173.456C240.729 173.157 240.91 172.704 240.91 172.096C240.91 171.477 240.729 171.029 240.366 170.752C240.004 170.464 239.433 170.32 238.654 170.32H235.966V173.888H238.654ZM141.747 200C141.437 200 141.197 199.915 141.027 199.744C140.856 199.573 140.771 199.339 140.771 199.04V189.664C140.771 189.355 140.861 189.109 141.043 188.928C141.235 188.736 141.485 188.64 141.795 188.64C142.115 188.64 142.365 188.736 142.547 188.928C142.739 189.109 142.835 189.355 142.835 189.664V198.304H147.331C147.971 198.304 148.291 198.587 148.291 199.152C148.291 199.717 147.971 200 147.331 200H141.747ZM150.67 200.096C150.36 200.096 150.11 200 149.918 199.808C149.736 199.616 149.646 199.365 149.646 199.056V189.664C149.646 189.355 149.736 189.109 149.918 188.928C150.11 188.736 150.36 188.64 150.67 188.64C150.99 188.64 151.24 188.736 151.422 188.928C151.614 189.109 151.71 189.355 151.71 189.664V199.056C151.71 199.365 151.614 199.616 151.422 199.808C151.24 200 150.99 200.096 150.67 200.096ZM158.05 200.144C157.228 200.144 156.45 200.037 155.714 199.824C154.988 199.6 154.396 199.301 153.938 198.928C153.692 198.747 153.57 198.491 153.57 198.16C153.57 197.936 153.634 197.744 153.762 197.584C153.9 197.413 154.06 197.328 154.242 197.328C154.434 197.328 154.652 197.403 154.898 197.552C155.356 197.883 155.836 198.123 156.338 198.272C156.839 198.421 157.394 198.496 158.002 198.496C158.78 198.496 159.378 198.363 159.794 198.096C160.21 197.819 160.418 197.419 160.418 196.896C160.418 196.491 160.22 196.181 159.826 195.968C159.442 195.744 158.796 195.531 157.89 195.328C156.951 195.125 156.188 194.891 155.602 194.624C155.015 194.357 154.572 194.016 154.274 193.6C153.975 193.184 153.826 192.656 153.826 192.016C153.826 191.355 154.012 190.763 154.386 190.24C154.759 189.717 155.276 189.312 155.938 189.024C156.61 188.725 157.362 188.576 158.194 188.576C159.719 188.576 160.962 188.981 161.922 189.792C162.06 189.909 162.156 190.027 162.21 190.144C162.274 190.251 162.306 190.389 162.306 190.56C162.306 190.784 162.236 190.981 162.098 191.152C161.97 191.312 161.815 191.392 161.634 191.392C161.527 191.392 161.426 191.376 161.33 191.344C161.244 191.312 161.127 191.253 160.978 191.168C160.54 190.848 160.114 190.613 159.698 190.464C159.292 190.304 158.791 190.224 158.194 190.224C157.468 190.224 156.892 190.373 156.466 190.672C156.05 190.96 155.842 191.365 155.842 191.888C155.842 192.325 156.028 192.661 156.402 192.896C156.775 193.131 157.41 193.349 158.306 193.552C159.255 193.765 160.023 194.005 160.61 194.272C161.207 194.528 161.66 194.859 161.97 195.264C162.29 195.669 162.45 196.176 162.45 196.784C162.45 197.445 162.263 198.032 161.89 198.544C161.527 199.045 161.01 199.44 160.338 199.728C159.676 200.005 158.914 200.144 158.05 200.144ZM167.81 200.08C167.49 200.08 167.234 199.989 167.042 199.808C166.861 199.616 166.77 199.365 166.77 199.056V190.416H163.858C163.218 190.416 162.898 190.133 162.898 189.568C162.898 189.003 163.218 188.72 163.858 188.72H171.746C172.386 188.72 172.706 189.003 172.706 189.568C172.706 190.133 172.386 190.416 171.746 190.416H168.834V199.056C168.834 199.365 168.738 199.616 168.546 199.808C168.365 199.989 168.12 200.08 167.81 200.08ZM174.951 200.096C174.642 200.096 174.391 200 174.199 199.808C174.018 199.616 173.927 199.365 173.927 199.056V189.664C173.927 189.355 174.018 189.109 174.199 188.928C174.391 188.736 174.642 188.64 174.951 188.64C175.271 188.64 175.522 188.736 175.703 188.928C175.895 189.109 175.991 189.355 175.991 189.664V199.056C175.991 199.365 175.895 199.616 175.703 199.808C175.522 200 175.271 200.096 174.951 200.096ZM186.971 188.64C187.27 188.64 187.504 188.736 187.675 188.928C187.856 189.109 187.947 189.355 187.947 189.664V199.056C187.947 199.365 187.856 199.616 187.675 199.808C187.494 200 187.259 200.096 186.971 200.096C186.63 200.096 186.368 199.973 186.187 199.728L180.347 192.128V199.056C180.347 199.365 180.262 199.616 180.091 199.808C179.92 200 179.686 200.096 179.387 200.096C179.088 200.096 178.854 200 178.683 199.808C178.512 199.616 178.427 199.365 178.427 199.056V189.664C178.427 189.355 178.518 189.109 178.699 188.928C178.88 188.736 179.12 188.64 179.419 188.64C179.75 188.64 180.006 188.763 180.187 189.008L186.011 196.576V189.664C186.011 189.355 186.096 189.109 186.267 188.928C186.448 188.736 186.683 188.64 186.971 188.64ZM198.972 193.904C199.217 193.904 199.415 193.979 199.564 194.128C199.713 194.267 199.788 194.453 199.788 194.688V198.128C199.788 198.619 199.724 198.965 199.596 199.168C199.468 199.371 199.207 199.536 198.812 199.664C198.385 199.813 197.889 199.931 197.324 200.016C196.759 200.101 196.215 200.144 195.692 200.144C194.529 200.144 193.521 199.915 192.668 199.456C191.815 198.997 191.159 198.336 190.7 197.472C190.252 196.597 190.028 195.557 190.028 194.352C190.028 193.168 190.252 192.144 190.7 191.28C191.159 190.405 191.804 189.739 192.636 189.28C193.468 188.811 194.449 188.576 195.58 188.576C197.084 188.576 198.316 188.981 199.276 189.792C199.404 189.909 199.495 190.027 199.548 190.144C199.612 190.261 199.644 190.4 199.644 190.56C199.644 190.795 199.58 190.992 199.452 191.152C199.324 191.312 199.169 191.392 198.988 191.392C198.871 191.392 198.764 191.376 198.668 191.344C198.572 191.301 198.46 191.237 198.332 191.152C197.863 190.821 197.425 190.592 197.02 190.464C196.615 190.325 196.156 190.256 195.644 190.256C194.481 190.256 193.601 190.603 193.004 191.296C192.417 191.979 192.124 192.997 192.124 194.352C192.124 197.125 193.34 198.512 195.772 198.512C196.497 198.512 197.223 198.411 197.948 198.208V195.376H196.14C195.884 195.376 195.681 195.312 195.532 195.184C195.393 195.056 195.324 194.875 195.324 194.64C195.324 194.405 195.393 194.224 195.532 194.096C195.681 193.968 195.884 193.904 196.14 193.904H198.972ZM215.226 198.528C215.397 198.731 215.482 198.933 215.482 199.136C215.482 199.392 215.381 199.616 215.178 199.808C214.986 200 214.762 200.096 214.506 200.096C214.24 200.096 214.005 199.979 213.802 199.744L210.554 195.712L207.29 199.744C207.098 199.968 206.869 200.08 206.602 200.08C206.346 200.08 206.117 199.989 205.914 199.808C205.722 199.616 205.626 199.392 205.626 199.136C205.626 198.923 205.706 198.72 205.866 198.528L209.354 194.272L206.01 190.192C205.85 190.021 205.77 189.819 205.77 189.584C205.77 189.328 205.866 189.109 206.058 188.928C206.25 188.736 206.474 188.64 206.73 188.64C206.997 188.64 207.232 188.757 207.434 188.992L210.554 192.848L213.674 188.992C213.866 188.757 214.096 188.64 214.362 188.64C214.618 188.64 214.842 188.736 215.034 188.928C215.237 189.109 215.338 189.328 215.338 189.584C215.338 189.819 215.258 190.021 215.098 190.192L211.754 194.272L215.226 198.528ZM218.059 200C217.75 200 217.51 199.915 217.339 199.744C217.169 199.573 217.083 199.339 217.083 199.04V189.664C217.083 189.355 217.174 189.109 217.355 188.928C217.547 188.736 217.798 188.64 218.107 188.64C218.427 188.64 218.678 188.736 218.859 188.928C219.051 189.109 219.147 189.355 219.147 189.664V198.304H223.643C224.283 198.304 224.603 198.587 224.603 199.152C224.603 199.717 224.283 200 223.643 200H218.059ZM226.95 200C226.641 200 226.396 199.915 226.214 199.744C226.044 199.573 225.958 199.333 225.958 199.024V189.696C225.958 189.387 226.044 189.147 226.214 188.976C226.396 188.805 226.641 188.72 226.95 188.72H230.118C231.964 188.72 233.393 189.216 234.406 190.208C235.43 191.189 235.942 192.571 235.942 194.352C235.942 196.144 235.43 197.536 234.406 198.528C233.393 199.509 231.964 200 230.118 200H226.95ZM229.99 198.32C232.582 198.32 233.878 196.997 233.878 194.352C233.878 191.717 232.582 190.4 229.99 190.4H228.022V198.32H229.99ZM252.588 198.768C252.652 198.907 252.684 199.045 252.684 199.184C252.684 199.429 252.583 199.637 252.38 199.808C252.188 199.979 251.964 200.064 251.708 200.064C251.538 200.064 251.378 200.021 251.228 199.936C251.079 199.84 250.962 199.696 250.876 199.504L249.916 197.36H244.284L243.324 199.504C243.239 199.696 243.122 199.84 242.972 199.936C242.823 200.021 242.658 200.064 242.476 200.064C242.231 200.064 242.007 199.979 241.804 199.808C241.602 199.637 241.5 199.429 241.5 199.184C241.5 199.045 241.532 198.907 241.596 198.768L246.012 189.28C246.108 189.067 246.252 188.907 246.444 188.8C246.647 188.683 246.86 188.624 247.084 188.624C247.308 188.624 247.516 188.683 247.708 188.8C247.911 188.907 248.06 189.067 248.156 189.28L252.588 198.768ZM244.988 195.76H249.212L247.1 191.008L244.988 195.76ZM256.545 200.08C256.225 200.08 255.969 199.989 255.777 199.808C255.595 199.616 255.505 199.365 255.505 199.056V190.416H252.593C251.953 190.416 251.633 190.133 251.633 189.568C251.633 189.003 251.953 188.72 252.593 188.72H260.481C261.121 188.72 261.441 189.003 261.441 189.568C261.441 190.133 261.121 190.416 260.481 190.416H257.569V199.056C257.569 199.365 257.473 199.616 257.281 199.808C257.099 199.989 256.854 200.08 256.545 200.08ZM138.326 220.08C138.006 220.08 137.75 219.989 137.558 219.808C137.377 219.616 137.286 219.365 137.286 219.056V210.416H134.374C133.734 210.416 133.414 210.133 133.414 209.568C133.414 209.003 133.734 208.72 134.374 208.72H142.262C142.902 208.72 143.222 209.003 143.222 209.568C143.222 210.133 142.902 210.416 142.262 210.416H139.35V219.056C139.35 219.365 139.254 219.616 139.062 219.808C138.881 219.989 138.635 220.08 138.326 220.08ZM148.795 220.144C147.696 220.144 146.741 219.909 145.931 219.44C145.131 218.971 144.512 218.299 144.075 217.424C143.637 216.549 143.419 215.525 143.419 214.352C143.419 213.179 143.632 212.16 144.059 211.296C144.496 210.421 145.12 209.749 145.931 209.28C146.741 208.811 147.696 208.576 148.795 208.576C149.893 208.576 150.843 208.811 151.643 209.28C152.453 209.749 153.072 210.421 153.499 211.296C153.936 212.16 154.155 213.179 154.155 214.352C154.155 215.525 153.936 216.549 153.499 217.424C153.061 218.299 152.437 218.971 151.627 219.44C150.827 219.909 149.883 220.144 148.795 220.144ZM148.795 218.496C149.829 218.496 150.635 218.139 151.211 217.424C151.797 216.709 152.091 215.685 152.091 214.352C152.091 213.019 151.797 212 151.211 211.296C150.635 210.581 149.829 210.224 148.795 210.224C147.749 210.224 146.933 210.581 146.347 211.296C145.771 212 145.483 213.019 145.483 214.352C145.483 215.685 145.771 216.709 146.347 217.424C146.933 218.139 147.749 218.496 148.795 218.496ZM157.263 220.096C156.954 220.096 156.703 220.005 156.511 219.824C156.33 219.632 156.239 219.376 156.239 219.056V209.696C156.239 209.387 156.325 209.147 156.495 208.976C156.677 208.805 156.922 208.72 157.231 208.72H161.167C162.373 208.72 163.311 209.024 163.983 209.632C164.655 210.229 164.991 211.072 164.991 212.16C164.991 213.248 164.655 214.096 163.983 214.704C163.311 215.312 162.373 215.616 161.167 215.616H158.303V219.056C158.303 219.376 158.207 219.632 158.015 219.824C157.834 220.005 157.583 220.096 157.263 220.096ZM160.911 214.032C162.33 214.032 163.039 213.413 163.039 212.176C163.039 210.939 162.33 210.32 160.911 210.32H158.303V214.032H160.911ZM172.138 220C171.828 220 171.583 219.915 171.402 219.744C171.231 219.573 171.146 219.333 171.146 219.024V209.696C171.146 209.387 171.231 209.147 171.402 208.976C171.583 208.805 171.828 208.72 172.138 208.72H177.914C178.223 208.72 178.463 208.789 178.634 208.928C178.804 209.067 178.89 209.264 178.89 209.52C178.89 209.787 178.804 209.995 178.634 210.144C178.463 210.283 178.223 210.352 177.914 210.352H173.162V213.456H177.594C177.903 213.456 178.143 213.525 178.314 213.664C178.484 213.803 178.57 214.005 178.57 214.272C178.57 214.528 178.484 214.725 178.314 214.864C178.143 215.003 177.903 215.072 177.594 215.072H173.162V218.368H177.914C178.223 218.368 178.463 218.443 178.634 218.592C178.804 218.731 178.89 218.933 178.89 219.2C178.89 219.456 178.804 219.653 178.634 219.792C178.463 219.931 178.223 220 177.914 220H172.138ZM189.226 218.528C189.397 218.731 189.482 218.933 189.482 219.136C189.482 219.392 189.381 219.616 189.178 219.808C188.986 220 188.762 220.096 188.506 220.096C188.24 220.096 188.005 219.979 187.802 219.744L184.554 215.712L181.29 219.744C181.098 219.968 180.869 220.08 180.602 220.08C180.346 220.08 180.117 219.989 179.914 219.808C179.722 219.616 179.626 219.392 179.626 219.136C179.626 218.923 179.706 218.72 179.866 218.528L183.354 214.272L180.01 210.192C179.85 210.021 179.77 209.819 179.77 209.584C179.77 209.328 179.866 209.109 180.058 208.928C180.25 208.736 180.474 208.64 180.73 208.64C180.997 208.64 181.232 208.757 181.434 208.992L184.554 212.848L187.674 208.992C187.866 208.757 188.096 208.64 188.362 208.64C188.618 208.64 188.842 208.736 189.034 208.928C189.237 209.109 189.338 209.328 189.338 209.584C189.338 209.819 189.258 210.021 189.098 210.192L185.754 214.272L189.226 218.528ZM195.717 220.144C194.629 220.144 193.674 219.909 192.853 219.44C192.042 218.971 191.418 218.299 190.981 217.424C190.544 216.549 190.325 215.525 190.325 214.352C190.325 213.179 190.544 212.16 190.981 211.296C191.418 210.421 192.042 209.749 192.853 209.28C193.674 208.811 194.629 208.576 195.717 208.576C196.421 208.576 197.082 208.683 197.701 208.896C198.32 209.099 198.869 209.397 199.349 209.792C199.488 209.899 199.584 210.011 199.637 210.128C199.69 210.245 199.717 210.389 199.717 210.56C199.717 210.795 199.653 210.992 199.525 211.152C199.397 211.312 199.242 211.392 199.061 211.392C198.848 211.392 198.629 211.317 198.405 211.168C197.946 210.827 197.52 210.592 197.125 210.464C196.73 210.325 196.293 210.256 195.813 210.256C194.704 210.256 193.861 210.603 193.285 211.296C192.72 211.989 192.437 213.008 192.437 214.352C192.437 215.707 192.72 216.731 193.285 217.424C193.861 218.117 194.704 218.464 195.813 218.464C196.272 218.464 196.693 218.395 197.077 218.256C197.472 218.117 197.914 217.883 198.405 217.552C198.512 217.488 198.618 217.435 198.725 217.392C198.832 217.349 198.944 217.328 199.061 217.328C199.242 217.328 199.397 217.408 199.525 217.568C199.653 217.728 199.717 217.925 199.717 218.16C199.717 218.32 199.69 218.464 199.637 218.592C199.584 218.709 199.488 218.821 199.349 218.928C198.869 219.323 198.32 219.627 197.701 219.84C197.082 220.043 196.421 220.144 195.717 220.144ZM210.337 208.64C210.646 208.64 210.891 208.736 211.073 208.928C211.254 209.109 211.345 209.355 211.345 209.664V219.056C211.345 219.365 211.249 219.616 211.057 219.808C210.875 220 210.635 220.096 210.337 220.096C210.027 220.096 209.782 220 209.601 219.808C209.419 219.616 209.329 219.365 209.329 219.056V215.104H203.553V219.056C203.553 219.365 203.457 219.616 203.265 219.808C203.083 220 202.838 220.096 202.529 220.096C202.23 220.096 201.985 220 201.793 219.808C201.611 219.616 201.521 219.365 201.521 219.056V209.664C201.521 209.355 201.611 209.109 201.793 208.928C201.974 208.736 202.219 208.64 202.529 208.64C202.838 208.64 203.083 208.736 203.265 208.928C203.457 209.109 203.553 209.355 203.553 209.664V213.44H209.329V209.664C209.329 209.355 209.419 209.109 209.601 208.928C209.782 208.736 210.027 208.64 210.337 208.64ZM223.995 218.768C224.059 218.907 224.091 219.045 224.091 219.184C224.091 219.429 223.989 219.637 223.787 219.808C223.595 219.979 223.371 220.064 223.115 220.064C222.944 220.064 222.784 220.021 222.635 219.936C222.485 219.84 222.368 219.696 222.283 219.504L221.323 217.36H215.691L214.731 219.504C214.645 219.696 214.528 219.84 214.379 219.936C214.229 220.021 214.064 220.064 213.883 220.064C213.637 220.064 213.413 219.979 213.211 219.808C213.008 219.637 212.907 219.429 212.907 219.184C212.907 219.045 212.939 218.907 213.003 218.768L217.419 209.28C217.515 209.067 217.659 208.907 217.851 208.8C218.053 208.683 218.267 208.624 218.491 208.624C218.715 208.624 218.923 208.683 219.115 208.8C219.317 208.907 219.467 209.067 219.563 209.28L223.995 218.768ZM216.395 215.76H220.619L218.507 211.008L216.395 215.76ZM234.19 208.64C234.488 208.64 234.723 208.736 234.894 208.928C235.075 209.109 235.166 209.355 235.166 209.664V219.056C235.166 219.365 235.075 219.616 234.894 219.808C234.712 220 234.478 220.096 234.19 220.096C233.848 220.096 233.587 219.973 233.406 219.728L227.566 212.128V219.056C227.566 219.365 227.48 219.616 227.31 219.808C227.139 220 226.904 220.096 226.606 220.096C226.307 220.096 226.072 220 225.902 219.808C225.731 219.616 225.646 219.365 225.646 219.056V209.664C225.646 209.355 225.736 209.109 225.918 208.928C226.099 208.736 226.339 208.64 226.638 208.64C226.968 208.64 227.224 208.763 227.406 209.008L233.23 216.576V209.664C233.23 209.355 233.315 209.109 233.486 208.928C233.667 208.736 233.902 208.64 234.19 208.64ZM246.191 213.904C246.436 213.904 246.633 213.979 246.783 214.128C246.932 214.267 247.007 214.453 247.007 214.688V218.128C247.007 218.619 246.943 218.965 246.815 219.168C246.687 219.371 246.425 219.536 246.031 219.664C245.604 219.813 245.108 219.931 244.543 220.016C243.977 220.101 243.433 220.144 242.911 220.144C241.748 220.144 240.74 219.915 239.887 219.456C239.033 218.997 238.377 218.336 237.919 217.472C237.471 216.597 237.247 215.557 237.247 214.352C237.247 213.168 237.471 212.144 237.919 211.28C238.377 210.405 239.023 209.739 239.855 209.28C240.687 208.811 241.668 208.576 242.799 208.576C244.303 208.576 245.535 208.981 246.495 209.792C246.623 209.909 246.713 210.027 246.767 210.144C246.831 210.261 246.863 210.4 246.863 210.56C246.863 210.795 246.799 210.992 246.671 211.152C246.543 211.312 246.388 211.392 246.207 211.392C246.089 211.392 245.983 211.376 245.887 211.344C245.791 211.301 245.679 211.237 245.551 211.152C245.081 210.821 244.644 210.592 244.239 210.464C243.833 210.325 243.375 210.256 242.863 210.256C241.7 210.256 240.82 210.603 240.223 211.296C239.636 211.979 239.343 212.997 239.343 214.352C239.343 217.125 240.559 218.512 242.991 218.512C243.716 218.512 244.441 218.411 245.167 218.208V215.376H243.359C243.103 215.376 242.9 215.312 242.751 215.184C242.612 215.056 242.543 214.875 242.543 214.64C242.543 214.405 242.612 214.224 242.751 214.096C242.9 213.968 243.103 213.904 243.359 213.904H246.191ZM250.325 220C250.016 220 249.771 219.915 249.589 219.744C249.419 219.573 249.333 219.333 249.333 219.024V209.696C249.333 209.387 249.419 209.147 249.589 208.976C249.771 208.805 250.016 208.72 250.325 208.72H256.101C256.411 208.72 256.651 208.789 256.821 208.928C256.992 209.067 257.077 209.264 257.077 209.52C257.077 209.787 256.992 209.995 256.821 210.144C256.651 210.283 256.411 210.352 256.101 210.352H251.349V213.456H255.781C256.091 213.456 256.331 213.525 256.501 213.664C256.672 213.803 256.757 214.005 256.757 214.272C256.757 214.528 256.672 214.725 256.501 214.864C256.331 215.003 256.091 215.072 255.781 215.072H251.349V218.368H256.101C256.411 218.368 256.651 218.443 256.821 218.592C256.992 218.731 257.077 218.933 257.077 219.2C257.077 219.456 256.992 219.653 256.821 219.792C256.651 219.931 256.411 220 256.101 220H250.325ZM262.503 220.144C261.681 220.144 260.903 220.037 260.167 219.824C259.441 219.6 258.849 219.301 258.391 218.928C258.145 218.747 258.023 218.491 258.023 218.16C258.023 217.936 258.087 217.744 258.215 217.584C258.353 217.413 258.513 217.328 258.695 217.328C258.887 217.328 259.105 217.403 259.351 217.552C259.809 217.883 260.289 218.123 260.791 218.272C261.292 218.421 261.847 218.496 262.455 218.496C263.233 218.496 263.831 218.363 264.247 218.096C264.663 217.819 264.871 217.419 264.871 216.896C264.871 216.491 264.673 216.181 264.279 215.968C263.895 215.744 263.249 215.531 262.343 215.328C261.404 215.125 260.641 214.891 260.055 214.624C259.468 214.357 259.025 214.016 258.727 213.6C258.428 213.184 258.279 212.656 258.279 212.016C258.279 211.355 258.465 210.763 258.839 210.24C259.212 209.717 259.729 209.312 260.391 209.024C261.063 208.725 261.815 208.576 262.647 208.576C264.172 208.576 265.415 208.981 266.375 209.792C266.513 209.909 266.609 210.027 266.663 210.144C266.727 210.251 266.759 210.389 266.759 210.56C266.759 210.784 266.689 210.981 266.551 211.152C266.423 211.312 266.268 211.392 266.087 211.392C265.98 211.392 265.879 211.376 265.783 211.344C265.697 211.312 265.58 211.253 265.431 211.168C264.993 210.848 264.567 210.613 264.151 210.464C263.745 210.304 263.244 210.224 262.647 210.224C261.921 210.224 261.345 210.373 260.919 210.672C260.503 210.96 260.295 211.365 260.295 211.888C260.295 212.325 260.481 212.661 260.855 212.896C261.228 213.131 261.863 213.349 262.759 213.552C263.708 213.765 264.476 214.005 265.063 214.272C265.66 214.528 266.113 214.859 266.423 215.264C266.743 215.669 266.903 216.176 266.903 216.784C266.903 217.445 266.716 218.032 266.343 218.544C265.98 219.045 265.463 219.44 264.791 219.728C264.129 220.005 263.367 220.144 262.503 220.144Z" fill="white"/>
<path d="M189.265 107.336C189.905 107.336 190.225 107.608 190.225 108.152C190.225 108.717 189.905 109 189.265 109H183.185C182.908 109 182.689 108.92 182.529 108.76C182.369 108.589 182.289 108.381 182.289 108.136C182.289 107.816 182.412 107.528 182.657 107.272L186.305 103.352C186.753 102.861 187.078 102.413 187.281 102.008C187.494 101.592 187.601 101.181 187.601 100.776C187.601 100.275 187.457 99.8907 187.169 99.624C186.881 99.3573 186.47 99.224 185.937 99.224C185.5 99.224 185.073 99.3093 184.657 99.48C184.252 99.64 183.841 99.864 183.425 100.152C183.318 100.227 183.212 100.291 183.105 100.344C182.998 100.387 182.892 100.408 182.785 100.408C182.604 100.408 182.444 100.323 182.305 100.152C182.177 99.9813 182.113 99.7787 182.113 99.544C182.113 99.384 182.14 99.2453 182.193 99.128C182.257 99.0107 182.353 98.8987 182.481 98.792C182.95 98.4187 183.5 98.1253 184.129 97.912C184.758 97.688 185.388 97.576 186.017 97.576C187.116 97.576 187.99 97.8533 188.641 98.408C189.302 98.9627 189.633 99.7093 189.633 100.648C189.633 101.299 189.494 101.912 189.217 102.488C188.94 103.053 188.47 103.688 187.809 104.392L185.041 107.336H189.265ZM195.706 109.144C194.373 109.144 193.354 108.653 192.65 107.672C191.946 106.68 191.594 105.24 191.594 103.352C191.594 101.475 191.946 100.045 192.65 99.064C193.354 98.072 194.373 97.576 195.706 97.576C197.04 97.576 198.058 98.072 198.762 99.064C199.466 100.045 199.818 101.475 199.818 103.352C199.818 105.229 199.466 106.664 198.762 107.656C198.058 108.648 197.04 109.144 195.706 109.144ZM195.706 107.528C196.432 107.528 196.96 107.197 197.29 106.536C197.621 105.864 197.786 104.803 197.786 103.352C197.786 101.891 197.621 100.835 197.29 100.184C196.96 99.5227 196.432 99.192 195.706 99.192C194.981 99.192 194.453 99.5227 194.122 100.184C193.792 100.845 193.626 101.901 193.626 103.352C193.626 104.803 193.792 105.864 194.122 106.536C194.453 107.197 194.981 107.528 195.706 107.528ZM208.468 107.336C209.108 107.336 209.428 107.608 209.428 108.152C209.428 108.717 209.108 109 208.468 109H202.388C202.111 109 201.892 108.92 201.732 108.76C201.572 108.589 201.492 108.381 201.492 108.136C201.492 107.816 201.615 107.528 201.86 107.272L205.508 103.352C205.956 102.861 206.281 102.413 206.484 102.008C206.697 101.592 206.804 101.181 206.804 100.776C206.804 100.275 206.66 99.8907 206.372 99.624C206.084 99.3573 205.673 99.224 205.14 99.224C204.703 99.224 204.276 99.3093 203.86 99.48C203.455 99.64 203.044 99.864 202.628 100.152C202.521 100.227 202.415 100.291 202.308 100.344C202.201 100.387 202.095 100.408 201.988 100.408C201.807 100.408 201.647 100.323 201.508 100.152C201.38 99.9813 201.316 99.7787 201.316 99.544C201.316 99.384 201.343 99.2453 201.396 99.128C201.46 99.0107 201.556 98.8987 201.684 98.792C202.153 98.4187 202.703 98.1253 203.332 97.912C203.961 97.688 204.591 97.576 205.22 97.576C206.319 97.576 207.193 97.8533 207.844 98.408C208.505 98.9627 208.836 99.7093 208.836 100.648C208.836 101.299 208.697 101.912 208.42 102.488C208.143 103.053 207.673 103.688 207.012 104.392L204.244 107.336H208.468ZM218.125 107.336C218.765 107.336 219.085 107.608 219.085 108.152C219.085 108.717 218.765 109 218.125 109H212.717C212.067 109 211.741 108.717 211.741 108.152C211.741 107.608 212.067 107.336 212.717 107.336H214.381V100.04L212.845 100.984C212.696 101.069 212.563 101.112 212.445 101.112C212.221 101.112 212.029 101.016 211.869 100.824C211.72 100.632 211.645 100.419 211.645 100.184C211.645 99.8747 211.784 99.6347 212.061 99.464L214.541 97.928C214.861 97.736 215.165 97.64 215.453 97.64C215.752 97.64 215.992 97.7307 216.173 97.912C216.355 98.0933 216.445 98.344 216.445 98.664V107.336H218.125Z" fill="#F1C12B"/>
<path d="M184.336 91.096C183.515 91.128 183.104 90.8453 183.104 90.248C183.104 89.992 183.173 89.8 183.312 89.672C183.44 89.5333 183.648 89.4533 183.936 89.432L184.448 89.4C184.885 89.3787 185.216 89.24 185.44 88.984C185.664 88.728 185.776 88.3387 185.776 87.816V80.664C185.776 80.3547 185.867 80.1093 186.048 79.928C186.24 79.736 186.491 79.64 186.8 79.64C187.12 79.64 187.371 79.736 187.552 79.928C187.744 80.1093 187.84 80.3547 187.84 80.664V87.816C187.84 89.832 186.843 90.9147 184.848 91.064L184.336 91.096ZM194.935 91.144C193.388 91.144 192.215 90.744 191.414 89.944C190.615 89.144 190.215 87.976 190.215 86.44V80.664C190.215 80.3547 190.305 80.1093 190.487 79.928C190.668 79.736 190.913 79.64 191.223 79.64C191.532 79.64 191.777 79.736 191.959 79.928C192.14 80.1093 192.231 80.3547 192.231 80.664V86.552C192.231 87.5227 192.46 88.2587 192.919 88.76C193.377 89.2507 194.049 89.496 194.935 89.496C195.809 89.496 196.476 89.2453 196.935 88.744C197.393 88.2427 197.623 87.512 197.623 86.552V80.664C197.623 80.3547 197.713 80.1093 197.895 79.928C198.076 79.736 198.321 79.64 198.631 79.64C198.94 79.64 199.185 79.736 199.367 79.928C199.548 80.1093 199.639 80.3547 199.639 80.664V86.44C199.639 87.9653 199.239 89.1333 198.439 89.944C197.639 90.744 196.471 91.144 194.935 91.144ZM202.989 91C202.68 91 202.44 90.9147 202.269 90.744C202.098 90.5733 202.013 90.3387 202.013 90.04V80.664C202.013 80.3547 202.104 80.1093 202.285 79.928C202.477 79.736 202.728 79.64 203.037 79.64C203.357 79.64 203.608 79.736 203.789 79.928C203.981 80.1093 204.077 80.3547 204.077 80.664V89.304H208.573C209.213 89.304 209.533 89.5867 209.533 90.152C209.533 90.7173 209.213 91 208.573 91H202.989ZM215.959 79.992C216.151 79.7573 216.38 79.64 216.647 79.64C216.892 79.64 217.111 79.736 217.303 79.928C217.495 80.1093 217.591 80.328 217.591 80.584C217.591 80.7973 217.511 81 217.351 81.192L213.719 85.624V90.056C213.719 90.3867 213.623 90.6427 213.431 90.824C213.239 91.0053 212.994 91.096 212.695 91.096C212.386 91.096 212.135 91.0053 211.943 90.824C211.751 90.6427 211.655 90.3867 211.655 90.056V85.624L208.023 81.192C207.863 81 207.783 80.7973 207.783 80.584C207.783 80.328 207.879 80.1093 208.071 79.928C208.263 79.736 208.482 79.64 208.727 79.64C208.994 79.64 209.223 79.7573 209.415 79.992L212.695 84.056L215.959 79.992Z" fill="#F1C12B"/>
<g filter="url(#filter0_d)">
<path d="M242.93 120.097L242.921 120.102L242.912 120.107L203.065 143.794C202.285 144.241 201.4 144.477 200.5 144.477C199.6 144.477 198.715 144.241 197.935 143.794L158.088 120.107L158.079 120.102L158.07 120.097C157.288 119.647 156.639 118.999 156.188 118.221C155.737 117.442 155.5 116.559 155.5 115.661V70.3158C155.5 69.4173 155.737 68.5343 156.188 67.7557C156.639 66.977 157.288 66.3299 158.07 65.8797L158.079 65.8745L158.088 65.8691L197.935 42.1824C198.715 41.7354 199.6 41.4999 200.5 41.4999C201.4 41.4999 202.285 41.7353 203.065 42.1824L242.912 65.8691L242.921 65.8745L242.93 65.8797C243.712 66.3299 244.361 66.977 244.812 67.7557C245.263 68.5343 245.5 69.4173 245.5 70.3157V115.661C245.5 115.661 245.5 115.661 245.5 115.661C245.5 116.559 245.263 117.442 244.812 118.221C244.361 118.999 243.712 119.647 242.93 120.097Z" stroke="#F1C12B" stroke-width="3"/>
</g>
<path d="M345.93 120.097L345.921 120.102L345.912 120.107L306.065 143.794C305.285 144.241 304.4 144.477 303.5 144.477C302.6 144.477 301.715 144.241 300.935 143.794L261.088 120.107L261.079 120.102L261.07 120.097C260.288 119.647 259.639 118.999 259.188 118.221C258.737 117.442 258.5 116.559 258.5 115.661V70.3158C258.5 69.4173 258.737 68.5343 259.188 67.7557C259.639 66.977 260.288 66.3299 261.07 65.8797L261.079 65.8745L261.088 65.8691L300.935 42.1824C301.715 41.7354 302.6 41.4999 303.5 41.4999C304.4 41.4999 305.285 41.7353 306.065 42.1824L345.912 65.8691L345.921 65.8745L345.93 65.8797C346.712 66.3299 347.361 66.977 347.812 67.7557C348.263 68.5343 348.5 69.4173 348.5 70.3157V115.661C348.5 115.661 348.5 115.661 348.5 115.661C348.5 116.559 348.263 117.442 347.812 118.221C347.361 118.999 346.712 119.647 345.93 120.097Z" stroke="#212151" stroke-width="3"/>
<path d="M139.93 120.097L139.921 120.102L139.912 120.107L100.065 143.794C99.2846 144.241 98.4003 144.477 97.5 144.477C96.5997 144.477 95.7154 144.241 94.9354 143.794L55.0879 120.107L55.0789 120.102L55.0698 120.097C54.2878 119.647 53.639 118.999 53.1881 118.221C52.7372 117.442 52.5 116.559 52.5 115.661V70.3158C52.5 69.4173 52.7372 68.5343 53.1881 67.7557C53.639 66.977 54.2878 66.3299 55.0698 65.8797L55.0789 65.8745L55.0879 65.8691L94.9353 42.1824C95.7153 41.7354 96.5996 41.4999 97.5 41.4999C98.4004 41.4999 99.2847 41.7353 100.065 42.1824L139.912 65.8691L139.921 65.8745L139.93 65.8797C140.712 66.3299 141.361 66.977 141.812 67.7557C142.263 68.5343 142.5 69.4173 142.5 70.3157V115.661C142.5 115.661 142.5 115.661 142.5 115.661C142.5 116.559 142.263 117.442 141.812 118.221C141.361 118.999 140.712 119.647 139.93 120.097Z" stroke="#212151" stroke-width="3"/>
<path d="M88.9302 210.097L88.9211 210.102L88.9121 210.107L49.0645 233.794C48.2846 234.241 47.4003 234.477 46.5 234.477C45.5997 234.477 44.7154 234.241 43.9354 233.794L4.08788 210.107L4.07887 210.102L4.06979 210.097C3.28781 209.647 2.63898 208.999 2.18809 208.221C1.73722 207.442 1.50002 206.559 1.5 205.661V160.316C1.50002 159.417 1.73722 158.534 2.18809 157.756C2.63897 156.977 3.2878 156.33 4.06979 155.88L4.07887 155.874L4.08788 155.869L43.9353 132.182C44.7153 131.735 45.5996 131.5 46.5 131.5C47.4004 131.5 48.2847 131.735 49.0647 132.182L88.9121 155.869L88.9211 155.874L88.9302 155.88C89.7122 156.33 90.361 156.977 90.8119 157.756C91.2628 158.534 91.5 159.417 91.5 160.316V205.661C91.5 205.661 91.5 205.661 91.5 205.661C91.5 206.559 91.2628 207.442 90.8119 208.221C90.361 208.999 89.7122 209.647 88.9302 210.097Z" stroke="#212151" stroke-width="3"/>
<defs>
<filter id="filter0_d" x="114" y="0" width="173" height="185.977" filterUnits="userSpaceOnUse" color-interpolation-filters="sRGB">
<feFlood flood-opacity="0" result="BackgroundImageFix"/>
<feColorMatrix in="SourceAlpha" type="matrix" values="0 0 0 0 0 0 0 0 0 0 0 0 0 0 0 0 0 0 127 0"/>
<feOffset/>
<feGaussianBlur stdDeviation="20"/>
<feColorMatrix type="matrix" values="0 0 0 0 0.945098 0 0 0 0 0.756863 0 0 0 0 0.168627 0 0 0 1 0"/>
<feBlend mode="normal" in2="BackgroundImageFix" result="effect1_dropShadow"/>
<feBlend mode="normal" in="SourceGraphic" in2="effect1_dropShadow" result="shape"/>
</filter>
</defs>
</svg>
