<svg width="463" height="253" viewBox="0 0 463 253" fill="none" xmlns="http://www.w3.org/2000/svg">
<path d="M65.2711 217.64C65.5697 217.64 65.8097 217.736 65.9911 217.928C66.1724 218.109 66.2631 218.355 66.2631 218.664V228.136C66.2631 228.435 66.1777 228.669 66.0071 228.84C65.8364 229.011 65.6124 229.096 65.3351 229.096C65.0577 229.096 64.8391 229.011 64.6791 228.84C64.5191 228.669 64.4391 228.435 64.4391 228.136V221.544L61.7191 226.696C61.5911 226.931 61.4524 227.107 61.3031 227.224C61.1537 227.331 60.9777 227.384 60.7751 227.384C60.5724 227.384 60.3964 227.331 60.2471 227.224C60.0977 227.117 59.9591 226.941 59.8311 226.696L57.0951 221.624V228.136C57.0951 228.424 57.0097 228.659 56.8391 228.84C56.6791 229.011 56.4604 229.096 56.1831 229.096C55.9057 229.096 55.6871 229.011 55.5271 228.84C55.3671 228.669 55.2871 228.435 55.2871 228.136V218.664C55.2871 218.355 55.3724 218.109 55.5431 217.928C55.7244 217.736 55.9644 217.64 56.2631 217.64C56.6791 217.64 57.0044 217.869 57.2391 218.328L60.7911 225.096L64.3271 218.328C64.5617 217.869 64.8764 217.64 65.2711 217.64ZM69.7322 229.096C69.4229 229.096 69.1722 229 68.9802 228.808C68.7989 228.616 68.7082 228.365 68.7082 228.056V218.664C68.7082 218.355 68.7989 218.109 68.9802 217.928C69.1722 217.736 69.4229 217.64 69.7322 217.64C70.0522 217.64 70.3029 217.736 70.4842 217.928C70.6762 218.109 70.7722 218.355 70.7722 218.664V228.056C70.7722 228.365 70.6762 228.616 70.4842 228.808C70.3029 229 70.0522 229.096 69.7322 229.096ZM81.8002 222.904C82.0455 222.904 82.2429 222.979 82.3922 223.128C82.5415 223.267 82.6162 223.453 82.6162 223.688V227.128C82.6162 227.619 82.5522 227.965 82.4242 228.168C82.2962 228.371 82.0349 228.536 81.6402 228.664C81.2135 228.813 80.7175 228.931 80.1522 229.016C79.5869 229.101 79.0429 229.144 78.5202 229.144C77.3575 229.144 76.3495 228.915 75.4962 228.456C74.6429 227.997 73.9869 227.336 73.5282 226.472C73.0802 225.597 72.8562 224.557 72.8562 223.352C72.8562 222.168 73.0802 221.144 73.5282 220.28C73.9869 219.405 74.6322 218.739 75.4642 218.28C76.2962 217.811 77.2775 217.576 78.4082 217.576C79.9122 217.576 81.1442 217.981 82.1042 218.792C82.2322 218.909 82.3229 219.027 82.3762 219.144C82.4402 219.261 82.4722 219.4 82.4722 219.56C82.4722 219.795 82.4082 219.992 82.2802 220.152C82.1522 220.312 81.9975 220.392 81.8162 220.392C81.6989 220.392 81.5922 220.376 81.4962 220.344C81.4002 220.301 81.2882 220.237 81.1602 220.152C80.6909 219.821 80.2535 219.592 79.8482 219.464C79.4429 219.325 78.9842 219.256 78.4722 219.256C77.3095 219.256 76.4295 219.603 75.8322 220.296C75.2455 220.979 74.9522 221.997 74.9522 223.352C74.9522 226.125 76.1682 227.512 78.6002 227.512C79.3255 227.512 80.0509 227.411 80.7762 227.208V224.376H78.9682C78.7122 224.376 78.5095 224.312 78.3602 224.184C78.2215 224.056 78.1522 223.875 78.1522 223.64C78.1522 223.405 78.2215 223.224 78.3602 223.096C78.5095 222.968 78.7122 222.904 78.9682 222.904H81.8002ZM93.9666 227.704C94.0946 227.896 94.1586 228.083 94.1586 228.264C94.1586 228.509 94.0572 228.712 93.8546 228.872C93.6626 229.032 93.4332 229.112 93.1666 229.112C92.9959 229.112 92.8306 229.075 92.6706 229C92.5212 228.915 92.3932 228.792 92.2866 228.632L90.1586 225.4C89.9452 225.059 89.7159 224.819 89.4706 224.68C89.2359 224.541 88.9266 224.472 88.5426 224.472H86.9746V228.056C86.9746 228.376 86.8839 228.632 86.7026 228.824C86.5212 229.005 86.2759 229.096 85.9666 229.096C85.6572 229.096 85.4066 229.005 85.2146 228.824C85.0332 228.632 84.9426 228.376 84.9426 228.056V218.696C84.9426 218.387 85.0279 218.147 85.1986 217.976C85.3799 217.805 85.6252 217.72 85.9346 217.72H89.9346C91.2146 217.72 92.1852 218.008 92.8466 218.584C93.5186 219.149 93.8546 219.971 93.8546 221.048C93.8546 221.923 93.6039 222.643 93.1026 223.208C92.6119 223.763 91.9132 224.12 91.0066 224.28C91.3159 224.355 91.5879 224.488 91.8226 224.68C92.0572 224.872 92.2866 225.139 92.5106 225.48L93.9666 227.704ZM89.6466 222.888C90.4252 222.888 90.9959 222.744 91.3586 222.456C91.7212 222.157 91.9026 221.704 91.9026 221.096C91.9026 220.477 91.7212 220.029 91.3586 219.752C90.9959 219.464 90.4252 219.32 89.6466 219.32H86.9586V222.888H89.6466ZM106.167 227.768C106.231 227.907 106.263 228.045 106.263 228.184C106.263 228.429 106.161 228.637 105.959 228.808C105.767 228.979 105.543 229.064 105.287 229.064C105.116 229.064 104.956 229.021 104.807 228.936C104.657 228.84 104.54 228.696 104.455 228.504L103.495 226.36H97.8626L96.9026 228.504C96.8172 228.696 96.6999 228.84 96.5506 228.936C96.4012 229.021 96.2359 229.064 96.0546 229.064C95.8092 229.064 95.5852 228.979 95.3826 228.808C95.1799 228.637 95.0786 228.429 95.0786 228.184C95.0786 228.045 95.1106 227.907 95.1746 227.768L99.5906 218.28C99.6866 218.067 99.8306 217.907 100.023 217.8C100.225 217.683 100.439 217.624 100.663 217.624C100.887 217.624 101.095 217.683 101.287 217.8C101.489 217.907 101.639 218.067 101.735 218.28L106.167 227.768ZM98.5666 224.76H102.791L100.679 220.008L98.5666 224.76ZM110.123 229.08C109.803 229.08 109.547 228.989 109.355 228.808C109.174 228.616 109.083 228.365 109.083 228.056V219.416H106.171C105.531 219.416 105.211 219.133 105.211 218.568C105.211 218.003 105.531 217.72 106.171 217.72H114.059C114.699 217.72 115.019 218.003 115.019 218.568C115.019 219.133 114.699 219.416 114.059 219.416H111.147V228.056C111.147 228.365 111.051 228.616 110.859 228.808C110.678 228.989 110.432 229.08 110.123 229.08ZM117.231 229C116.922 229 116.677 228.915 116.495 228.744C116.325 228.573 116.239 228.333 116.239 228.024V218.696C116.239 218.387 116.325 218.147 116.495 217.976C116.677 217.805 116.922 217.72 117.231 217.72H123.007C123.317 217.72 123.557 217.789 123.727 217.928C123.898 218.067 123.983 218.264 123.983 218.52C123.983 218.787 123.898 218.995 123.727 219.144C123.557 219.283 123.317 219.352 123.007 219.352H118.255V222.456H122.687C122.997 222.456 123.237 222.525 123.407 222.664C123.578 222.803 123.663 223.005 123.663 223.272C123.663 223.528 123.578 223.725 123.407 223.864C123.237 224.003 122.997 224.072 122.687 224.072H118.255V227.368H123.007C123.317 227.368 123.557 227.443 123.727 227.592C123.898 227.731 123.983 227.933 123.983 228.2C123.983 228.456 123.898 228.653 123.727 228.792C123.557 228.931 123.317 229 123.007 229H117.231ZM138.773 227.528C138.944 227.731 139.029 227.933 139.029 228.136C139.029 228.392 138.928 228.616 138.725 228.808C138.533 229 138.309 229.096 138.053 229.096C137.786 229.096 137.552 228.979 137.349 228.744L134.101 224.712L130.837 228.744C130.645 228.968 130.416 229.08 130.149 229.08C129.893 229.08 129.664 228.989 129.461 228.808C129.269 228.616 129.173 228.392 129.173 228.136C129.173 227.923 129.253 227.72 129.413 227.528L132.901 223.272L129.557 219.192C129.397 219.021 129.317 218.819 129.317 218.584C129.317 218.328 129.413 218.109 129.605 217.928C129.797 217.736 130.021 217.64 130.277 217.64C130.544 217.64 130.778 217.757 130.981 217.992L134.101 221.848L137.221 217.992C137.413 217.757 137.642 217.64 137.909 217.64C138.165 217.64 138.389 217.736 138.581 217.928C138.784 218.109 138.885 218.328 138.885 218.584C138.885 218.819 138.805 219.021 138.645 219.192L135.301 223.272L138.773 227.528ZM141.606 229C141.297 229 141.057 228.915 140.886 228.744C140.715 228.573 140.63 228.339 140.63 228.04V218.664C140.63 218.355 140.721 218.109 140.902 217.928C141.094 217.736 141.345 217.64 141.654 217.64C141.974 217.64 142.225 217.736 142.406 217.928C142.598 218.109 142.694 218.355 142.694 218.664V227.304H147.19C147.83 227.304 148.15 227.587 148.15 228.152C148.15 228.717 147.83 229 147.19 229H141.606ZM150.497 229C150.188 229 149.942 228.915 149.761 228.744C149.59 228.573 149.505 228.333 149.505 228.024V218.696C149.505 218.387 149.59 218.147 149.761 217.976C149.942 217.805 150.188 217.72 150.497 217.72H153.665C155.51 217.72 156.94 218.216 157.953 219.208C158.977 220.189 159.489 221.571 159.489 223.352C159.489 225.144 158.977 226.536 157.953 227.528C156.94 228.509 155.51 229 153.665 229H150.497ZM153.537 227.32C156.129 227.32 157.425 225.997 157.425 223.352C157.425 220.717 156.129 219.4 153.537 219.4H151.569V227.32H153.537ZM166.935 229.096C166.626 229.096 166.375 229 166.183 228.808C166.002 228.616 165.911 228.365 165.911 228.056V218.664C165.911 218.355 166.002 218.109 166.183 217.928C166.375 217.736 166.626 217.64 166.935 217.64C167.255 217.64 167.506 217.736 167.687 217.928C167.879 218.109 167.975 218.355 167.975 218.664V228.056C167.975 228.365 167.879 228.616 167.687 228.808C167.506 229 167.255 229.096 166.935 229.096ZM178.955 217.64C179.254 217.64 179.489 217.736 179.659 217.928C179.841 218.109 179.931 218.355 179.931 218.664V228.056C179.931 228.365 179.841 228.616 179.659 228.808C179.478 229 179.243 229.096 178.955 229.096C178.614 229.096 178.353 228.973 178.171 228.728L172.331 221.128V228.056C172.331 228.365 172.246 228.616 172.075 228.808C171.905 229 171.67 229.096 171.371 229.096C171.073 229.096 170.838 229 170.667 228.808C170.497 228.616 170.411 228.365 170.411 228.056V218.664C170.411 218.355 170.502 218.109 170.683 217.928C170.865 217.736 171.105 217.64 171.403 217.64C171.734 217.64 171.99 217.763 172.171 218.008L177.995 225.576V218.664C177.995 218.355 178.081 218.109 178.251 217.928C178.433 217.736 178.667 217.64 178.955 217.64ZM193.652 223.176C194.303 223.357 194.804 223.688 195.156 224.168C195.519 224.648 195.7 225.235 195.7 225.928C195.7 226.888 195.354 227.64 194.66 228.184C193.978 228.728 193.034 229 191.828 229H187.7C187.391 229 187.146 228.915 186.964 228.744C186.794 228.573 186.708 228.333 186.708 228.024V218.696C186.708 218.387 186.794 218.147 186.964 217.976C187.146 217.805 187.391 217.72 187.7 217.72H191.668C192.842 217.72 193.759 217.981 194.42 218.504C195.092 219.016 195.428 219.736 195.428 220.664C195.428 221.261 195.268 221.779 194.948 222.216C194.639 222.653 194.207 222.973 193.652 223.176ZM188.724 222.472H191.332C192.751 222.472 193.46 221.944 193.46 220.888C193.46 220.355 193.284 219.96 192.932 219.704C192.58 219.448 192.047 219.32 191.332 219.32H188.724V222.472ZM191.604 227.4C192.351 227.4 192.895 227.267 193.236 227C193.578 226.733 193.748 226.317 193.748 225.752C193.748 225.187 193.572 224.765 193.22 224.488C192.879 224.211 192.34 224.072 191.604 224.072H188.724V227.4H191.604ZM198.654 229.096C198.345 229.096 198.094 229 197.902 228.808C197.721 228.616 197.63 228.365 197.63 228.056V218.664C197.63 218.355 197.721 218.109 197.902 217.928C198.094 217.736 198.345 217.64 198.654 217.64C198.974 217.64 199.225 217.736 199.406 217.928C199.598 218.109 199.694 218.355 199.694 218.664V228.056C199.694 228.365 199.598 228.616 199.406 228.808C199.225 229 198.974 229.096 198.654 229.096ZM210.674 217.64C210.973 217.64 211.207 217.736 211.378 217.928C211.559 218.109 211.65 218.355 211.65 218.664V228.056C211.65 228.365 211.559 228.616 211.378 228.808C211.197 229 210.962 229.096 210.674 229.096C210.333 229.096 210.071 228.973 209.89 228.728L204.05 221.128V228.056C204.05 228.365 203.965 228.616 203.794 228.808C203.623 229 203.389 229.096 203.09 229.096C202.791 229.096 202.557 229 202.386 228.808C202.215 228.616 202.13 228.365 202.13 228.056V218.664C202.13 218.355 202.221 218.109 202.402 217.928C202.583 217.736 202.823 217.64 203.122 217.64C203.453 217.64 203.709 217.763 203.89 218.008L209.714 225.576V218.664C209.714 218.355 209.799 218.109 209.97 217.928C210.151 217.736 210.386 217.64 210.674 217.64ZM224.307 227.768C224.371 227.907 224.403 228.045 224.403 228.184C224.403 228.429 224.302 228.637 224.099 228.808C223.907 228.979 223.683 229.064 223.427 229.064C223.257 229.064 223.097 229.021 222.947 228.936C222.798 228.84 222.681 228.696 222.595 228.504L221.635 226.36H216.003L215.043 228.504C214.958 228.696 214.841 228.84 214.691 228.936C214.542 229.021 214.377 229.064 214.195 229.064C213.95 229.064 213.726 228.979 213.523 228.808C213.321 228.637 213.219 228.429 213.219 228.184C213.219 228.045 213.251 227.907 213.315 227.768L217.731 218.28C217.827 218.067 217.971 217.907 218.163 217.8C218.366 217.683 218.579 217.624 218.803 217.624C219.027 217.624 219.235 217.683 219.427 217.8C219.63 217.907 219.779 218.067 219.875 218.28L224.307 227.768ZM216.707 224.76H220.931L218.819 220.008L216.707 224.76ZM234.502 217.64C234.801 217.64 235.036 217.736 235.206 217.928C235.388 218.109 235.478 218.355 235.478 218.664V228.056C235.478 228.365 235.388 228.616 235.206 228.808C235.025 229 234.79 229.096 234.502 229.096C234.161 229.096 233.9 228.973 233.718 228.728L227.878 221.128V228.056C227.878 228.365 227.793 228.616 227.622 228.808C227.452 229 227.217 229.096 226.918 229.096C226.62 229.096 226.385 229 226.214 228.808C226.044 228.616 225.958 228.365 225.958 228.056V218.664C225.958 218.355 226.049 218.109 226.23 217.928C226.412 217.736 226.652 217.64 226.95 217.64C227.281 217.64 227.537 217.763 227.718 218.008L233.542 225.576V218.664C233.542 218.355 233.628 218.109 233.798 217.928C233.98 217.736 234.214 217.64 234.502 217.64ZM242.951 229.144C241.863 229.144 240.909 228.909 240.087 228.44C239.277 227.971 238.653 227.299 238.215 226.424C237.778 225.549 237.559 224.525 237.559 223.352C237.559 222.179 237.778 221.16 238.215 220.296C238.653 219.421 239.277 218.749 240.087 218.28C240.909 217.811 241.863 217.576 242.951 217.576C243.655 217.576 244.317 217.683 244.935 217.896C245.554 218.099 246.103 218.397 246.583 218.792C246.722 218.899 246.818 219.011 246.871 219.128C246.925 219.245 246.951 219.389 246.951 219.56C246.951 219.795 246.887 219.992 246.759 220.152C246.631 220.312 246.477 220.392 246.295 220.392C246.082 220.392 245.863 220.317 245.639 220.168C245.181 219.827 244.754 219.592 244.359 219.464C243.965 219.325 243.527 219.256 243.047 219.256C241.938 219.256 241.095 219.603 240.519 220.296C239.954 220.989 239.671 222.008 239.671 223.352C239.671 224.707 239.954 225.731 240.519 226.424C241.095 227.117 241.938 227.464 243.047 227.464C243.506 227.464 243.927 227.395 244.311 227.256C244.706 227.117 245.149 226.883 245.639 226.552C245.746 226.488 245.853 226.435 245.959 226.392C246.066 226.349 246.178 226.328 246.295 226.328C246.477 226.328 246.631 226.408 246.759 226.568C246.887 226.728 246.951 226.925 246.951 227.16C246.951 227.32 246.925 227.464 246.871 227.592C246.818 227.709 246.722 227.821 246.583 227.928C246.103 228.323 245.554 228.627 244.935 228.84C244.317 229.043 243.655 229.144 242.951 229.144ZM249.747 229C249.438 229 249.192 228.915 249.011 228.744C248.84 228.573 248.755 228.333 248.755 228.024V218.696C248.755 218.387 248.84 218.147 249.011 217.976C249.192 217.805 249.438 217.72 249.747 217.72H255.523C255.832 217.72 256.072 217.789 256.243 217.928C256.414 218.067 256.499 218.264 256.499 218.52C256.499 218.787 256.414 218.995 256.243 219.144C256.072 219.283 255.832 219.352 255.523 219.352H250.771V222.456H255.203C255.512 222.456 255.752 222.525 255.923 222.664C256.094 222.803 256.179 223.005 256.179 223.272C256.179 223.528 256.094 223.725 255.923 223.864C255.752 224.003 255.512 224.072 255.203 224.072H250.771V227.368H255.523C255.832 227.368 256.072 227.443 256.243 227.592C256.414 227.731 256.499 227.933 256.499 228.2C256.499 228.456 256.414 228.653 256.243 228.792C256.072 228.931 255.832 229 255.523 229H249.747ZM104.659 249.144C103.838 249.144 103.059 249.037 102.323 248.824C101.598 248.6 101.006 248.301 100.547 247.928C100.302 247.747 100.179 247.491 100.179 247.16C100.179 246.936 100.243 246.744 100.371 246.584C100.51 246.413 100.67 246.328 100.851 246.328C101.043 246.328 101.262 246.403 101.507 246.552C101.966 246.883 102.446 247.123 102.947 247.272C103.448 247.421 104.003 247.496 104.611 247.496C105.39 247.496 105.987 247.363 106.403 247.096C106.819 246.819 107.027 246.419 107.027 245.896C107.027 245.491 106.83 245.181 106.435 244.968C106.051 244.744 105.406 244.531 104.499 244.328C103.56 244.125 102.798 243.891 102.211 243.624C101.624 243.357 101.182 243.016 100.883 242.6C100.584 242.184 100.435 241.656 100.435 241.016C100.435 240.355 100.622 239.763 100.995 239.24C101.368 238.717 101.886 238.312 102.547 238.024C103.219 237.725 103.971 237.576 104.803 237.576C106.328 237.576 107.571 237.981 108.531 238.792C108.67 238.909 108.766 239.027 108.819 239.144C108.883 239.251 108.915 239.389 108.915 239.56C108.915 239.784 108.846 239.981 108.707 240.152C108.579 240.312 108.424 240.392 108.243 240.392C108.136 240.392 108.035 240.376 107.939 240.344C107.854 240.312 107.736 240.253 107.587 240.168C107.15 239.848 106.723 239.613 106.307 239.464C105.902 239.304 105.4 239.224 104.803 239.224C104.078 239.224 103.502 239.373 103.075 239.672C102.659 239.96 102.451 240.365 102.451 240.888C102.451 241.325 102.638 241.661 103.011 241.896C103.384 242.131 104.019 242.349 104.915 242.552C105.864 242.765 106.632 243.005 107.219 243.272C107.816 243.528 108.27 243.859 108.579 244.264C108.899 244.669 109.059 245.176 109.059 245.784C109.059 246.445 108.872 247.032 108.499 247.544C108.136 248.045 107.619 248.44 106.947 248.728C106.286 249.005 105.523 249.144 104.659 249.144ZM120.974 237.64C121.273 237.64 121.513 237.736 121.694 237.928C121.876 238.109 121.966 238.355 121.966 238.664V248.136C121.966 248.435 121.881 248.669 121.71 248.84C121.54 249.011 121.316 249.096 121.038 249.096C120.761 249.096 120.542 249.011 120.382 248.84C120.222 248.669 120.142 248.435 120.142 248.136V241.544L117.422 246.696C117.294 246.931 117.156 247.107 117.006 247.224C116.857 247.331 116.681 247.384 116.478 247.384C116.276 247.384 116.1 247.331 115.95 247.224C115.801 247.117 115.662 246.941 115.534 246.696L112.798 241.624V248.136C112.798 248.424 112.713 248.659 112.542 248.84C112.382 249.011 112.164 249.096 111.886 249.096C111.609 249.096 111.39 249.011 111.23 248.84C111.07 248.669 110.99 248.435 110.99 248.136V238.664C110.99 238.355 111.076 238.109 111.246 237.928C111.428 237.736 111.668 237.64 111.966 237.64C112.382 237.64 112.708 237.869 112.942 238.328L116.494 245.096L120.03 238.328C120.265 237.869 120.58 237.64 120.974 237.64ZM134.635 247.768C134.699 247.907 134.731 248.045 134.731 248.184C134.731 248.429 134.63 248.637 134.427 248.808C134.235 248.979 134.011 249.064 133.755 249.064C133.585 249.064 133.425 249.021 133.275 248.936C133.126 248.84 133.009 248.696 132.923 248.504L131.963 246.36H126.331L125.371 248.504C125.286 248.696 125.169 248.84 125.019 248.936C124.87 249.021 124.705 249.064 124.523 249.064C124.278 249.064 124.054 248.979 123.851 248.808C123.649 248.637 123.547 248.429 123.547 248.184C123.547 248.045 123.579 247.907 123.643 247.768L128.059 238.28C128.155 238.067 128.299 237.907 128.491 237.8C128.694 237.683 128.907 237.624 129.131 237.624C129.355 237.624 129.563 237.683 129.755 237.8C129.958 237.907 130.107 238.067 130.203 238.28L134.635 247.768ZM127.035 244.76H131.259L129.147 240.008L127.035 244.76ZM145.31 247.704C145.438 247.896 145.502 248.083 145.502 248.264C145.502 248.509 145.401 248.712 145.198 248.872C145.006 249.032 144.777 249.112 144.51 249.112C144.34 249.112 144.174 249.075 144.014 249C143.865 248.915 143.737 248.792 143.63 248.632L141.502 245.4C141.289 245.059 141.06 244.819 140.814 244.68C140.58 244.541 140.27 244.472 139.886 244.472H138.318V248.056C138.318 248.376 138.228 248.632 138.046 248.824C137.865 249.005 137.62 249.096 137.31 249.096C137.001 249.096 136.75 249.005 136.558 248.824C136.377 248.632 136.286 248.376 136.286 248.056V238.696C136.286 238.387 136.372 238.147 136.542 237.976C136.724 237.805 136.969 237.72 137.278 237.72H141.278C142.558 237.72 143.529 238.008 144.19 238.584C144.862 239.149 145.198 239.971 145.198 241.048C145.198 241.923 144.948 242.643 144.446 243.208C143.956 243.763 143.257 244.12 142.35 244.28C142.66 244.355 142.932 244.488 143.166 244.68C143.401 244.872 143.63 245.139 143.854 245.48L145.31 247.704ZM140.99 242.888C141.769 242.888 142.34 242.744 142.702 242.456C143.065 242.157 143.246 241.704 143.246 241.096C143.246 240.477 143.065 240.029 142.702 239.752C142.34 239.464 141.769 239.32 140.99 239.32H138.302V242.888H140.99ZM150.795 249.08C150.475 249.08 150.219 248.989 150.027 248.808C149.845 248.616 149.755 248.365 149.755 248.056V239.416H146.843C146.203 239.416 145.883 239.133 145.883 238.568C145.883 238.003 146.203 237.72 146.843 237.72H154.731C155.371 237.72 155.691 238.003 155.691 238.568C155.691 239.133 155.371 239.416 154.731 239.416H151.819V248.056C151.819 248.365 151.723 248.616 151.531 248.808C151.349 248.989 151.104 249.08 150.795 249.08ZM166.295 249.144C165.207 249.144 164.252 248.909 163.431 248.44C162.62 247.971 161.996 247.299 161.559 246.424C161.122 245.549 160.903 244.525 160.903 243.352C160.903 242.179 161.122 241.16 161.559 240.296C161.996 239.421 162.62 238.749 163.431 238.28C164.252 237.811 165.207 237.576 166.295 237.576C166.999 237.576 167.66 237.683 168.279 237.896C168.898 238.099 169.447 238.397 169.927 238.792C170.066 238.899 170.162 239.011 170.215 239.128C170.268 239.245 170.295 239.389 170.295 239.56C170.295 239.795 170.231 239.992 170.103 240.152C169.975 240.312 169.82 240.392 169.639 240.392C169.426 240.392 169.207 240.317 168.983 240.168C168.524 239.827 168.098 239.592 167.703 239.464C167.308 239.325 166.871 239.256 166.391 239.256C165.282 239.256 164.439 239.603 163.863 240.296C163.298 240.989 163.015 242.008 163.015 243.352C163.015 244.707 163.298 245.731 163.863 246.424C164.439 247.117 165.282 247.464 166.391 247.464C166.85 247.464 167.271 247.395 167.655 247.256C168.05 247.117 168.492 246.883 168.983 246.552C169.09 246.488 169.196 246.435 169.303 246.392C169.41 246.349 169.522 246.328 169.639 246.328C169.82 246.328 169.975 246.408 170.103 246.568C170.231 246.728 170.295 246.925 170.295 247.16C170.295 247.32 170.268 247.464 170.215 247.592C170.162 247.709 170.066 247.821 169.927 247.928C169.447 248.323 168.898 248.627 168.279 248.84C167.66 249.043 166.999 249.144 166.295 249.144ZM180.915 237.64C181.224 237.64 181.469 237.736 181.651 237.928C181.832 238.109 181.923 238.355 181.923 238.664V248.056C181.923 248.365 181.827 248.616 181.635 248.808C181.453 249 181.213 249.096 180.915 249.096C180.605 249.096 180.36 249 180.179 248.808C179.997 248.616 179.907 248.365 179.907 248.056V244.104H174.131V248.056C174.131 248.365 174.035 248.616 173.843 248.808C173.661 249 173.416 249.096 173.107 249.096C172.808 249.096 172.563 249 172.371 248.808C172.189 248.616 172.099 248.365 172.099 248.056V238.664C172.099 238.355 172.189 238.109 172.371 237.928C172.552 237.736 172.797 237.64 173.107 237.64C173.416 237.64 173.661 237.736 173.843 237.928C174.035 238.109 174.131 238.355 174.131 238.664V242.44H179.907V238.664C179.907 238.355 179.997 238.109 180.179 237.928C180.36 237.736 180.605 237.64 180.915 237.64ZM194.573 247.768C194.637 247.907 194.669 248.045 194.669 248.184C194.669 248.429 194.567 248.637 194.365 248.808C194.173 248.979 193.949 249.064 193.693 249.064C193.522 249.064 193.362 249.021 193.213 248.936C193.063 248.84 192.946 248.696 192.861 248.504L191.901 246.36H186.269L185.309 248.504C185.223 248.696 185.106 248.84 184.957 248.936C184.807 249.021 184.642 249.064 184.461 249.064C184.215 249.064 183.991 248.979 183.789 248.808C183.586 248.637 183.485 248.429 183.485 248.184C183.485 248.045 183.517 247.907 183.581 247.768L187.997 238.28C188.093 238.067 188.237 237.907 188.429 237.8C188.631 237.683 188.845 237.624 189.069 237.624C189.293 237.624 189.501 237.683 189.693 237.8C189.895 237.907 190.045 238.067 190.141 238.28L194.573 247.768ZM186.973 244.76H191.197L189.085 240.008L186.973 244.76ZM204.768 237.64C205.066 237.64 205.301 237.736 205.472 237.928C205.653 238.109 205.744 238.355 205.744 238.664V248.056C205.744 248.365 205.653 248.616 205.472 248.808C205.29 249 205.056 249.096 204.768 249.096C204.426 249.096 204.165 248.973 203.984 248.728L198.144 241.128V248.056C198.144 248.365 198.058 248.616 197.888 248.808C197.717 249 197.482 249.096 197.184 249.096C196.885 249.096 196.65 249 196.48 248.808C196.309 248.616 196.224 248.365 196.224 248.056V238.664C196.224 238.355 196.314 238.109 196.496 237.928C196.677 237.736 196.917 237.64 197.216 237.64C197.546 237.64 197.802 237.763 197.984 238.008L203.808 245.576V238.664C203.808 238.355 203.893 238.109 204.064 237.928C204.245 237.736 204.48 237.64 204.768 237.64ZM209.201 249.096C208.892 249.096 208.641 249 208.449 248.808C208.268 248.616 208.177 248.365 208.177 248.056V238.664C208.177 238.355 208.268 238.109 208.449 237.928C208.641 237.736 208.892 237.64 209.201 237.64C209.521 237.64 209.772 237.736 209.953 237.928C210.145 238.109 210.241 238.355 210.241 238.664V248.056C210.241 248.365 210.145 248.616 209.953 248.808C209.772 249 209.521 249.096 209.201 249.096Z" fill="white"/>
<path d="M283.588 227.768C283.652 227.907 283.684 228.045 283.684 228.184C283.684 228.429 283.583 228.637 283.38 228.808C283.188 228.979 282.964 229.064 282.708 229.064C282.538 229.064 282.378 229.021 282.228 228.936C282.079 228.84 281.962 228.696 281.876 228.504L280.916 226.36H275.284L274.324 228.504C274.239 228.696 274.122 228.84 273.972 228.936C273.823 229.021 273.658 229.064 273.476 229.064C273.231 229.064 273.007 228.979 272.804 228.808C272.602 228.637 272.5 228.429 272.5 228.184C272.5 228.045 272.532 227.907 272.596 227.768L277.012 218.28C277.108 218.067 277.252 217.907 277.444 217.8C277.647 217.683 277.86 217.624 278.084 217.624C278.308 217.624 278.516 217.683 278.708 217.8C278.911 217.907 279.06 218.067 279.156 218.28L283.588 227.768ZM275.988 224.76H280.212L278.1 220.008L275.988 224.76ZM286.231 229C285.922 229 285.677 228.915 285.495 228.744C285.325 228.573 285.239 228.333 285.239 228.024V218.696C285.239 218.387 285.325 218.147 285.495 217.976C285.677 217.805 285.922 217.72 286.231 217.72H289.399C291.245 217.72 292.674 218.216 293.687 219.208C294.711 220.189 295.223 221.571 295.223 223.352C295.223 225.144 294.711 226.536 293.687 227.528C292.674 228.509 291.245 229 289.399 229H286.231ZM289.271 227.32C291.863 227.32 293.159 225.997 293.159 223.352C293.159 220.717 291.863 219.4 289.271 219.4H287.303V227.32H289.271ZM298.294 229C297.985 229 297.739 228.915 297.558 228.744C297.387 228.573 297.302 228.333 297.302 228.024V218.696C297.302 218.387 297.387 218.147 297.558 217.976C297.739 217.805 297.985 217.72 298.294 217.72H301.462C303.307 217.72 304.737 218.216 305.75 219.208C306.774 220.189 307.286 221.571 307.286 223.352C307.286 225.144 306.774 226.536 305.75 227.528C304.737 228.509 303.307 229 301.462 229H298.294ZM301.334 227.32C303.926 227.32 305.222 225.997 305.222 223.352C305.222 220.717 303.926 219.4 301.334 219.4H299.366V227.32H301.334ZM322.476 227.528C322.647 227.731 322.732 227.933 322.732 228.136C322.732 228.392 322.631 228.616 322.428 228.808C322.236 229 322.012 229.096 321.756 229.096C321.49 229.096 321.255 228.979 321.052 228.744L317.804 224.712L314.54 228.744C314.348 228.968 314.119 229.08 313.852 229.08C313.596 229.08 313.367 228.989 313.164 228.808C312.972 228.616 312.876 228.392 312.876 228.136C312.876 227.923 312.956 227.72 313.116 227.528L316.604 223.272L313.26 219.192C313.1 219.021 313.02 218.819 313.02 218.584C313.02 218.328 313.116 218.109 313.308 217.928C313.5 217.736 313.724 217.64 313.98 217.64C314.247 217.64 314.482 217.757 314.684 217.992L317.804 221.848L320.924 217.992C321.116 217.757 321.346 217.64 321.612 217.64C321.868 217.64 322.092 217.736 322.284 217.928C322.487 218.109 322.588 218.328 322.588 218.584C322.588 218.819 322.508 219.021 322.348 219.192L319.004 223.272L322.476 227.528ZM325.309 229C325 229 324.76 228.915 324.589 228.744C324.419 228.573 324.333 228.339 324.333 228.04V218.664C324.333 218.355 324.424 218.109 324.605 217.928C324.797 217.736 325.048 217.64 325.357 217.64C325.677 217.64 325.928 217.736 326.109 217.928C326.301 218.109 326.397 218.355 326.397 218.664V227.304H330.893C331.533 227.304 331.853 227.587 331.853 228.152C331.853 228.717 331.533 229 330.893 229H325.309ZM343.338 227.768C343.402 227.907 343.434 228.045 343.434 228.184C343.434 228.429 343.333 228.637 343.13 228.808C342.938 228.979 342.714 229.064 342.458 229.064C342.288 229.064 342.128 229.021 341.978 228.936C341.829 228.84 341.712 228.696 341.626 228.504L340.666 226.36H335.034L334.074 228.504C333.989 228.696 333.872 228.84 333.722 228.936C333.573 229.021 333.408 229.064 333.226 229.064C332.981 229.064 332.757 228.979 332.554 228.808C332.352 228.637 332.25 228.429 332.25 228.184C332.25 228.045 332.282 227.907 332.346 227.768L336.762 218.28C336.858 218.067 337.002 217.907 337.194 217.8C337.397 217.683 337.61 217.624 337.834 217.624C338.058 217.624 338.266 217.683 338.458 217.8C338.661 217.907 338.81 218.067 338.906 218.28L343.338 227.768ZM335.738 224.76H339.962L337.85 220.008L335.738 224.76ZM351.933 223.176C352.584 223.357 353.085 223.688 353.437 224.168C353.8 224.648 353.981 225.235 353.981 225.928C353.981 226.888 353.635 227.64 352.941 228.184C352.259 228.728 351.315 229 350.109 229H345.981C345.672 229 345.427 228.915 345.245 228.744C345.075 228.573 344.989 228.333 344.989 228.024V218.696C344.989 218.387 345.075 218.147 345.245 217.976C345.427 217.805 345.672 217.72 345.981 217.72H349.949C351.123 217.72 352.04 217.981 352.701 218.504C353.373 219.016 353.709 219.736 353.709 220.664C353.709 221.261 353.549 221.779 353.229 222.216C352.92 222.653 352.488 222.973 351.933 223.176ZM347.005 222.472H349.613C351.032 222.472 351.741 221.944 351.741 220.888C351.741 220.355 351.565 219.96 351.213 219.704C350.861 219.448 350.328 219.32 349.613 219.32H347.005V222.472ZM349.885 227.4C350.632 227.4 351.176 227.267 351.517 227C351.859 226.733 352.029 226.317 352.029 225.752C352.029 225.187 351.853 224.765 351.501 224.488C351.16 224.211 350.621 224.072 349.885 224.072H347.005V227.4H349.885ZM364.159 229.144C363.338 229.144 362.559 229.037 361.823 228.824C361.098 228.6 360.506 228.301 360.047 227.928C359.802 227.747 359.679 227.491 359.679 227.16C359.679 226.936 359.743 226.744 359.871 226.584C360.01 226.413 360.17 226.328 360.351 226.328C360.543 226.328 360.762 226.403 361.007 226.552C361.466 226.883 361.946 227.123 362.447 227.272C362.948 227.421 363.503 227.496 364.111 227.496C364.89 227.496 365.487 227.363 365.903 227.096C366.319 226.819 366.527 226.419 366.527 225.896C366.527 225.491 366.33 225.181 365.935 224.968C365.551 224.744 364.906 224.531 363.999 224.328C363.06 224.125 362.298 223.891 361.711 223.624C361.124 223.357 360.682 223.016 360.383 222.6C360.084 222.184 359.935 221.656 359.935 221.016C359.935 220.355 360.122 219.763 360.495 219.24C360.868 218.717 361.386 218.312 362.047 218.024C362.719 217.725 363.471 217.576 364.303 217.576C365.828 217.576 367.071 217.981 368.031 218.792C368.17 218.909 368.266 219.027 368.319 219.144C368.383 219.251 368.415 219.389 368.415 219.56C368.415 219.784 368.346 219.981 368.207 220.152C368.079 220.312 367.924 220.392 367.743 220.392C367.636 220.392 367.535 220.376 367.439 220.344C367.354 220.312 367.236 220.253 367.087 220.168C366.65 219.848 366.223 219.613 365.807 219.464C365.402 219.304 364.9 219.224 364.303 219.224C363.578 219.224 363.002 219.373 362.575 219.672C362.159 219.96 361.951 220.365 361.951 220.888C361.951 221.325 362.138 221.661 362.511 221.896C362.884 222.131 363.519 222.349 364.415 222.552C365.364 222.765 366.132 223.005 366.719 223.272C367.316 223.528 367.77 223.859 368.079 224.264C368.399 224.669 368.559 225.176 368.559 225.784C368.559 226.445 368.372 227.032 367.999 227.544C367.636 228.045 367.119 228.44 366.447 228.728C365.786 229.005 365.023 229.144 364.159 229.144ZM373.92 229.08C373.6 229.08 373.344 228.989 373.152 228.808C372.97 228.616 372.88 228.365 372.88 228.056V219.416H369.968C369.328 219.416 369.008 219.133 369.008 218.568C369.008 218.003 369.328 217.72 369.968 217.72H377.856C378.496 217.72 378.816 218.003 378.816 218.568C378.816 219.133 378.496 219.416 377.856 219.416H374.944V228.056C374.944 228.365 374.848 228.616 374.656 228.808C374.474 228.989 374.229 229.08 373.92 229.08ZM388.87 227.768C388.934 227.907 388.966 228.045 388.966 228.184C388.966 228.429 388.864 228.637 388.662 228.808C388.47 228.979 388.246 229.064 387.99 229.064C387.819 229.064 387.659 229.021 387.51 228.936C387.36 228.84 387.243 228.696 387.158 228.504L386.198 226.36H380.566L379.606 228.504C379.52 228.696 379.403 228.84 379.254 228.936C379.104 229.021 378.939 229.064 378.758 229.064C378.512 229.064 378.288 228.979 378.086 228.808C377.883 228.637 377.782 228.429 377.782 228.184C377.782 228.045 377.814 227.907 377.878 227.768L382.294 218.28C382.39 218.067 382.534 217.907 382.726 217.8C382.928 217.683 383.142 217.624 383.366 217.624C383.59 217.624 383.798 217.683 383.99 217.8C384.192 217.907 384.342 218.067 384.438 218.28L388.87 227.768ZM381.27 224.76H385.494L383.382 220.008L381.27 224.76ZM399.273 227.448C399.486 227.651 399.593 227.88 399.593 228.136C399.593 228.381 399.497 228.6 399.305 228.792C399.123 228.973 398.905 229.064 398.649 229.064C398.382 229.064 398.137 228.952 397.913 228.728L392.585 223.736V228.056C392.585 228.365 392.489 228.616 392.297 228.808C392.115 229 391.865 229.096 391.545 229.096C391.235 229.096 390.985 229 390.793 228.808C390.611 228.616 390.521 228.365 390.521 228.056V218.664C390.521 218.355 390.611 218.109 390.793 217.928C390.985 217.736 391.235 217.64 391.545 217.64C391.865 217.64 392.115 217.736 392.297 217.928C392.489 218.109 392.585 218.355 392.585 218.664V222.776L397.737 217.944C397.929 217.752 398.147 217.656 398.393 217.656C398.638 217.656 398.851 217.752 399.033 217.944C399.225 218.125 399.321 218.339 399.321 218.584C399.321 218.829 399.214 219.053 399.001 219.256L394.697 223.192L399.273 227.448ZM402.107 229.096C401.798 229.096 401.547 229 401.355 228.808C401.174 228.616 401.083 228.365 401.083 228.056V218.664C401.083 218.355 401.174 218.109 401.355 217.928C401.547 217.736 401.798 217.64 402.107 217.64C402.427 217.64 402.678 217.736 402.859 217.928C403.051 218.109 403.147 218.355 403.147 218.664V228.056C403.147 228.365 403.051 228.616 402.859 228.808C402.678 229 402.427 229.096 402.107 229.096ZM414.127 217.64C414.426 217.64 414.661 217.736 414.831 217.928C415.013 218.109 415.103 218.355 415.103 218.664V228.056C415.103 228.365 415.013 228.616 414.831 228.808C414.65 229 414.415 229.096 414.127 229.096C413.786 229.096 413.525 228.973 413.343 228.728L407.503 221.128V228.056C407.503 228.365 407.418 228.616 407.247 228.808C407.077 229 406.842 229.096 406.543 229.096C406.245 229.096 406.01 229 405.839 228.808C405.669 228.616 405.583 228.365 405.583 228.056V218.664C405.583 218.355 405.674 218.109 405.855 217.928C406.037 217.736 406.277 217.64 406.575 217.64C406.906 217.64 407.162 217.763 407.343 218.008L413.167 225.576V218.664C413.167 218.355 413.253 218.109 413.423 217.928C413.605 217.736 413.839 217.64 414.127 217.64ZM426.128 222.904C426.374 222.904 426.571 222.979 426.72 223.128C426.87 223.267 426.944 223.453 426.944 223.688V227.128C426.944 227.619 426.88 227.965 426.752 228.168C426.624 228.371 426.363 228.536 425.968 228.664C425.542 228.813 425.046 228.931 424.48 229.016C423.915 229.101 423.371 229.144 422.848 229.144C421.686 229.144 420.678 228.915 419.824 228.456C418.971 227.997 418.315 227.336 417.856 226.472C417.408 225.597 417.184 224.557 417.184 223.352C417.184 222.168 417.408 221.144 417.856 220.28C418.315 219.405 418.96 218.739 419.792 218.28C420.624 217.811 421.606 217.576 422.736 217.576C424.24 217.576 425.472 217.981 426.432 218.792C426.56 218.909 426.651 219.027 426.704 219.144C426.768 219.261 426.8 219.4 426.8 219.56C426.8 219.795 426.736 219.992 426.608 220.152C426.48 220.312 426.326 220.392 426.144 220.392C426.027 220.392 425.92 220.376 425.824 220.344C425.728 220.301 425.616 220.237 425.488 220.152C425.019 219.821 424.582 219.592 424.176 219.464C423.771 219.325 423.312 219.256 422.8 219.256C421.638 219.256 420.758 219.603 420.16 220.296C419.574 220.979 419.28 221.997 419.28 223.352C419.28 226.125 420.496 227.512 422.928 227.512C423.654 227.512 424.379 227.411 425.104 227.208V224.376H423.296C423.04 224.376 422.838 224.312 422.688 224.184C422.55 224.056 422.48 223.875 422.48 223.64C422.48 223.405 422.55 223.224 422.688 223.096C422.838 222.968 423.04 222.904 423.296 222.904H426.128ZM434.638 229.096C434.329 229.096 434.078 229 433.886 228.808C433.705 228.616 433.614 228.365 433.614 228.056V218.664C433.614 218.355 433.705 218.109 433.886 217.928C434.078 217.736 434.329 217.64 434.638 217.64C434.958 217.64 435.209 217.736 435.39 217.928C435.582 218.109 435.678 218.355 435.678 218.664V228.056C435.678 228.365 435.582 228.616 435.39 228.808C435.209 229 434.958 229.096 434.638 229.096ZM446.658 217.64C446.957 217.64 447.192 217.736 447.362 217.928C447.544 218.109 447.634 218.355 447.634 218.664V228.056C447.634 228.365 447.544 228.616 447.362 228.808C447.181 229 446.946 229.096 446.658 229.096C446.317 229.096 446.056 228.973 445.874 228.728L440.034 221.128V228.056C440.034 228.365 439.949 228.616 439.778 228.808C439.608 229 439.373 229.096 439.074 229.096C438.776 229.096 438.541 229 438.37 228.808C438.2 228.616 438.114 228.365 438.114 228.056V218.664C438.114 218.355 438.205 218.109 438.386 217.928C438.568 217.736 438.808 217.64 439.106 217.64C439.437 217.64 439.693 217.763 439.874 218.008L445.698 225.576V218.664C445.698 218.355 445.784 218.109 445.954 217.928C446.136 217.736 446.37 217.64 446.658 217.64ZM335.859 247.528C336.03 247.731 336.115 247.933 336.115 248.136C336.115 248.392 336.014 248.616 335.811 248.808C335.619 249 335.395 249.096 335.139 249.096C334.872 249.096 334.638 248.979 334.435 248.744L331.187 244.712L327.923 248.744C327.731 248.968 327.502 249.08 327.235 249.08C326.979 249.08 326.75 248.989 326.547 248.808C326.355 248.616 326.259 248.392 326.259 248.136C326.259 247.923 326.339 247.72 326.499 247.528L329.987 243.272L326.643 239.192C326.483 239.021 326.403 238.819 326.403 238.584C326.403 238.328 326.499 238.109 326.691 237.928C326.883 237.736 327.107 237.64 327.363 237.64C327.63 237.64 327.864 237.757 328.067 237.992L331.187 241.848L334.307 237.992C334.499 237.757 334.728 237.64 334.995 237.64C335.251 237.64 335.475 237.736 335.667 237.928C335.87 238.109 335.971 238.328 335.971 238.584C335.971 238.819 335.891 239.021 335.731 239.192L332.387 243.272L335.859 247.528ZM342.35 249.144C341.262 249.144 340.307 248.909 339.486 248.44C338.675 247.971 338.051 247.299 337.614 246.424C337.176 245.549 336.958 244.525 336.958 243.352C336.958 242.179 337.176 241.16 337.614 240.296C338.051 239.421 338.675 238.749 339.486 238.28C340.307 237.811 341.262 237.576 342.35 237.576C343.054 237.576 343.715 237.683 344.334 237.896C344.952 238.099 345.502 238.397 345.982 238.792C346.12 238.899 346.216 239.011 346.27 239.128C346.323 239.245 346.35 239.389 346.35 239.56C346.35 239.795 346.286 239.992 346.158 240.152C346.03 240.312 345.875 240.392 345.694 240.392C345.48 240.392 345.262 240.317 345.038 240.168C344.579 239.827 344.152 239.592 343.758 239.464C343.363 239.325 342.926 239.256 342.446 239.256C341.336 239.256 340.494 239.603 339.918 240.296C339.352 240.989 339.07 242.008 339.07 243.352C339.07 244.707 339.352 245.731 339.918 246.424C340.494 247.117 341.336 247.464 342.446 247.464C342.904 247.464 343.326 247.395 343.71 247.256C344.104 247.117 344.547 246.883 345.038 246.552C345.144 246.488 345.251 246.435 345.358 246.392C345.464 246.349 345.576 246.328 345.694 246.328C345.875 246.328 346.03 246.408 346.158 246.568C346.286 246.728 346.35 246.925 346.35 247.16C346.35 247.32 346.323 247.464 346.27 247.592C346.216 247.709 346.12 247.821 345.982 247.928C345.502 248.323 344.952 248.627 344.334 248.84C343.715 249.043 343.054 249.144 342.35 249.144ZM349.146 249C348.836 249 348.591 248.915 348.41 248.744C348.239 248.573 348.154 248.333 348.154 248.024V238.696C348.154 238.387 348.239 238.147 348.41 237.976C348.591 237.805 348.836 237.72 349.146 237.72H354.922C355.231 237.72 355.471 237.789 355.642 237.928C355.812 238.067 355.898 238.264 355.898 238.52C355.898 238.787 355.812 238.995 355.642 239.144C355.471 239.283 355.231 239.352 354.922 239.352H350.17V242.456H354.602C354.911 242.456 355.151 242.525 355.322 242.664C355.492 242.803 355.578 243.005 355.578 243.272C355.578 243.528 355.492 243.725 355.322 243.864C355.151 244.003 354.911 244.072 354.602 244.072H350.17V247.368H354.922C355.231 247.368 355.471 247.443 355.642 247.592C355.812 247.731 355.898 247.933 355.898 248.2C355.898 248.456 355.812 248.653 355.642 248.792C355.471 248.931 355.231 249 354.922 249H349.146ZM358.551 249C358.242 249 358.002 248.915 357.831 248.744C357.661 248.573 357.575 248.339 357.575 248.04V238.664C357.575 238.355 357.666 238.109 357.847 237.928C358.039 237.736 358.29 237.64 358.599 237.64C358.919 237.64 359.17 237.736 359.351 237.928C359.543 238.109 359.639 238.355 359.639 238.664V247.304H364.135C364.775 247.304 365.095 247.587 365.095 248.152C365.095 248.717 364.775 249 364.135 249H358.551ZM367.474 249.096C367.165 249.096 366.914 249.005 366.722 248.824C366.541 248.632 366.45 248.376 366.45 248.056V238.696C366.45 238.387 366.536 238.147 366.706 237.976C366.888 237.805 367.133 237.72 367.442 237.72H371.378C372.584 237.72 373.522 238.024 374.194 238.632C374.866 239.229 375.202 240.072 375.202 241.16C375.202 242.248 374.866 243.096 374.194 243.704C373.522 244.312 372.584 244.616 371.378 244.616H368.514V248.056C368.514 248.376 368.418 248.632 368.226 248.824C368.045 249.005 367.794 249.096 367.474 249.096ZM371.122 243.032C372.541 243.032 373.25 242.413 373.25 241.176C373.25 239.939 372.541 239.32 371.122 239.32H368.514V243.032H371.122ZM386.034 247.768C386.098 247.907 386.13 248.045 386.13 248.184C386.13 248.429 386.028 248.637 385.826 248.808C385.634 248.979 385.41 249.064 385.154 249.064C384.983 249.064 384.823 249.021 384.674 248.936C384.524 248.84 384.407 248.696 384.322 248.504L383.362 246.36H377.73L376.77 248.504C376.684 248.696 376.567 248.84 376.418 248.936C376.268 249.021 376.103 249.064 375.922 249.064C375.676 249.064 375.452 248.979 375.25 248.808C375.047 248.637 374.946 248.429 374.946 248.184C374.946 248.045 374.978 247.907 375.042 247.768L379.458 238.28C379.554 238.067 379.698 237.907 379.89 237.8C380.092 237.683 380.306 237.624 380.53 237.624C380.754 237.624 380.962 237.683 381.154 237.8C381.356 237.907 381.506 238.067 381.602 238.28L386.034 247.768ZM378.434 244.76H382.658L380.546 240.008L378.434 244.76ZM393.412 237.992C393.604 237.757 393.834 237.64 394.1 237.64C394.346 237.64 394.564 237.736 394.756 237.928C394.948 238.109 395.044 238.328 395.044 238.584C395.044 238.797 394.964 239 394.804 239.192L391.172 243.624V248.056C391.172 248.387 391.076 248.643 390.884 248.824C390.692 249.005 390.447 249.096 390.148 249.096C389.839 249.096 389.588 249.005 389.396 248.824C389.204 248.643 389.108 248.387 389.108 248.056V243.624L385.476 239.192C385.316 239 385.236 238.797 385.236 238.584C385.236 238.328 385.332 238.109 385.524 237.928C385.716 237.736 385.935 237.64 386.18 237.64C386.447 237.64 386.676 237.757 386.868 237.992L390.148 242.056L393.412 237.992Z" fill="white"/>
<path d="M138.265 154.336C138.905 154.336 139.225 154.608 139.225 155.152C139.225 155.717 138.905 156 138.265 156H132.185C131.908 156 131.689 155.92 131.529 155.76C131.369 155.589 131.289 155.381 131.289 155.136C131.289 154.816 131.412 154.528 131.657 154.272L135.305 150.352C135.753 149.861 136.078 149.413 136.281 149.008C136.494 148.592 136.601 148.181 136.601 147.776C136.601 147.275 136.457 146.891 136.169 146.624C135.881 146.357 135.47 146.224 134.937 146.224C134.5 146.224 134.073 146.309 133.657 146.48C133.252 146.64 132.841 146.864 132.425 147.152C132.318 147.227 132.212 147.291 132.105 147.344C131.998 147.387 131.892 147.408 131.785 147.408C131.604 147.408 131.444 147.323 131.305 147.152C131.177 146.981 131.113 146.779 131.113 146.544C131.113 146.384 131.14 146.245 131.193 146.128C131.257 146.011 131.353 145.899 131.481 145.792C131.95 145.419 132.5 145.125 133.129 144.912C133.758 144.688 134.388 144.576 135.017 144.576C136.116 144.576 136.99 144.853 137.641 145.408C138.302 145.963 138.633 146.709 138.633 147.648C138.633 148.299 138.494 148.912 138.217 149.488C137.94 150.053 137.47 150.688 136.809 151.392L134.041 154.336H138.265ZM144.706 156.144C143.373 156.144 142.354 155.653 141.65 154.672C140.946 153.68 140.594 152.24 140.594 150.352C140.594 148.475 140.946 147.045 141.65 146.064C142.354 145.072 143.373 144.576 144.706 144.576C146.04 144.576 147.058 145.072 147.762 146.064C148.466 147.045 148.818 148.475 148.818 150.352C148.818 152.229 148.466 153.664 147.762 154.656C147.058 155.648 146.04 156.144 144.706 156.144ZM144.706 154.528C145.432 154.528 145.96 154.197 146.29 153.536C146.621 152.864 146.786 151.803 146.786 150.352C146.786 148.891 146.621 147.835 146.29 147.184C145.96 146.523 145.432 146.192 144.706 146.192C143.981 146.192 143.453 146.523 143.122 147.184C142.792 147.845 142.626 148.901 142.626 150.352C142.626 151.803 142.792 152.864 143.122 153.536C143.453 154.197 143.981 154.528 144.706 154.528ZM157.468 154.336C158.108 154.336 158.428 154.608 158.428 155.152C158.428 155.717 158.108 156 157.468 156H151.388C151.111 156 150.892 155.92 150.732 155.76C150.572 155.589 150.492 155.381 150.492 155.136C150.492 154.816 150.615 154.528 150.86 154.272L154.508 150.352C154.956 149.861 155.281 149.413 155.484 149.008C155.697 148.592 155.804 148.181 155.804 147.776C155.804 147.275 155.66 146.891 155.372 146.624C155.084 146.357 154.673 146.224 154.14 146.224C153.703 146.224 153.276 146.309 152.86 146.48C152.455 146.64 152.044 146.864 151.628 147.152C151.521 147.227 151.415 147.291 151.308 147.344C151.201 147.387 151.095 147.408 150.988 147.408C150.807 147.408 150.647 147.323 150.508 147.152C150.38 146.981 150.316 146.779 150.316 146.544C150.316 146.384 150.343 146.245 150.396 146.128C150.46 146.011 150.556 145.899 150.684 145.792C151.153 145.419 151.703 145.125 152.332 144.912C152.961 144.688 153.591 144.576 154.22 144.576C155.319 144.576 156.193 144.853 156.844 145.408C157.505 145.963 157.836 146.709 157.836 147.648C157.836 148.299 157.697 148.912 157.42 149.488C157.143 150.053 156.673 150.688 156.012 151.392L153.244 154.336H157.468ZM167.125 154.336C167.765 154.336 168.085 154.608 168.085 155.152C168.085 155.717 167.765 156 167.125 156H161.717C161.067 156 160.741 155.717 160.741 155.152C160.741 154.608 161.067 154.336 161.717 154.336H163.381V147.04L161.845 147.984C161.696 148.069 161.563 148.112 161.445 148.112C161.221 148.112 161.029 148.016 160.869 147.824C160.72 147.632 160.645 147.419 160.645 147.184C160.645 146.875 160.784 146.635 161.061 146.464L163.541 144.928C163.861 144.736 164.165 144.64 164.453 144.64C164.752 144.64 164.992 144.731 165.173 144.912C165.355 145.093 165.445 145.344 165.445 145.664V154.336H167.125Z" fill="#F1C12B"/>
<path d="M344.265 155.336C344.905 155.336 345.225 155.608 345.225 156.152C345.225 156.717 344.905 157 344.265 157H338.185C337.908 157 337.689 156.92 337.529 156.76C337.369 156.589 337.289 156.381 337.289 156.136C337.289 155.816 337.412 155.528 337.657 155.272L341.305 151.352C341.753 150.861 342.078 150.413 342.281 150.008C342.494 149.592 342.601 149.181 342.601 148.776C342.601 148.275 342.457 147.891 342.169 147.624C341.881 147.357 341.47 147.224 340.937 147.224C340.5 147.224 340.073 147.309 339.657 147.48C339.252 147.64 338.841 147.864 338.425 148.152C338.318 148.227 338.212 148.291 338.105 148.344C337.998 148.387 337.892 148.408 337.785 148.408C337.604 148.408 337.444 148.323 337.305 148.152C337.177 147.981 337.113 147.779 337.113 147.544C337.113 147.384 337.14 147.245 337.193 147.128C337.257 147.011 337.353 146.899 337.481 146.792C337.95 146.419 338.5 146.125 339.129 145.912C339.758 145.688 340.388 145.576 341.017 145.576C342.116 145.576 342.99 145.853 343.641 146.408C344.302 146.963 344.633 147.709 344.633 148.648C344.633 149.299 344.494 149.912 344.217 150.488C343.94 151.053 343.47 151.688 342.809 152.392L340.041 155.336H344.265ZM350.706 157.144C349.373 157.144 348.354 156.653 347.65 155.672C346.946 154.68 346.594 153.24 346.594 151.352C346.594 149.475 346.946 148.045 347.65 147.064C348.354 146.072 349.373 145.576 350.706 145.576C352.04 145.576 353.058 146.072 353.762 147.064C354.466 148.045 354.818 149.475 354.818 151.352C354.818 153.229 354.466 154.664 353.762 155.656C353.058 156.648 352.04 157.144 350.706 157.144ZM350.706 155.528C351.432 155.528 351.96 155.197 352.29 154.536C352.621 153.864 352.786 152.803 352.786 151.352C352.786 149.891 352.621 148.835 352.29 148.184C351.96 147.523 351.432 147.192 350.706 147.192C349.981 147.192 349.453 147.523 349.122 148.184C348.792 148.845 348.626 149.901 348.626 151.352C348.626 152.803 348.792 153.864 349.122 154.536C349.453 155.197 349.981 155.528 350.706 155.528ZM363.468 155.336C364.108 155.336 364.428 155.608 364.428 156.152C364.428 156.717 364.108 157 363.468 157H357.388C357.111 157 356.892 156.92 356.732 156.76C356.572 156.589 356.492 156.381 356.492 156.136C356.492 155.816 356.615 155.528 356.86 155.272L360.508 151.352C360.956 150.861 361.281 150.413 361.484 150.008C361.697 149.592 361.804 149.181 361.804 148.776C361.804 148.275 361.66 147.891 361.372 147.624C361.084 147.357 360.673 147.224 360.14 147.224C359.703 147.224 359.276 147.309 358.86 147.48C358.455 147.64 358.044 147.864 357.628 148.152C357.521 148.227 357.415 148.291 357.308 148.344C357.201 148.387 357.095 148.408 356.988 148.408C356.807 148.408 356.647 148.323 356.508 148.152C356.38 147.981 356.316 147.779 356.316 147.544C356.316 147.384 356.343 147.245 356.396 147.128C356.46 147.011 356.556 146.899 356.684 146.792C357.153 146.419 357.703 146.125 358.332 145.912C358.961 145.688 359.591 145.576 360.22 145.576C361.319 145.576 362.193 145.853 362.844 146.408C363.505 146.963 363.836 147.709 363.836 148.648C363.836 149.299 363.697 149.912 363.42 150.488C363.143 151.053 362.673 151.688 362.012 152.392L359.244 155.336H363.468ZM373.125 155.336C373.765 155.336 374.085 155.608 374.085 156.152C374.085 156.717 373.765 157 373.125 157H367.717C367.067 157 366.741 156.717 366.741 156.152C366.741 155.608 367.067 155.336 367.717 155.336H369.381V148.04L367.845 148.984C367.696 149.069 367.563 149.112 367.445 149.112C367.221 149.112 367.029 149.016 366.869 148.824C366.72 148.632 366.645 148.419 366.645 148.184C366.645 147.875 366.784 147.635 367.061 147.464L369.541 145.928C369.861 145.736 370.165 145.64 370.453 145.64C370.752 145.64 370.992 145.731 371.173 145.912C371.355 146.093 371.445 146.344 371.445 146.664V155.336H373.125Z" fill="#F1C12B"/>
<path d="M143.74 126.64C144.038 126.64 144.278 126.736 144.46 126.928C144.641 127.109 144.732 127.355 144.732 127.664V137.136C144.732 137.435 144.646 137.669 144.476 137.84C144.305 138.011 144.081 138.096 143.804 138.096C143.526 138.096 143.308 138.011 143.148 137.84C142.988 137.669 142.908 137.435 142.908 137.136V130.544L140.188 135.696C140.06 135.931 139.921 136.107 139.772 136.224C139.622 136.331 139.446 136.384 139.244 136.384C139.041 136.384 138.865 136.331 138.716 136.224C138.566 136.117 138.428 135.941 138.3 135.696L135.564 130.624V137.136C135.564 137.424 135.478 137.659 135.308 137.84C135.148 138.011 134.929 138.096 134.652 138.096C134.374 138.096 134.156 138.011 133.996 137.84C133.836 137.669 133.756 137.435 133.756 137.136V127.664C133.756 127.355 133.841 127.109 134.012 126.928C134.193 126.736 134.433 126.64 134.732 126.64C135.148 126.64 135.473 126.869 135.708 127.328L139.26 134.096L142.796 127.328C143.03 126.869 143.345 126.64 143.74 126.64ZM157.401 136.768C157.465 136.907 157.497 137.045 157.497 137.184C157.497 137.429 157.396 137.637 157.193 137.808C157.001 137.979 156.777 138.064 156.521 138.064C156.35 138.064 156.19 138.021 156.041 137.936C155.892 137.84 155.774 137.696 155.689 137.504L154.729 135.36H149.097L148.137 137.504C148.052 137.696 147.934 137.84 147.785 137.936C147.636 138.021 147.47 138.064 147.289 138.064C147.044 138.064 146.82 137.979 146.617 137.808C146.414 137.637 146.313 137.429 146.313 137.184C146.313 137.045 146.345 136.907 146.409 136.768L150.825 127.28C150.921 127.067 151.065 126.907 151.257 126.8C151.46 126.683 151.673 126.624 151.897 126.624C152.121 126.624 152.329 126.683 152.521 126.8C152.724 126.907 152.873 127.067 152.969 127.28L157.401 136.768ZM149.801 133.76H154.025L151.913 129.008L149.801 133.76ZM164.779 126.992C164.971 126.757 165.201 126.64 165.467 126.64C165.713 126.64 165.931 126.736 166.123 126.928C166.315 127.109 166.411 127.328 166.411 127.584C166.411 127.797 166.331 128 166.171 128.192L162.539 132.624V137.056C162.539 137.387 162.443 137.643 162.251 137.824C162.059 138.005 161.814 138.096 161.515 138.096C161.206 138.096 160.955 138.005 160.763 137.824C160.571 137.643 160.475 137.387 160.475 137.056V132.624L156.843 128.192C156.683 128 156.603 127.797 156.603 127.584C156.603 127.328 156.699 127.109 156.891 126.928C157.083 126.736 157.302 126.64 157.547 126.64C157.814 126.64 158.043 126.757 158.235 126.992L161.515 131.056L164.779 126.992Z" fill="#F1C12B"/>
<path d="M337.086 139.096C336.265 139.128 335.854 138.845 335.854 138.248C335.854 137.992 335.923 137.8 336.062 137.672C336.19 137.533 336.398 137.453 336.686 137.432L337.198 137.4C337.635 137.379 337.966 137.24 338.19 136.984C338.414 136.728 338.526 136.339 338.526 135.816V128.664C338.526 128.355 338.617 128.109 338.798 127.928C338.99 127.736 339.241 127.64 339.55 127.64C339.87 127.64 340.121 127.736 340.302 127.928C340.494 128.109 340.59 128.355 340.59 128.664V135.816C340.59 137.832 339.593 138.915 337.598 139.064L337.086 139.096ZM347.685 139.144C346.138 139.144 344.965 138.744 344.164 137.944C343.365 137.144 342.965 135.976 342.965 134.44V128.664C342.965 128.355 343.055 128.109 343.237 127.928C343.418 127.736 343.663 127.64 343.973 127.64C344.282 127.64 344.527 127.736 344.709 127.928C344.89 128.109 344.981 128.355 344.981 128.664V134.552C344.981 135.523 345.21 136.259 345.669 136.76C346.127 137.251 346.799 137.496 347.685 137.496C348.559 137.496 349.226 137.245 349.685 136.744C350.143 136.243 350.373 135.512 350.373 134.552V128.664C350.373 128.355 350.463 128.109 350.645 127.928C350.826 127.736 351.071 127.64 351.381 127.64C351.69 127.64 351.935 127.736 352.117 127.928C352.298 128.109 352.389 128.355 352.389 128.664V134.44C352.389 135.965 351.989 137.133 351.189 137.944C350.389 138.744 349.221 139.144 347.685 139.144ZM363.307 127.64C363.606 127.64 363.84 127.736 364.011 127.928C364.192 128.109 364.283 128.355 364.283 128.664V138.056C364.283 138.365 364.192 138.616 364.011 138.808C363.83 139 363.595 139.096 363.307 139.096C362.966 139.096 362.704 138.973 362.523 138.728L356.683 131.128V138.056C356.683 138.365 356.598 138.616 356.427 138.808C356.256 139 356.022 139.096 355.723 139.096C355.424 139.096 355.19 139 355.019 138.808C354.848 138.616 354.763 138.365 354.763 138.056V128.664C354.763 128.355 354.854 128.109 355.035 127.928C355.216 127.736 355.456 127.64 355.755 127.64C356.086 127.64 356.342 127.763 356.523 128.008L362.347 135.576V128.664C362.347 128.355 362.432 128.109 362.603 127.928C362.784 127.736 363.019 127.64 363.307 127.64ZM367.708 139C367.399 139 367.153 138.915 366.972 138.744C366.801 138.573 366.716 138.333 366.716 138.024V128.696C366.716 128.387 366.801 128.147 366.972 127.976C367.153 127.805 367.399 127.72 367.708 127.72H373.484C373.793 127.72 374.033 127.789 374.204 127.928C374.375 128.067 374.46 128.264 374.46 128.52C374.46 128.787 374.375 128.995 374.204 129.144C374.033 129.283 373.793 129.352 373.484 129.352H368.732V132.456H373.164C373.473 132.456 373.713 132.525 373.884 132.664C374.055 132.803 374.14 133.005 374.14 133.272C374.14 133.528 374.055 133.725 373.884 133.864C373.713 134.003 373.473 134.072 373.164 134.072H368.732V137.368H373.484C373.793 137.368 374.033 137.443 374.204 137.592C374.375 137.731 374.46 137.933 374.46 138.2C374.46 138.456 374.375 138.653 374.204 138.792C374.033 138.931 373.793 139 373.484 139H367.708Z" fill="#F1C12B"/>
<g filter="url(#filter0_d)">
<path d="M107.07 115.88L107.079 115.875L107.088 115.869L146.935 92.1825C147.715 91.7355 148.6 91.5 149.5 91.5C150.4 91.5 151.285 91.7355 152.065 92.1825L191.912 115.869L191.921 115.875L191.93 115.88C192.712 116.33 193.361 116.977 193.812 117.756C194.263 118.534 194.5 119.417 194.5 120.316V165.661C194.5 166.559 194.263 167.442 193.812 168.221C193.361 169 192.712 169.647 191.93 170.097L191.921 170.102L191.912 170.107L152.064 193.794C151.284 194.241 150.4 194.477 149.5 194.477C148.6 194.477 147.716 194.241 146.936 193.794L107.088 170.107L107.079 170.102L107.07 170.097C106.288 169.647 105.639 169 105.188 168.221C104.737 167.442 104.5 166.559 104.5 165.661V120.316C104.5 120.316 104.5 120.316 104.5 120.316C104.5 119.417 104.737 118.534 105.188 117.756C105.639 116.977 106.288 116.33 107.07 115.88Z" stroke="#F1C12B" stroke-width="3"/>
</g>
<g filter="url(#filter1_d)">
<path d="M313.07 115.88L313.079 115.875L313.088 115.869L352.935 92.1825C353.715 91.7355 354.6 91.5 355.5 91.5C356.4 91.5 357.285 91.7355 358.065 92.1825L397.912 115.869L397.921 115.875L397.93 115.88C398.712 116.33 399.361 116.977 399.812 117.756C400.263 118.534 400.5 119.417 400.5 120.316V165.661C400.5 166.559 400.263 167.442 399.812 168.221C399.361 169 398.712 169.647 397.93 170.097L397.921 170.102L397.912 170.107L358.064 193.794C357.284 194.241 356.4 194.477 355.5 194.477C354.6 194.477 353.716 194.241 352.936 193.794L313.088 170.107L313.079 170.102L313.07 170.097C312.288 169.647 311.639 169 311.188 168.221C310.737 167.442 310.5 166.559 310.5 165.661V120.316C310.5 120.316 310.5 120.316 310.5 120.316C310.5 119.417 310.737 118.534 311.188 117.756C311.639 116.977 312.288 116.33 313.07 115.88Z" stroke="#F1C12B" stroke-width="3"/>
</g>
<path d="M4.06979 115.88L4.07888 115.875L4.08789 115.869L43.9355 92.1825C44.7154 91.7355 45.5997 91.5 46.5 91.5C47.4003 91.5 48.2846 91.7355 49.0645 92.1825L88.9121 115.869L88.9211 115.875L88.9302 115.88C89.7122 116.33 90.361 116.977 90.8119 117.756C91.2628 118.534 91.5 119.417 91.5 120.316V165.661C91.5 166.559 91.2628 167.442 90.8119 168.221C90.361 169 89.7122 169.647 88.9302 170.097L88.9211 170.102L88.9121 170.107L49.0643 193.794C48.2844 194.241 47.4002 194.477 46.5 194.477C45.5998 194.477 44.7156 194.241 43.9357 193.794L4.08789 170.107L4.07888 170.102L4.06979 170.097C3.28781 169.647 2.63898 169 2.1881 168.221C1.73723 167.442 1.50002 166.559 1.5 165.661V120.316C1.5 120.316 1.5 120.316 1.5 120.316C1.50003 119.417 1.73723 118.534 2.1881 117.756C2.63899 116.977 3.28782 116.33 4.06979 115.88Z" stroke="#212151" stroke-width="3"/>
<path d="M58.0698 25.8799L58.0789 25.8746L58.0879 25.8693L97.9355 2.18248C98.7154 1.73546 99.5997 1.5 100.5 1.5C101.4 1.5 102.285 1.73546 103.065 2.18248L142.912 25.8693L142.921 25.8746L142.93 25.8799C143.712 26.33 144.361 26.9772 144.812 27.7559C145.263 28.5345 145.5 29.4174 145.5 30.3159V75.6608C145.5 76.5593 145.263 77.4422 144.812 78.2209C144.361 78.9995 143.712 79.6467 142.93 80.0968L142.921 80.1021L142.912 80.1074L103.064 103.794C102.284 104.241 101.4 104.477 100.5 104.477C99.5998 104.477 98.7156 104.241 97.9357 103.794L58.0879 80.1074L58.0789 80.1021L58.0698 80.0968C57.2878 79.6467 56.639 78.9995 56.1881 78.2209C55.7372 77.4422 55.5 76.5593 55.5 75.6608V30.3159C55.5 30.3159 55.5 30.3159 55.5 30.3159C55.5 29.4174 55.7372 28.5345 56.1881 27.7559C56.639 26.9772 57.2878 26.33 58.0698 25.8799Z" stroke="#212151" stroke-width="3"/>
<path d="M210.07 115.88L210.079 115.875L210.088 115.869L249.935 92.1825C250.715 91.7355 251.6 91.5 252.5 91.5C253.4 91.5 254.285 91.7355 255.065 92.1825L294.912 115.869L294.921 115.875L294.93 115.88C295.712 116.33 296.361 116.977 296.812 117.756C297.263 118.534 297.5 119.417 297.5 120.316V165.661C297.5 166.559 297.263 167.442 296.812 168.221C296.361 169 295.712 169.647 294.93 170.097L294.921 170.102L294.912 170.107L255.064 193.794C254.284 194.241 253.4 194.477 252.5 194.477C251.6 194.477 250.716 194.241 249.936 193.794L210.088 170.107L210.079 170.102L210.07 170.097C209.288 169.647 208.639 169 208.188 168.221C207.737 167.442 207.5 166.559 207.5 165.661V120.316C207.5 120.316 207.5 120.316 207.5 120.316C207.5 119.417 207.737 118.534 208.188 117.756C208.639 116.977 209.288 116.33 210.07 115.88Z" stroke="#212151" stroke-width="3"/>
<path d="M261.07 25.8799L261.079 25.8746L261.088 25.8693L300.935 2.18248C301.715 1.73546 302.6 1.5 303.5 1.5C304.4 1.5 305.285 1.73546 306.065 2.18248L345.912 25.8693L345.921 25.8746L345.93 25.8799C346.712 26.33 347.361 26.9772 347.812 27.7559C348.263 28.5345 348.5 29.4174 348.5 30.3159V75.6608C348.5 76.5593 348.263 77.4422 347.812 78.2209C347.361 78.9995 346.712 79.6467 345.93 80.0968L345.921 80.1021L345.912 80.1074L306.064 103.794C305.284 104.241 304.4 104.477 303.5 104.477C302.6 104.477 301.716 104.241 300.936 103.794L261.088 80.1074L261.079 80.1021L261.07 80.0968C260.288 79.6467 259.639 78.9995 259.188 78.2209C258.737 77.4422 258.5 76.5593 258.5 75.6608V30.3159C258.5 30.3159 258.5 30.3159 258.5 30.3159C258.5 29.4174 258.737 28.5345 259.188 27.7559C259.639 26.9772 260.288 26.33 261.07 25.8799Z" stroke="#212151" stroke-width="3"/>
<defs>
<filter id="filter0_d" x="63" y="50" width="173" height="185.977" filterUnits="userSpaceOnUse" color-interpolation-filters="sRGB">
<feFlood flood-opacity="0" result="BackgroundImageFix"/>
<feColorMatrix in="SourceAlpha" type="matrix" values="0 0 0 0 0 0 0 0 0 0 0 0 0 0 0 0 0 0 127 0"/>
<feOffset/>
<feGaussianBlur stdDeviation="20"/>
<feColorMatrix type="matrix" values="0 0 0 0 0.945098 0 0 0 0 0.756863 0 0 0 0 0.168627 0 0 0 1 0"/>
<feBlend mode="normal" in2="BackgroundImageFix" result="effect1_dropShadow"/>
<feBlend mode="normal" in="SourceGraphic" in2="effect1_dropShadow" result="shape"/>
</filter>
<filter id="filter1_d" x="269" y="50" width="173" height="185.977" filterUnits="userSpaceOnUse" color-interpolation-filters="sRGB">
<feFlood flood-opacity="0" result="BackgroundImageFix"/>
<feColorMatrix in="SourceAlpha" type="matrix" values="0 0 0 0 0 0 0 0 0 0 0 0 0 0 0 0 0 0 127 0"/>
<feOffset/>
<feGaussianBlur stdDeviation="20"/>
<feColorMatrix type="matrix" values="0 0 0 0 0.945098 0 0 0 0 0.756863 0 0 0 0 0.168627 0 0 0 1 0"/>
<feBlend mode="normal" in2="BackgroundImageFix" result="effect1_dropShadow"/>
<feBlend mode="normal" in="SourceGraphic" in2="effect1_dropShadow" result="shape"/>
</filter>
</defs>
</svg>
