<svg width="302" height="302" viewBox="0 0 302 302" fill="none" xmlns="http://www.w3.org/2000/svg">
<path d="M114.734 261C114.009 261 113.646 260.637 113.646 259.912V250.808C113.646 250.083 114.009 249.72 114.734 249.72H120.446C121.001 249.72 121.278 249.987 121.278 250.52C121.278 251.075 121.001 251.352 120.446 251.352H115.614V254.456H120.094C120.649 254.456 120.926 254.728 120.926 255.272C120.926 255.816 120.649 256.088 120.094 256.088H115.614V259.368H120.446C121.001 259.368 121.278 259.64 121.278 260.184C121.278 260.728 121.001 261 120.446 261H114.734ZM126.925 261.16C126.21 261.16 125.511 261.08 124.829 260.92C124.157 260.76 123.57 260.52 123.069 260.2C122.823 260.04 122.674 259.843 122.621 259.608C122.567 259.373 122.583 259.155 122.669 258.952C122.765 258.739 122.909 258.595 123.101 258.52C123.303 258.435 123.533 258.472 123.789 258.632C124.258 258.909 124.754 259.112 125.277 259.24C125.799 259.368 126.349 259.432 126.925 259.432C127.767 259.432 128.381 259.293 128.765 259.016C129.149 258.728 129.341 258.36 129.341 257.912C129.341 257.539 129.202 257.245 128.925 257.032C128.658 256.819 128.194 256.643 127.533 256.504L125.773 256.136C123.767 255.709 122.765 254.68 122.765 253.048C122.765 252.344 122.951 251.731 123.325 251.208C123.698 250.685 124.215 250.28 124.877 249.992C125.538 249.704 126.301 249.56 127.165 249.56C127.805 249.56 128.413 249.64 128.989 249.8C129.565 249.96 130.082 250.195 130.541 250.504C130.754 250.653 130.882 250.84 130.925 251.064C130.967 251.277 130.941 251.48 130.845 251.672C130.749 251.853 130.594 251.981 130.381 252.056C130.178 252.12 129.938 252.072 129.661 251.912C129.266 251.688 128.866 251.528 128.461 251.432C128.055 251.336 127.618 251.288 127.149 251.288C126.413 251.288 125.837 251.443 125.421 251.752C125.005 252.061 124.797 252.467 124.797 252.968C124.797 253.352 124.925 253.661 125.181 253.896C125.437 254.12 125.874 254.296 126.493 254.424L128.237 254.792C129.293 255.016 130.077 255.368 130.589 255.848C131.111 256.328 131.373 256.968 131.373 257.768C131.373 258.44 131.191 259.032 130.829 259.544C130.466 260.056 129.949 260.456 129.277 260.744C128.615 261.021 127.831 261.16 126.925 261.16ZM136.64 261.128C135.957 261.128 135.616 260.776 135.616 260.072V251.432H132.496C131.909 251.432 131.616 251.144 131.616 250.568C131.616 250.003 131.909 249.72 132.496 249.72H140.784C141.371 249.72 141.664 250.003 141.664 250.568C141.664 251.144 141.371 251.432 140.784 251.432H137.664V260.072C137.664 260.776 137.323 261.128 136.64 261.128ZM141.696 261.128C141.322 261.128 141.056 261 140.896 260.744C140.736 260.488 140.741 260.179 140.912 259.816L145.136 250.456C145.274 250.147 145.44 249.928 145.632 249.8C145.834 249.661 146.064 249.592 146.32 249.592C146.565 249.592 146.784 249.661 146.976 249.8C147.178 249.928 147.349 250.147 147.488 250.456L151.728 259.816C151.898 260.189 151.909 260.504 151.76 260.76C151.61 261.005 151.354 261.128 150.992 261.128C150.693 261.128 150.458 261.059 150.288 260.92C150.128 260.771 149.984 260.547 149.856 260.248L149.056 258.392H143.552L142.768 260.248C142.629 260.557 142.485 260.781 142.336 260.92C142.186 261.059 141.973 261.128 141.696 261.128ZM146.288 251.944L144.256 256.76H148.352L146.32 251.944H146.288ZM154.578 261C153.852 261 153.49 260.637 153.49 259.912V250.808C153.49 250.083 153.852 249.72 154.578 249.72H158.418C159.602 249.72 160.519 249.981 161.17 250.504C161.82 251.016 162.146 251.731 162.146 252.648C162.146 253.256 161.991 253.779 161.682 254.216C161.372 254.653 160.946 254.973 160.402 255.176C161.042 255.357 161.538 255.677 161.89 256.136C162.252 256.584 162.434 257.155 162.434 257.848C162.434 258.851 162.092 259.629 161.41 260.184C160.738 260.728 159.799 261 158.594 261H154.578ZM155.458 254.504H158.066C159.463 254.504 160.162 253.965 160.162 252.888C160.162 251.811 159.463 251.272 158.066 251.272H155.458V254.504ZM155.458 259.448H158.338C159.746 259.448 160.45 258.883 160.45 257.752C160.45 256.621 159.746 256.056 158.338 256.056H155.458V259.448ZM165.545 261C164.852 261 164.505 260.648 164.505 259.944V250.712C164.505 250.019 164.847 249.672 165.529 249.672C166.212 249.672 166.553 250.019 166.553 250.712V259.256H171.193C171.791 259.256 172.089 259.544 172.089 260.12C172.089 260.707 171.791 261 171.193 261H165.545ZM174.514 261.128C173.831 261.128 173.49 260.776 173.49 260.072V250.648C173.49 249.944 173.831 249.592 174.514 249.592C175.196 249.592 175.538 249.944 175.538 250.648V260.072C175.538 260.776 175.196 261.128 174.514 261.128ZM181.893 261.16C181.179 261.16 180.48 261.08 179.797 260.92C179.125 260.76 178.539 260.52 178.037 260.2C177.792 260.04 177.643 259.843 177.589 259.608C177.536 259.373 177.552 259.155 177.637 258.952C177.733 258.739 177.877 258.595 178.069 258.52C178.272 258.435 178.501 258.472 178.757 258.632C179.227 258.909 179.723 259.112 180.245 259.24C180.768 259.368 181.317 259.432 181.893 259.432C182.736 259.432 183.349 259.293 183.733 259.016C184.117 258.728 184.309 258.36 184.309 257.912C184.309 257.539 184.171 257.245 183.893 257.032C183.627 256.819 183.163 256.643 182.501 256.504L180.741 256.136C178.736 255.709 177.733 254.68 177.733 253.048C177.733 252.344 177.92 251.731 178.293 251.208C178.667 250.685 179.184 250.28 179.845 249.992C180.507 249.704 181.269 249.56 182.133 249.56C182.773 249.56 183.381 249.64 183.957 249.8C184.533 249.96 185.051 250.195 185.509 250.504C185.723 250.653 185.851 250.84 185.893 251.064C185.936 251.277 185.909 251.48 185.813 251.672C185.717 251.853 185.563 251.981 185.349 252.056C185.147 252.12 184.907 252.072 184.629 251.912C184.235 251.688 183.835 251.528 183.429 251.432C183.024 251.336 182.587 251.288 182.117 251.288C181.381 251.288 180.805 251.443 180.389 251.752C179.973 252.061 179.765 252.467 179.765 252.968C179.765 253.352 179.893 253.661 180.149 253.896C180.405 254.12 180.843 254.296 181.461 254.424L183.205 254.792C184.261 255.016 185.045 255.368 185.557 255.848C186.08 256.328 186.341 256.968 186.341 257.768C186.341 258.44 186.16 259.032 185.797 259.544C185.435 260.056 184.917 260.456 184.245 260.744C183.584 261.021 182.8 261.16 181.893 261.16ZM189.123 261.128C188.441 261.128 188.099 260.776 188.099 260.072V250.648C188.099 249.944 188.441 249.592 189.123 249.592C189.806 249.592 190.147 249.944 190.147 250.648V254.424H195.955V250.648C195.955 249.944 196.297 249.592 196.979 249.592C197.662 249.592 198.003 249.944 198.003 250.648V260.072C198.003 260.776 197.662 261.128 196.979 261.128C196.297 261.128 195.955 260.776 195.955 260.072V256.136H190.147V260.072C190.147 260.776 189.806 261.128 189.123 261.128ZM201.434 261.128C200.816 261.128 200.506 260.808 200.506 260.168V250.552C200.506 249.912 200.826 249.592 201.466 249.592C201.733 249.592 201.941 249.645 202.09 249.752C202.25 249.848 202.394 250.019 202.522 250.264L206.218 257.096L209.914 250.264C210.042 250.019 210.181 249.848 210.33 249.752C210.48 249.645 210.688 249.592 210.954 249.592C211.573 249.592 211.882 249.912 211.882 250.552V260.168C211.882 260.808 211.573 261.128 210.954 261.128C210.336 261.128 210.026 260.808 210.026 260.168V253.4L207.018 258.888C206.912 259.069 206.8 259.203 206.682 259.288C206.565 259.373 206.405 259.416 206.202 259.416C206 259.416 205.834 259.373 205.706 259.288C205.578 259.192 205.466 259.059 205.37 258.888L202.362 253.432V260.168C202.362 260.808 202.053 261.128 201.434 261.128ZM215.453 261C214.727 261 214.365 260.637 214.365 259.912V250.808C214.365 250.083 214.727 249.72 215.453 249.72H221.165C221.719 249.72 221.997 249.987 221.997 250.52C221.997 251.075 221.719 251.352 221.165 251.352H216.333V254.456H220.813C221.367 254.456 221.645 254.728 221.645 255.272C221.645 255.816 221.367 256.088 220.813 256.088H216.333V259.368H221.165C221.719 259.368 221.997 259.64 221.997 260.184C221.997 260.728 221.719 261 221.165 261H215.453ZM224.872 261.128C224.232 261.128 223.912 260.797 223.912 260.136V250.616C223.912 250.285 223.992 250.035 224.152 249.864C224.322 249.683 224.541 249.592 224.808 249.592C225.053 249.592 225.234 249.64 225.352 249.736C225.48 249.821 225.629 249.971 225.8 250.184L231.512 257.592V250.568C231.512 249.917 231.832 249.592 232.472 249.592C233.101 249.592 233.416 249.917 233.416 250.568V260.168C233.416 260.467 233.341 260.701 233.192 260.872C233.042 261.043 232.84 261.128 232.584 261.128C232.338 261.128 232.141 261.08 231.992 260.984C231.853 260.888 231.698 260.733 231.528 260.52L225.816 253.096V260.136C225.816 260.797 225.501 261.128 224.872 261.128ZM239.624 261.128C238.942 261.128 238.6 260.776 238.6 260.072V251.432H235.48C234.894 251.432 234.6 251.144 234.6 250.568C234.6 250.003 234.894 249.72 235.48 249.72H243.768C244.355 249.72 244.648 250.003 244.648 250.568C244.648 251.144 244.355 251.432 243.768 251.432H240.648V260.072C240.648 260.776 240.307 261.128 239.624 261.128Z" fill="white"/>
<path d="M157.441 179C157.099 179 156.849 178.925 156.689 178.776C156.539 178.616 156.465 178.387 156.465 178.088C156.465 177.907 156.513 177.731 156.609 177.56C156.705 177.389 156.843 177.208 157.025 177.016L160.241 173.592C160.731 173.08 161.083 172.616 161.297 172.2C161.51 171.773 161.617 171.347 161.617 170.92C161.617 169.832 160.961 169.288 159.649 169.288C159.286 169.288 158.923 169.341 158.561 169.448C158.198 169.544 157.83 169.715 157.457 169.96C157.222 170.12 157.003 170.168 156.801 170.104C156.598 170.04 156.443 169.912 156.337 169.72C156.23 169.517 156.193 169.304 156.225 169.08C156.267 168.856 156.406 168.664 156.641 168.504C157.099 168.195 157.611 167.96 158.177 167.8C158.753 167.64 159.329 167.56 159.905 167.56C161.11 167.56 162.033 167.832 162.673 168.376C163.323 168.92 163.649 169.699 163.649 170.712C163.649 171.395 163.483 172.051 163.153 172.68C162.833 173.309 162.326 173.987 161.633 174.712L159.153 177.304H163.329C163.915 177.304 164.209 177.581 164.209 178.136C164.209 178.712 163.915 179 163.329 179H157.441ZM169.706 179.16C168.373 179.16 167.354 178.659 166.65 177.656C165.946 176.643 165.594 175.203 165.594 173.336C165.594 171.448 165.946 170.013 166.65 169.032C167.354 168.051 168.373 167.56 169.706 167.56C171.05 167.56 172.069 168.051 172.762 169.032C173.466 170.013 173.818 171.443 173.818 173.32C173.818 175.197 173.466 176.643 172.762 177.656C172.058 178.659 171.04 179.16 169.706 179.16ZM169.706 177.48C170.432 177.48 170.965 177.144 171.306 176.472C171.658 175.8 171.834 174.749 171.834 173.32C171.834 171.891 171.658 170.856 171.306 170.216C170.965 169.565 170.432 169.24 169.706 169.24C168.992 169.24 168.458 169.565 168.106 170.216C167.754 170.856 167.578 171.891 167.578 173.32C167.578 174.749 167.754 175.8 168.106 176.472C168.458 177.144 168.992 177.48 169.706 177.48ZM176.996 179C176.409 179 176.116 178.712 176.116 178.136C176.116 177.581 176.409 177.304 176.996 177.304H178.788V170.056L177.428 170.872C177.172 171.021 176.937 171.059 176.724 170.984C176.521 170.909 176.367 170.776 176.26 170.584C176.153 170.392 176.121 170.184 176.164 169.96C176.207 169.725 176.356 169.533 176.612 169.384L178.82 168.056C179.033 167.928 179.247 167.821 179.46 167.736C179.673 167.64 179.871 167.592 180.052 167.592C180.276 167.592 180.463 167.656 180.612 167.784C180.761 167.901 180.836 168.099 180.836 168.376V177.304H182.468C183.055 177.304 183.348 177.581 183.348 178.136C183.348 178.712 183.055 179 182.468 179H176.996ZM188.99 179.16C188.424 179.16 187.848 179.085 187.262 178.936C186.675 178.787 186.136 178.557 185.646 178.248C185.39 178.088 185.235 177.896 185.182 177.672C185.139 177.437 185.171 177.224 185.278 177.032C185.384 176.829 185.539 176.696 185.742 176.632C185.955 176.557 186.195 176.595 186.462 176.744C186.856 176.968 187.256 177.139 187.662 177.256C188.067 177.373 188.499 177.432 188.958 177.432C189.63 177.432 190.152 177.261 190.526 176.92C190.91 176.568 191.102 176.099 191.102 175.512C191.102 174.915 190.92 174.435 190.558 174.072C190.195 173.699 189.699 173.512 189.07 173.512C188.728 173.512 188.398 173.571 188.078 173.688C187.758 173.795 187.443 173.987 187.134 174.264C187.038 174.349 186.915 174.435 186.766 174.52C186.616 174.595 186.456 174.632 186.286 174.632C185.742 174.632 185.47 174.371 185.47 173.848V168.616C185.47 168.019 185.768 167.72 186.366 167.72H191.63C192.227 167.72 192.526 168.003 192.526 168.568C192.526 169.133 192.227 169.416 191.63 169.416H187.47V172.472C188.035 172.045 188.728 171.832 189.55 171.832C190.264 171.832 190.883 171.987 191.406 172.296C191.939 172.595 192.35 173.016 192.638 173.56C192.936 174.093 193.086 174.717 193.086 175.432C193.086 176.168 192.92 176.819 192.59 177.384C192.259 177.939 191.784 178.376 191.166 178.696C190.558 179.005 189.832 179.16 188.99 179.16Z" fill="#F1C12B"/>
<g filter="url(#filter0_d)">
<path d="M132.07 144.88L132.079 144.875L132.088 144.869L171.935 121.182C172.715 120.735 173.6 120.5 174.5 120.5C175.4 120.5 176.285 120.735 177.065 121.183L216.912 144.869L216.921 144.875L216.93 144.88C217.712 145.33 218.361 145.977 218.812 146.756C219.263 147.534 219.5 148.417 219.5 149.316V194.661C219.5 195.559 219.263 196.442 218.812 197.221C218.361 198 217.712 198.647 216.93 199.097L216.921 199.102L216.912 199.107L177.065 222.794C176.285 223.241 175.4 223.477 174.5 223.477C173.6 223.477 172.715 223.241 171.935 222.794L132.088 199.107L132.079 199.102L132.07 199.097C131.288 198.647 130.639 198 130.188 197.221C129.737 196.442 129.5 195.559 129.5 194.661V149.316C129.5 149.316 129.5 149.316 129.5 149.316C129.5 148.417 129.737 147.534 130.188 146.756C130.639 145.977 131.288 145.33 132.07 144.88Z" stroke="#F1C12B" stroke-width="3"/>
</g>
<path d="M189.07 54.8799L189.079 54.8746L189.088 54.8693L228.935 31.1825C229.715 30.7355 230.6 30.5 231.5 30.5C232.4 30.5 233.285 30.7355 234.065 31.1825L273.912 54.8693L273.921 54.8746L273.93 54.8799C274.712 55.33 275.361 55.9772 275.812 56.7559C276.263 57.5345 276.5 58.4174 276.5 59.3159V104.661C276.5 105.559 276.263 106.442 275.812 107.221C275.361 108 274.712 108.647 273.93 109.097L273.921 109.102L273.912 109.107L234.065 132.794C233.285 133.241 232.4 133.477 231.5 133.477C230.6 133.477 229.715 133.241 228.935 132.794L189.088 109.107L189.079 109.102L189.07 109.097C188.288 108.647 187.639 108 187.188 107.221C186.737 106.442 186.5 105.559 186.5 104.661V59.3159C186.5 59.3159 186.5 59.3159 186.5 59.3159C186.5 58.4174 186.737 57.5345 187.188 56.7559C187.639 55.9772 188.288 55.33 189.07 54.8799Z" stroke="#212151" stroke-width="3"/>
<path d="M28.0698 144.88L28.0789 144.875L28.0879 144.869L67.9355 121.182C68.7154 120.735 69.5997 120.5 70.5 120.5C71.4003 120.5 72.2846 120.735 73.0646 121.183L112.912 144.869L112.921 144.875L112.93 144.88C113.712 145.33 114.361 145.977 114.812 146.756C115.263 147.534 115.5 148.417 115.5 149.316V194.661C115.5 195.559 115.263 196.442 114.812 197.221C114.361 198 113.712 198.647 112.93 199.097L112.921 199.102L112.912 199.107L73.0647 222.794C72.2847 223.241 71.4004 223.477 70.5 223.477C69.5996 223.477 68.7153 223.241 67.9353 222.794L28.0879 199.107L28.0789 199.102L28.0698 199.097C27.2878 198.647 26.639 198 26.1881 197.221C25.7372 196.442 25.5 195.559 25.5 194.661V149.316C25.5 149.316 25.5 149.316 25.5 149.316C25.5 148.417 25.7372 147.534 26.1881 146.756C26.639 145.977 27.2878 145.33 28.0698 144.88Z" stroke="#212151" stroke-width="3"/>
<defs>
<filter id="filter0_d" x="88" y="79" width="173" height="185.977" filterUnits="userSpaceOnUse" color-interpolation-filters="sRGB">
<feFlood flood-opacity="0" result="BackgroundImageFix"/>
<feColorMatrix in="SourceAlpha" type="matrix" values="0 0 0 0 0 0 0 0 0 0 0 0 0 0 0 0 0 0 127 0"/>
<feOffset/>
<feGaussianBlur stdDeviation="20"/>
<feColorMatrix type="matrix" values="0 0 0 0 0.945098 0 0 0 0 0.756863 0 0 0 0 0.168627 0 0 0 1 0"/>
<feBlend mode="normal" in2="BackgroundImageFix" result="effect1_dropShadow"/>
<feBlend mode="normal" in="SourceGraphic" in2="effect1_dropShadow" result="shape"/>
</filter>
</defs>
</svg>
