<svg width="254" height="240" viewBox="0 0 254 240" fill="none" xmlns="http://www.w3.org/2000/svg">
<path d="M69.6226 229.112C69.0252 229.112 68.7266 228.804 68.7266 228.188V220.628H65.9966C65.4832 220.628 65.2266 220.376 65.2266 219.872C65.2266 219.377 65.4832 219.13 65.9966 219.13H73.2486C73.7619 219.13 74.0186 219.377 74.0186 219.872C74.0186 220.376 73.7619 220.628 73.2486 220.628H70.5186V228.188C70.5186 228.804 70.2199 229.112 69.6226 229.112ZM78.8643 229.14C77.9123 229.14 77.077 228.93 76.3583 228.51C75.649 228.09 75.0983 227.502 74.7063 226.746C74.3143 225.981 74.1183 225.085 74.1183 224.058C74.1183 223.022 74.3143 222.126 74.7063 221.37C75.0983 220.614 75.649 220.031 76.3583 219.62C77.0676 219.2 77.903 218.99 78.8643 218.99C79.8256 218.99 80.661 219.2 81.3703 219.62C82.0796 220.031 82.6303 220.614 83.0223 221.37C83.4143 222.126 83.6103 223.017 83.6103 224.044C83.6103 225.08 83.4143 225.981 83.0223 226.746C82.6303 227.502 82.0796 228.09 81.3703 228.51C80.661 228.93 79.8256 229.14 78.8643 229.14ZM78.8643 227.6C79.7696 227.6 80.4743 227.287 80.9783 226.662C81.4823 226.037 81.7343 225.169 81.7343 224.058C81.7343 222.938 81.4823 222.07 80.9783 221.454C80.4836 220.838 79.779 220.53 78.8643 220.53C77.959 220.53 77.2543 220.838 76.7503 221.454C76.2463 222.07 75.9943 222.938 75.9943 224.058C75.9943 225.169 76.2463 226.037 76.7503 226.662C77.2543 227.287 77.959 227.6 78.8643 227.6ZM86.3285 229.112C85.7312 229.112 85.4325 228.804 85.4325 228.188V219.928C85.4325 219.321 85.7312 219.018 86.3285 219.018C86.9258 219.018 87.2245 219.321 87.2245 219.928V223.498H87.2525L91.2705 219.466C91.4198 219.317 91.5692 219.205 91.7185 219.13C91.8678 219.055 92.0358 219.018 92.2225 219.018C92.4932 219.018 92.6845 219.088 92.7965 219.228C92.9178 219.368 92.9645 219.531 92.9365 219.718C92.9178 219.905 92.8292 220.077 92.6705 220.236L88.9885 223.876L92.8665 227.81C93.0625 227.997 93.1652 228.193 93.1745 228.398C93.1838 228.603 93.1185 228.776 92.9785 228.916C92.8478 229.047 92.6518 229.112 92.3905 229.112C92.1665 229.112 91.9845 229.065 91.8445 228.972C91.7138 228.879 91.5598 228.743 91.3825 228.566L87.2525 224.436H87.2245V228.188C87.2245 228.804 86.9258 229.112 86.3285 229.112ZM95.695 229C95.0604 229 94.743 228.683 94.743 228.048V220.082C94.743 219.447 95.0604 219.13 95.695 219.13H100.693C101.178 219.13 101.421 219.363 101.421 219.83C101.421 220.315 101.178 220.558 100.693 220.558H96.465V223.274H100.385C100.87 223.274 101.113 223.512 101.113 223.988C101.113 224.464 100.87 224.702 100.385 224.702H96.465V227.572H100.693C101.178 227.572 101.421 227.81 101.421 228.286C101.421 228.762 101.178 229 100.693 229H95.695ZM103.937 229.112C103.377 229.112 103.097 228.823 103.097 228.244V219.914C103.097 219.625 103.167 219.405 103.307 219.256C103.456 219.097 103.647 219.018 103.881 219.018C104.095 219.018 104.254 219.06 104.357 219.144C104.469 219.219 104.599 219.349 104.749 219.536L109.747 226.018V219.872C109.747 219.303 110.027 219.018 110.587 219.018C111.137 219.018 111.413 219.303 111.413 219.872V228.272C111.413 228.533 111.347 228.739 111.217 228.888C111.086 229.037 110.909 229.112 110.685 229.112C110.47 229.112 110.297 229.07 110.167 228.986C110.045 228.902 109.91 228.767 109.761 228.58L104.763 222.084V228.244C104.763 228.823 104.487 229.112 103.937 229.112ZM118.322 229C117.687 229 117.37 228.683 117.37 228.048V220.082C117.37 219.447 117.687 219.13 118.322 219.13H121.038C122.69 219.13 123.964 219.555 124.86 220.404C125.765 221.253 126.218 222.471 126.218 224.058C126.218 225.635 125.765 226.853 124.86 227.712C123.964 228.571 122.69 229 121.038 229H118.322ZM119.162 227.516H120.926C123.203 227.516 124.342 226.363 124.342 224.058C124.342 221.762 123.203 220.614 120.926 220.614H119.162V227.516ZM128.986 229C128.351 229 128.034 228.683 128.034 228.048V220.082C128.034 219.447 128.351 219.13 128.986 219.13H133.984C134.469 219.13 134.712 219.363 134.712 219.83C134.712 220.315 134.469 220.558 133.984 220.558H129.756V223.274H133.676C134.161 223.274 134.404 223.512 134.404 223.988C134.404 224.464 134.161 224.702 133.676 224.702H129.756V227.572H133.984C134.469 227.572 134.712 227.81 134.712 228.286C134.712 228.762 134.469 229 133.984 229H128.986ZM140.267 229.112C139.791 229.112 139.45 228.879 139.245 228.412L135.591 220.208C135.441 219.853 135.446 219.569 135.605 219.354C135.773 219.13 136.015 219.018 136.333 219.018C136.603 219.018 136.804 219.079 136.935 219.2C137.075 219.312 137.191 219.485 137.285 219.718L140.295 226.704L143.305 219.704C143.407 219.48 143.529 219.312 143.669 219.2C143.809 219.079 144.005 219.018 144.257 219.018C144.555 219.018 144.779 219.13 144.929 219.354C145.087 219.578 145.087 219.863 144.929 220.208L141.275 228.412C141.172 228.645 141.041 228.823 140.883 228.944C140.733 229.056 140.528 229.112 140.267 229.112ZM147.279 229C146.644 229 146.327 228.683 146.327 228.048V220.082C146.327 219.447 146.644 219.13 147.279 219.13H152.277C152.762 219.13 153.005 219.363 153.005 219.83C153.005 220.315 152.762 220.558 152.277 220.558H148.049V223.274H151.969C152.454 223.274 152.697 223.512 152.697 223.988C152.697 224.464 152.454 224.702 151.969 224.702H148.049V227.572H152.277C152.762 227.572 153.005 227.81 153.005 228.286C153.005 228.762 152.762 229 152.277 229H147.279ZM155.591 229C154.984 229 154.681 228.692 154.681 228.076V219.998C154.681 219.391 154.979 219.088 155.577 219.088C156.174 219.088 156.473 219.391 156.473 219.998V227.474H160.533C161.055 227.474 161.317 227.726 161.317 228.23C161.317 228.743 161.055 229 160.533 229H155.591ZM166.433 229.14C165.481 229.14 164.645 228.93 163.927 228.51C163.217 228.09 162.667 227.502 162.275 226.746C161.883 225.981 161.687 225.085 161.687 224.058C161.687 223.022 161.883 222.126 162.275 221.37C162.667 220.614 163.217 220.031 163.927 219.62C164.636 219.2 165.471 218.99 166.433 218.99C167.394 218.99 168.229 219.2 168.939 219.62C169.648 220.031 170.199 220.614 170.591 221.37C170.983 222.126 171.179 223.017 171.179 224.044C171.179 225.08 170.983 225.981 170.591 226.746C170.199 227.502 169.648 228.09 168.939 228.51C168.229 228.93 167.394 229.14 166.433 229.14ZM166.433 227.6C167.338 227.6 168.043 227.287 168.547 226.662C169.051 226.037 169.303 225.169 169.303 224.058C169.303 222.938 169.051 222.07 168.547 221.454C168.052 220.838 167.347 220.53 166.433 220.53C165.527 220.53 164.823 220.838 164.319 221.454C163.815 222.07 163.563 222.938 163.563 224.058C163.563 225.169 163.815 226.037 164.319 226.662C164.823 227.287 165.527 227.6 166.433 227.6ZM173.897 229.112C173.3 229.112 173.001 228.804 173.001 228.188V220.04C173.001 219.433 173.304 219.13 173.911 219.13H177.285C178.368 219.13 179.203 219.401 179.791 219.942C180.379 220.483 180.673 221.239 180.673 222.21C180.673 223.181 180.379 223.941 179.791 224.492C179.203 225.033 178.368 225.304 177.285 225.304H174.793V228.188C174.793 228.804 174.494 229.112 173.897 229.112ZM174.793 223.89H177.005C178.293 223.89 178.937 223.33 178.937 222.21C178.937 221.099 178.293 220.544 177.005 220.544H174.793V223.89ZM182.974 229.112C182.432 229.112 182.162 228.832 182.162 228.272V219.858C182.162 219.298 182.442 219.018 183.002 219.018C183.235 219.018 183.417 219.065 183.548 219.158C183.688 219.242 183.814 219.391 183.926 219.606L187.16 225.584L190.394 219.606C190.506 219.391 190.627 219.242 190.758 219.158C190.888 219.065 191.07 219.018 191.304 219.018C191.845 219.018 192.116 219.298 192.116 219.858V228.272C192.116 228.832 191.845 229.112 191.304 229.112C190.762 229.112 190.492 228.832 190.492 228.272V222.35L187.86 227.152C187.766 227.311 187.668 227.427 187.566 227.502C187.463 227.577 187.323 227.614 187.146 227.614C186.968 227.614 186.824 227.577 186.712 227.502C186.6 227.418 186.502 227.301 186.418 227.152L183.786 222.378V228.272C183.786 228.832 183.515 229.112 182.974 229.112ZM195.24 229C194.605 229 194.288 228.683 194.288 228.048V220.082C194.288 219.447 194.605 219.13 195.24 219.13H200.238C200.723 219.13 200.966 219.363 200.966 219.83C200.966 220.315 200.723 220.558 200.238 220.558H196.01V223.274H199.93C200.415 223.274 200.658 223.512 200.658 223.988C200.658 224.464 200.415 224.702 199.93 224.702H196.01V227.572H200.238C200.723 227.572 200.966 227.81 200.966 228.286C200.966 228.762 200.723 229 200.238 229H195.24ZM203.481 229.112C202.921 229.112 202.641 228.823 202.641 228.244V219.914C202.641 219.625 202.711 219.405 202.851 219.256C203.001 219.097 203.192 219.018 203.425 219.018C203.64 219.018 203.799 219.06 203.901 219.144C204.013 219.219 204.144 219.349 204.293 219.536L209.291 226.018V219.872C209.291 219.303 209.571 219.018 210.131 219.018C210.682 219.018 210.957 219.303 210.957 219.872V228.272C210.957 228.533 210.892 228.739 210.761 228.888C210.631 229.037 210.453 229.112 210.229 229.112C210.015 229.112 209.842 229.07 209.711 228.986C209.59 228.902 209.455 228.767 209.305 228.58L204.307 222.084V228.244C204.307 228.823 204.032 229.112 203.481 229.112ZM216.39 229.112C215.793 229.112 215.494 228.804 215.494 228.188V220.628H212.764C212.251 220.628 211.994 220.376 211.994 219.872C211.994 219.377 212.251 219.13 212.764 219.13H220.016C220.529 219.13 220.786 219.377 220.786 219.872C220.786 220.376 220.529 220.628 220.016 220.628H217.286V228.188C217.286 228.804 216.987 229.112 216.39 229.112Z" fill="white"/>
<path d="M139.265 155.336C139.905 155.336 140.225 155.608 140.225 156.152C140.225 156.717 139.905 157 139.265 157H133.185C132.908 157 132.689 156.92 132.529 156.76C132.369 156.589 132.289 156.381 132.289 156.136C132.289 155.816 132.412 155.528 132.657 155.272L136.305 151.352C136.753 150.861 137.078 150.413 137.281 150.008C137.494 149.592 137.601 149.181 137.601 148.776C137.601 148.275 137.457 147.891 137.169 147.624C136.881 147.357 136.47 147.224 135.937 147.224C135.5 147.224 135.073 147.309 134.657 147.48C134.252 147.64 133.841 147.864 133.425 148.152C133.318 148.227 133.212 148.291 133.105 148.344C132.998 148.387 132.892 148.408 132.785 148.408C132.604 148.408 132.444 148.323 132.305 148.152C132.177 147.981 132.113 147.779 132.113 147.544C132.113 147.384 132.14 147.245 132.193 147.128C132.257 147.011 132.353 146.899 132.481 146.792C132.95 146.419 133.5 146.125 134.129 145.912C134.758 145.688 135.388 145.576 136.017 145.576C137.116 145.576 137.99 145.853 138.641 146.408C139.302 146.963 139.633 147.709 139.633 148.648C139.633 149.299 139.494 149.912 139.217 150.488C138.94 151.053 138.47 151.688 137.809 152.392L135.041 155.336H139.265ZM145.706 157.144C144.373 157.144 143.354 156.653 142.65 155.672C141.946 154.68 141.594 153.24 141.594 151.352C141.594 149.475 141.946 148.045 142.65 147.064C143.354 146.072 144.373 145.576 145.706 145.576C147.04 145.576 148.058 146.072 148.762 147.064C149.466 148.045 149.818 149.475 149.818 151.352C149.818 153.229 149.466 154.664 148.762 155.656C148.058 156.648 147.04 157.144 145.706 157.144ZM145.706 155.528C146.432 155.528 146.96 155.197 147.29 154.536C147.621 153.864 147.786 152.803 147.786 151.352C147.786 149.891 147.621 148.835 147.29 148.184C146.96 147.523 146.432 147.192 145.706 147.192C144.981 147.192 144.453 147.523 144.122 148.184C143.792 148.845 143.626 149.901 143.626 151.352C143.626 152.803 143.792 153.864 144.122 154.536C144.453 155.197 144.981 155.528 145.706 155.528ZM158.468 155.336C159.108 155.336 159.428 155.608 159.428 156.152C159.428 156.717 159.108 157 158.468 157H152.388C152.111 157 151.892 156.92 151.732 156.76C151.572 156.589 151.492 156.381 151.492 156.136C151.492 155.816 151.615 155.528 151.86 155.272L155.508 151.352C155.956 150.861 156.281 150.413 156.484 150.008C156.697 149.592 156.804 149.181 156.804 148.776C156.804 148.275 156.66 147.891 156.372 147.624C156.084 147.357 155.673 147.224 155.14 147.224C154.703 147.224 154.276 147.309 153.86 147.48C153.455 147.64 153.044 147.864 152.628 148.152C152.521 148.227 152.415 148.291 152.308 148.344C152.201 148.387 152.095 148.408 151.988 148.408C151.807 148.408 151.647 148.323 151.508 148.152C151.38 147.981 151.316 147.779 151.316 147.544C151.316 147.384 151.343 147.245 151.396 147.128C151.46 147.011 151.556 146.899 151.684 146.792C152.153 146.419 152.703 146.125 153.332 145.912C153.961 145.688 154.591 145.576 155.22 145.576C156.319 145.576 157.193 145.853 157.844 146.408C158.505 146.963 158.836 147.709 158.836 148.648C158.836 149.299 158.697 149.912 158.42 150.488C158.143 151.053 157.673 151.688 157.012 152.392L154.244 155.336H158.468ZM168.125 155.336C168.765 155.336 169.085 155.608 169.085 156.152C169.085 156.717 168.765 157 168.125 157H162.717C162.067 157 161.741 156.717 161.741 156.152C161.741 155.608 162.067 155.336 162.717 155.336H164.381V148.04L162.845 148.984C162.696 149.069 162.563 149.112 162.445 149.112C162.221 149.112 162.029 149.016 161.869 148.824C161.72 148.632 161.645 148.419 161.645 148.184C161.645 147.875 161.784 147.635 162.061 147.464L164.541 145.928C164.861 145.736 165.165 145.64 165.453 145.64C165.752 145.64 165.992 145.731 166.173 145.912C166.355 146.093 166.445 146.344 166.445 146.664V155.336H168.125Z" fill="#F1C12B"/>
<path d="M136.727 139.096C135.905 139.128 135.495 138.845 135.495 138.248C135.495 137.992 135.564 137.8 135.703 137.672C135.831 137.533 136.039 137.453 136.327 137.432L136.839 137.4C137.276 137.379 137.607 137.24 137.831 136.984C138.055 136.728 138.167 136.339 138.167 135.816V128.664C138.167 128.355 138.257 128.109 138.439 127.928C138.631 127.736 138.881 127.64 139.191 127.64C139.511 127.64 139.761 127.736 139.943 127.928C140.135 128.109 140.231 128.355 140.231 128.664V135.816C140.231 137.832 139.233 138.915 137.239 139.064L136.727 139.096ZM152.893 137.768C152.957 137.907 152.989 138.045 152.989 138.184C152.989 138.429 152.888 138.637 152.685 138.808C152.493 138.979 152.269 139.064 152.013 139.064C151.842 139.064 151.682 139.021 151.533 138.936C151.384 138.84 151.266 138.696 151.181 138.504L150.221 136.36H144.589L143.629 138.504C143.544 138.696 143.426 138.84 143.277 138.936C143.128 139.021 142.962 139.064 142.781 139.064C142.536 139.064 142.312 138.979 142.109 138.808C141.906 138.637 141.805 138.429 141.805 138.184C141.805 138.045 141.837 137.907 141.901 137.768L146.317 128.28C146.413 128.067 146.557 127.907 146.749 127.8C146.952 127.683 147.165 127.624 147.389 127.624C147.613 127.624 147.821 127.683 148.013 127.8C148.216 127.907 148.365 128.067 148.461 128.28L152.893 137.768ZM145.293 134.76H149.517L147.405 130.008L145.293 134.76ZM163.088 127.64C163.387 127.64 163.621 127.736 163.792 127.928C163.973 128.109 164.064 128.355 164.064 128.664V138.056C164.064 138.365 163.973 138.616 163.792 138.808C163.611 139 163.376 139.096 163.088 139.096C162.747 139.096 162.485 138.973 162.304 138.728L156.464 131.128V138.056C156.464 138.365 156.379 138.616 156.208 138.808C156.037 139 155.803 139.096 155.504 139.096C155.205 139.096 154.971 139 154.8 138.808C154.629 138.616 154.544 138.365 154.544 138.056V128.664C154.544 128.355 154.635 128.109 154.816 127.928C154.997 127.736 155.237 127.64 155.536 127.64C155.867 127.64 156.123 127.763 156.304 128.008L162.128 135.576V128.664C162.128 128.355 162.213 128.109 162.384 127.928C162.565 127.736 162.8 127.64 163.088 127.64Z" fill="#F1C12B"/>
<g filter="url(#filter0_d)">
<path d="M108.07 115.88L108.079 115.875L108.088 115.869L147.935 92.1825C148.715 91.7355 149.6 91.5 150.5 91.5C151.4 91.5 152.285 91.7355 153.065 92.1825L192.912 115.869L192.921 115.875L192.93 115.88C193.712 116.33 194.361 116.977 194.812 117.756C195.263 118.534 195.5 119.417 195.5 120.316V165.661C195.5 166.559 195.263 167.442 194.812 168.221C194.361 169 193.712 169.647 192.93 170.097L192.921 170.102L192.912 170.107L153.065 193.794C152.285 194.241 151.4 194.477 150.5 194.477C149.6 194.477 148.715 194.241 147.935 193.794L108.088 170.107L108.079 170.102L108.07 170.097C107.288 169.647 106.639 169 106.188 168.221C105.737 167.442 105.5 166.559 105.5 165.661V120.316C105.5 120.316 105.5 120.316 105.5 120.316C105.5 119.417 105.737 118.534 106.188 117.756C106.639 116.977 107.288 116.33 108.07 115.88Z" stroke="#F1C12B" stroke-width="3"/>
</g>
<path d="M165.07 25.8799L165.079 25.8746L165.088 25.8693L204.935 2.18248C205.715 1.73546 206.6 1.5 207.5 1.5C208.4 1.5 209.285 1.73547 210.065 2.1825L249.912 25.8693L249.921 25.8746L249.93 25.8799C250.712 26.33 251.361 26.9772 251.812 27.7559C252.263 28.5345 252.5 29.4174 252.5 30.3159V75.6608C252.5 76.5593 252.263 77.4422 251.812 78.2209C251.361 78.9995 250.712 79.6467 249.93 80.0968L249.921 80.1021L249.912 80.1074L210.065 103.794C209.285 104.241 208.4 104.477 207.5 104.477C206.6 104.477 205.715 104.241 204.935 103.794L165.088 80.1074L165.079 80.1021L165.07 80.0968C164.288 79.6467 163.639 78.9995 163.188 78.2209C162.737 77.4422 162.5 76.5593 162.5 75.6608V30.3159C162.5 30.3159 162.5 30.3159 162.5 30.3159C162.5 29.4174 162.737 28.5345 163.188 27.7559C163.639 26.9772 164.288 26.33 165.07 25.8799Z" stroke="#212151" stroke-width="3"/>
<path d="M4.06979 115.88L4.07888 115.875L4.08789 115.869L43.9355 92.1825C44.7154 91.7355 45.5997 91.5 46.5 91.5C47.4003 91.5 48.2846 91.7355 49.0646 92.1825L88.9121 115.869L88.9211 115.875L88.9302 115.88C89.7122 116.33 90.361 116.977 90.8119 117.756C91.2628 118.534 91.5 119.417 91.5 120.316V165.661C91.5 166.559 91.2628 167.442 90.8119 168.221C90.361 169 89.7122 169.647 88.9302 170.097L88.9211 170.102L88.9121 170.107L49.0647 193.794C48.2847 194.241 47.4004 194.477 46.5 194.477C45.5996 194.477 44.7153 194.241 43.9353 193.794L4.08789 170.107L4.07888 170.102L4.0698 170.097C3.28781 169.647 2.63898 169 2.1881 168.221C1.73723 167.442 1.50002 166.559 1.5 165.661V120.316C1.5 120.316 1.5 120.316 1.5 120.316C1.50003 119.417 1.73723 118.534 2.1881 117.756C2.63899 116.977 3.28781 116.33 4.06979 115.88Z" stroke="#212151" stroke-width="3"/>
<defs>
<filter id="filter0_d" x="64" y="50" width="173" height="185.977" filterUnits="userSpaceOnUse" color-interpolation-filters="sRGB">
<feFlood flood-opacity="0" result="BackgroundImageFix"/>
<feColorMatrix in="SourceAlpha" type="matrix" values="0 0 0 0 0 0 0 0 0 0 0 0 0 0 0 0 0 0 127 0"/>
<feOffset/>
<feGaussianBlur stdDeviation="20"/>
<feColorMatrix type="matrix" values="0 0 0 0 0.945098 0 0 0 0 0.756863 0 0 0 0 0.168627 0 0 0 1 0"/>
<feBlend mode="normal" in2="BackgroundImageFix" result="effect1_dropShadow"/>
<feBlend mode="normal" in="SourceGraphic" in2="effect1_dropShadow" result="shape"/>
</filter>
</defs>
</svg>
