<svg width="379" height="221" viewBox="0 0 379 221" fill="none" xmlns="http://www.w3.org/2000/svg">
<path d="M23.4293 178.528C23.6 178.731 23.6853 178.933 23.6853 179.136C23.6853 179.392 23.584 179.616 23.3813 179.808C23.1893 180 22.9653 180.096 22.7093 180.096C22.4426 180.096 22.208 179.979 22.0053 179.744L18.7573 175.712L15.4933 179.744C15.3013 179.968 15.072 180.08 14.8053 180.08C14.5493 180.08 14.32 179.989 14.1173 179.808C13.9253 179.616 13.8293 179.392 13.8293 179.136C13.8293 178.923 13.9093 178.72 14.0693 178.528L17.5573 174.272L14.2133 170.192C14.0533 170.021 13.9733 169.819 13.9733 169.584C13.9733 169.328 14.0693 169.109 14.2613 168.928C14.4533 168.736 14.6773 168.64 14.9333 168.64C15.2 168.64 15.4346 168.757 15.6373 168.992L18.7573 172.848L21.8773 168.992C22.0693 168.757 22.2986 168.64 22.5653 168.64C22.8213 168.64 23.0453 168.736 23.2373 168.928C23.44 169.109 23.5413 169.328 23.5413 169.584C23.5413 169.819 23.4613 170.021 23.3013 170.192L19.9573 174.272L23.4293 178.528ZM29.9201 180.144C28.8321 180.144 27.8774 179.909 27.0561 179.44C26.2454 178.971 25.6214 178.299 25.1841 177.424C24.7467 176.549 24.5281 175.525 24.5281 174.352C24.5281 173.179 24.7467 172.16 25.1841 171.296C25.6214 170.421 26.2454 169.749 27.0561 169.28C27.8774 168.811 28.8321 168.576 29.9201 168.576C30.6241 168.576 31.2854 168.683 31.9041 168.896C32.5227 169.099 33.0721 169.397 33.5521 169.792C33.6907 169.899 33.7867 170.011 33.8401 170.128C33.8934 170.245 33.9201 170.389 33.9201 170.56C33.9201 170.795 33.8561 170.992 33.7281 171.152C33.6001 171.312 33.4454 171.392 33.2641 171.392C33.0507 171.392 32.8321 171.317 32.6081 171.168C32.1494 170.827 31.7227 170.592 31.3281 170.464C30.9334 170.325 30.4961 170.256 30.0161 170.256C28.9067 170.256 28.0641 170.603 27.4881 171.296C26.9227 171.989 26.6401 173.008 26.6401 174.352C26.6401 175.707 26.9227 176.731 27.4881 177.424C28.0641 178.117 28.9067 178.464 30.0161 178.464C30.4747 178.464 30.8961 178.395 31.2801 178.256C31.6747 178.117 32.1174 177.883 32.6081 177.552C32.7147 177.488 32.8214 177.435 32.9281 177.392C33.0347 177.349 33.1467 177.328 33.2641 177.328C33.4454 177.328 33.6001 177.408 33.7281 177.568C33.8561 177.728 33.9201 177.925 33.9201 178.16C33.9201 178.32 33.8934 178.464 33.8401 178.592C33.7867 178.709 33.6907 178.821 33.5521 178.928C33.0721 179.323 32.5227 179.627 31.9041 179.84C31.2854 180.043 30.6241 180.144 29.9201 180.144ZM36.7158 180C36.4065 180 36.1611 179.915 35.9798 179.744C35.8091 179.573 35.7238 179.333 35.7238 179.024V169.696C35.7238 169.387 35.8091 169.147 35.9798 168.976C36.1611 168.805 36.4065 168.72 36.7158 168.72H42.4918C42.8011 168.72 43.0411 168.789 43.2118 168.928C43.3825 169.067 43.4678 169.264 43.4678 169.52C43.4678 169.787 43.3825 169.995 43.2118 170.144C43.0411 170.283 42.8011 170.352 42.4918 170.352H37.7398V173.456H42.1718C42.4811 173.456 42.7211 173.525 42.8918 173.664C43.0625 173.803 43.1478 174.005 43.1478 174.272C43.1478 174.528 43.0625 174.725 42.8918 174.864C42.7211 175.003 42.4811 175.072 42.1718 175.072H37.7398V178.368H42.4918C42.8011 178.368 43.0411 178.443 43.2118 178.592C43.3825 178.731 43.4678 178.933 43.4678 179.2C43.4678 179.456 43.3825 179.653 43.2118 179.792C43.0411 179.931 42.8011 180 42.4918 180H36.7158ZM46.1217 180C45.8124 180 45.5724 179.915 45.4017 179.744C45.231 179.573 45.1457 179.339 45.1457 179.04V169.664C45.1457 169.355 45.2364 169.109 45.4177 168.928C45.6097 168.736 45.8604 168.64 46.1697 168.64C46.4897 168.64 46.7404 168.736 46.9217 168.928C47.1137 169.109 47.2097 169.355 47.2097 169.664V178.304H51.7057C52.3457 178.304 52.6657 178.587 52.6657 179.152C52.6657 179.717 52.3457 180 51.7057 180H46.1217ZM55.0127 180C54.7034 180 54.458 179.915 54.2767 179.744C54.106 179.573 54.0207 179.333 54.0207 179.024V169.696C54.0207 169.387 54.106 169.147 54.2767 168.976C54.458 168.805 54.7034 168.72 55.0127 168.72H58.1807C60.026 168.72 61.4554 169.216 62.4687 170.208C63.4927 171.189 64.0047 172.571 64.0047 174.352C64.0047 176.144 63.4927 177.536 62.4687 178.528C61.4554 179.509 60.026 180 58.1807 180H55.0127ZM58.0527 178.32C60.6447 178.32 61.9407 176.997 61.9407 174.352C61.9407 171.717 60.6447 170.4 58.0527 170.4H56.0847V178.32H58.0527ZM67.0752 180C66.7659 180 66.5205 179.915 66.3392 179.744C66.1685 179.573 66.0832 179.333 66.0832 179.024V169.696C66.0832 169.387 66.1685 169.147 66.3392 168.976C66.5205 168.805 66.7659 168.72 67.0752 168.72H72.8512C73.1605 168.72 73.4005 168.789 73.5712 168.928C73.7419 169.067 73.8272 169.264 73.8272 169.52C73.8272 169.787 73.7419 169.995 73.5712 170.144C73.4005 170.283 73.1605 170.352 72.8512 170.352H68.0992V173.456H72.5312C72.8405 173.456 73.0805 173.525 73.2512 173.664C73.4219 173.803 73.5072 174.005 73.5072 174.272C73.5072 174.528 73.4219 174.725 73.2512 174.864C73.0805 175.003 72.8405 175.072 72.5312 175.072H68.0992V178.368H72.8512C73.1605 178.368 73.4005 178.443 73.5712 178.592C73.7419 178.731 73.8272 178.933 73.8272 179.2C73.8272 179.456 73.7419 179.653 73.5712 179.792C73.4005 179.931 73.1605 180 72.8512 180H67.0752ZM76.5291 180.096C76.2197 180.096 75.9691 180 75.7771 179.808C75.5957 179.616 75.5051 179.365 75.5051 179.056V169.696C75.5051 169.387 75.5904 169.147 75.7611 168.976C75.9424 168.805 76.1877 168.72 76.4971 168.72H82.1131C82.7637 168.72 83.0891 168.997 83.0891 169.552C83.0891 170.096 82.7637 170.368 82.1131 170.368H77.5371V173.44H81.7931C82.4437 173.44 82.7691 173.717 82.7691 174.272C82.7691 174.816 82.4437 175.088 81.7931 175.088H77.5371V179.056C77.5371 179.365 77.4464 179.616 77.2651 179.808C77.0837 180 76.8384 180.096 76.5291 180.096ZM85.5916 180.096C85.2822 180.096 85.0316 180 84.8396 179.808C84.6582 179.616 84.5676 179.365 84.5676 179.056V169.664C84.5676 169.355 84.6582 169.109 84.8396 168.928C85.0316 168.736 85.2822 168.64 85.5916 168.64C85.9116 168.64 86.1622 168.736 86.3436 168.928C86.5356 169.109 86.6316 169.355 86.6316 169.664V179.056C86.6316 179.365 86.5356 179.616 86.3436 179.808C86.1622 180 85.9116 180.096 85.5916 180.096ZM94.3873 180C94.078 180 93.838 179.915 93.6673 179.744C93.4966 179.573 93.4113 179.339 93.4113 179.04V169.664C93.4113 169.355 93.502 169.109 93.6833 168.928C93.8753 168.736 94.126 168.64 94.4353 168.64C94.7553 168.64 95.006 168.736 95.1873 168.928C95.3793 169.109 95.4753 169.355 95.4753 169.664V178.304H99.9713C100.611 178.304 100.931 178.587 100.931 179.152C100.931 179.717 100.611 180 99.9713 180H94.3873ZM112.417 178.768C112.481 178.907 112.513 179.045 112.513 179.184C112.513 179.429 112.411 179.637 112.209 179.808C112.017 179.979 111.793 180.064 111.537 180.064C111.366 180.064 111.206 180.021 111.057 179.936C110.907 179.84 110.79 179.696 110.705 179.504L109.745 177.36H104.113L103.153 179.504C103.067 179.696 102.95 179.84 102.801 179.936C102.651 180.021 102.486 180.064 102.305 180.064C102.059 180.064 101.835 179.979 101.633 179.808C101.43 179.637 101.329 179.429 101.329 179.184C101.329 179.045 101.361 178.907 101.425 178.768L105.841 169.28C105.937 169.067 106.081 168.907 106.273 168.8C106.475 168.683 106.689 168.624 106.913 168.624C107.137 168.624 107.345 168.683 107.537 168.8C107.739 168.907 107.889 169.067 107.985 169.28L112.417 178.768ZM104.817 175.76H109.041L106.929 171.008L104.817 175.76ZM118.645 180.144C117.099 180.144 115.925 179.744 115.125 178.944C114.325 178.144 113.925 176.976 113.925 175.44V169.664C113.925 169.355 114.016 169.109 114.197 168.928C114.379 168.736 114.624 168.64 114.933 168.64C115.243 168.64 115.488 168.736 115.669 168.928C115.851 169.109 115.941 169.355 115.941 169.664V175.552C115.941 176.523 116.171 177.259 116.629 177.76C117.088 178.251 117.76 178.496 118.645 178.496C119.52 178.496 120.187 178.245 120.645 177.744C121.104 177.243 121.333 176.512 121.333 175.552V169.664C121.333 169.355 121.424 169.109 121.605 168.928C121.787 168.736 122.032 168.64 122.341 168.64C122.651 168.64 122.896 168.736 123.077 168.928C123.259 169.109 123.349 169.355 123.349 169.664V175.44C123.349 176.965 122.949 178.133 122.149 178.944C121.349 179.744 120.181 180.144 118.645 180.144ZM134.268 168.64C134.566 168.64 134.801 168.736 134.972 168.928C135.153 169.109 135.244 169.355 135.244 169.664V179.056C135.244 179.365 135.153 179.616 134.972 179.808C134.79 180 134.556 180.096 134.268 180.096C133.926 180.096 133.665 179.973 133.484 179.728L127.644 172.128V179.056C127.644 179.365 127.558 179.616 127.388 179.808C127.217 180 126.982 180.096 126.684 180.096C126.385 180.096 126.15 180 125.98 179.808C125.809 179.616 125.724 179.365 125.724 179.056V169.664C125.724 169.355 125.814 169.109 125.996 168.928C126.177 168.736 126.417 168.64 126.716 168.64C127.046 168.64 127.302 168.763 127.484 169.008L133.308 176.576V169.664C133.308 169.355 133.393 169.109 133.564 168.928C133.745 168.736 133.98 168.64 134.268 168.64ZM142.717 180.144C141.629 180.144 140.674 179.909 139.853 179.44C139.042 178.971 138.418 178.299 137.981 177.424C137.544 176.549 137.325 175.525 137.325 174.352C137.325 173.179 137.544 172.16 137.981 171.296C138.418 170.421 139.042 169.749 139.853 169.28C140.674 168.811 141.629 168.576 142.717 168.576C143.421 168.576 144.082 168.683 144.701 168.896C145.32 169.099 145.869 169.397 146.349 169.792C146.488 169.899 146.584 170.011 146.637 170.128C146.69 170.245 146.717 170.389 146.717 170.56C146.717 170.795 146.653 170.992 146.525 171.152C146.397 171.312 146.242 171.392 146.061 171.392C145.848 171.392 145.629 171.317 145.405 171.168C144.946 170.827 144.52 170.592 144.125 170.464C143.73 170.325 143.293 170.256 142.813 170.256C141.704 170.256 140.861 170.603 140.285 171.296C139.72 171.989 139.437 173.008 139.437 174.352C139.437 175.707 139.72 176.731 140.285 177.424C140.861 178.117 141.704 178.464 142.813 178.464C143.272 178.464 143.693 178.395 144.077 178.256C144.472 178.117 144.914 177.883 145.405 177.552C145.512 177.488 145.618 177.435 145.725 177.392C145.832 177.349 145.944 177.328 146.061 177.328C146.242 177.328 146.397 177.408 146.525 177.568C146.653 177.728 146.717 177.925 146.717 178.16C146.717 178.32 146.69 178.464 146.637 178.592C146.584 178.709 146.488 178.821 146.349 178.928C145.869 179.323 145.32 179.627 144.701 179.84C144.082 180.043 143.421 180.144 142.717 180.144ZM157.337 168.64C157.646 168.64 157.891 168.736 158.073 168.928C158.254 169.109 158.345 169.355 158.345 169.664V179.056C158.345 179.365 158.249 179.616 158.057 179.808C157.875 180 157.635 180.096 157.337 180.096C157.027 180.096 156.782 180 156.601 179.808C156.419 179.616 156.329 179.365 156.329 179.056V175.104H150.553V179.056C150.553 179.365 150.457 179.616 150.265 179.808C150.083 180 149.838 180.096 149.529 180.096C149.23 180.096 148.985 180 148.793 179.808C148.611 179.616 148.521 179.365 148.521 179.056V169.664C148.521 169.355 148.611 169.109 148.793 168.928C148.974 168.736 149.219 168.64 149.529 168.64C149.838 168.64 150.083 168.736 150.265 168.928C150.457 169.109 150.553 169.355 150.553 169.664V173.44H156.329V169.664C156.329 169.355 156.419 169.109 156.601 168.928C156.782 168.736 157.027 168.64 157.337 168.64ZM50.7322 200.144C49.6335 200.144 48.6789 199.909 47.8682 199.44C47.0682 198.971 46.4495 198.299 46.0122 197.424C45.5749 196.549 45.3562 195.525 45.3562 194.352C45.3562 193.179 45.5695 192.16 45.9962 191.296C46.4335 190.421 47.0575 189.749 47.8682 189.28C48.6789 188.811 49.6335 188.576 50.7322 188.576C51.8309 188.576 52.7802 188.811 53.5802 189.28C54.3909 189.749 55.0095 190.421 55.4362 191.296C55.8735 192.16 56.0922 193.179 56.0922 194.352C56.0922 195.525 55.8735 196.549 55.4362 197.424C54.9989 198.299 54.3749 198.971 53.5642 199.44C52.7642 199.909 51.8202 200.144 50.7322 200.144ZM50.7322 198.496C51.7669 198.496 52.5722 198.139 53.1482 197.424C53.7349 196.709 54.0282 195.685 54.0282 194.352C54.0282 193.019 53.7349 192 53.1482 191.296C52.5722 190.581 51.7669 190.224 50.7322 190.224C49.6869 190.224 48.8709 190.581 48.2842 191.296C47.7082 192 47.4202 193.019 47.4202 194.352C47.4202 195.685 47.7082 196.709 48.2842 197.424C48.8709 198.139 49.6869 198.496 50.7322 198.496ZM66.7209 188.64C67.0196 188.64 67.2543 188.736 67.4249 188.928C67.6063 189.109 67.6969 189.355 67.6969 189.664V199.056C67.6969 199.365 67.6063 199.616 67.4249 199.808C67.2436 200 67.0089 200.096 66.7209 200.096C66.3796 200.096 66.1183 199.973 65.9369 199.728L60.0969 192.128V199.056C60.0969 199.365 60.0116 199.616 59.8409 199.808C59.6703 200 59.4356 200.096 59.1369 200.096C58.8383 200.096 58.6036 200 58.4329 199.808C58.2623 199.616 58.1769 199.365 58.1769 199.056V189.664C58.1769 189.355 58.2676 189.109 58.4489 188.928C58.6303 188.736 58.8703 188.64 59.1689 188.64C59.4996 188.64 59.7556 188.763 59.9369 189.008L65.7609 196.576V189.664C65.7609 189.355 65.8463 189.109 66.0169 188.928C66.1983 188.736 66.4329 188.64 66.7209 188.64ZM81.2738 198.336C81.9138 198.336 82.2338 198.608 82.2338 199.152C82.2338 199.717 81.9138 200 81.2738 200H75.8658C75.2151 200 74.8898 199.717 74.8898 199.152C74.8898 198.608 75.2151 198.336 75.8658 198.336H77.5298V191.04L75.9938 191.984C75.8445 192.069 75.7111 192.112 75.5938 192.112C75.3698 192.112 75.1778 192.016 75.0178 191.824C74.8685 191.632 74.7938 191.419 74.7938 191.184C74.7938 190.875 74.9325 190.635 75.2098 190.464L77.6898 188.928C78.0098 188.736 78.3138 188.64 78.6018 188.64C78.9005 188.64 79.1405 188.731 79.3218 188.912C79.5031 189.093 79.5938 189.344 79.5938 189.664V198.336H81.2738ZM87.9716 200.144C87.1502 200.144 86.3716 200.037 85.6356 199.824C84.9102 199.6 84.3182 199.301 83.8596 198.928C83.6142 198.747 83.4916 198.491 83.4916 198.16C83.4916 197.936 83.5556 197.744 83.6836 197.584C83.8222 197.413 83.9822 197.328 84.1636 197.328C84.3556 197.328 84.5742 197.403 84.8196 197.552C85.2782 197.883 85.7582 198.123 86.2596 198.272C86.7609 198.421 87.3156 198.496 87.9236 198.496C88.7022 198.496 89.2996 198.363 89.7156 198.096C90.1316 197.819 90.3396 197.419 90.3396 196.896C90.3396 196.491 90.1422 196.181 89.7476 195.968C89.3636 195.744 88.7182 195.531 87.8116 195.328C86.8729 195.125 86.1102 194.891 85.5236 194.624C84.9369 194.357 84.4942 194.016 84.1956 193.6C83.8969 193.184 83.7476 192.656 83.7476 192.016C83.7476 191.355 83.9342 190.763 84.3076 190.24C84.6809 189.717 85.1982 189.312 85.8596 189.024C86.5316 188.725 87.2836 188.576 88.1156 188.576C89.6409 188.576 90.8836 188.981 91.8436 189.792C91.9822 189.909 92.0782 190.027 92.1316 190.144C92.1956 190.251 92.2276 190.389 92.2276 190.56C92.2276 190.784 92.1582 190.981 92.0196 191.152C91.8916 191.312 91.7369 191.392 91.5556 191.392C91.4489 191.392 91.3476 191.376 91.2516 191.344C91.1662 191.312 91.0489 191.253 90.8996 191.168C90.4622 190.848 90.0356 190.613 89.6196 190.464C89.2142 190.304 88.7129 190.224 88.1156 190.224C87.3902 190.224 86.8142 190.373 86.3876 190.672C85.9716 190.96 85.7636 191.365 85.7636 191.888C85.7636 192.325 85.9502 192.661 86.3236 192.896C86.6969 193.131 87.3316 193.349 88.2276 193.552C89.1769 193.765 89.9449 194.005 90.5316 194.272C91.1289 194.528 91.5822 194.859 91.8916 195.264C92.2116 195.669 92.3716 196.176 92.3716 196.784C92.3716 197.445 92.1849 198.032 91.8116 198.544C91.4489 199.045 90.9316 199.44 90.2596 199.728C89.5982 200.005 88.8356 200.144 87.9716 200.144ZM97.7323 200.08C97.4123 200.08 97.1563 199.989 96.9643 199.808C96.783 199.616 96.6923 199.365 96.6923 199.056V190.416H93.7803C93.1403 190.416 92.8203 190.133 92.8203 189.568C92.8203 189.003 93.1403 188.72 93.7803 188.72H101.668C102.308 188.72 102.628 189.003 102.628 189.568C102.628 190.133 102.308 190.416 101.668 190.416H98.7563V199.056C98.7563 199.365 98.6603 199.616 98.4683 199.808C98.287 199.989 98.0416 200.08 97.7323 200.08ZM113.217 200.144C112.118 200.144 111.163 199.909 110.353 199.44C109.553 198.971 108.934 198.299 108.497 197.424C108.059 196.549 107.841 195.525 107.841 194.352C107.841 193.179 108.054 192.16 108.481 191.296C108.918 190.421 109.542 189.749 110.353 189.28C111.163 188.811 112.118 188.576 113.217 188.576C114.315 188.576 115.265 188.811 116.065 189.28C116.875 189.749 117.494 190.421 117.921 191.296C118.358 192.16 118.577 193.179 118.577 194.352C118.577 195.525 118.358 196.549 117.921 197.424C117.483 198.299 116.859 198.971 116.049 199.44C115.249 199.909 114.305 200.144 113.217 200.144ZM113.217 198.496C114.251 198.496 115.057 198.139 115.633 197.424C116.219 196.709 116.513 195.685 116.513 194.352C116.513 193.019 116.219 192 115.633 191.296C115.057 190.581 114.251 190.224 113.217 190.224C112.171 190.224 111.355 190.581 110.769 191.296C110.193 192 109.905 193.019 109.905 194.352C109.905 195.685 110.193 196.709 110.769 197.424C111.355 198.139 112.171 198.496 113.217 198.496ZM121.685 200.096C121.376 200.096 121.125 200 120.933 199.808C120.752 199.616 120.661 199.365 120.661 199.056V189.696C120.661 189.387 120.747 189.147 120.917 188.976C121.099 188.805 121.344 188.72 121.653 188.72H127.269C127.92 188.72 128.245 188.997 128.245 189.552C128.245 190.096 127.92 190.368 127.269 190.368H122.693V193.44H126.949C127.6 193.44 127.925 193.717 127.925 194.272C127.925 194.816 127.6 195.088 126.949 195.088H122.693V199.056C122.693 199.365 122.603 199.616 122.421 199.808C122.24 200 121.995 200.096 121.685 200.096ZM43.1744 218.768C43.2384 218.907 43.2704 219.045 43.2704 219.184C43.2704 219.429 43.169 219.637 42.9664 219.808C42.7744 219.979 42.5504 220.064 42.2944 220.064C42.1237 220.064 41.9637 220.021 41.8144 219.936C41.665 219.84 41.5477 219.696 41.4624 219.504L40.5024 217.36H34.8704L33.9104 219.504C33.825 219.696 33.7077 219.84 33.5584 219.936C33.409 220.021 33.2437 220.064 33.0624 220.064C32.817 220.064 32.593 219.979 32.3904 219.808C32.1877 219.637 32.0864 219.429 32.0864 219.184C32.0864 219.045 32.1184 218.907 32.1824 218.768L36.5984 209.28C36.6944 209.067 36.8384 208.907 37.0304 208.8C37.233 208.683 37.4464 208.624 37.6704 208.624C37.8944 208.624 38.1024 208.683 38.2944 208.8C38.497 208.907 38.6464 209.067 38.7424 209.28L43.1744 218.768ZM35.5744 215.76H39.7984L37.6864 211.008L35.5744 215.76ZM49.4033 220.144C47.8566 220.144 46.6833 219.744 45.8832 218.944C45.0833 218.144 44.6833 216.976 44.6833 215.44V209.664C44.6833 209.355 44.7739 209.109 44.9553 208.928C45.1366 208.736 45.3819 208.64 45.6913 208.64C46.0006 208.64 46.2459 208.736 46.4273 208.928C46.6086 209.109 46.6993 209.355 46.6993 209.664V215.552C46.6993 216.523 46.9286 217.259 47.3873 217.76C47.8459 218.251 48.5179 218.496 49.4033 218.496C50.2779 218.496 50.9446 218.245 51.4033 217.744C51.8619 217.243 52.0913 216.512 52.0913 215.552V209.664C52.0913 209.355 52.1819 209.109 52.3633 208.928C52.5446 208.736 52.7899 208.64 53.0993 208.64C53.4086 208.64 53.6539 208.736 53.8353 208.928C54.0166 209.109 54.1073 209.355 54.1073 209.664V215.44C54.1073 216.965 53.7073 218.133 52.9073 218.944C52.1073 219.744 50.9393 220.144 49.4033 220.144ZM65.0736 213.904C65.319 213.904 65.5163 213.979 65.6656 214.128C65.815 214.267 65.8896 214.453 65.8896 214.688V218.128C65.8896 218.619 65.8256 218.965 65.6976 219.168C65.5696 219.371 65.3083 219.536 64.9136 219.664C64.487 219.813 63.991 219.931 63.4256 220.016C62.8603 220.101 62.3163 220.144 61.7936 220.144C60.631 220.144 59.623 219.915 58.7696 219.456C57.9163 218.997 57.2603 218.336 56.8016 217.472C56.3536 216.597 56.1296 215.557 56.1296 214.352C56.1296 213.168 56.3536 212.144 56.8016 211.28C57.2603 210.405 57.9056 209.739 58.7376 209.28C59.5696 208.811 60.551 208.576 61.6816 208.576C63.1856 208.576 64.4176 208.981 65.3776 209.792C65.5056 209.909 65.5963 210.027 65.6496 210.144C65.7136 210.261 65.7456 210.4 65.7456 210.56C65.7456 210.795 65.6816 210.992 65.5536 211.152C65.4256 211.312 65.271 211.392 65.0896 211.392C64.9723 211.392 64.8656 211.376 64.7696 211.344C64.6736 211.301 64.5616 211.237 64.4336 211.152C63.9643 210.821 63.527 210.592 63.1216 210.464C62.7163 210.325 62.2576 210.256 61.7456 210.256C60.583 210.256 59.703 210.603 59.1056 211.296C58.519 211.979 58.2256 212.997 58.2256 214.352C58.2256 217.125 59.4416 218.512 61.8736 218.512C62.599 218.512 63.3243 218.411 64.0496 218.208V215.376H62.2416C61.9856 215.376 61.783 215.312 61.6336 215.184C61.495 215.056 61.4256 214.875 61.4256 214.64C61.4256 214.405 61.495 214.224 61.6336 214.096C61.783 213.968 61.9856 213.904 62.2416 213.904H65.0736ZM72.872 220.144C71.3253 220.144 70.152 219.744 69.352 218.944C68.552 218.144 68.152 216.976 68.152 215.44V209.664C68.152 209.355 68.2427 209.109 68.424 208.928C68.6053 208.736 68.8507 208.64 69.16 208.64C69.4693 208.64 69.7147 208.736 69.896 208.928C70.0773 209.109 70.168 209.355 70.168 209.664V215.552C70.168 216.523 70.3973 217.259 70.856 217.76C71.3147 218.251 71.9867 218.496 72.872 218.496C73.7467 218.496 74.4133 218.245 74.872 217.744C75.3307 217.243 75.56 216.512 75.56 215.552V209.664C75.56 209.355 75.6507 209.109 75.832 208.928C76.0133 208.736 76.2587 208.64 76.568 208.64C76.8773 208.64 77.1227 208.736 77.304 208.928C77.4853 209.109 77.576 209.355 77.576 209.664V215.44C77.576 216.965 77.176 218.133 76.376 218.944C75.576 219.744 74.408 220.144 72.872 220.144ZM83.8544 220.144C83.033 220.144 82.2544 220.037 81.5184 219.824C80.793 219.6 80.201 219.301 79.7424 218.928C79.497 218.747 79.3744 218.491 79.3744 218.16C79.3744 217.936 79.4384 217.744 79.5664 217.584C79.705 217.413 79.865 217.328 80.0464 217.328C80.2384 217.328 80.457 217.403 80.7024 217.552C81.161 217.883 81.641 218.123 82.1424 218.272C82.6437 218.421 83.1984 218.496 83.8064 218.496C84.585 218.496 85.1824 218.363 85.5984 218.096C86.0144 217.819 86.2224 217.419 86.2224 216.896C86.2224 216.491 86.025 216.181 85.6304 215.968C85.2464 215.744 84.601 215.531 83.6944 215.328C82.7557 215.125 81.993 214.891 81.4064 214.624C80.8197 214.357 80.377 214.016 80.0784 213.6C79.7797 213.184 79.6304 212.656 79.6304 212.016C79.6304 211.355 79.817 210.763 80.1904 210.24C80.5637 209.717 81.081 209.312 81.7424 209.024C82.4144 208.725 83.1664 208.576 83.9984 208.576C85.5237 208.576 86.7664 208.981 87.7264 209.792C87.865 209.909 87.961 210.027 88.0144 210.144C88.0784 210.251 88.1104 210.389 88.1104 210.56C88.1104 210.784 88.041 210.981 87.9024 211.152C87.7744 211.312 87.6197 211.392 87.4384 211.392C87.3317 211.392 87.2304 211.376 87.1344 211.344C87.049 211.312 86.9317 211.253 86.7824 211.168C86.345 210.848 85.9184 210.613 85.5024 210.464C85.097 210.304 84.5957 210.224 83.9984 210.224C83.273 210.224 82.697 210.373 82.2704 210.672C81.8544 210.96 81.6464 211.365 81.6464 211.888C81.6464 212.325 81.833 212.661 82.2064 212.896C82.5797 213.131 83.2144 213.349 84.1104 213.552C85.0597 213.765 85.8277 214.005 86.4144 214.272C87.0117 214.528 87.465 214.859 87.7744 215.264C88.0944 215.669 88.2544 216.176 88.2544 216.784C88.2544 217.445 88.0677 218.032 87.6944 218.544C87.3317 219.045 86.8144 219.44 86.1424 219.728C85.481 220.005 84.7184 220.144 83.8544 220.144ZM93.6151 220.08C93.2951 220.08 93.0391 219.989 92.8471 219.808C92.6658 219.616 92.5751 219.365 92.5751 219.056V210.416H89.6631C89.0231 210.416 88.7031 210.133 88.7031 209.568C88.7031 209.003 89.0231 208.72 89.6631 208.72H97.5511C98.1911 208.72 98.5111 209.003 98.5111 209.568C98.5111 210.133 98.1911 210.416 97.5511 210.416H94.6391V219.056C94.6391 219.365 94.5431 219.616 94.3511 219.808C94.1698 219.989 93.9245 220.08 93.6151 220.08ZM110.827 218.336C111.467 218.336 111.787 218.608 111.787 219.152C111.787 219.717 111.467 220 110.827 220H104.747C104.47 220 104.251 219.92 104.091 219.76C103.931 219.589 103.851 219.381 103.851 219.136C103.851 218.816 103.974 218.528 104.219 218.272L107.867 214.352C108.315 213.861 108.641 213.413 108.843 213.008C109.057 212.592 109.163 212.181 109.163 211.776C109.163 211.275 109.019 210.891 108.731 210.624C108.443 210.357 108.033 210.224 107.499 210.224C107.062 210.224 106.635 210.309 106.219 210.48C105.814 210.64 105.403 210.864 104.987 211.152C104.881 211.227 104.774 211.291 104.667 211.344C104.561 211.387 104.454 211.408 104.347 211.408C104.166 211.408 104.006 211.323 103.867 211.152C103.739 210.981 103.675 210.779 103.675 210.544C103.675 210.384 103.702 210.245 103.755 210.128C103.819 210.011 103.915 209.899 104.043 209.792C104.513 209.419 105.062 209.125 105.691 208.912C106.321 208.688 106.95 208.576 107.579 208.576C108.678 208.576 109.553 208.853 110.203 209.408C110.865 209.963 111.195 210.709 111.195 211.648C111.195 212.299 111.057 212.912 110.779 213.488C110.502 214.053 110.033 214.688 109.371 215.392L106.603 218.336H110.827ZM117.269 220.144C115.935 220.144 114.917 219.653 114.213 218.672C113.509 217.68 113.157 216.24 113.157 214.352C113.157 212.475 113.509 211.045 114.213 210.064C114.917 209.072 115.935 208.576 117.269 208.576C118.602 208.576 119.621 209.072 120.325 210.064C121.029 211.045 121.381 212.475 121.381 214.352C121.381 216.229 121.029 217.664 120.325 218.656C119.621 219.648 118.602 220.144 117.269 220.144ZM117.269 218.528C117.994 218.528 118.522 218.197 118.853 217.536C119.183 216.864 119.349 215.803 119.349 214.352C119.349 212.891 119.183 211.835 118.853 211.184C118.522 210.523 117.994 210.192 117.269 210.192C116.543 210.192 116.015 210.523 115.685 211.184C115.354 211.845 115.189 212.901 115.189 214.352C115.189 215.803 115.354 216.864 115.685 217.536C116.015 218.197 116.543 218.528 117.269 218.528ZM130.031 218.336C130.671 218.336 130.991 218.608 130.991 219.152C130.991 219.717 130.671 220 130.031 220H123.951C123.673 220 123.455 219.92 123.295 219.76C123.135 219.589 123.055 219.381 123.055 219.136C123.055 218.816 123.177 218.528 123.423 218.272L127.071 214.352C127.519 213.861 127.844 213.413 128.047 213.008C128.26 212.592 128.367 212.181 128.367 211.776C128.367 211.275 128.223 210.891 127.935 210.624C127.647 210.357 127.236 210.224 126.703 210.224C126.265 210.224 125.839 210.309 125.423 210.48C125.017 210.64 124.607 210.864 124.191 211.152C124.084 211.227 123.977 211.291 123.871 211.344C123.764 211.387 123.657 211.408 123.551 211.408C123.369 211.408 123.209 211.323 123.071 211.152C122.943 210.981 122.879 210.779 122.879 210.544C122.879 210.384 122.905 210.245 122.959 210.128C123.023 210.011 123.119 209.899 123.247 209.792C123.716 209.419 124.265 209.125 124.895 208.912C125.524 208.688 126.153 208.576 126.783 208.576C127.881 208.576 128.756 208.853 129.407 209.408C130.068 209.963 130.399 210.709 130.399 211.648C130.399 212.299 130.26 212.912 129.983 213.488C129.705 214.053 129.236 214.688 128.575 215.392L125.807 218.336H130.031ZM139.688 218.336C140.328 218.336 140.648 218.608 140.648 219.152C140.648 219.717 140.328 220 139.688 220H134.28C133.629 220 133.304 219.717 133.304 219.152C133.304 218.608 133.629 218.336 134.28 218.336H135.944V211.04L134.408 211.984C134.259 212.069 134.125 212.112 134.008 212.112C133.784 212.112 133.592 212.016 133.432 211.824C133.283 211.632 133.208 211.419 133.208 211.184C133.208 210.875 133.347 210.635 133.624 210.464L136.104 208.928C136.424 208.736 136.728 208.64 137.016 208.64C137.315 208.64 137.555 208.731 137.736 208.912C137.917 209.093 138.008 209.344 138.008 209.664V218.336H139.688Z" fill="white"/>
<path d="M229.429 178.528C229.6 178.731 229.685 178.933 229.685 179.136C229.685 179.392 229.584 179.616 229.381 179.808C229.189 180 228.965 180.096 228.709 180.096C228.443 180.096 228.208 179.979 228.005 179.744L224.757 175.712L221.493 179.744C221.301 179.968 221.072 180.08 220.805 180.08C220.549 180.08 220.32 179.989 220.117 179.808C219.925 179.616 219.829 179.392 219.829 179.136C219.829 178.923 219.909 178.72 220.069 178.528L223.557 174.272L220.213 170.192C220.053 170.021 219.973 169.819 219.973 169.584C219.973 169.328 220.069 169.109 220.261 168.928C220.453 168.736 220.677 168.64 220.933 168.64C221.2 168.64 221.435 168.757 221.637 168.992L224.757 172.848L227.877 168.992C228.069 168.757 228.299 168.64 228.565 168.64C228.821 168.64 229.045 168.736 229.237 168.928C229.44 169.109 229.541 169.328 229.541 169.584C229.541 169.819 229.461 170.021 229.301 170.192L225.957 174.272L229.429 178.528ZM235.92 180.144C234.832 180.144 233.877 179.909 233.056 179.44C232.245 178.971 231.621 178.299 231.184 177.424C230.747 176.549 230.528 175.525 230.528 174.352C230.528 173.179 230.747 172.16 231.184 171.296C231.621 170.421 232.245 169.749 233.056 169.28C233.877 168.811 234.832 168.576 235.92 168.576C236.624 168.576 237.285 168.683 237.904 168.896C238.523 169.099 239.072 169.397 239.552 169.792C239.691 169.899 239.787 170.011 239.84 170.128C239.893 170.245 239.92 170.389 239.92 170.56C239.92 170.795 239.856 170.992 239.728 171.152C239.6 171.312 239.445 171.392 239.264 171.392C239.051 171.392 238.832 171.317 238.608 171.168C238.149 170.827 237.723 170.592 237.328 170.464C236.933 170.325 236.496 170.256 236.016 170.256C234.907 170.256 234.064 170.603 233.488 171.296C232.923 171.989 232.64 173.008 232.64 174.352C232.64 175.707 232.923 176.731 233.488 177.424C234.064 178.117 234.907 178.464 236.016 178.464C236.475 178.464 236.896 178.395 237.28 178.256C237.675 178.117 238.117 177.883 238.608 177.552C238.715 177.488 238.821 177.435 238.928 177.392C239.035 177.349 239.147 177.328 239.264 177.328C239.445 177.328 239.6 177.408 239.728 177.568C239.856 177.728 239.92 177.925 239.92 178.16C239.92 178.32 239.893 178.464 239.84 178.592C239.787 178.709 239.691 178.821 239.552 178.928C239.072 179.323 238.523 179.627 237.904 179.84C237.285 180.043 236.624 180.144 235.92 180.144ZM242.716 180C242.406 180 242.161 179.915 241.98 179.744C241.809 179.573 241.724 179.333 241.724 179.024V169.696C241.724 169.387 241.809 169.147 241.98 168.976C242.161 168.805 242.406 168.72 242.716 168.72H248.492C248.801 168.72 249.041 168.789 249.212 168.928C249.382 169.067 249.468 169.264 249.468 169.52C249.468 169.787 249.382 169.995 249.212 170.144C249.041 170.283 248.801 170.352 248.492 170.352H243.74V173.456H248.172C248.481 173.456 248.721 173.525 248.892 173.664C249.062 173.803 249.148 174.005 249.148 174.272C249.148 174.528 249.062 174.725 248.892 174.864C248.721 175.003 248.481 175.072 248.172 175.072H243.74V178.368H248.492C248.801 178.368 249.041 178.443 249.212 178.592C249.382 178.731 249.468 178.933 249.468 179.2C249.468 179.456 249.382 179.653 249.212 179.792C249.041 179.931 248.801 180 248.492 180H242.716ZM252.122 180C251.812 180 251.572 179.915 251.402 179.744C251.231 179.573 251.146 179.339 251.146 179.04V169.664C251.146 169.355 251.236 169.109 251.418 168.928C251.61 168.736 251.86 168.64 252.17 168.64C252.49 168.64 252.74 168.736 252.922 168.928C253.114 169.109 253.21 169.355 253.21 169.664V178.304H257.706C258.346 178.304 258.666 178.587 258.666 179.152C258.666 179.717 258.346 180 257.706 180H252.122ZM261.013 180C260.703 180 260.458 179.915 260.277 179.744C260.106 179.573 260.021 179.333 260.021 179.024V169.696C260.021 169.387 260.106 169.147 260.277 168.976C260.458 168.805 260.703 168.72 261.013 168.72H264.181C266.026 168.72 267.455 169.216 268.469 170.208C269.493 171.189 270.005 172.571 270.005 174.352C270.005 176.144 269.493 177.536 268.469 178.528C267.455 179.509 266.026 180 264.181 180H261.013ZM264.053 178.32C266.645 178.32 267.941 176.997 267.941 174.352C267.941 171.717 266.645 170.4 264.053 170.4H262.085V178.32H264.053ZM273.075 180C272.766 180 272.521 179.915 272.339 179.744C272.169 179.573 272.083 179.333 272.083 179.024V169.696C272.083 169.387 272.169 169.147 272.339 168.976C272.521 168.805 272.766 168.72 273.075 168.72H278.851C279.161 168.72 279.401 168.789 279.571 168.928C279.742 169.067 279.827 169.264 279.827 169.52C279.827 169.787 279.742 169.995 279.571 170.144C279.401 170.283 279.161 170.352 278.851 170.352H274.099V173.456H278.531C278.841 173.456 279.081 173.525 279.251 173.664C279.422 173.803 279.507 174.005 279.507 174.272C279.507 174.528 279.422 174.725 279.251 174.864C279.081 175.003 278.841 175.072 278.531 175.072H274.099V178.368H278.851C279.161 178.368 279.401 178.443 279.571 178.592C279.742 178.731 279.827 178.933 279.827 179.2C279.827 179.456 279.742 179.653 279.571 179.792C279.401 179.931 279.161 180 278.851 180H273.075ZM282.529 180.096C282.22 180.096 281.969 180 281.777 179.808C281.596 179.616 281.505 179.365 281.505 179.056V169.696C281.505 169.387 281.59 169.147 281.761 168.976C281.942 168.805 282.188 168.72 282.497 168.72H288.113C288.764 168.72 289.089 168.997 289.089 169.552C289.089 170.096 288.764 170.368 288.113 170.368H283.537V173.44H287.793C288.444 173.44 288.769 173.717 288.769 174.272C288.769 174.816 288.444 175.088 287.793 175.088H283.537V179.056C283.537 179.365 283.446 179.616 283.265 179.808C283.084 180 282.838 180.096 282.529 180.096ZM291.592 180.096C291.282 180.096 291.032 180 290.84 179.808C290.658 179.616 290.568 179.365 290.568 179.056V169.664C290.568 169.355 290.658 169.109 290.84 168.928C291.032 168.736 291.282 168.64 291.592 168.64C291.912 168.64 292.162 168.736 292.344 168.928C292.536 169.109 292.632 169.355 292.632 169.664V179.056C292.632 179.365 292.536 179.616 292.344 179.808C292.162 180 291.912 180.096 291.592 180.096ZM300.387 180C300.078 180 299.838 179.915 299.667 179.744C299.497 179.573 299.411 179.339 299.411 179.04V169.664C299.411 169.355 299.502 169.109 299.683 168.928C299.875 168.736 300.126 168.64 300.435 168.64C300.755 168.64 301.006 168.736 301.187 168.928C301.379 169.109 301.475 169.355 301.475 169.664V178.304H305.971C306.611 178.304 306.931 178.587 306.931 179.152C306.931 179.717 306.611 180 305.971 180H300.387ZM318.417 178.768C318.481 178.907 318.513 179.045 318.513 179.184C318.513 179.429 318.411 179.637 318.209 179.808C318.017 179.979 317.793 180.064 317.537 180.064C317.366 180.064 317.206 180.021 317.057 179.936C316.907 179.84 316.79 179.696 316.705 179.504L315.745 177.36H310.113L309.153 179.504C309.067 179.696 308.95 179.84 308.801 179.936C308.651 180.021 308.486 180.064 308.305 180.064C308.059 180.064 307.835 179.979 307.633 179.808C307.43 179.637 307.329 179.429 307.329 179.184C307.329 179.045 307.361 178.907 307.425 178.768L311.841 169.28C311.937 169.067 312.081 168.907 312.273 168.8C312.475 168.683 312.689 168.624 312.913 168.624C313.137 168.624 313.345 168.683 313.537 168.8C313.739 168.907 313.889 169.067 313.985 169.28L318.417 178.768ZM310.817 175.76H315.041L312.929 171.008L310.817 175.76ZM324.645 180.144C323.099 180.144 321.925 179.744 321.125 178.944C320.325 178.144 319.925 176.976 319.925 175.44V169.664C319.925 169.355 320.016 169.109 320.197 168.928C320.379 168.736 320.624 168.64 320.933 168.64C321.243 168.64 321.488 168.736 321.669 168.928C321.851 169.109 321.941 169.355 321.941 169.664V175.552C321.941 176.523 322.171 177.259 322.629 177.76C323.088 178.251 323.76 178.496 324.645 178.496C325.52 178.496 326.187 178.245 326.645 177.744C327.104 177.243 327.333 176.512 327.333 175.552V169.664C327.333 169.355 327.424 169.109 327.605 168.928C327.787 168.736 328.032 168.64 328.341 168.64C328.651 168.64 328.896 168.736 329.077 168.928C329.259 169.109 329.349 169.355 329.349 169.664V175.44C329.349 176.965 328.949 178.133 328.149 178.944C327.349 179.744 326.181 180.144 324.645 180.144ZM340.268 168.64C340.566 168.64 340.801 168.736 340.972 168.928C341.153 169.109 341.244 169.355 341.244 169.664V179.056C341.244 179.365 341.153 179.616 340.972 179.808C340.79 180 340.556 180.096 340.268 180.096C339.926 180.096 339.665 179.973 339.484 179.728L333.644 172.128V179.056C333.644 179.365 333.558 179.616 333.388 179.808C333.217 180 332.982 180.096 332.684 180.096C332.385 180.096 332.15 180 331.98 179.808C331.809 179.616 331.724 179.365 331.724 179.056V169.664C331.724 169.355 331.814 169.109 331.996 168.928C332.177 168.736 332.417 168.64 332.716 168.64C333.046 168.64 333.302 168.763 333.484 169.008L339.308 176.576V169.664C339.308 169.355 339.393 169.109 339.564 168.928C339.745 168.736 339.98 168.64 340.268 168.64ZM348.717 180.144C347.629 180.144 346.674 179.909 345.853 179.44C345.042 178.971 344.418 178.299 343.981 177.424C343.544 176.549 343.325 175.525 343.325 174.352C343.325 173.179 343.544 172.16 343.981 171.296C344.418 170.421 345.042 169.749 345.853 169.28C346.674 168.811 347.629 168.576 348.717 168.576C349.421 168.576 350.082 168.683 350.701 168.896C351.32 169.099 351.869 169.397 352.349 169.792C352.488 169.899 352.584 170.011 352.637 170.128C352.69 170.245 352.717 170.389 352.717 170.56C352.717 170.795 352.653 170.992 352.525 171.152C352.397 171.312 352.242 171.392 352.061 171.392C351.848 171.392 351.629 171.317 351.405 171.168C350.946 170.827 350.52 170.592 350.125 170.464C349.73 170.325 349.293 170.256 348.813 170.256C347.704 170.256 346.861 170.603 346.285 171.296C345.72 171.989 345.437 173.008 345.437 174.352C345.437 175.707 345.72 176.731 346.285 177.424C346.861 178.117 347.704 178.464 348.813 178.464C349.272 178.464 349.693 178.395 350.077 178.256C350.472 178.117 350.914 177.883 351.405 177.552C351.512 177.488 351.618 177.435 351.725 177.392C351.832 177.349 351.944 177.328 352.061 177.328C352.242 177.328 352.397 177.408 352.525 177.568C352.653 177.728 352.717 177.925 352.717 178.16C352.717 178.32 352.69 178.464 352.637 178.592C352.584 178.709 352.488 178.821 352.349 178.928C351.869 179.323 351.32 179.627 350.701 179.84C350.082 180.043 349.421 180.144 348.717 180.144ZM363.337 168.64C363.646 168.64 363.891 168.736 364.073 168.928C364.254 169.109 364.345 169.355 364.345 169.664V179.056C364.345 179.365 364.249 179.616 364.057 179.808C363.875 180 363.635 180.096 363.337 180.096C363.027 180.096 362.782 180 362.601 179.808C362.419 179.616 362.329 179.365 362.329 179.056V175.104H356.553V179.056C356.553 179.365 356.457 179.616 356.265 179.808C356.083 180 355.838 180.096 355.529 180.096C355.23 180.096 354.985 180 354.793 179.808C354.611 179.616 354.521 179.365 354.521 179.056V169.664C354.521 169.355 354.611 169.109 354.793 168.928C354.974 168.736 355.219 168.64 355.529 168.64C355.838 168.64 356.083 168.736 356.265 168.928C356.457 169.109 356.553 169.355 356.553 169.664V173.44H362.329V169.664C362.329 169.355 362.419 169.109 362.601 168.928C362.782 168.736 363.027 168.64 363.337 168.64ZM282.026 198.768C282.09 198.907 282.122 199.045 282.122 199.184C282.122 199.429 282.021 199.637 281.818 199.808C281.626 199.979 281.402 200.064 281.146 200.064C280.975 200.064 280.815 200.021 280.666 199.936C280.517 199.84 280.399 199.696 280.314 199.504L279.354 197.36H273.722L272.762 199.504C272.677 199.696 272.559 199.84 272.41 199.936C272.261 200.021 272.095 200.064 271.914 200.064C271.669 200.064 271.445 199.979 271.242 199.808C271.039 199.637 270.938 199.429 270.938 199.184C270.938 199.045 270.97 198.907 271.034 198.768L275.45 189.28C275.546 189.067 275.69 188.907 275.882 188.8C276.085 188.683 276.298 188.624 276.522 188.624C276.746 188.624 276.954 188.683 277.146 188.8C277.349 188.907 277.498 189.067 277.594 189.28L282.026 198.768ZM274.426 195.76H278.65L276.538 191.008L274.426 195.76ZM285.982 200.08C285.662 200.08 285.406 199.989 285.214 199.808C285.033 199.616 284.942 199.365 284.942 199.056V190.416H282.03C281.39 190.416 281.07 190.133 281.07 189.568C281.07 189.003 281.39 188.72 282.03 188.72H289.918C290.558 188.72 290.878 189.003 290.878 189.568C290.878 190.133 290.558 190.416 289.918 190.416H287.006V199.056C287.006 199.365 286.91 199.616 286.718 199.808C286.537 199.989 286.292 200.08 285.982 200.08ZM304.283 196.816C304.283 197.669 303.984 198.389 303.387 198.976C302.8 199.563 302.005 199.931 301.003 200.08V201.088C301.003 201.333 300.928 201.531 300.779 201.68C300.629 201.84 300.432 201.92 300.187 201.92C299.941 201.92 299.744 201.84 299.595 201.68C299.445 201.531 299.371 201.333 299.371 201.088V200.112C298.763 200.059 298.171 199.931 297.595 199.728C297.019 199.525 296.523 199.259 296.107 198.928C295.968 198.832 295.872 198.725 295.819 198.608C295.765 198.491 295.739 198.347 295.739 198.176C295.739 197.952 295.803 197.755 295.931 197.584C296.069 197.413 296.224 197.328 296.395 197.328C296.501 197.328 296.597 197.349 296.683 197.392C296.779 197.424 296.901 197.483 297.051 197.568C297.541 197.888 298.021 198.123 298.491 198.272C298.971 198.421 299.472 198.496 299.995 198.496C300.709 198.496 301.259 198.357 301.643 198.08C302.037 197.803 302.235 197.403 302.235 196.88C302.235 196.571 302.128 196.32 301.915 196.128C301.701 195.936 301.435 195.787 301.115 195.68C300.795 195.563 300.347 195.429 299.771 195.28C298.971 195.077 298.32 194.875 297.819 194.672C297.317 194.459 296.885 194.139 296.523 193.712C296.16 193.285 295.979 192.709 295.979 191.984C295.979 191.12 296.288 190.384 296.907 189.776C297.525 189.168 298.336 188.789 299.339 188.64V187.632C299.339 187.387 299.413 187.189 299.563 187.04C299.712 186.88 299.909 186.8 300.155 186.8C300.4 186.8 300.597 186.88 300.747 187.04C300.896 187.189 300.971 187.387 300.971 187.632V188.624C302.048 188.763 302.976 189.152 303.755 189.792C304.011 189.984 304.139 190.235 304.139 190.544C304.139 190.768 304.069 190.965 303.931 191.136C303.803 191.307 303.648 191.392 303.467 191.392C303.371 191.392 303.275 191.376 303.179 191.344C303.093 191.312 302.976 191.248 302.827 191.152C302.389 190.843 301.973 190.613 301.579 190.464C301.195 190.304 300.736 190.224 300.203 190.224C299.541 190.224 299.013 190.373 298.619 190.672C298.224 190.96 298.027 191.36 298.027 191.872C298.027 192.224 298.139 192.512 298.363 192.736C298.587 192.949 298.869 193.115 299.211 193.232C299.552 193.349 300.016 193.483 300.603 193.632C301.381 193.824 302.016 194.021 302.507 194.224C302.997 194.427 303.413 194.736 303.755 195.152C304.107 195.557 304.283 196.112 304.283 196.816ZM310.212 192.784C310.916 192.784 311.535 192.939 312.068 193.248C312.612 193.547 313.034 193.968 313.332 194.512C313.631 195.056 313.78 195.68 313.78 196.384C313.78 197.12 313.61 197.771 313.268 198.336C312.938 198.901 312.463 199.344 311.844 199.664C311.236 199.973 310.532 200.128 309.732 200.128C309.071 200.128 308.42 200.021 307.78 199.808C307.151 199.584 306.612 199.285 306.164 198.912C305.919 198.699 305.796 198.448 305.796 198.16C305.796 197.925 305.86 197.728 305.988 197.568C306.127 197.397 306.287 197.312 306.468 197.312C306.575 197.312 306.676 197.333 306.772 197.376C306.868 197.408 306.98 197.467 307.108 197.552C307.535 197.851 307.951 198.08 308.356 198.24C308.762 198.4 309.194 198.48 309.652 198.48C310.356 198.48 310.895 198.304 311.268 197.952C311.642 197.6 311.828 197.099 311.828 196.448C311.828 195.819 311.636 195.323 311.252 194.96C310.879 194.587 310.362 194.4 309.7 194.4C309.284 194.4 308.911 194.459 308.58 194.576C308.26 194.693 307.93 194.891 307.588 195.168C307.386 195.307 307.178 195.376 306.964 195.376C306.751 195.376 306.57 195.312 306.42 195.184C306.271 195.056 306.196 194.885 306.196 194.672V189.68C306.196 189.381 306.282 189.147 306.452 188.976C306.623 188.805 306.863 188.72 307.172 188.72H312.5C313.14 188.72 313.46 188.987 313.46 189.52C313.46 190.053 313.14 190.32 312.5 190.32H308.212V193.36C308.756 192.976 309.423 192.784 310.212 192.784Z" fill="white"/>
<path d="M75.2649 108.336C75.9049 108.336 76.2249 108.608 76.2249 109.152C76.2249 109.717 75.9049 110 75.2649 110H69.1849C68.9075 110 68.6889 109.92 68.5289 109.76C68.3689 109.589 68.2889 109.381 68.2889 109.136C68.2889 108.816 68.4115 108.528 68.6569 108.272L72.3049 104.352C72.7529 103.861 73.0782 103.413 73.2809 103.008C73.4942 102.592 73.6009 102.181 73.6009 101.776C73.6009 101.275 73.4569 100.891 73.1689 100.624C72.8809 100.357 72.4702 100.224 71.9369 100.224C71.4995 100.224 71.0729 100.309 70.6569 100.48C70.2515 100.64 69.8409 100.864 69.4249 101.152C69.3182 101.227 69.2115 101.291 69.1049 101.344C68.9982 101.387 68.8915 101.408 68.7849 101.408C68.6035 101.408 68.4435 101.323 68.3049 101.152C68.1769 100.981 68.1129 100.779 68.1129 100.544C68.1129 100.384 68.1395 100.245 68.1929 100.128C68.2569 100.011 68.3529 99.8987 68.4809 99.792C68.9502 99.4187 69.4995 99.1253 70.1289 98.912C70.7582 98.688 71.3875 98.576 72.0169 98.576C73.1155 98.576 73.9902 98.8533 74.6409 99.408C75.3022 99.9627 75.6329 100.709 75.6329 101.648C75.6329 102.299 75.4942 102.912 75.2169 103.488C74.9395 104.053 74.4702 104.688 73.8089 105.392L71.0409 108.336H75.2649ZM81.7063 110.144C80.3729 110.144 79.3543 109.653 78.6503 108.672C77.9463 107.68 77.5943 106.24 77.5943 104.352C77.5943 102.475 77.9463 101.045 78.6503 100.064C79.3543 99.072 80.3729 98.576 81.7063 98.576C83.0396 98.576 84.0583 99.072 84.7623 100.064C85.4663 101.045 85.8183 102.475 85.8183 104.352C85.8183 106.229 85.4663 107.664 84.7623 108.656C84.0583 109.648 83.0396 110.144 81.7063 110.144ZM81.7063 108.528C82.4316 108.528 82.9596 108.197 83.2903 107.536C83.6209 106.864 83.7863 105.803 83.7863 104.352C83.7863 102.891 83.6209 101.835 83.2903 101.184C82.9596 100.523 82.4316 100.192 81.7063 100.192C80.9809 100.192 80.4529 100.523 80.1223 101.184C79.7916 101.845 79.6263 102.901 79.6263 104.352C79.6263 105.803 79.7916 106.864 80.1223 107.536C80.4529 108.197 80.9809 108.528 81.7063 108.528ZM94.468 108.336C95.108 108.336 95.428 108.608 95.428 109.152C95.428 109.717 95.108 110 94.468 110H88.388C88.1107 110 87.892 109.92 87.732 109.76C87.572 109.589 87.492 109.381 87.492 109.136C87.492 108.816 87.6147 108.528 87.86 108.272L91.508 104.352C91.956 103.861 92.2813 103.413 92.484 103.008C92.6973 102.592 92.804 102.181 92.804 101.776C92.804 101.275 92.66 100.891 92.372 100.624C92.084 100.357 91.6733 100.224 91.14 100.224C90.7027 100.224 90.276 100.309 89.86 100.48C89.4547 100.64 89.044 100.864 88.628 101.152C88.5213 101.227 88.4147 101.291 88.308 101.344C88.2013 101.387 88.0947 101.408 87.988 101.408C87.8067 101.408 87.6467 101.323 87.508 101.152C87.38 100.981 87.316 100.779 87.316 100.544C87.316 100.384 87.3427 100.245 87.396 100.128C87.46 100.011 87.556 99.8987 87.684 99.792C88.1533 99.4187 88.7027 99.1253 89.332 98.912C89.9613 98.688 90.5907 98.576 91.22 98.576C92.3187 98.576 93.1933 98.8533 93.844 99.408C94.5053 99.9627 94.836 100.709 94.836 101.648C94.836 102.299 94.6973 102.912 94.42 103.488C94.1427 104.053 93.6733 104.688 93.012 105.392L90.244 108.336H94.468ZM104.125 108.336C104.765 108.336 105.085 108.608 105.085 109.152C105.085 109.717 104.765 110 104.125 110H98.7174C98.0667 110 97.7414 109.717 97.7414 109.152C97.7414 108.608 98.0667 108.336 98.7174 108.336H100.381V101.04L98.8454 101.984C98.696 102.069 98.5627 102.112 98.4454 102.112C98.2214 102.112 98.0294 102.016 97.8694 101.824C97.72 101.632 97.6454 101.419 97.6454 101.184C97.6454 100.875 97.784 100.635 98.0614 100.464L100.541 98.928C100.861 98.736 101.165 98.64 101.453 98.64C101.752 98.64 101.992 98.7307 102.173 98.912C102.355 99.0933 102.445 99.344 102.445 99.664V108.336H104.125Z" fill="#F1C12B"/>
<path d="M281.265 107.336C281.905 107.336 282.225 107.608 282.225 108.152C282.225 108.717 281.905 109 281.265 109H275.185C274.908 109 274.689 108.92 274.529 108.76C274.369 108.589 274.289 108.381 274.289 108.136C274.289 107.816 274.412 107.528 274.657 107.272L278.305 103.352C278.753 102.861 279.078 102.413 279.281 102.008C279.494 101.592 279.601 101.181 279.601 100.776C279.601 100.275 279.457 99.8907 279.169 99.624C278.881 99.3573 278.47 99.224 277.937 99.224C277.5 99.224 277.073 99.3093 276.657 99.48C276.252 99.64 275.841 99.864 275.425 100.152C275.318 100.227 275.212 100.291 275.105 100.344C274.998 100.387 274.892 100.408 274.785 100.408C274.604 100.408 274.444 100.323 274.305 100.152C274.177 99.9813 274.113 99.7787 274.113 99.544C274.113 99.384 274.14 99.2453 274.193 99.128C274.257 99.0107 274.353 98.8987 274.481 98.792C274.95 98.4187 275.5 98.1253 276.129 97.912C276.758 97.688 277.388 97.576 278.017 97.576C279.116 97.576 279.99 97.8533 280.641 98.408C281.302 98.9627 281.633 99.7093 281.633 100.648C281.633 101.299 281.494 101.912 281.217 102.488C280.94 103.053 280.47 103.688 279.809 104.392L277.041 107.336H281.265ZM287.706 109.144C286.373 109.144 285.354 108.653 284.65 107.672C283.946 106.68 283.594 105.24 283.594 103.352C283.594 101.475 283.946 100.045 284.65 99.064C285.354 98.072 286.373 97.576 287.706 97.576C289.04 97.576 290.058 98.072 290.762 99.064C291.466 100.045 291.818 101.475 291.818 103.352C291.818 105.229 291.466 106.664 290.762 107.656C290.058 108.648 289.04 109.144 287.706 109.144ZM287.706 107.528C288.432 107.528 288.96 107.197 289.29 106.536C289.621 105.864 289.786 104.803 289.786 103.352C289.786 101.891 289.621 100.835 289.29 100.184C288.96 99.5227 288.432 99.192 287.706 99.192C286.981 99.192 286.453 99.5227 286.122 100.184C285.792 100.845 285.626 101.901 285.626 103.352C285.626 104.803 285.792 105.864 286.122 106.536C286.453 107.197 286.981 107.528 287.706 107.528ZM300.468 107.336C301.108 107.336 301.428 107.608 301.428 108.152C301.428 108.717 301.108 109 300.468 109H294.388C294.111 109 293.892 108.92 293.732 108.76C293.572 108.589 293.492 108.381 293.492 108.136C293.492 107.816 293.615 107.528 293.86 107.272L297.508 103.352C297.956 102.861 298.281 102.413 298.484 102.008C298.697 101.592 298.804 101.181 298.804 100.776C298.804 100.275 298.66 99.8907 298.372 99.624C298.084 99.3573 297.673 99.224 297.14 99.224C296.703 99.224 296.276 99.3093 295.86 99.48C295.455 99.64 295.044 99.864 294.628 100.152C294.521 100.227 294.415 100.291 294.308 100.344C294.201 100.387 294.095 100.408 293.988 100.408C293.807 100.408 293.647 100.323 293.508 100.152C293.38 99.9813 293.316 99.7787 293.316 99.544C293.316 99.384 293.343 99.2453 293.396 99.128C293.46 99.0107 293.556 98.8987 293.684 98.792C294.153 98.4187 294.703 98.1253 295.332 97.912C295.961 97.688 296.591 97.576 297.22 97.576C298.319 97.576 299.193 97.8533 299.844 98.408C300.505 98.9627 300.836 99.7093 300.836 100.648C300.836 101.299 300.697 101.912 300.42 102.488C300.143 103.053 299.673 103.688 299.012 104.392L296.244 107.336H300.468ZM310.125 107.336C310.765 107.336 311.085 107.608 311.085 108.152C311.085 108.717 310.765 109 310.125 109H304.717C304.067 109 303.741 108.717 303.741 108.152C303.741 107.608 304.067 107.336 304.717 107.336H306.381V100.04L304.845 100.984C304.696 101.069 304.563 101.112 304.445 101.112C304.221 101.112 304.029 101.016 303.869 100.824C303.72 100.632 303.645 100.419 303.645 100.184C303.645 99.8747 303.784 99.6347 304.061 99.464L306.541 97.928C306.861 97.736 307.165 97.64 307.453 97.64C307.752 97.64 307.992 97.7307 308.173 97.912C308.355 98.0933 308.445 98.344 308.445 98.664V107.336H310.125Z" fill="#F1C12B"/>
<path d="M80.3072 90.768C80.3712 90.9067 80.4032 91.0453 80.4032 91.184C80.4032 91.4293 80.3019 91.6373 80.0992 91.808C79.9072 91.9787 79.6832 92.064 79.4272 92.064C79.2565 92.064 79.0965 92.0213 78.9472 91.936C78.7979 91.84 78.6805 91.696 78.5952 91.504L77.6352 89.36H72.0032L71.0432 91.504C70.9579 91.696 70.8405 91.84 70.6912 91.936C70.5419 92.0213 70.3765 92.064 70.1952 92.064C69.9499 92.064 69.7259 91.9787 69.5232 91.808C69.3205 91.6373 69.2192 91.4293 69.2192 91.184C69.2192 91.0453 69.2512 90.9067 69.3152 90.768L73.7312 81.28C73.8272 81.0667 73.9712 80.9067 74.1632 80.8C74.3659 80.6827 74.5792 80.624 74.8032 80.624C75.0272 80.624 75.2352 80.6827 75.4272 80.8C75.6299 80.9067 75.7792 81.0667 75.8752 81.28L80.3072 90.768ZM72.7072 87.76H76.9312L74.8192 83.008L72.7072 87.76ZM86.5361 92.144C84.9894 92.144 83.8161 91.744 83.0161 90.944C82.2161 90.144 81.8161 88.976 81.8161 87.44V81.664C81.8161 81.3547 81.9067 81.1093 82.0881 80.928C82.2694 80.736 82.5147 80.64 82.8241 80.64C83.1334 80.64 83.3787 80.736 83.5601 80.928C83.7414 81.1093 83.8321 81.3547 83.8321 81.664V87.552C83.8321 88.5227 84.0614 89.2587 84.5201 89.76C84.9787 90.2507 85.6507 90.496 86.5361 90.496C87.4107 90.496 88.0774 90.2453 88.5361 89.744C88.9947 89.2427 89.2241 88.512 89.2241 87.552V81.664C89.2241 81.3547 89.3147 81.1093 89.4961 80.928C89.6774 80.736 89.9227 80.64 90.2321 80.64C90.5414 80.64 90.7867 80.736 90.9681 80.928C91.1494 81.1093 91.2401 81.3547 91.2401 81.664V87.44C91.2401 88.9653 90.8401 90.1333 90.0401 90.944C89.2401 91.744 88.0721 92.144 86.5361 92.144ZM102.206 85.904C102.452 85.904 102.649 85.9787 102.798 86.128C102.948 86.2667 103.022 86.4533 103.022 86.688V90.128C103.022 90.6187 102.958 90.9653 102.83 91.168C102.702 91.3707 102.441 91.536 102.046 91.664C101.62 91.8133 101.124 91.9307 100.558 92.016C99.9931 92.1013 99.4491 92.144 98.9264 92.144C97.7638 92.144 96.7558 91.9147 95.9024 91.456C95.0491 90.9973 94.3931 90.336 93.9344 89.472C93.4864 88.5973 93.2624 87.5573 93.2624 86.352C93.2624 85.168 93.4864 84.144 93.9344 83.28C94.3931 82.4053 95.0384 81.7387 95.8704 81.28C96.7024 80.8107 97.6838 80.576 98.8144 80.576C100.318 80.576 101.55 80.9813 102.51 81.792C102.638 81.9093 102.729 82.0267 102.782 82.144C102.846 82.2613 102.878 82.4 102.878 82.56C102.878 82.7947 102.814 82.992 102.686 83.152C102.558 83.312 102.404 83.392 102.222 83.392C102.105 83.392 101.998 83.376 101.902 83.344C101.806 83.3013 101.694 83.2373 101.566 83.152C101.097 82.8213 100.66 82.592 100.254 82.464C99.8491 82.3253 99.3904 82.256 98.8784 82.256C97.7158 82.256 96.8358 82.6027 96.2384 83.296C95.6518 83.9787 95.3584 84.9973 95.3584 86.352C95.3584 89.1253 96.5744 90.512 99.0064 90.512C99.7318 90.512 100.457 90.4107 101.182 90.208V87.376H99.3744C99.1184 87.376 98.9158 87.312 98.7664 87.184C98.6278 87.056 98.5584 86.8747 98.5584 86.64C98.5584 86.4053 98.6278 86.224 98.7664 86.096C98.9158 85.968 99.1184 85.904 99.3744 85.904H102.206Z" fill="#F1C12B"/>
<path d="M282.526 91.144C281.705 91.144 280.926 91.0373 280.19 90.824C279.465 90.6 278.873 90.3013 278.414 89.928C278.169 89.7467 278.046 89.4907 278.046 89.16C278.046 88.936 278.11 88.744 278.238 88.584C278.377 88.4133 278.537 88.328 278.718 88.328C278.91 88.328 279.129 88.4027 279.374 88.552C279.833 88.8827 280.313 89.1227 280.814 89.272C281.316 89.4213 281.87 89.496 282.478 89.496C283.257 89.496 283.854 89.3627 284.27 89.096C284.686 88.8187 284.894 88.4187 284.894 87.896C284.894 87.4907 284.697 87.1813 284.302 86.968C283.918 86.744 283.273 86.5307 282.366 86.328C281.428 86.1253 280.665 85.8907 280.078 85.624C279.492 85.3573 279.049 85.016 278.75 84.6C278.452 84.184 278.302 83.656 278.302 83.016C278.302 82.3547 278.489 81.7627 278.862 81.24C279.236 80.7173 279.753 80.312 280.414 80.024C281.086 79.7253 281.838 79.576 282.67 79.576C284.196 79.576 285.438 79.9813 286.398 80.792C286.537 80.9093 286.633 81.0267 286.686 81.144C286.75 81.2507 286.782 81.3893 286.782 81.56C286.782 81.784 286.713 81.9813 286.574 82.152C286.446 82.312 286.292 82.392 286.11 82.392C286.004 82.392 285.902 82.376 285.806 82.344C285.721 82.312 285.604 82.2533 285.454 82.168C285.017 81.848 284.59 81.6133 284.174 81.464C283.769 81.304 283.268 81.224 282.67 81.224C281.945 81.224 281.369 81.3733 280.942 81.672C280.526 81.96 280.318 82.3653 280.318 82.888C280.318 83.3253 280.505 83.6613 280.878 83.896C281.252 84.1307 281.886 84.3493 282.782 84.552C283.732 84.7653 284.5 85.0053 285.086 85.272C285.684 85.528 286.137 85.8587 286.446 86.264C286.766 86.6693 286.926 87.176 286.926 87.784C286.926 88.4453 286.74 89.032 286.366 89.544C286.004 90.0453 285.486 90.44 284.814 90.728C284.153 91.0053 283.39 91.144 282.526 91.144ZM289.817 91C289.508 91 289.263 90.9147 289.081 90.744C288.911 90.5733 288.825 90.3333 288.825 90.024V80.696C288.825 80.3867 288.911 80.1467 289.081 79.976C289.263 79.8053 289.508 79.72 289.817 79.72H295.593C295.903 79.72 296.143 79.7893 296.313 79.928C296.484 80.0667 296.569 80.264 296.569 80.52C296.569 80.7867 296.484 80.9947 296.313 81.144C296.143 81.2827 295.903 81.352 295.593 81.352H290.841V84.456H295.273C295.583 84.456 295.823 84.5253 295.993 84.664C296.164 84.8027 296.249 85.0053 296.249 85.272C296.249 85.528 296.164 85.7253 295.993 85.864C295.823 86.0027 295.583 86.072 295.273 86.072H290.841V89.368H295.593C295.903 89.368 296.143 89.4427 296.313 89.592C296.484 89.7307 296.569 89.9333 296.569 90.2C296.569 90.456 296.484 90.6533 296.313 90.792C296.143 90.9307 295.903 91 295.593 91H289.817ZM299.271 91.096C298.962 91.096 298.711 91.0053 298.519 90.824C298.338 90.632 298.247 90.376 298.247 90.056V80.696C298.247 80.3867 298.333 80.1467 298.503 79.976C298.685 79.8053 298.93 79.72 299.239 79.72H303.175C304.381 79.72 305.319 80.024 305.991 80.632C306.663 81.2293 306.999 82.072 306.999 83.16C306.999 84.248 306.663 85.096 305.991 85.704C305.319 86.312 304.381 86.616 303.175 86.616H300.311V90.056C300.311 90.376 300.215 90.632 300.023 90.824C299.842 91.0053 299.591 91.096 299.271 91.096ZM302.919 85.032C304.338 85.032 305.047 84.4133 305.047 83.176C305.047 81.9387 304.338 81.32 302.919 81.32H300.311V85.032H302.919Z" fill="#F1C12B"/>
<g filter="url(#filter0_d)">
<path d="M334.93 120.097L334.921 120.102L334.912 120.107L295.065 143.794C294.285 144.241 293.4 144.477 292.5 144.477C291.6 144.477 290.715 144.241 289.935 143.794L250.088 120.107L250.079 120.102L250.07 120.097C249.288 119.647 248.639 118.999 248.188 118.221C247.737 117.442 247.5 116.559 247.5 115.661V70.3158C247.5 69.4173 247.737 68.5343 248.188 67.7557C248.639 66.977 249.288 66.3299 250.07 65.8797L250.079 65.8745L250.088 65.8691L289.935 42.1824C290.715 41.7354 291.6 41.4999 292.5 41.4999C293.4 41.4999 294.285 41.7353 295.065 42.1824L334.912 65.8691L334.921 65.8745L334.93 65.8797C335.712 66.3299 336.361 66.977 336.812 67.7557C337.263 68.5343 337.5 69.4173 337.5 70.3157V115.661C337.5 115.661 337.5 115.661 337.5 115.661C337.5 116.559 337.263 117.442 336.812 118.221C336.361 118.999 335.712 119.647 334.93 120.097Z" stroke="#F1C12B" stroke-width="3"/>
</g>
<g filter="url(#filter1_d)">
<path d="M128.93 120.097L128.921 120.102L128.912 120.107L89.0645 143.794C88.2846 144.241 87.4003 144.477 86.5 144.477C85.5997 144.477 84.7154 144.241 83.9354 143.794L44.0879 120.107L44.0789 120.102L44.0698 120.097C43.2878 119.647 42.639 118.999 42.1881 118.221C41.7372 117.442 41.5 116.559 41.5 115.661V70.3158C41.5 69.4173 41.7372 68.5343 42.1881 67.7557C42.639 66.977 43.2878 66.3299 44.0698 65.8797L44.0789 65.8745L44.0879 65.8691L83.9353 42.1824C84.7153 41.7354 85.5996 41.4999 86.5 41.4999C87.4004 41.4999 88.2847 41.7353 89.0647 42.1824L128.912 65.8691L128.921 65.8745L128.93 65.8797C129.712 66.3299 130.361 66.977 130.812 67.7557C131.263 68.5343 131.5 69.4173 131.5 70.3157V115.661C131.5 115.661 131.5 115.661 131.5 115.661C131.5 116.559 131.263 117.442 130.812 118.221C130.361 118.999 129.712 119.647 128.93 120.097Z" stroke="#F1C12B" stroke-width="3"/>
</g>
<path d="M231.93 120.097L231.921 120.102L231.912 120.107L192.065 143.794C191.285 144.241 190.4 144.477 189.5 144.477C188.6 144.477 187.715 144.241 186.935 143.794L147.088 120.107L147.079 120.102L147.07 120.097C146.288 119.647 145.639 118.999 145.188 118.221C144.737 117.442 144.5 116.559 144.5 115.661V70.3158C144.5 69.4173 144.737 68.5343 145.188 67.7557C145.639 66.977 146.288 66.3299 147.07 65.8797L147.079 65.8745L147.088 65.8691L186.935 42.1824C187.715 41.7354 188.6 41.4999 189.5 41.4999C190.4 41.4999 191.285 41.7353 192.065 42.1824L231.912 65.8691L231.921 65.8745L231.93 65.8797C232.712 66.3299 233.361 66.977 233.812 67.7557C234.263 68.5343 234.5 69.4173 234.5 70.3157V115.661C234.5 115.661 234.5 115.661 234.5 115.661C234.5 116.559 234.263 117.442 233.812 118.221C233.361 118.999 232.712 119.647 231.93 120.097Z" stroke="#212151" stroke-width="3"/>
<defs>
<filter id="filter0_d" x="206" y="0" width="173" height="185.977" filterUnits="userSpaceOnUse" color-interpolation-filters="sRGB">
<feFlood flood-opacity="0" result="BackgroundImageFix"/>
<feColorMatrix in="SourceAlpha" type="matrix" values="0 0 0 0 0 0 0 0 0 0 0 0 0 0 0 0 0 0 127 0"/>
<feOffset/>
<feGaussianBlur stdDeviation="20"/>
<feColorMatrix type="matrix" values="0 0 0 0 0.945098 0 0 0 0 0.756863 0 0 0 0 0.168627 0 0 0 1 0"/>
<feBlend mode="normal" in2="BackgroundImageFix" result="effect1_dropShadow"/>
<feBlend mode="normal" in="SourceGraphic" in2="effect1_dropShadow" result="shape"/>
</filter>
<filter id="filter1_d" x="0" y="0" width="173" height="185.977" filterUnits="userSpaceOnUse" color-interpolation-filters="sRGB">
<feFlood flood-opacity="0" result="BackgroundImageFix"/>
<feColorMatrix in="SourceAlpha" type="matrix" values="0 0 0 0 0 0 0 0 0 0 0 0 0 0 0 0 0 0 127 0"/>
<feOffset/>
<feGaussianBlur stdDeviation="20"/>
<feColorMatrix type="matrix" values="0 0 0 0 0.945098 0 0 0 0 0.756863 0 0 0 0 0.168627 0 0 0 1 0"/>
<feBlend mode="normal" in2="BackgroundImageFix" result="effect1_dropShadow"/>
<feBlend mode="normal" in="SourceGraphic" in2="effect1_dropShadow" result="shape"/>
</filter>
</defs>
</svg>
