<svg width="355" height="302" viewBox="0 0 355 302" fill="none" xmlns="http://www.w3.org/2000/svg">
<path d="M136.734 193C136.009 193 135.646 192.638 135.646 191.912V182.808C135.646 182.083 136.009 181.72 136.734 181.72H142.446C143.001 181.72 143.278 181.987 143.278 182.52C143.278 183.075 143.001 183.352 142.446 183.352H137.614V186.456H142.094C142.649 186.456 142.926 186.728 142.926 187.272C142.926 187.816 142.649 188.088 142.094 188.088H137.614V191.368H142.446C143.001 191.368 143.278 191.64 143.278 192.184C143.278 192.728 143.001 193 142.446 193H136.734ZM148.925 193.16C148.21 193.16 147.511 193.08 146.829 192.92C146.157 192.76 145.57 192.52 145.069 192.2C144.823 192.04 144.674 191.843 144.621 191.608C144.567 191.374 144.583 191.155 144.669 190.952C144.765 190.739 144.909 190.595 145.101 190.52C145.303 190.435 145.533 190.472 145.789 190.632C146.258 190.91 146.754 191.112 147.277 191.24C147.799 191.368 148.349 191.432 148.925 191.432C149.767 191.432 150.381 191.294 150.765 191.016C151.149 190.728 151.341 190.36 151.341 189.912C151.341 189.539 151.202 189.246 150.925 189.032C150.658 188.819 150.194 188.643 149.533 188.504L147.773 188.136C145.767 187.71 144.765 186.68 144.765 185.048C144.765 184.344 144.951 183.731 145.325 183.208C145.698 182.686 146.215 182.28 146.877 181.992C147.538 181.704 148.301 181.56 149.165 181.56C149.805 181.56 150.413 181.64 150.989 181.8C151.565 181.96 152.082 182.195 152.541 182.504C152.754 182.654 152.882 182.84 152.925 183.064C152.967 183.278 152.941 183.48 152.845 183.672C152.749 183.854 152.594 183.982 152.381 184.056C152.178 184.12 151.938 184.072 151.661 183.912C151.266 183.688 150.866 183.528 150.461 183.432C150.055 183.336 149.618 183.288 149.149 183.288C148.413 183.288 147.837 183.443 147.421 183.752C147.005 184.062 146.797 184.467 146.797 184.968C146.797 185.352 146.925 185.662 147.181 185.896C147.437 186.12 147.874 186.296 148.493 186.424L150.237 186.792C151.293 187.016 152.077 187.368 152.589 187.848C153.111 188.328 153.373 188.968 153.373 189.768C153.373 190.44 153.191 191.032 152.829 191.544C152.466 192.056 151.949 192.456 151.277 192.744C150.615 193.022 149.831 193.16 148.925 193.16ZM158.64 193.128C157.957 193.128 157.616 192.776 157.616 192.072V183.432H154.496C153.909 183.432 153.616 183.144 153.616 182.568C153.616 182.003 153.909 181.72 154.496 181.72H162.784C163.371 181.72 163.664 182.003 163.664 182.568C163.664 183.144 163.371 183.432 162.784 183.432H159.664V192.072C159.664 192.776 159.323 193.128 158.64 193.128ZM163.696 193.128C163.322 193.128 163.056 193 162.896 192.744C162.736 192.488 162.741 192.179 162.912 191.816L167.136 182.456C167.274 182.147 167.44 181.928 167.632 181.8C167.834 181.662 168.064 181.592 168.32 181.592C168.565 181.592 168.784 181.662 168.976 181.8C169.178 181.928 169.349 182.147 169.488 182.456L173.728 191.816C173.898 192.19 173.909 192.504 173.76 192.76C173.61 193.006 173.354 193.128 172.992 193.128C172.693 193.128 172.458 193.059 172.288 192.92C172.128 192.771 171.984 192.547 171.856 192.248L171.056 190.392H165.552L164.768 192.248C164.629 192.558 164.485 192.782 164.336 192.92C164.186 193.059 163.973 193.128 163.696 193.128ZM168.288 183.944L166.256 188.76H170.352L168.32 183.944H168.288ZM176.578 193C175.852 193 175.49 192.638 175.49 191.912V182.808C175.49 182.083 175.852 181.72 176.578 181.72H180.418C181.602 181.72 182.519 181.982 183.17 182.504C183.82 183.016 184.146 183.731 184.146 184.648C184.146 185.256 183.991 185.779 183.682 186.216C183.372 186.654 182.946 186.974 182.402 187.176C183.042 187.358 183.538 187.678 183.89 188.136C184.252 188.584 184.434 189.155 184.434 189.848C184.434 190.851 184.092 191.63 183.41 192.184C182.738 192.728 181.799 193 180.594 193H176.578ZM177.458 186.504H180.066C181.463 186.504 182.162 185.966 182.162 184.888C182.162 183.811 181.463 183.272 180.066 183.272H177.458V186.504ZM177.458 191.448H180.338C181.746 191.448 182.45 190.883 182.45 189.752C182.45 188.622 181.746 188.056 180.338 188.056H177.458V191.448ZM187.545 193C186.852 193 186.505 192.648 186.505 191.944V182.712C186.505 182.019 186.847 181.672 187.529 181.672C188.212 181.672 188.553 182.019 188.553 182.712V191.256H193.193C193.791 191.256 194.089 191.544 194.089 192.12C194.089 192.707 193.791 193 193.193 193H187.545ZM196.514 193.128C195.831 193.128 195.49 192.776 195.49 192.072V182.648C195.49 181.944 195.831 181.592 196.514 181.592C197.196 181.592 197.538 181.944 197.538 182.648V192.072C197.538 192.776 197.196 193.128 196.514 193.128ZM203.893 193.16C203.179 193.16 202.48 193.08 201.797 192.92C201.125 192.76 200.539 192.52 200.037 192.2C199.792 192.04 199.643 191.843 199.589 191.608C199.536 191.374 199.552 191.155 199.637 190.952C199.733 190.739 199.877 190.595 200.069 190.52C200.272 190.435 200.501 190.472 200.757 190.632C201.227 190.91 201.723 191.112 202.245 191.24C202.768 191.368 203.317 191.432 203.893 191.432C204.736 191.432 205.349 191.294 205.733 191.016C206.117 190.728 206.309 190.36 206.309 189.912C206.309 189.539 206.171 189.246 205.893 189.032C205.627 188.819 205.163 188.643 204.501 188.504L202.741 188.136C200.736 187.71 199.733 186.68 199.733 185.048C199.733 184.344 199.92 183.731 200.293 183.208C200.667 182.686 201.184 182.28 201.845 181.992C202.507 181.704 203.269 181.56 204.133 181.56C204.773 181.56 205.381 181.64 205.957 181.8C206.533 181.96 207.051 182.195 207.509 182.504C207.723 182.654 207.851 182.84 207.893 183.064C207.936 183.278 207.909 183.48 207.813 183.672C207.717 183.854 207.563 183.982 207.349 184.056C207.147 184.12 206.907 184.072 206.629 183.912C206.235 183.688 205.835 183.528 205.429 183.432C205.024 183.336 204.587 183.288 204.117 183.288C203.381 183.288 202.805 183.443 202.389 183.752C201.973 184.062 201.765 184.467 201.765 184.968C201.765 185.352 201.893 185.662 202.149 185.896C202.405 186.12 202.843 186.296 203.461 186.424L205.205 186.792C206.261 187.016 207.045 187.368 207.557 187.848C208.08 188.328 208.341 188.968 208.341 189.768C208.341 190.44 208.16 191.032 207.797 191.544C207.435 192.056 206.917 192.456 206.245 192.744C205.584 193.022 204.8 193.16 203.893 193.16ZM211.123 193.128C210.441 193.128 210.099 192.776 210.099 192.072V182.648C210.099 181.944 210.441 181.592 211.123 181.592C211.806 181.592 212.147 181.944 212.147 182.648V186.424H217.955V182.648C217.955 181.944 218.297 181.592 218.979 181.592C219.662 181.592 220.003 181.944 220.003 182.648V192.072C220.003 192.776 219.662 193.128 218.979 193.128C218.297 193.128 217.955 192.776 217.955 192.072V188.136H212.147V192.072C212.147 192.776 211.806 193.128 211.123 193.128ZM223.434 193.128C222.816 193.128 222.506 192.808 222.506 192.168V182.552C222.506 181.912 222.826 181.592 223.466 181.592C223.733 181.592 223.941 181.646 224.09 181.752C224.25 181.848 224.394 182.019 224.522 182.264L228.218 189.096L231.914 182.264C232.042 182.019 232.181 181.848 232.33 181.752C232.48 181.646 232.688 181.592 232.954 181.592C233.573 181.592 233.882 181.912 233.882 182.552V192.168C233.882 192.808 233.573 193.128 232.954 193.128C232.336 193.128 232.026 192.808 232.026 192.168V185.4L229.018 190.888C228.912 191.07 228.8 191.203 228.682 191.288C228.565 191.374 228.405 191.416 228.202 191.416C228 191.416 227.834 191.374 227.706 191.288C227.578 191.192 227.466 191.059 227.37 190.888L224.362 185.432V192.168C224.362 192.808 224.053 193.128 223.434 193.128ZM237.453 193C236.727 193 236.365 192.638 236.365 191.912V182.808C236.365 182.083 236.727 181.72 237.453 181.72H243.165C243.719 181.72 243.997 181.987 243.997 182.52C243.997 183.075 243.719 183.352 243.165 183.352H238.333V186.456H242.813C243.367 186.456 243.645 186.728 243.645 187.272C243.645 187.816 243.367 188.088 242.813 188.088H238.333V191.368H243.165C243.719 191.368 243.997 191.64 243.997 192.184C243.997 192.728 243.719 193 243.165 193H237.453ZM246.872 193.128C246.232 193.128 245.912 192.798 245.912 192.136V182.616C245.912 182.286 245.992 182.035 246.152 181.864C246.322 181.683 246.541 181.592 246.808 181.592C247.053 181.592 247.234 181.64 247.352 181.736C247.48 181.822 247.629 181.971 247.8 182.184L253.512 189.592V182.568C253.512 181.918 253.832 181.592 254.472 181.592C255.101 181.592 255.416 181.918 255.416 182.568V192.168C255.416 192.467 255.341 192.702 255.192 192.872C255.042 193.043 254.84 193.128 254.584 193.128C254.338 193.128 254.141 193.08 253.992 192.984C253.853 192.888 253.698 192.734 253.528 192.52L247.816 185.096V192.136C247.816 192.798 247.501 193.128 246.872 193.128ZM261.624 193.128C260.942 193.128 260.6 192.776 260.6 192.072V183.432H257.48C256.894 183.432 256.6 183.144 256.6 182.568C256.6 182.003 256.894 181.72 257.48 181.72H265.768C266.355 181.72 266.648 182.003 266.648 182.568C266.648 183.144 266.355 183.432 265.768 183.432H262.648V192.072C262.648 192.776 262.307 193.128 261.624 193.128Z" fill="white"/>
<path d="M180.441 113C180.099 113 179.849 112.926 179.689 112.776C179.539 112.616 179.465 112.387 179.465 112.088C179.465 111.907 179.513 111.731 179.609 111.56C179.705 111.39 179.843 111.208 180.025 111.016L183.241 107.592C183.731 107.08 184.083 106.616 184.297 106.2C184.51 105.774 184.617 105.347 184.617 104.92C184.617 103.832 183.961 103.288 182.649 103.288C182.286 103.288 181.923 103.342 181.561 103.448C181.198 103.544 180.83 103.715 180.457 103.96C180.222 104.12 180.003 104.168 179.801 104.104C179.598 104.04 179.443 103.912 179.337 103.72C179.23 103.518 179.193 103.304 179.225 103.08C179.267 102.856 179.406 102.664 179.641 102.504C180.099 102.195 180.611 101.96 181.177 101.8C181.753 101.64 182.329 101.56 182.905 101.56C184.11 101.56 185.033 101.832 185.673 102.376C186.323 102.92 186.649 103.699 186.649 104.712C186.649 105.395 186.483 106.051 186.153 106.68C185.833 107.31 185.326 107.987 184.633 108.712L182.153 111.304H186.329C186.915 111.304 187.209 111.582 187.209 112.136C187.209 112.712 186.915 113 186.329 113H180.441ZM192.706 113.16C191.373 113.16 190.354 112.659 189.65 111.656C188.946 110.643 188.594 109.203 188.594 107.336C188.594 105.448 188.946 104.014 189.65 103.032C190.354 102.051 191.373 101.56 192.706 101.56C194.05 101.56 195.069 102.051 195.762 103.032C196.466 104.014 196.818 105.443 196.818 107.32C196.818 109.198 196.466 110.643 195.762 111.656C195.058 112.659 194.04 113.16 192.706 113.16ZM192.706 111.48C193.432 111.48 193.965 111.144 194.306 110.472C194.658 109.8 194.834 108.75 194.834 107.32C194.834 105.891 194.658 104.856 194.306 104.216C193.965 103.566 193.432 103.24 192.706 103.24C191.992 103.24 191.458 103.566 191.106 104.216C190.754 104.856 190.578 105.891 190.578 107.32C190.578 108.75 190.754 109.8 191.106 110.472C191.458 111.144 191.992 111.48 192.706 111.48ZM199.628 113C199.287 113 199.036 112.926 198.876 112.776C198.727 112.616 198.652 112.387 198.652 112.088C198.652 111.907 198.7 111.731 198.796 111.56C198.892 111.39 199.031 111.208 199.212 111.016L202.428 107.592C202.919 107.08 203.271 106.616 203.484 106.2C203.697 105.774 203.804 105.347 203.804 104.92C203.804 103.832 203.148 103.288 201.836 103.288C201.473 103.288 201.111 103.342 200.748 103.448C200.385 103.544 200.017 103.715 199.644 103.96C199.409 104.12 199.191 104.168 198.988 104.104C198.785 104.04 198.631 103.912 198.524 103.72C198.417 103.518 198.38 103.304 198.412 103.08C198.455 102.856 198.593 102.664 198.828 102.504C199.287 102.195 199.799 101.96 200.364 101.8C200.94 101.64 201.516 101.56 202.092 101.56C203.297 101.56 204.22 101.832 204.86 102.376C205.511 102.92 205.836 103.699 205.836 104.712C205.836 105.395 205.671 106.051 205.34 106.68C205.02 107.31 204.513 107.987 203.82 108.712L201.34 111.304H205.516C206.103 111.304 206.396 111.582 206.396 112.136C206.396 112.712 206.103 113 205.516 113H199.628ZM211.894 113.16C210.56 113.16 209.542 112.659 208.838 111.656C208.134 110.643 207.782 109.203 207.782 107.336C207.782 105.448 208.134 104.014 208.838 103.032C209.542 102.051 210.56 101.56 211.894 101.56C213.238 101.56 214.256 102.051 214.95 103.032C215.654 104.014 216.006 105.443 216.006 107.32C216.006 109.198 215.654 110.643 214.95 111.656C214.246 112.659 213.227 113.16 211.894 113.16ZM211.894 111.48C212.619 111.48 213.152 111.144 213.494 110.472C213.846 109.8 214.022 108.75 214.022 107.32C214.022 105.891 213.846 104.856 213.494 104.216C213.152 103.566 212.619 103.24 211.894 103.24C211.179 103.24 210.646 103.566 210.294 104.216C209.942 104.856 209.766 105.891 209.766 107.32C209.766 108.75 209.942 109.8 210.294 110.472C210.646 111.144 211.179 111.48 211.894 111.48Z" fill="#F1C12B"/>
<g filter="url(#filter0_d)">
<path d="M242.93 133.097L242.921 133.102L242.912 133.108L203.065 156.794C202.285 157.241 201.4 157.477 200.5 157.477C199.6 157.477 198.715 157.241 197.935 156.794L158.088 133.108L158.079 133.102L158.07 133.097C157.288 132.647 156.639 132 156.188 131.221C155.737 130.442 155.5 129.559 155.5 128.661V83.316C155.5 82.4175 155.737 81.5346 156.188 80.756C156.639 79.9773 157.288 79.3301 158.07 78.88L158.079 78.8747L158.088 78.8694L197.935 55.1826C198.715 54.7356 199.6 54.5001 200.5 54.5001C201.4 54.5001 202.285 54.7356 203.065 55.1826L242.912 78.8694L242.921 78.8747L242.93 78.88C243.712 79.3301 244.361 79.9773 244.812 80.756C245.263 81.5346 245.5 82.4175 245.5 83.316V128.661C245.5 128.661 245.5 128.661 245.5 128.661C245.5 129.559 245.263 130.442 244.812 131.221C244.361 132 243.712 132.647 242.93 133.097Z" stroke="#F1C12B" stroke-width="3"/>
</g>
<path d="M345.93 133.097L345.921 133.102L345.912 133.108L306.065 156.794C305.285 157.241 304.4 157.477 303.5 157.477C302.6 157.477 301.715 157.241 300.935 156.794L261.088 133.108L261.079 133.102L261.07 133.097C260.288 132.647 259.639 132 259.188 131.221C258.737 130.442 258.5 129.559 258.5 128.661V83.316C258.5 82.4175 258.737 81.5346 259.188 80.756C259.639 79.9773 260.288 79.3301 261.07 78.88L261.079 78.8747L261.088 78.8694L300.935 55.1826C301.715 54.7356 302.6 54.5001 303.5 54.5001C304.4 54.5001 305.285 54.7356 306.065 55.1826L345.912 78.8694L345.921 78.8747L345.93 78.88C346.712 79.3301 347.361 79.9773 347.812 80.756C348.263 81.5346 348.5 82.4175 348.5 83.316V128.661C348.5 128.661 348.5 128.661 348.5 128.661C348.5 129.559 348.263 130.442 347.812 131.221C347.361 132 346.712 132.647 345.93 133.097Z" stroke="#212151" stroke-width="3"/>
<path d="M139.93 133.097L139.921 133.102L139.912 133.108L100.065 156.794C99.2846 157.241 98.4003 157.477 97.5 157.477C96.5997 157.477 95.7154 157.241 94.9354 156.794L55.0879 133.108L55.0789 133.102L55.0698 133.097C54.2878 132.647 53.639 132 53.1881 131.221C52.7372 130.442 52.5 129.559 52.5 128.661V83.316C52.5 82.4175 52.7372 81.5346 53.1881 80.756C53.639 79.9773 54.2878 79.3301 55.0698 78.88L55.0789 78.8747L55.0879 78.8694L94.9353 55.1826C95.7153 54.7356 96.5996 54.5001 97.5 54.5001C98.4004 54.5001 99.2847 54.7356 100.065 55.1826L139.912 78.8694L139.921 78.8747L139.93 78.88C140.712 79.3301 141.361 79.9773 141.812 80.756C142.263 81.5346 142.5 82.4175 142.5 83.316V128.661C142.5 128.661 142.5 128.661 142.5 128.661C142.5 129.559 142.263 130.442 141.812 131.221C141.361 132 140.712 132.647 139.93 133.097Z" stroke="#212151" stroke-width="3"/>
<path d="M88.9302 223.097L88.9211 223.102L88.9121 223.108L49.0645 246.794C48.2846 247.241 47.4003 247.477 46.5 247.477C45.5997 247.477 44.7154 247.241 43.9354 246.794L4.08788 223.108L4.07887 223.102L4.06979 223.097C3.28781 222.647 2.63898 222 2.18809 221.221C1.73722 220.442 1.50002 219.559 1.5 218.661V173.316C1.50002 172.418 1.73722 171.535 2.18809 170.756C2.63897 169.977 3.2878 169.33 4.06979 168.88L4.07887 168.875L4.08788 168.869L43.9353 145.183C44.7153 144.736 45.5996 144.5 46.5 144.5C47.4004 144.5 48.2847 144.736 49.0647 145.183L88.9121 168.869L88.9211 168.875L88.9302 168.88C89.7122 169.33 90.361 169.977 90.8119 170.756C91.2628 171.535 91.5 172.418 91.5 173.316V218.661C91.5 218.661 91.5 218.661 91.5 218.661C91.5 219.559 91.2628 220.442 90.8119 221.221C90.361 222 89.7122 222.647 88.9302 223.097Z" stroke="#212151" stroke-width="3"/>
<defs>
<filter id="filter0_d" x="114" y="13" width="173" height="185.977" filterUnits="userSpaceOnUse" color-interpolation-filters="sRGB">
<feFlood flood-opacity="0" result="BackgroundImageFix"/>
<feColorMatrix in="SourceAlpha" type="matrix" values="0 0 0 0 0 0 0 0 0 0 0 0 0 0 0 0 0 0 127 0"/>
<feOffset/>
<feGaussianBlur stdDeviation="20"/>
<feColorMatrix type="matrix" values="0 0 0 0 0.945098 0 0 0 0 0.756863 0 0 0 0 0.168627 0 0 0 1 0"/>
<feBlend mode="normal" in2="BackgroundImageFix" result="effect1_dropShadow"/>
<feBlend mode="normal" in="SourceGraphic" in2="effect1_dropShadow" result="shape"/>
</filter>
</defs>
</svg>
