<svg width="446" height="302" viewBox="0 0 446 302" fill="none" xmlns="http://www.w3.org/2000/svg">
<g clip-path="url(#clip0)">
<path d="M140.295 259.096C139.985 259.096 139.735 259.005 139.543 258.824C139.361 258.632 139.271 258.376 139.271 258.056V248.696C139.271 248.387 139.356 248.147 139.527 247.976C139.708 247.805 139.953 247.72 140.263 247.72H144.199C145.404 247.72 146.343 248.024 147.015 248.632C147.687 249.229 148.023 250.072 148.023 251.16C148.023 252.248 147.687 253.096 147.015 253.704C146.343 254.312 145.404 254.616 144.199 254.616H141.335V258.056C141.335 258.376 141.239 258.632 141.047 258.824C140.865 259.005 140.615 259.096 140.295 259.096ZM143.943 253.032C145.361 253.032 146.071 252.413 146.071 251.176C146.071 249.939 145.361 249.32 143.943 249.32H141.335V253.032H143.943ZM158.854 257.768C158.918 257.907 158.95 258.045 158.95 258.184C158.95 258.429 158.849 258.637 158.646 258.808C158.454 258.979 158.23 259.064 157.974 259.064C157.803 259.064 157.643 259.021 157.494 258.936C157.345 258.84 157.227 258.696 157.142 258.504L156.182 256.36H150.55L149.59 258.504C149.505 258.696 149.387 258.84 149.238 258.936C149.089 259.021 148.923 259.064 148.742 259.064C148.497 259.064 148.273 258.979 148.07 258.808C147.867 258.637 147.766 258.429 147.766 258.184C147.766 258.045 147.798 257.907 147.862 257.768L152.278 248.28C152.374 248.067 152.518 247.907 152.71 247.8C152.913 247.683 153.126 247.624 153.35 247.624C153.574 247.624 153.782 247.683 153.974 247.8C154.177 247.907 154.326 248.067 154.422 248.28L158.854 257.768ZM151.254 254.76H155.478L153.366 250.008L151.254 254.76ZM166.233 247.992C166.425 247.757 166.654 247.64 166.921 247.64C167.166 247.64 167.385 247.736 167.577 247.928C167.769 248.109 167.865 248.328 167.865 248.584C167.865 248.797 167.785 249 167.625 249.192L163.993 253.624V258.056C163.993 258.387 163.897 258.643 163.705 258.824C163.513 259.005 163.267 259.096 162.969 259.096C162.659 259.096 162.409 259.005 162.217 258.824C162.025 258.643 161.929 258.387 161.929 258.056V253.624L158.297 249.192C158.137 249 158.057 248.797 158.057 248.584C158.057 248.328 158.153 248.109 158.345 247.928C158.537 247.736 158.755 247.64 159.001 247.64C159.267 247.64 159.497 247.757 159.689 247.992L162.969 252.056L166.233 247.992Z" fill="white"/>
<path d="M149.773 178.336C150.413 178.336 150.733 178.608 150.733 179.152C150.733 179.717 150.413 180 149.773 180H143.693C143.415 180 143.197 179.92 143.037 179.76C142.877 179.589 142.797 179.381 142.797 179.136C142.797 178.816 142.919 178.528 143.165 178.272L146.813 174.352C147.261 173.861 147.586 173.413 147.789 173.008C148.002 172.592 148.109 172.181 148.109 171.776C148.109 171.275 147.965 170.891 147.677 170.624C147.389 170.357 146.978 170.224 146.445 170.224C146.007 170.224 145.581 170.309 145.165 170.48C144.759 170.64 144.349 170.864 143.933 171.152C143.826 171.227 143.719 171.291 143.613 171.344C143.506 171.387 143.399 171.408 143.293 171.408C143.111 171.408 142.951 171.323 142.813 171.152C142.685 170.981 142.621 170.779 142.621 170.544C142.621 170.384 142.647 170.245 142.701 170.128C142.765 170.011 142.861 169.899 142.989 169.792C143.458 169.419 144.007 169.125 144.637 168.912C145.266 168.688 145.895 168.576 146.525 168.576C147.623 168.576 148.498 168.853 149.149 169.408C149.81 169.963 150.141 170.709 150.141 171.648C150.141 172.299 150.002 172.912 149.725 173.488C149.447 174.053 148.978 174.688 148.317 175.392L145.549 178.336H149.773ZM156.214 180.144C154.881 180.144 153.862 179.653 153.158 178.672C152.454 177.68 152.102 176.24 152.102 174.352C152.102 172.475 152.454 171.045 153.158 170.064C153.862 169.072 154.881 168.576 156.214 168.576C157.547 168.576 158.566 169.072 159.27 170.064C159.974 171.045 160.326 172.475 160.326 174.352C160.326 176.229 159.974 177.664 159.27 178.656C158.566 179.648 157.547 180.144 156.214 180.144ZM156.214 178.528C156.939 178.528 157.467 178.197 157.798 177.536C158.129 176.864 158.294 175.803 158.294 174.352C158.294 172.891 158.129 171.835 157.798 171.184C157.467 170.523 156.939 170.192 156.214 170.192C155.489 170.192 154.961 170.523 154.63 171.184C154.299 171.845 154.134 172.901 154.134 174.352C154.134 175.803 154.299 176.864 154.63 177.536C154.961 178.197 155.489 178.528 156.214 178.528ZM169.024 178.336C169.664 178.336 169.984 178.608 169.984 179.152C169.984 179.717 169.664 180 169.024 180H163.616C162.965 180 162.64 179.717 162.64 179.152C162.64 178.608 162.965 178.336 163.616 178.336H165.28V171.04L163.744 171.984C163.594 172.069 163.461 172.112 163.344 172.112C163.12 172.112 162.928 172.016 162.768 171.824C162.618 171.632 162.544 171.419 162.544 171.184C162.544 170.875 162.682 170.635 162.96 170.464L165.44 168.928C165.76 168.736 166.064 168.64 166.352 168.64C166.65 168.64 166.89 168.731 167.072 168.912C167.253 169.093 167.344 169.344 167.344 169.664V178.336H169.024ZM177.562 174.208C178.223 174.389 178.73 174.72 179.082 175.2C179.444 175.68 179.626 176.267 179.626 176.96C179.626 177.952 179.252 178.731 178.506 179.296C177.759 179.851 176.724 180.128 175.402 180.128C174.079 180.128 173.044 179.851 172.298 179.296C171.551 178.731 171.178 177.952 171.178 176.96C171.178 176.267 171.359 175.68 171.722 175.2C172.084 174.709 172.596 174.379 173.258 174.208C172.692 173.995 172.25 173.664 171.93 173.216C171.61 172.757 171.45 172.224 171.45 171.616C171.45 170.677 171.802 169.936 172.506 169.392C173.21 168.848 174.175 168.576 175.402 168.576C176.628 168.576 177.594 168.848 178.298 169.392C179.002 169.936 179.354 170.677 179.354 171.616C179.354 172.235 179.194 172.773 178.874 173.232C178.554 173.691 178.116 174.016 177.562 174.208ZM175.402 170.192C174.068 170.192 173.402 170.736 173.402 171.824C173.402 172.368 173.567 172.784 173.898 173.072C174.239 173.349 174.74 173.488 175.402 173.488C176.063 173.488 176.559 173.349 176.89 173.072C177.231 172.784 177.402 172.368 177.402 171.824C177.402 170.736 176.735 170.192 175.402 170.192ZM175.402 178.512C176.927 178.512 177.69 177.941 177.69 176.8C177.69 175.659 176.927 175.088 175.402 175.088C173.876 175.088 173.114 175.659 173.114 176.8C173.114 177.941 173.876 178.512 175.402 178.512Z" fill="#F1C12B"/>
<path d="M118.045 146.883L118.054 146.878L118.063 146.872L158.278 123.186C159.068 122.737 159.964 122.5 160.878 122.5C161.792 122.5 162.688 122.737 163.478 123.185L203.693 146.872L203.702 146.878L203.711 146.883C204.503 147.335 205.158 147.983 205.613 148.761C206.068 149.539 206.306 150.42 206.306 151.316V196.661C206.306 197.557 206.068 198.438 205.613 199.216C205.158 199.994 204.503 200.642 203.711 201.094L203.702 201.099L203.693 201.104L163.478 224.791C162.688 225.24 161.792 225.477 160.878 225.477C159.964 225.477 159.067 225.24 158.278 224.791L118.063 201.104L118.054 201.099L118.045 201.094C117.253 200.642 116.597 199.994 116.143 199.216C115.688 198.438 115.449 197.557 115.449 196.661V151.316C115.449 151.316 115.449 151.316 115.449 151.316C115.449 150.42 115.688 149.539 116.143 148.761C116.597 147.983 117.253 147.335 118.045 146.883Z" stroke="#F1C12B" stroke-width="3"/>
<path d="M14.0953 146.883L14.1043 146.878L14.1133 146.872L54.3282 123.186C55.1182 122.737 56.0148 122.5 56.9286 122.5C57.8423 122.5 58.7389 122.737 59.5289 123.185L99.7438 146.872L99.7528 146.878L99.7619 146.883C100.554 147.335 101.209 147.983 101.664 148.761C102.118 149.539 102.357 150.42 102.357 151.316V196.661C102.357 197.557 102.118 198.438 101.664 199.216C101.209 199.994 100.554 200.642 99.7619 201.094L99.7528 201.099L99.7438 201.104L59.5289 224.791C58.7389 225.24 57.8423 225.477 56.9286 225.477C56.0148 225.477 55.1181 225.24 54.3282 224.791L14.1133 201.104L14.1043 201.099L14.0953 201.094C13.3034 200.642 12.648 199.994 12.1933 199.216C11.7387 198.438 11.5 197.557 11.5 196.661V151.316C11.5 151.316 11.5 151.316 11.5 151.316C11.5 150.42 11.7387 149.539 12.1933 148.761C12.648 147.983 13.3034 147.335 14.0953 146.883Z" stroke="#212151" stroke-width="3"/>
<path d="M68.5929 56.8828L68.602 56.8776L68.611 56.8723L108.826 33.1855C109.616 32.7368 110.513 32.5 111.426 32.5C112.34 32.5 113.237 32.7368 114.027 33.1855L154.242 56.8723L154.251 56.8776L154.26 56.8828C155.051 57.3345 155.707 57.9829 156.162 58.761C156.616 59.539 156.855 60.4201 156.855 61.3159V106.661C156.855 107.557 156.616 108.438 156.162 109.216C155.707 109.994 155.051 110.642 154.26 111.094L154.251 111.099L154.242 111.104L114.027 134.791C113.237 135.24 112.34 135.477 111.426 135.477C110.513 135.477 109.616 135.24 108.826 134.791L68.611 111.104L68.602 111.099L68.5929 111.094C67.801 110.642 67.1457 109.994 66.691 109.216C66.2363 108.438 65.9977 107.557 65.9977 106.661V61.3159C65.9977 61.3159 65.9977 61.3159 65.9977 61.3159C65.9977 60.4201 66.2363 59.539 66.691 58.761C67.1457 57.9829 67.801 57.3345 68.5929 56.8828Z" stroke="#212151" stroke-width="3"/>
<path d="M310.695 259.128C310.012 259.128 309.671 258.776 309.671 258.072V249.432H306.551C305.964 249.432 305.671 249.144 305.671 248.568C305.671 248.003 305.964 247.72 306.551 247.72H314.839C315.425 247.72 315.719 248.003 315.719 248.568C315.719 249.144 315.425 249.432 314.839 249.432H311.719V258.072C311.719 258.776 311.377 259.128 310.695 259.128ZM321.257 259.16C320.169 259.16 319.214 258.92 318.393 258.44C317.582 257.96 316.953 257.288 316.505 256.424C316.057 255.549 315.833 254.525 315.833 253.352C315.833 252.168 316.057 251.144 316.505 250.28C316.953 249.416 317.582 248.749 318.393 248.28C319.203 247.8 320.158 247.56 321.257 247.56C322.355 247.56 323.31 247.8 324.121 248.28C324.931 248.749 325.561 249.416 326.009 250.28C326.457 251.144 326.681 252.163 326.681 253.336C326.681 254.52 326.457 255.549 326.009 256.424C325.561 257.288 324.931 257.96 324.121 258.44C323.31 258.92 322.355 259.16 321.257 259.16ZM321.257 257.4C322.291 257.4 323.097 257.043 323.673 256.328C324.249 255.613 324.537 254.621 324.537 253.352C324.537 252.072 324.249 251.08 323.673 250.376C323.107 249.672 322.302 249.32 321.257 249.32C320.222 249.32 319.417 249.672 318.841 250.376C318.265 251.08 317.977 252.072 317.977 253.352C317.977 254.621 318.265 255.613 318.841 256.328C319.417 257.043 320.222 257.4 321.257 257.4ZM329.787 259.128C329.105 259.128 328.763 258.776 328.763 258.072V248.632C328.763 247.939 329.105 247.592 329.787 247.592C330.47 247.592 330.811 247.939 330.811 248.632V252.712H330.843L335.435 248.104C335.606 247.933 335.777 247.805 335.947 247.72C336.118 247.635 336.31 247.592 336.523 247.592C336.833 247.592 337.051 247.672 337.179 247.832C337.318 247.992 337.371 248.179 337.339 248.392C337.318 248.605 337.217 248.803 337.035 248.984L332.827 253.144L337.259 257.64C337.483 257.853 337.601 258.077 337.611 258.312C337.622 258.547 337.547 258.744 337.387 258.904C337.238 259.053 337.014 259.128 336.715 259.128C336.459 259.128 336.251 259.075 336.091 258.968C335.942 258.861 335.766 258.707 335.563 258.504L330.843 253.784H330.811V258.072C330.811 258.776 330.47 259.128 329.787 259.128ZM340.492 259C339.767 259 339.404 258.637 339.404 257.912V248.808C339.404 248.083 339.767 247.72 340.492 247.72H346.204C346.759 247.72 347.036 247.987 347.036 248.52C347.036 249.075 346.759 249.352 346.204 249.352H341.372V252.456H345.852C346.407 252.456 346.684 252.728 346.684 253.272C346.684 253.816 346.407 254.088 345.852 254.088H341.372V257.368H346.204C346.759 257.368 347.036 257.64 347.036 258.184C347.036 258.728 346.759 259 346.204 259H340.492ZM349.911 259.128C349.271 259.128 348.951 258.797 348.951 258.136V248.616C348.951 248.285 349.031 248.035 349.191 247.864C349.361 247.683 349.58 247.592 349.847 247.592C350.092 247.592 350.273 247.64 350.391 247.736C350.519 247.821 350.668 247.971 350.839 248.184L356.551 255.592V248.568C356.551 247.917 356.871 247.592 357.511 247.592C358.14 247.592 358.455 247.917 358.455 248.568V258.168C358.455 258.467 358.38 258.701 358.231 258.872C358.081 259.043 357.879 259.128 357.623 259.128C357.377 259.128 357.18 259.08 357.031 258.984C356.892 258.888 356.737 258.733 356.567 258.52L350.855 251.096V258.136C350.855 258.797 350.54 259.128 349.911 259.128ZM366.287 259.128C365.605 259.128 365.263 258.776 365.263 258.072V248.76C365.263 248.067 365.61 247.72 366.303 247.72H370.159C371.397 247.72 372.351 248.029 373.023 248.648C373.695 249.267 374.031 250.131 374.031 251.24C374.031 252.349 373.695 253.219 373.023 253.848C372.351 254.467 371.397 254.776 370.159 254.776H367.311V258.072C367.311 258.776 366.97 259.128 366.287 259.128ZM367.311 253.16H369.839C371.311 253.16 372.047 252.52 372.047 251.24C372.047 249.971 371.311 249.336 369.839 249.336H367.311V253.16ZM376.725 259.128C376.042 259.128 375.701 258.776 375.701 258.072V248.76C375.701 248.067 376.047 247.72 376.741 247.72H380.597C381.834 247.72 382.789 248.019 383.461 248.616C384.133 249.203 384.469 250.029 384.469 251.096C384.469 251.939 384.25 252.637 383.813 253.192C383.375 253.736 382.746 254.104 381.925 254.296C382.469 254.467 382.917 254.877 383.269 255.528L384.469 257.752C384.65 258.093 384.682 258.408 384.565 258.696C384.458 258.984 384.186 259.128 383.749 259.128C383.461 259.128 383.226 259.069 383.045 258.952C382.863 258.824 382.703 258.632 382.565 258.376L380.949 255.4C380.757 255.037 380.527 254.797 380.261 254.68C380.005 254.552 379.674 254.488 379.269 254.488H377.749V258.072C377.749 258.776 377.407 259.128 376.725 259.128ZM377.749 252.968H380.245C381.738 252.968 382.485 252.36 382.485 251.144C382.485 249.939 381.738 249.336 380.245 249.336H377.749V252.968ZM387.758 259C387.032 259 386.67 258.637 386.67 257.912V248.808C386.67 248.083 387.032 247.72 387.758 247.72H393.47C394.024 247.72 394.302 247.987 394.302 248.52C394.302 249.075 394.024 249.352 393.47 249.352H388.638V252.456H393.118C393.672 252.456 393.95 252.728 393.95 253.272C393.95 253.816 393.672 254.088 393.118 254.088H388.638V257.368H393.47C394.024 257.368 394.302 257.64 394.302 258.184C394.302 258.728 394.024 259 393.47 259H387.758ZM399.948 259.16C399.233 259.16 398.535 259.08 397.852 258.92C397.18 258.76 396.593 258.52 396.092 258.2C395.847 258.04 395.697 257.843 395.644 257.608C395.591 257.373 395.607 257.155 395.692 256.952C395.788 256.739 395.932 256.595 396.124 256.52C396.327 256.435 396.556 256.472 396.812 256.632C397.281 256.909 397.777 257.112 398.3 257.24C398.823 257.368 399.372 257.432 399.948 257.432C400.791 257.432 401.404 257.293 401.788 257.016C402.172 256.728 402.364 256.36 402.364 255.912C402.364 255.539 402.225 255.245 401.948 255.032C401.681 254.819 401.217 254.643 400.556 254.504L398.796 254.136C396.791 253.709 395.788 252.68 395.788 251.048C395.788 250.344 395.975 249.731 396.348 249.208C396.721 248.685 397.239 248.28 397.9 247.992C398.561 247.704 399.324 247.56 400.188 247.56C400.828 247.56 401.436 247.64 402.012 247.8C402.588 247.96 403.105 248.195 403.564 248.504C403.777 248.653 403.905 248.84 403.948 249.064C403.991 249.277 403.964 249.48 403.868 249.672C403.772 249.853 403.617 249.981 403.404 250.056C403.201 250.12 402.961 250.072 402.684 249.912C402.289 249.688 401.889 249.528 401.484 249.432C401.079 249.336 400.641 249.288 400.172 249.288C399.436 249.288 398.86 249.443 398.444 249.752C398.028 250.061 397.82 250.467 397.82 250.968C397.82 251.352 397.948 251.661 398.204 251.896C398.46 252.12 398.897 252.296 399.516 252.424L401.26 252.792C402.316 253.016 403.1 253.368 403.612 253.848C404.135 254.328 404.396 254.968 404.396 255.768C404.396 256.44 404.215 257.032 403.852 257.544C403.489 258.056 402.972 258.456 402.3 258.744C401.639 259.021 400.855 259.16 399.948 259.16ZM406.188 259.128C405.814 259.128 405.548 259 405.388 258.744C405.228 258.488 405.233 258.179 405.404 257.816L409.628 248.456C409.766 248.147 409.932 247.928 410.124 247.8C410.326 247.661 410.556 247.592 410.812 247.592C411.057 247.592 411.276 247.661 411.468 247.8C411.67 247.928 411.841 248.147 411.98 248.456L416.22 257.816C416.39 258.189 416.401 258.504 416.252 258.76C416.102 259.005 415.846 259.128 415.484 259.128C415.185 259.128 414.95 259.059 414.78 258.92C414.62 258.771 414.476 258.547 414.348 258.248L413.548 256.392H408.044L407.26 258.248C407.121 258.557 406.977 258.781 406.828 258.92C406.678 259.059 406.465 259.128 406.188 259.128ZM410.78 249.944L408.748 254.76H412.844L410.812 249.944H410.78ZM419.022 259C418.329 259 417.982 258.648 417.982 257.944V248.712C417.982 248.019 418.323 247.672 419.006 247.672C419.689 247.672 420.03 248.019 420.03 248.712V257.256H424.67C425.267 257.256 425.566 257.544 425.566 258.12C425.566 258.707 425.267 259 424.67 259H419.022ZM428.054 259C427.329 259 426.966 258.637 426.966 257.912V248.808C426.966 248.083 427.329 247.72 428.054 247.72H433.766C434.321 247.72 434.598 247.987 434.598 248.52C434.598 249.075 434.321 249.352 433.766 249.352H428.934V252.456H433.414C433.969 252.456 434.246 252.728 434.246 253.272C434.246 253.816 433.969 254.088 433.414 254.088H428.934V257.368H433.766C434.321 257.368 434.598 257.64 434.598 258.184C434.598 258.728 434.321 259 433.766 259H428.054Z" fill="white"/>
<path d="M348.441 181C348.099 181 347.849 180.925 347.689 180.776C347.539 180.616 347.465 180.387 347.465 180.088C347.465 179.907 347.513 179.731 347.609 179.56C347.705 179.389 347.843 179.208 348.025 179.016L351.241 175.592C351.731 175.08 352.083 174.616 352.297 174.2C352.51 173.773 352.617 173.347 352.617 172.92C352.617 171.832 351.961 171.288 350.649 171.288C350.286 171.288 349.923 171.341 349.561 171.448C349.198 171.544 348.83 171.715 348.457 171.96C348.222 172.12 348.003 172.168 347.801 172.104C347.598 172.04 347.443 171.912 347.337 171.72C347.23 171.517 347.193 171.304 347.225 171.08C347.267 170.856 347.406 170.664 347.641 170.504C348.099 170.195 348.611 169.96 349.177 169.8C349.753 169.64 350.329 169.56 350.905 169.56C352.11 169.56 353.033 169.832 353.673 170.376C354.323 170.92 354.649 171.699 354.649 172.712C354.649 173.395 354.483 174.051 354.153 174.68C353.833 175.309 353.326 175.987 352.633 176.712L350.153 179.304H354.329C354.915 179.304 355.209 179.581 355.209 180.136C355.209 180.712 354.915 181 354.329 181H348.441ZM360.706 181.16C359.373 181.16 358.354 180.659 357.65 179.656C356.946 178.643 356.594 177.203 356.594 175.336C356.594 173.448 356.946 172.013 357.65 171.032C358.354 170.051 359.373 169.56 360.706 169.56C362.05 169.56 363.069 170.051 363.762 171.032C364.466 172.013 364.818 173.443 364.818 175.32C364.818 177.197 364.466 178.643 363.762 179.656C363.058 180.659 362.04 181.16 360.706 181.16ZM360.706 179.48C361.432 179.48 361.965 179.144 362.306 178.472C362.658 177.8 362.834 176.749 362.834 175.32C362.834 173.891 362.658 172.856 362.306 172.216C361.965 171.565 361.432 171.24 360.706 171.24C359.992 171.24 359.458 171.565 359.106 172.216C358.754 172.856 358.578 173.891 358.578 175.32C358.578 176.749 358.754 177.8 359.106 178.472C359.458 179.144 359.992 179.48 360.706 179.48ZM367.996 181C367.409 181 367.116 180.712 367.116 180.136C367.116 179.581 367.409 179.304 367.996 179.304H369.788V172.056L368.428 172.872C368.172 173.021 367.937 173.059 367.724 172.984C367.521 172.909 367.367 172.776 367.26 172.584C367.153 172.392 367.121 172.184 367.164 171.96C367.207 171.725 367.356 171.533 367.612 171.384L369.82 170.056C370.033 169.928 370.247 169.821 370.46 169.736C370.673 169.64 370.871 169.592 371.052 169.592C371.276 169.592 371.463 169.656 371.612 169.784C371.761 169.901 371.836 170.099 371.836 170.376V179.304H373.468C374.055 179.304 374.348 179.581 374.348 180.136C374.348 180.712 374.055 181 373.468 181H367.996ZM379.014 181.16C378.555 181.16 378.08 181.091 377.59 180.952C377.099 180.803 376.64 180.584 376.214 180.296C376.011 180.157 375.888 179.981 375.846 179.768C375.814 179.544 375.846 179.336 375.942 179.144C376.038 178.941 376.182 178.808 376.374 178.744C376.576 178.669 376.806 178.707 377.062 178.856C377.424 179.069 377.766 179.219 378.086 179.304C378.406 179.389 378.726 179.432 379.046 179.432C379.974 179.432 380.683 179.107 381.174 178.456C381.664 177.805 381.91 176.835 381.91 175.544V175.08C381.686 175.667 381.323 176.125 380.822 176.456C380.32 176.787 379.744 176.952 379.094 176.952C378.454 176.952 377.878 176.797 377.366 176.488C376.864 176.179 376.47 175.752 376.182 175.208C375.894 174.653 375.75 174.029 375.75 173.336C375.75 172.6 375.904 171.949 376.214 171.384C376.534 170.819 376.976 170.376 377.542 170.056C378.107 169.725 378.752 169.56 379.478 169.56C380.875 169.56 381.952 170.051 382.71 171.032C383.478 172.003 383.862 173.379 383.862 175.16C383.862 177.069 383.435 178.547 382.582 179.592C381.728 180.637 380.539 181.16 379.014 181.16ZM379.606 175.32C380.182 175.32 380.646 175.128 380.998 174.744C381.36 174.36 381.542 173.859 381.542 173.24C381.542 172.621 381.36 172.125 380.998 171.752C380.646 171.368 380.182 171.176 379.606 171.176C379.03 171.176 378.56 171.368 378.198 171.752C377.846 172.125 377.67 172.621 377.67 173.24C377.67 173.859 377.846 174.36 378.198 174.744C378.56 175.128 379.03 175.32 379.606 175.32Z" fill="#F1C12B"/>
<g filter="url(#filter0_d)">
<path d="M323.07 146.88L323.079 146.875L323.088 146.869L362.935 123.182C363.715 122.735 364.6 122.5 365.5 122.5C366.4 122.5 367.285 122.735 368.065 123.182L407.912 146.869L407.921 146.875L407.93 146.88C408.712 147.33 409.361 147.977 409.812 148.756C410.263 149.534 410.5 150.417 410.5 151.316V196.661C410.5 197.559 410.263 198.442 409.812 199.221C409.361 200 408.712 200.647 407.93 201.097L407.921 201.102L407.912 201.107L368.064 224.794C367.284 225.241 366.4 225.477 365.5 225.477C364.6 225.477 363.716 225.241 362.936 224.794L323.088 201.107L323.079 201.102L323.07 201.097C322.288 200.647 321.639 200 321.188 199.221C320.737 198.442 320.5 197.559 320.5 196.661V151.316C320.5 151.316 320.5 151.316 320.5 151.316C320.5 150.417 320.737 149.534 321.188 148.756C321.639 147.977 322.288 147.33 323.07 146.88Z" stroke="#F1C12B" stroke-width="3"/>
</g>
<path d="M220.07 146.88L220.079 146.875L220.088 146.869L259.935 123.182C260.715 122.735 261.6 122.5 262.5 122.5C263.4 122.5 264.285 122.735 265.065 123.182L304.912 146.869L304.921 146.875L304.93 146.88C305.712 147.33 306.361 147.977 306.812 148.756C307.263 149.534 307.5 150.417 307.5 151.316V196.661C307.5 197.559 307.263 198.442 306.812 199.221C306.361 200 305.712 200.647 304.93 201.097L304.921 201.102L304.912 201.107L265.064 224.794C264.284 225.241 263.4 225.477 262.5 225.477C261.6 225.477 260.716 225.241 259.936 224.794L220.088 201.107L220.079 201.102L220.07 201.097C219.288 200.647 218.639 200 218.188 199.221C217.737 198.442 217.5 197.559 217.5 196.661V151.316C217.5 151.316 217.5 151.316 217.5 151.316C217.5 150.417 217.737 149.534 218.188 148.756C218.639 147.977 219.288 147.33 220.07 146.88Z" stroke="#212151" stroke-width="3"/>
<path d="M271.07 56.8799L271.079 56.8746L271.088 56.8693L310.935 33.1825C311.715 32.7355 312.6 32.5 313.5 32.5C314.4 32.5 315.285 32.7355 316.065 33.1825L355.912 56.8693L355.921 56.8746L355.93 56.8799C356.712 57.33 357.361 57.9772 357.812 58.7559C358.263 59.5345 358.5 60.4174 358.5 61.3159V106.661C358.5 107.559 358.263 108.442 357.812 109.221C357.361 110 356.712 110.647 355.93 111.097L355.921 111.102L355.912 111.107L316.064 134.794C315.284 135.241 314.4 135.477 313.5 135.477C312.6 135.477 311.716 135.241 310.936 134.794L271.088 111.107L271.079 111.102L271.07 111.097C270.288 110.647 269.639 110 269.188 109.221C268.737 108.442 268.5 107.559 268.5 106.661V61.3159C268.5 61.3159 268.5 61.3159 268.5 61.3159C268.5 60.4174 268.737 59.5345 269.188 58.7559C269.639 57.9772 270.288 57.33 271.07 56.8799Z" stroke="#212151" stroke-width="3"/>
</g>
<defs>
<filter id="filter0_d" x="279" y="81" width="173" height="185.977" filterUnits="userSpaceOnUse" color-interpolation-filters="sRGB">
<feFlood flood-opacity="0" result="BackgroundImageFix"/>
<feColorMatrix in="SourceAlpha" type="matrix" values="0 0 0 0 0 0 0 0 0 0 0 0 0 0 0 0 0 0 127 0"/>
<feOffset/>
<feGaussianBlur stdDeviation="20"/>
<feColorMatrix type="matrix" values="0 0 0 0 0.945098 0 0 0 0 0.756863 0 0 0 0 0.168627 0 0 0 1 0"/>
<feBlend mode="normal" in2="BackgroundImageFix" result="effect1_dropShadow"/>
<feBlend mode="normal" in="SourceGraphic" in2="effect1_dropShadow" result="shape"/>
</filter>
<clipPath id="clip0">
<rect width="446" height="302" fill="white"/>
</clipPath>
</defs>
</svg>
