<svg width="254" height="240" viewBox="0 0 254 240" fill="none" xmlns="http://www.w3.org/2000/svg">
<path d="M80.9276 229.08C80.6076 229.08 80.3516 228.989 80.1596 228.808C79.9783 228.616 79.8876 228.365 79.8876 228.056V219.416H76.9756C76.3356 219.416 76.0156 219.133 76.0156 218.568C76.0156 218.003 76.3356 217.72 76.9756 217.72H84.8636C85.5036 217.72 85.8236 218.003 85.8236 218.568C85.8236 219.133 85.5036 219.416 84.8636 219.416H81.9516V228.056C81.9516 228.365 81.8556 228.616 81.6636 228.808C81.4823 228.989 81.237 229.08 80.9276 229.08ZM91.3963 229.144C90.2976 229.144 89.3429 228.909 88.5323 228.44C87.7323 227.971 87.1136 227.299 86.6763 226.424C86.2389 225.549 86.0203 224.525 86.0203 223.352C86.0203 222.179 86.2336 221.16 86.6603 220.296C87.0976 219.421 87.7216 218.749 88.5323 218.28C89.3429 217.811 90.2976 217.576 91.3963 217.576C92.4949 217.576 93.4443 217.811 94.2443 218.28C95.0549 218.749 95.6736 219.421 96.1003 220.296C96.5376 221.16 96.7563 222.179 96.7563 223.352C96.7563 224.525 96.5376 225.549 96.1003 226.424C95.6629 227.299 95.0389 227.971 94.2283 228.44C93.4283 228.909 92.4843 229.144 91.3963 229.144ZM91.3963 227.496C92.4309 227.496 93.2363 227.139 93.8123 226.424C94.3989 225.709 94.6923 224.685 94.6923 223.352C94.6923 222.019 94.3989 221 93.8123 220.296C93.2363 219.581 92.4309 219.224 91.3963 219.224C90.3509 219.224 89.5349 219.581 88.9483 220.296C88.3723 221 88.0843 222.019 88.0843 223.352C88.0843 224.685 88.3723 225.709 88.9483 226.424C89.5349 227.139 90.3509 227.496 91.3963 227.496ZM107.593 227.448C107.806 227.651 107.913 227.88 107.913 228.136C107.913 228.381 107.817 228.6 107.625 228.792C107.444 228.973 107.225 229.064 106.969 229.064C106.702 229.064 106.457 228.952 106.233 228.728L100.905 223.736V228.056C100.905 228.365 100.809 228.616 100.617 228.808C100.436 229 100.185 229.096 99.865 229.096C99.5557 229.096 99.305 229 99.113 228.808C98.9317 228.616 98.841 228.365 98.841 228.056V218.664C98.841 218.355 98.9317 218.109 99.113 217.928C99.305 217.736 99.5557 217.64 99.865 217.64C100.185 217.64 100.436 217.736 100.617 217.928C100.809 218.109 100.905 218.355 100.905 218.664V222.776L106.057 217.944C106.249 217.752 106.468 217.656 106.713 217.656C106.958 217.656 107.172 217.752 107.353 217.944C107.545 218.125 107.641 218.339 107.641 218.584C107.641 218.829 107.534 219.053 107.321 219.256L103.017 223.192L107.593 227.448ZM110.396 229C110.086 229 109.841 228.915 109.66 228.744C109.489 228.573 109.404 228.333 109.404 228.024V218.696C109.404 218.387 109.489 218.147 109.66 217.976C109.841 217.805 110.086 217.72 110.396 217.72H116.172C116.481 217.72 116.721 217.789 116.892 217.928C117.062 218.067 117.148 218.264 117.148 218.52C117.148 218.787 117.062 218.995 116.892 219.144C116.721 219.283 116.481 219.352 116.172 219.352H111.42V222.456H115.852C116.161 222.456 116.401 222.525 116.572 222.664C116.742 222.803 116.828 223.005 116.828 223.272C116.828 223.528 116.742 223.725 116.572 223.864C116.401 224.003 116.161 224.072 115.852 224.072H111.42V227.368H116.172C116.481 227.368 116.721 227.443 116.892 227.592C117.062 227.731 117.148 227.933 117.148 228.2C117.148 228.456 117.062 228.653 116.892 228.792C116.721 228.931 116.481 229 116.172 229H110.396ZM127.369 217.64C127.668 217.64 127.903 217.736 128.073 217.928C128.255 218.109 128.345 218.355 128.345 218.664V228.056C128.345 228.365 128.255 228.616 128.073 228.808C127.892 229 127.657 229.096 127.369 229.096C127.028 229.096 126.767 228.973 126.585 228.728L120.745 221.128V228.056C120.745 228.365 120.66 228.616 120.489 228.808C120.319 229 120.084 229.096 119.785 229.096C119.487 229.096 119.252 229 119.081 228.808C118.911 228.616 118.825 228.365 118.825 228.056V218.664C118.825 218.355 118.916 218.109 119.097 217.928C119.279 217.736 119.519 217.64 119.817 217.64C120.148 217.64 120.404 217.763 120.585 218.008L126.409 225.576V218.664C126.409 218.355 126.495 218.109 126.665 217.928C126.847 217.736 127.081 217.64 127.369 217.64ZM140.162 229.144C139.074 229.144 138.12 228.909 137.298 228.44C136.488 227.971 135.864 227.299 135.426 226.424C134.989 225.549 134.77 224.525 134.77 223.352C134.77 222.179 134.989 221.16 135.426 220.296C135.864 219.421 136.488 218.749 137.298 218.28C138.12 217.811 139.074 217.576 140.162 217.576C140.866 217.576 141.528 217.683 142.146 217.896C142.765 218.099 143.314 218.397 143.794 218.792C143.933 218.899 144.029 219.011 144.082 219.128C144.136 219.245 144.162 219.389 144.162 219.56C144.162 219.795 144.098 219.992 143.97 220.152C143.842 220.312 143.688 220.392 143.506 220.392C143.293 220.392 143.074 220.317 142.85 220.168C142.392 219.827 141.965 219.592 141.57 219.464C141.176 219.325 140.738 219.256 140.258 219.256C139.149 219.256 138.306 219.603 137.73 220.296C137.165 220.989 136.882 222.008 136.882 223.352C136.882 224.707 137.165 225.731 137.73 226.424C138.306 227.117 139.149 227.464 140.258 227.464C140.717 227.464 141.138 227.395 141.522 227.256C141.917 227.117 142.36 226.883 142.85 226.552C142.957 226.488 143.064 226.435 143.17 226.392C143.277 226.349 143.389 226.328 143.506 226.328C143.688 226.328 143.842 226.408 143.97 226.568C144.098 226.728 144.162 226.925 144.162 227.16C144.162 227.32 144.136 227.464 144.082 227.592C144.029 227.709 143.933 227.821 143.794 227.928C143.314 228.323 142.765 228.627 142.146 228.84C141.528 229.043 140.866 229.144 140.162 229.144ZM154.99 227.704C155.118 227.896 155.182 228.083 155.182 228.264C155.182 228.509 155.081 228.712 154.878 228.872C154.686 229.032 154.457 229.112 154.19 229.112C154.019 229.112 153.854 229.075 153.694 229C153.545 228.915 153.417 228.792 153.31 228.632L151.182 225.4C150.969 225.059 150.739 224.819 150.494 224.68C150.259 224.541 149.95 224.472 149.566 224.472H147.998V228.056C147.998 228.376 147.907 228.632 147.726 228.824C147.545 229.005 147.299 229.096 146.99 229.096C146.681 229.096 146.43 229.005 146.238 228.824C146.057 228.632 145.966 228.376 145.966 228.056V218.696C145.966 218.387 146.051 218.147 146.222 217.976C146.403 217.805 146.649 217.72 146.958 217.72H150.958C152.238 217.72 153.209 218.008 153.87 218.584C154.542 219.149 154.878 219.971 154.878 221.048C154.878 221.923 154.627 222.643 154.126 223.208C153.635 223.763 152.937 224.12 152.03 224.28C152.339 224.355 152.611 224.488 152.846 224.68C153.081 224.872 153.31 225.139 153.534 225.48L154.99 227.704ZM150.67 222.888C151.449 222.888 152.019 222.744 152.382 222.456C152.745 222.157 152.926 221.704 152.926 221.096C152.926 220.477 152.745 220.029 152.382 219.752C152.019 219.464 151.449 219.32 150.67 219.32H147.982V222.888H150.67ZM158.083 229C157.774 229 157.528 228.915 157.347 228.744C157.176 228.573 157.091 228.333 157.091 228.024V218.696C157.091 218.387 157.176 218.147 157.347 217.976C157.528 217.805 157.774 217.72 158.083 217.72H163.859C164.168 217.72 164.408 217.789 164.579 217.928C164.75 218.067 164.835 218.264 164.835 218.52C164.835 218.787 164.75 218.995 164.579 219.144C164.408 219.283 164.168 219.352 163.859 219.352H159.107V222.456H163.539C163.848 222.456 164.088 222.525 164.259 222.664C164.43 222.803 164.515 223.005 164.515 223.272C164.515 223.528 164.43 223.725 164.259 223.864C164.088 224.003 163.848 224.072 163.539 224.072H159.107V227.368H163.859C164.168 227.368 164.408 227.443 164.579 227.592C164.75 227.731 164.835 227.933 164.835 228.2C164.835 228.456 164.75 228.653 164.579 228.792C164.408 228.931 164.168 229 163.859 229H158.083ZM176.549 227.768C176.613 227.907 176.645 228.045 176.645 228.184C176.645 228.429 176.544 228.637 176.341 228.808C176.149 228.979 175.925 229.064 175.669 229.064C175.499 229.064 175.339 229.021 175.189 228.936C175.04 228.84 174.923 228.696 174.837 228.504L173.877 226.36H168.245L167.285 228.504C167.2 228.696 167.083 228.84 166.933 228.936C166.784 229.021 166.619 229.064 166.437 229.064C166.192 229.064 165.968 228.979 165.765 228.808C165.563 228.637 165.461 228.429 165.461 228.184C165.461 228.045 165.493 227.907 165.557 227.768L169.973 218.28C170.069 218.067 170.213 217.907 170.405 217.8C170.608 217.683 170.821 217.624 171.045 217.624C171.269 217.624 171.477 217.683 171.669 217.8C171.872 217.907 172.021 218.067 172.117 218.28L176.549 227.768ZM168.949 224.76H173.173L171.061 220.008L168.949 224.76ZM180.506 229.08C180.186 229.08 179.93 228.989 179.738 228.808C179.556 228.616 179.466 228.365 179.466 228.056V219.416H176.554C175.914 219.416 175.594 219.133 175.594 218.568C175.594 218.003 175.914 217.72 176.554 217.72H184.442C185.082 217.72 185.402 218.003 185.402 218.568C185.402 219.133 185.082 219.416 184.442 219.416H181.53V228.056C181.53 228.365 181.434 228.616 181.242 228.808C181.06 228.989 180.815 229.08 180.506 229.08ZM187.646 229.096C187.337 229.096 187.086 229 186.894 228.808C186.713 228.616 186.622 228.365 186.622 228.056V218.664C186.622 218.355 186.713 218.109 186.894 217.928C187.086 217.736 187.337 217.64 187.646 217.64C187.966 217.64 188.217 217.736 188.398 217.928C188.59 218.109 188.686 218.355 188.686 218.664V228.056C188.686 228.365 188.59 228.616 188.398 228.808C188.217 229 187.966 229.096 187.646 229.096ZM196.146 229.144C195.048 229.144 194.093 228.909 193.282 228.44C192.482 227.971 191.864 227.299 191.426 226.424C190.989 225.549 190.77 224.525 190.77 223.352C190.77 222.179 190.984 221.16 191.41 220.296C191.848 219.421 192.472 218.749 193.282 218.28C194.093 217.811 195.048 217.576 196.146 217.576C197.245 217.576 198.194 217.811 198.994 218.28C199.805 218.749 200.424 219.421 200.85 220.296C201.288 221.16 201.506 222.179 201.506 223.352C201.506 224.525 201.288 225.549 200.85 226.424C200.413 227.299 199.789 227.971 198.978 228.44C198.178 228.909 197.234 229.144 196.146 229.144ZM196.146 227.496C197.181 227.496 197.986 227.139 198.562 226.424C199.149 225.709 199.442 224.685 199.442 223.352C199.442 222.019 199.149 221 198.562 220.296C197.986 219.581 197.181 219.224 196.146 219.224C195.101 219.224 194.285 219.581 193.698 220.296C193.122 221 192.834 222.019 192.834 223.352C192.834 224.685 193.122 225.709 193.698 226.424C194.285 227.139 195.101 227.496 196.146 227.496ZM212.135 217.64C212.434 217.64 212.668 217.736 212.839 217.928C213.02 218.109 213.111 218.355 213.111 218.664V228.056C213.111 228.365 213.02 228.616 212.839 228.808C212.658 229 212.423 229.096 212.135 229.096C211.794 229.096 211.532 228.973 211.351 228.728L205.511 221.128V228.056C205.511 228.365 205.426 228.616 205.255 228.808C205.084 229 204.85 229.096 204.551 229.096C204.252 229.096 204.018 229 203.847 228.808C203.676 228.616 203.591 228.365 203.591 228.056V218.664C203.591 218.355 203.682 218.109 203.863 217.928C204.044 217.736 204.284 217.64 204.583 217.64C204.914 217.64 205.17 217.763 205.351 218.008L211.175 225.576V218.664C211.175 218.355 211.26 218.109 211.431 217.928C211.612 217.736 211.847 217.64 212.135 217.64Z" fill="white"/>
<path d="M139.265 155.336C139.905 155.336 140.225 155.608 140.225 156.152C140.225 156.717 139.905 157 139.265 157H133.185C132.908 157 132.689 156.92 132.529 156.76C132.369 156.589 132.289 156.381 132.289 156.136C132.289 155.816 132.412 155.528 132.657 155.272L136.305 151.352C136.753 150.861 137.078 150.413 137.281 150.008C137.494 149.592 137.601 149.181 137.601 148.776C137.601 148.275 137.457 147.891 137.169 147.624C136.881 147.357 136.47 147.224 135.937 147.224C135.5 147.224 135.073 147.309 134.657 147.48C134.252 147.64 133.841 147.864 133.425 148.152C133.318 148.227 133.212 148.291 133.105 148.344C132.998 148.387 132.892 148.408 132.785 148.408C132.604 148.408 132.444 148.323 132.305 148.152C132.177 147.981 132.113 147.779 132.113 147.544C132.113 147.384 132.14 147.245 132.193 147.128C132.257 147.011 132.353 146.899 132.481 146.792C132.95 146.419 133.5 146.125 134.129 145.912C134.758 145.688 135.388 145.576 136.017 145.576C137.116 145.576 137.99 145.853 138.641 146.408C139.302 146.963 139.633 147.709 139.633 148.648C139.633 149.299 139.494 149.912 139.217 150.488C138.94 151.053 138.47 151.688 137.809 152.392L135.041 155.336H139.265ZM145.706 157.144C144.373 157.144 143.354 156.653 142.65 155.672C141.946 154.68 141.594 153.24 141.594 151.352C141.594 149.475 141.946 148.045 142.65 147.064C143.354 146.072 144.373 145.576 145.706 145.576C147.04 145.576 148.058 146.072 148.762 147.064C149.466 148.045 149.818 149.475 149.818 151.352C149.818 153.229 149.466 154.664 148.762 155.656C148.058 156.648 147.04 157.144 145.706 157.144ZM145.706 155.528C146.432 155.528 146.96 155.197 147.29 154.536C147.621 153.864 147.786 152.803 147.786 151.352C147.786 149.891 147.621 148.835 147.29 148.184C146.96 147.523 146.432 147.192 145.706 147.192C144.981 147.192 144.453 147.523 144.122 148.184C143.792 148.845 143.626 149.901 143.626 151.352C143.626 152.803 143.792 153.864 144.122 154.536C144.453 155.197 144.981 155.528 145.706 155.528ZM158.468 155.336C159.108 155.336 159.428 155.608 159.428 156.152C159.428 156.717 159.108 157 158.468 157H152.388C152.111 157 151.892 156.92 151.732 156.76C151.572 156.589 151.492 156.381 151.492 156.136C151.492 155.816 151.615 155.528 151.86 155.272L155.508 151.352C155.956 150.861 156.281 150.413 156.484 150.008C156.697 149.592 156.804 149.181 156.804 148.776C156.804 148.275 156.66 147.891 156.372 147.624C156.084 147.357 155.673 147.224 155.14 147.224C154.703 147.224 154.276 147.309 153.86 147.48C153.455 147.64 153.044 147.864 152.628 148.152C152.521 148.227 152.415 148.291 152.308 148.344C152.201 148.387 152.095 148.408 151.988 148.408C151.807 148.408 151.647 148.323 151.508 148.152C151.38 147.981 151.316 147.779 151.316 147.544C151.316 147.384 151.343 147.245 151.396 147.128C151.46 147.011 151.556 146.899 151.684 146.792C152.153 146.419 152.703 146.125 153.332 145.912C153.961 145.688 154.591 145.576 155.22 145.576C156.319 145.576 157.193 145.853 157.844 146.408C158.505 146.963 158.836 147.709 158.836 148.648C158.836 149.299 158.697 149.912 158.42 150.488C158.143 151.053 157.673 151.688 157.012 152.392L154.244 155.336H158.468ZM168.125 155.336C168.765 155.336 169.085 155.608 169.085 156.152C169.085 156.717 168.765 157 168.125 157H162.717C162.067 157 161.741 156.717 161.741 156.152C161.741 155.608 162.067 155.336 162.717 155.336H164.381V148.04L162.845 148.984C162.696 149.069 162.563 149.112 162.445 149.112C162.221 149.112 162.029 149.016 161.869 148.824C161.72 148.632 161.645 148.419 161.645 148.184C161.645 147.875 161.784 147.635 162.061 147.464L164.541 145.928C164.861 145.736 165.165 145.64 165.453 145.64C165.752 145.64 165.992 145.731 166.173 145.912C166.355 146.093 166.445 146.344 166.445 146.664V155.336H168.125Z" fill="#F1C12B"/>
<path d="M136.727 139.096C135.905 139.128 135.495 138.845 135.495 138.248C135.495 137.992 135.564 137.8 135.703 137.672C135.831 137.533 136.039 137.453 136.327 137.432L136.839 137.4C137.276 137.379 137.607 137.24 137.831 136.984C138.055 136.728 138.167 136.339 138.167 135.816V128.664C138.167 128.355 138.257 128.109 138.439 127.928C138.631 127.736 138.881 127.64 139.191 127.64C139.511 127.64 139.761 127.736 139.943 127.928C140.135 128.109 140.231 128.355 140.231 128.664V135.816C140.231 137.832 139.233 138.915 137.239 139.064L136.727 139.096ZM152.893 137.768C152.957 137.907 152.989 138.045 152.989 138.184C152.989 138.429 152.888 138.637 152.685 138.808C152.493 138.979 152.269 139.064 152.013 139.064C151.842 139.064 151.682 139.021 151.533 138.936C151.384 138.84 151.266 138.696 151.181 138.504L150.221 136.36H144.589L143.629 138.504C143.544 138.696 143.426 138.84 143.277 138.936C143.128 139.021 142.962 139.064 142.781 139.064C142.536 139.064 142.312 138.979 142.109 138.808C141.906 138.637 141.805 138.429 141.805 138.184C141.805 138.045 141.837 137.907 141.901 137.768L146.317 128.28C146.413 128.067 146.557 127.907 146.749 127.8C146.952 127.683 147.165 127.624 147.389 127.624C147.613 127.624 147.821 127.683 148.013 127.8C148.216 127.907 148.365 128.067 148.461 128.28L152.893 137.768ZM145.293 134.76H149.517L147.405 130.008L145.293 134.76ZM163.088 127.64C163.387 127.64 163.621 127.736 163.792 127.928C163.973 128.109 164.064 128.355 164.064 128.664V138.056C164.064 138.365 163.973 138.616 163.792 138.808C163.611 139 163.376 139.096 163.088 139.096C162.747 139.096 162.485 138.973 162.304 138.728L156.464 131.128V138.056C156.464 138.365 156.379 138.616 156.208 138.808C156.037 139 155.803 139.096 155.504 139.096C155.205 139.096 154.971 139 154.8 138.808C154.629 138.616 154.544 138.365 154.544 138.056V128.664C154.544 128.355 154.635 128.109 154.816 127.928C154.997 127.736 155.237 127.64 155.536 127.64C155.867 127.64 156.123 127.763 156.304 128.008L162.128 135.576V128.664C162.128 128.355 162.213 128.109 162.384 127.928C162.565 127.736 162.8 127.64 163.088 127.64Z" fill="#F1C12B"/>
<g filter="url(#filter0_d)">
<path d="M108.07 115.88L108.079 115.875L108.088 115.869L147.935 92.1825C148.715 91.7355 149.6 91.5 150.5 91.5C151.4 91.5 152.285 91.7355 153.065 92.1825L192.912 115.869L192.921 115.875L192.93 115.88C193.712 116.33 194.361 116.977 194.812 117.756C195.263 118.534 195.5 119.417 195.5 120.316V165.661C195.5 166.559 195.263 167.442 194.812 168.221C194.361 169 193.712 169.647 192.93 170.097L192.921 170.102L192.912 170.107L153.064 193.794C152.284 194.241 151.4 194.477 150.5 194.477C149.6 194.477 148.716 194.241 147.936 193.794L108.088 170.107L108.079 170.102L108.07 170.097C107.288 169.647 106.639 169 106.188 168.221C105.737 167.442 105.5 166.559 105.5 165.661V120.316C105.5 120.316 105.5 120.316 105.5 120.316C105.5 119.417 105.737 118.534 106.188 117.756C106.639 116.977 107.288 116.33 108.07 115.88Z" stroke="#F1C12B" stroke-width="3"/>
</g>
<path d="M165.07 25.8799L165.079 25.8746L165.088 25.8693L204.935 2.18248C205.715 1.73546 206.6 1.5 207.5 1.5C208.4 1.5 209.285 1.73546 210.065 2.18248L249.912 25.8693L249.921 25.8746L249.93 25.8799C250.712 26.33 251.361 26.9772 251.812 27.7559C252.263 28.5345 252.5 29.4174 252.5 30.3159V75.6608C252.5 76.5593 252.263 77.4422 251.812 78.2209C251.361 78.9995 250.712 79.6467 249.93 80.0968L249.921 80.1021L249.912 80.1074L210.064 103.794C209.284 104.241 208.4 104.477 207.5 104.477C206.6 104.477 205.716 104.241 204.936 103.794L165.088 80.1074L165.079 80.1021L165.07 80.0968C164.288 79.6467 163.639 78.9995 163.188 78.2209C162.737 77.4422 162.5 76.5593 162.5 75.6608V30.3159C162.5 30.3159 162.5 30.3159 162.5 30.3159C162.5 29.4174 162.737 28.5345 163.188 27.7559C163.639 26.9772 164.288 26.33 165.07 25.8799Z" stroke="#212151" stroke-width="3"/>
<path d="M4.06979 115.88L4.07888 115.875L4.08789 115.869L43.9355 92.1825C44.7154 91.7355 45.5997 91.5 46.5 91.5C47.4003 91.5 48.2846 91.7355 49.0645 92.1825L88.9121 115.869L88.9211 115.875L88.9302 115.88C89.7122 116.33 90.361 116.977 90.8119 117.756C91.2628 118.534 91.5 119.417 91.5 120.316V165.661C91.5 166.559 91.2628 167.442 90.8119 168.221C90.361 169 89.7122 169.647 88.9302 170.097L88.9211 170.102L88.9121 170.107L49.0643 193.794C48.2844 194.241 47.4002 194.477 46.5 194.477C45.5998 194.477 44.7156 194.241 43.9357 193.794L4.08789 170.107L4.07888 170.102L4.06979 170.097C3.28781 169.647 2.63898 169 2.1881 168.221C1.73723 167.442 1.50002 166.559 1.5 165.661V120.316C1.5 120.316 1.5 120.316 1.5 120.316C1.50003 119.417 1.73723 118.534 2.1881 117.756C2.63899 116.977 3.28782 116.33 4.06979 115.88Z" stroke="#212151" stroke-width="3"/>
<defs>
<filter id="filter0_d" x="64" y="50" width="173" height="185.977" filterUnits="userSpaceOnUse" color-interpolation-filters="sRGB">
<feFlood flood-opacity="0" result="BackgroundImageFix"/>
<feColorMatrix in="SourceAlpha" type="matrix" values="0 0 0 0 0 0 0 0 0 0 0 0 0 0 0 0 0 0 127 0"/>
<feOffset/>
<feGaussianBlur stdDeviation="20"/>
<feColorMatrix type="matrix" values="0 0 0 0 0.945098 0 0 0 0 0.756863 0 0 0 0 0.168627 0 0 0 1 0"/>
<feBlend mode="normal" in2="BackgroundImageFix" result="effect1_dropShadow"/>
<feBlend mode="normal" in="SourceGraphic" in2="effect1_dropShadow" result="shape"/>
</filter>
</defs>
</svg>
