<svg width="350" height="236" viewBox="0 0 350 236" fill="none" xmlns="http://www.w3.org/2000/svg">
<path d="M138.223 180C137.617 180 137.313 179.692 137.313 179.076V170.998C137.313 170.391 137.612 170.088 138.209 170.088C138.807 170.088 139.105 170.391 139.105 170.998V178.474H143.165C143.688 178.474 143.949 178.726 143.949 179.23C143.949 179.743 143.688 180 143.165 180H138.223ZM145.068 180.112C144.741 180.112 144.508 180 144.368 179.776C144.228 179.552 144.232 179.281 144.382 178.964L148.078 170.774C148.199 170.503 148.344 170.312 148.512 170.2C148.689 170.079 148.89 170.018 149.114 170.018C149.328 170.018 149.52 170.079 149.688 170.2C149.865 170.312 150.014 170.503 150.136 170.774L153.846 178.964C153.995 179.291 154.004 179.566 153.874 179.79C153.743 180.005 153.519 180.112 153.202 180.112C152.94 180.112 152.735 180.051 152.586 179.93C152.446 179.799 152.32 179.603 152.208 179.342L151.508 177.718H146.692L146.006 179.342C145.884 179.613 145.758 179.809 145.628 179.93C145.497 180.051 145.31 180.112 145.068 180.112ZM149.086 172.076L147.308 176.29H150.892L149.114 172.076H149.086ZM159.421 180.14C158.068 180.14 157.032 179.79 156.313 179.09C155.604 178.381 155.249 177.335 155.249 175.954V170.928C155.249 170.321 155.548 170.018 156.145 170.018C156.743 170.018 157.041 170.321 157.041 170.928V175.94C157.041 176.827 157.242 177.494 157.643 177.942C158.054 178.381 158.647 178.6 159.421 178.6C160.999 178.6 161.787 177.713 161.787 175.94V170.928C161.787 170.321 162.086 170.018 162.683 170.018C163.271 170.018 163.565 170.321 163.565 170.928V175.954C163.565 177.335 163.215 178.381 162.515 179.09C161.815 179.79 160.784 180.14 159.421 180.14ZM166.495 180.112C165.935 180.112 165.655 179.823 165.655 179.244V170.914C165.655 170.625 165.725 170.405 165.865 170.256C166.014 170.097 166.206 170.018 166.439 170.018C166.654 170.018 166.812 170.06 166.915 170.144C167.027 170.219 167.158 170.349 167.307 170.536L172.305 177.018V170.872C172.305 170.303 172.585 170.018 173.145 170.018C173.696 170.018 173.971 170.303 173.971 170.872V179.272C173.971 179.533 173.906 179.739 173.775 179.888C173.644 180.037 173.467 180.112 173.243 180.112C173.028 180.112 172.856 180.07 172.725 179.986C172.604 179.902 172.468 179.767 172.319 179.58L167.321 173.084V179.244C167.321 179.823 167.046 180.112 166.495 180.112ZM180.72 180.14C179.693 180.14 178.811 179.935 178.074 179.524C177.346 179.104 176.786 178.516 176.394 177.76C176.002 176.995 175.806 176.094 175.806 175.058C175.806 174.022 176.002 173.126 176.394 172.37C176.786 171.614 177.346 171.031 178.074 170.62C178.811 170.2 179.693 169.99 180.72 169.99C181.233 169.99 181.737 170.055 182.232 170.186C182.726 170.317 183.16 170.503 183.534 170.746C183.776 170.905 183.921 171.096 183.968 171.32C184.014 171.535 183.986 171.735 183.884 171.922C183.781 172.099 183.627 172.221 183.422 172.286C183.216 172.342 182.988 172.286 182.736 172.118C182.446 171.931 182.134 171.796 181.798 171.712C181.462 171.628 181.121 171.586 180.776 171.586C179.777 171.586 179.016 171.889 178.494 172.496C177.971 173.093 177.71 173.947 177.71 175.058C177.71 176.169 177.971 177.027 178.494 177.634C179.016 178.241 179.777 178.544 180.776 178.544C181.13 178.544 181.48 178.502 181.826 178.418C182.171 178.325 182.498 178.185 182.806 177.998C183.058 177.839 183.282 177.788 183.478 177.844C183.674 177.9 183.818 178.017 183.912 178.194C184.014 178.362 184.047 178.549 184.01 178.754C183.972 178.959 183.846 179.141 183.632 179.3C183.258 179.571 182.81 179.781 182.288 179.93C181.774 180.07 181.252 180.14 180.72 180.14ZM186.539 180.112C185.942 180.112 185.643 179.804 185.643 179.188V170.942C185.643 170.326 185.942 170.018 186.539 170.018C187.137 170.018 187.435 170.326 187.435 170.942V174.246H192.517V170.942C192.517 170.326 192.816 170.018 193.413 170.018C194.011 170.018 194.309 170.326 194.309 170.942V179.188C194.309 179.804 194.011 180.112 193.413 180.112C192.816 180.112 192.517 179.804 192.517 179.188V175.744H187.435V179.188C187.435 179.804 187.137 180.112 186.539 180.112ZM200.608 180.112C200.375 180.112 200.184 180.051 200.034 179.93C199.885 179.799 199.796 179.641 199.768 179.454C199.75 179.258 199.815 179.062 199.964 178.866L202.876 174.974L200.118 171.278C199.969 171.073 199.904 170.877 199.922 170.69C199.941 170.494 200.025 170.335 200.174 170.214C200.324 170.083 200.51 170.018 200.734 170.018C201.08 170.018 201.392 170.209 201.672 170.592L203.898 173.672L206.124 170.592C206.404 170.209 206.722 170.018 207.076 170.018C207.31 170.018 207.501 170.079 207.65 170.2C207.8 170.321 207.884 170.48 207.902 170.676C207.921 170.863 207.851 171.063 207.692 171.278L204.934 174.974L207.832 178.866C207.982 179.062 208.047 179.258 208.028 179.454C208.01 179.641 207.926 179.799 207.776 179.93C207.627 180.051 207.431 180.112 207.188 180.112C206.852 180.112 206.54 179.916 206.25 179.524L203.898 176.304L201.56 179.524C201.271 179.916 200.954 180.112 200.608 180.112ZM213.874 180.14C212.847 180.14 211.965 179.935 211.228 179.524C210.5 179.104 209.94 178.516 209.548 177.76C209.156 176.995 208.96 176.094 208.96 175.058C208.96 174.022 209.156 173.126 209.548 172.37C209.94 171.614 210.5 171.031 211.228 170.62C211.965 170.2 212.847 169.99 213.874 169.99C214.387 169.99 214.891 170.055 215.386 170.186C215.881 170.317 216.315 170.503 216.688 170.746C216.931 170.905 217.075 171.096 217.122 171.32C217.169 171.535 217.141 171.735 217.038 171.922C216.935 172.099 216.781 172.221 216.576 172.286C216.371 172.342 216.142 172.286 215.89 172.118C215.601 171.931 215.288 171.796 214.952 171.712C214.616 171.628 214.275 171.586 213.93 171.586C212.931 171.586 212.171 171.889 211.648 172.496C211.125 173.093 210.864 173.947 210.864 175.058C210.864 176.169 211.125 177.027 211.648 177.634C212.171 178.241 212.931 178.544 213.93 178.544C214.285 178.544 214.635 178.502 214.98 178.418C215.325 178.325 215.652 178.185 215.96 177.998C216.212 177.839 216.436 177.788 216.632 177.844C216.828 177.9 216.973 178.017 217.066 178.194C217.169 178.362 217.201 178.549 217.164 178.754C217.127 178.959 217.001 179.141 216.786 179.3C216.413 179.571 215.965 179.781 215.442 179.93C214.929 180.07 214.406 180.14 213.874 180.14ZM219.75 180C219.115 180 218.798 179.683 218.798 179.048V171.082C218.798 170.447 219.115 170.13 219.75 170.13H224.748C225.233 170.13 225.476 170.363 225.476 170.83C225.476 171.315 225.233 171.558 224.748 171.558H220.52V174.274H224.44C224.925 174.274 225.168 174.512 225.168 174.988C225.168 175.464 224.925 175.702 224.44 175.702H220.52V178.572H224.748C225.233 178.572 225.476 178.81 225.476 179.286C225.476 179.762 225.233 180 224.748 180H219.75ZM228.061 180C227.455 180 227.151 179.692 227.151 179.076V170.998C227.151 170.391 227.45 170.088 228.047 170.088C228.645 170.088 228.943 170.391 228.943 170.998V178.474H233.003C233.526 178.474 233.787 178.726 233.787 179.23C233.787 179.743 233.526 180 233.003 180H228.061ZM235.965 180C235.33 180 235.013 179.683 235.013 179.048V171.082C235.013 170.447 235.33 170.13 235.965 170.13H238.681C240.333 170.13 241.607 170.555 242.503 171.404C243.408 172.253 243.861 173.471 243.861 175.058C243.861 176.635 243.408 177.853 242.503 178.712C241.607 179.571 240.333 180 238.681 180H235.965ZM236.805 178.516H238.569C240.846 178.516 241.985 177.363 241.985 175.058C241.985 172.762 240.846 171.614 238.569 171.614H236.805V178.516ZM246.629 180C245.994 180 245.677 179.683 245.677 179.048V171.082C245.677 170.447 245.994 170.13 246.629 170.13H251.627C252.112 170.13 252.355 170.363 252.355 170.83C252.355 171.315 252.112 171.558 251.627 171.558H247.399V174.274H251.319C251.804 174.274 252.047 174.512 252.047 174.988C252.047 175.464 251.804 175.702 251.319 175.702H247.399V178.572H251.627C252.112 178.572 252.355 178.81 252.355 179.286C252.355 179.762 252.112 180 251.627 180H246.629ZM254.954 180.112C254.338 180.112 254.03 179.795 254.03 179.16V171.082C254.03 170.447 254.347 170.13 254.982 170.13H259.868C260.353 170.13 260.596 170.363 260.596 170.83C260.596 171.315 260.353 171.558 259.868 171.558H255.822V174.344H259.574C260.059 174.344 260.302 174.577 260.302 175.044C260.302 175.529 260.059 175.772 259.574 175.772H255.822V179.16C255.822 179.795 255.533 180.112 254.954 180.112ZM262.787 180.112C262.19 180.112 261.891 179.804 261.891 179.188V170.942C261.891 170.326 262.19 170.018 262.787 170.018C263.385 170.018 263.683 170.326 263.683 170.942V179.188C263.683 179.804 263.385 180.112 262.787 180.112ZM173.345 200.112C172.869 200.112 172.542 199.86 172.365 199.356L169.439 191.082C169.336 190.783 169.355 190.531 169.495 190.326C169.644 190.121 169.892 190.018 170.237 190.018C170.489 190.018 170.685 190.079 170.825 190.2C170.965 190.312 171.077 190.494 171.161 190.746L173.401 197.41L175.753 190.76C175.93 190.265 176.229 190.018 176.649 190.018C176.873 190.018 177.05 190.079 177.181 190.2C177.312 190.321 177.424 190.513 177.517 190.774L179.827 197.508L182.137 190.746C182.221 190.503 182.333 190.321 182.473 190.2C182.613 190.079 182.804 190.018 183.047 190.018C183.346 190.018 183.565 190.121 183.705 190.326C183.845 190.531 183.864 190.783 183.761 191.082L180.807 199.37C180.714 199.622 180.592 199.809 180.443 199.93C180.294 200.051 180.093 200.112 179.841 200.112C179.589 200.112 179.388 200.051 179.239 199.93C179.09 199.809 178.968 199.617 178.875 199.356L176.593 192.874L174.297 199.37C174.204 199.622 174.082 199.809 173.933 199.93C173.793 200.051 173.597 200.112 173.345 200.112ZM186.411 200C185.776 200 185.459 199.683 185.459 199.048V191.082C185.459 190.447 185.776 190.13 186.411 190.13H191.409C191.894 190.13 192.137 190.363 192.137 190.83C192.137 191.315 191.894 191.558 191.409 191.558H187.181V194.274H191.101C191.586 194.274 191.829 194.512 191.829 194.988C191.829 195.464 191.586 195.702 191.101 195.702H187.181V198.572H191.409C191.894 198.572 192.137 198.81 192.137 199.286C192.137 199.762 191.894 200 191.409 200H186.411ZM194.764 200C194.13 200 193.812 199.683 193.812 199.048V191.082C193.812 190.447 194.13 190.13 194.764 190.13H198.124C199.16 190.13 199.963 190.359 200.532 190.816C201.102 191.264 201.386 191.889 201.386 192.692C201.386 193.224 201.251 193.681 200.98 194.064C200.71 194.447 200.336 194.727 199.86 194.904C200.42 195.063 200.854 195.343 201.162 195.744C201.48 196.136 201.638 196.635 201.638 197.242C201.638 198.119 201.34 198.801 200.742 199.286C200.154 199.762 199.333 200 198.278 200H194.764ZM195.534 194.316H197.816C199.039 194.316 199.65 193.845 199.65 192.902C199.65 191.959 199.039 191.488 197.816 191.488H195.534V194.316ZM195.534 198.642H198.054C199.286 198.642 199.902 198.147 199.902 197.158C199.902 196.169 199.286 195.674 198.054 195.674H195.534V198.642ZM206.853 200.14C206.228 200.14 205.616 200.07 205.019 199.93C204.431 199.79 203.918 199.58 203.479 199.3C203.264 199.16 203.134 198.987 203.087 198.782C203.04 198.577 203.054 198.385 203.129 198.208C203.213 198.021 203.339 197.895 203.507 197.83C203.684 197.755 203.885 197.788 204.109 197.928C204.52 198.171 204.954 198.348 205.411 198.46C205.868 198.572 206.349 198.628 206.853 198.628C207.59 198.628 208.127 198.507 208.463 198.264C208.799 198.012 208.967 197.69 208.967 197.298C208.967 196.971 208.846 196.715 208.603 196.528C208.37 196.341 207.964 196.187 207.385 196.066L205.845 195.744C204.09 195.371 203.213 194.47 203.213 193.042C203.213 192.426 203.376 191.889 203.703 191.432C204.03 190.975 204.482 190.62 205.061 190.368C205.64 190.116 206.307 189.99 207.063 189.99C207.623 189.99 208.155 190.06 208.659 190.2C209.163 190.34 209.616 190.545 210.017 190.816C210.204 190.947 210.316 191.11 210.353 191.306C210.39 191.493 210.367 191.67 210.283 191.838C210.199 191.997 210.064 192.109 209.877 192.174C209.7 192.23 209.49 192.188 209.247 192.048C208.902 191.852 208.552 191.712 208.197 191.628C207.842 191.544 207.46 191.502 207.049 191.502C206.405 191.502 205.901 191.637 205.537 191.908C205.173 192.179 204.991 192.533 204.991 192.972C204.991 193.308 205.103 193.579 205.327 193.784C205.551 193.98 205.934 194.134 206.475 194.246L208.001 194.568C208.925 194.764 209.611 195.072 210.059 195.492C210.516 195.912 210.745 196.472 210.745 197.172C210.745 197.76 210.586 198.278 210.269 198.726C209.952 199.174 209.499 199.524 208.911 199.776C208.332 200.019 207.646 200.14 206.853 200.14ZM213.179 200.112C212.582 200.112 212.283 199.804 212.283 199.188V190.942C212.283 190.326 212.582 190.018 213.179 190.018C213.776 190.018 214.075 190.326 214.075 190.942V199.188C214.075 199.804 213.776 200.112 213.179 200.112ZM219.51 200.112C218.913 200.112 218.614 199.804 218.614 199.188V191.628H215.884C215.371 191.628 215.114 191.376 215.114 190.872C215.114 190.377 215.371 190.13 215.884 190.13H223.136C223.65 190.13 223.906 190.377 223.906 190.872C223.906 191.376 223.65 191.628 223.136 191.628H220.406V199.188C220.406 199.804 220.108 200.112 219.51 200.112ZM225.882 200C225.247 200 224.93 199.683 224.93 199.048V191.082C224.93 190.447 225.247 190.13 225.882 190.13H230.88C231.365 190.13 231.608 190.363 231.608 190.83C231.608 191.315 231.365 191.558 230.88 191.558H226.652V194.274H230.572C231.057 194.274 231.3 194.512 231.3 194.988C231.3 195.464 231.057 195.702 230.572 195.702H226.652V198.572H230.88C231.365 198.572 231.608 198.81 231.608 199.286C231.608 199.762 231.365 200 230.88 200H225.882Z" fill="white"/>
<path d="M189.265 107.336C189.905 107.336 190.225 107.608 190.225 108.152C190.225 108.717 189.905 109 189.265 109H183.185C182.908 109 182.689 108.92 182.529 108.76C182.369 108.589 182.289 108.381 182.289 108.136C182.289 107.816 182.412 107.528 182.657 107.272L186.305 103.352C186.753 102.861 187.078 102.413 187.281 102.008C187.494 101.592 187.601 101.181 187.601 100.776C187.601 100.275 187.457 99.8907 187.169 99.624C186.881 99.3573 186.47 99.224 185.937 99.224C185.5 99.224 185.073 99.3093 184.657 99.48C184.252 99.64 183.841 99.864 183.425 100.152C183.318 100.227 183.212 100.291 183.105 100.344C182.998 100.387 182.892 100.408 182.785 100.408C182.604 100.408 182.444 100.323 182.305 100.152C182.177 99.9813 182.113 99.7787 182.113 99.544C182.113 99.384 182.14 99.2453 182.193 99.128C182.257 99.0107 182.353 98.8987 182.481 98.792C182.95 98.4187 183.5 98.1253 184.129 97.912C184.758 97.688 185.388 97.576 186.017 97.576C187.116 97.576 187.99 97.8533 188.641 98.408C189.302 98.9627 189.633 99.7093 189.633 100.648C189.633 101.299 189.494 101.912 189.217 102.488C188.94 103.053 188.47 103.688 187.809 104.392L185.041 107.336H189.265ZM195.706 109.144C194.373 109.144 193.354 108.653 192.65 107.672C191.946 106.68 191.594 105.24 191.594 103.352C191.594 101.475 191.946 100.045 192.65 99.064C193.354 98.072 194.373 97.576 195.706 97.576C197.04 97.576 198.058 98.072 198.762 99.064C199.466 100.045 199.818 101.475 199.818 103.352C199.818 105.229 199.466 106.664 198.762 107.656C198.058 108.648 197.04 109.144 195.706 109.144ZM195.706 107.528C196.432 107.528 196.96 107.197 197.29 106.536C197.621 105.864 197.786 104.803 197.786 103.352C197.786 101.891 197.621 100.835 197.29 100.184C196.96 99.5227 196.432 99.192 195.706 99.192C194.981 99.192 194.453 99.5227 194.122 100.184C193.792 100.845 193.626 101.901 193.626 103.352C193.626 104.803 193.792 105.864 194.122 106.536C194.453 107.197 194.981 107.528 195.706 107.528ZM208.468 107.336C209.108 107.336 209.428 107.608 209.428 108.152C209.428 108.717 209.108 109 208.468 109H202.388C202.111 109 201.892 108.92 201.732 108.76C201.572 108.589 201.492 108.381 201.492 108.136C201.492 107.816 201.615 107.528 201.86 107.272L205.508 103.352C205.956 102.861 206.281 102.413 206.484 102.008C206.697 101.592 206.804 101.181 206.804 100.776C206.804 100.275 206.66 99.8907 206.372 99.624C206.084 99.3573 205.673 99.224 205.14 99.224C204.703 99.224 204.276 99.3093 203.86 99.48C203.455 99.64 203.044 99.864 202.628 100.152C202.521 100.227 202.415 100.291 202.308 100.344C202.201 100.387 202.095 100.408 201.988 100.408C201.807 100.408 201.647 100.323 201.508 100.152C201.38 99.9813 201.316 99.7787 201.316 99.544C201.316 99.384 201.343 99.2453 201.396 99.128C201.46 99.0107 201.556 98.8987 201.684 98.792C202.153 98.4187 202.703 98.1253 203.332 97.912C203.961 97.688 204.591 97.576 205.22 97.576C206.319 97.576 207.193 97.8533 207.844 98.408C208.505 98.9627 208.836 99.7093 208.836 100.648C208.836 101.299 208.697 101.912 208.42 102.488C208.143 103.053 207.673 103.688 207.012 104.392L204.244 107.336H208.468ZM218.125 107.336C218.765 107.336 219.085 107.608 219.085 108.152C219.085 108.717 218.765 109 218.125 109H212.717C212.067 109 211.741 108.717 211.741 108.152C211.741 107.608 212.067 107.336 212.717 107.336H214.381V100.04L212.845 100.984C212.696 101.069 212.563 101.112 212.445 101.112C212.221 101.112 212.029 101.016 211.869 100.824C211.72 100.632 211.645 100.419 211.645 100.184C211.645 99.8747 211.784 99.6347 212.061 99.464L214.541 97.928C214.861 97.736 215.165 97.64 215.453 97.64C215.752 97.64 215.992 97.7307 216.173 97.912C216.355 98.0933 216.445 98.344 216.445 98.664V107.336H218.125Z" fill="#F1C12B"/>
<path d="M184.336 91.096C183.515 91.128 183.104 90.8453 183.104 90.248C183.104 89.992 183.173 89.8 183.312 89.672C183.44 89.5333 183.648 89.4533 183.936 89.432L184.448 89.4C184.885 89.3787 185.216 89.24 185.44 88.984C185.664 88.728 185.776 88.3387 185.776 87.816V80.664C185.776 80.3547 185.867 80.1093 186.048 79.928C186.24 79.736 186.491 79.64 186.8 79.64C187.12 79.64 187.371 79.736 187.552 79.928C187.744 80.1093 187.84 80.3547 187.84 80.664V87.816C187.84 89.832 186.843 90.9147 184.848 91.064L184.336 91.096ZM194.935 91.144C193.388 91.144 192.215 90.744 191.414 89.944C190.615 89.144 190.215 87.976 190.215 86.44V80.664C190.215 80.3547 190.305 80.1093 190.487 79.928C190.668 79.736 190.913 79.64 191.223 79.64C191.532 79.64 191.777 79.736 191.959 79.928C192.14 80.1093 192.231 80.3547 192.231 80.664V86.552C192.231 87.5227 192.46 88.2587 192.919 88.76C193.377 89.2507 194.049 89.496 194.935 89.496C195.809 89.496 196.476 89.2453 196.935 88.744C197.393 88.2427 197.623 87.512 197.623 86.552V80.664C197.623 80.3547 197.713 80.1093 197.895 79.928C198.076 79.736 198.321 79.64 198.631 79.64C198.94 79.64 199.185 79.736 199.367 79.928C199.548 80.1093 199.639 80.3547 199.639 80.664V86.44C199.639 87.9653 199.239 89.1333 198.439 89.944C197.639 90.744 196.471 91.144 194.935 91.144ZM202.989 91C202.68 91 202.44 90.9147 202.269 90.744C202.098 90.5733 202.013 90.3387 202.013 90.04V80.664C202.013 80.3547 202.104 80.1093 202.285 79.928C202.477 79.736 202.728 79.64 203.037 79.64C203.357 79.64 203.608 79.736 203.789 79.928C203.981 80.1093 204.077 80.3547 204.077 80.664V89.304H208.573C209.213 89.304 209.533 89.5867 209.533 90.152C209.533 90.7173 209.213 91 208.573 91H202.989ZM215.959 79.992C216.151 79.7573 216.38 79.64 216.647 79.64C216.892 79.64 217.111 79.736 217.303 79.928C217.495 80.1093 217.591 80.328 217.591 80.584C217.591 80.7973 217.511 81 217.351 81.192L213.719 85.624V90.056C213.719 90.3867 213.623 90.6427 213.431 90.824C213.239 91.0053 212.994 91.096 212.695 91.096C212.386 91.096 212.135 91.0053 211.943 90.824C211.751 90.6427 211.655 90.3867 211.655 90.056V85.624L208.023 81.192C207.863 81 207.783 80.7973 207.783 80.584C207.783 80.328 207.879 80.1093 208.071 79.928C208.263 79.736 208.482 79.64 208.727 79.64C208.994 79.64 209.223 79.7573 209.415 79.992L212.695 84.056L215.959 79.992Z" fill="#F1C12B"/>
<g filter="url(#filter0_d)">
<path d="M242.93 120.097L242.921 120.102L242.912 120.107L203.065 143.794C202.285 144.241 201.4 144.477 200.5 144.477C199.6 144.477 198.715 144.241 197.935 143.794L158.088 120.107L158.079 120.102L158.07 120.097C157.288 119.647 156.639 118.999 156.188 118.221C155.737 117.442 155.5 116.559 155.5 115.661V70.3158C155.5 69.4173 155.737 68.5343 156.188 67.7557C156.639 66.977 157.288 66.3299 158.07 65.8797L158.079 65.8745L158.088 65.8691L197.935 42.1824C198.715 41.7354 199.6 41.4999 200.5 41.4999C201.4 41.4999 202.285 41.7353 203.065 42.1824L242.912 65.8691L242.921 65.8745L242.93 65.8797C243.712 66.3299 244.361 66.977 244.812 67.7557C245.263 68.5343 245.5 69.4173 245.5 70.3157V115.661C245.5 115.661 245.5 115.661 245.5 115.661C245.5 116.559 245.263 117.442 244.812 118.221C244.361 118.999 243.712 119.647 242.93 120.097Z" stroke="#F1C12B" stroke-width="3"/>
</g>
<path d="M345.93 120.097L345.921 120.102L345.912 120.107L306.065 143.794C305.285 144.241 304.4 144.477 303.5 144.477C302.6 144.477 301.715 144.241 300.935 143.794L261.088 120.107L261.079 120.102L261.07 120.097C260.288 119.647 259.639 118.999 259.188 118.221C258.737 117.442 258.5 116.559 258.5 115.661V70.3158C258.5 69.4173 258.737 68.5343 259.188 67.7557C259.639 66.977 260.288 66.3299 261.07 65.8797L261.079 65.8745L261.088 65.8691L300.935 42.1824C301.715 41.7354 302.6 41.4999 303.5 41.4999C304.4 41.4999 305.285 41.7353 306.065 42.1824L345.912 65.8691L345.921 65.8745L345.93 65.8797C346.712 66.3299 347.361 66.977 347.812 67.7557C348.263 68.5343 348.5 69.4173 348.5 70.3157V115.661C348.5 115.661 348.5 115.661 348.5 115.661C348.5 116.559 348.263 117.442 347.812 118.221C347.361 118.999 346.712 119.647 345.93 120.097Z" stroke="#212151" stroke-width="3"/>
<path d="M139.93 120.097L139.921 120.102L139.912 120.107L100.065 143.794C99.2846 144.241 98.4003 144.477 97.5 144.477C96.5997 144.477 95.7154 144.241 94.9354 143.794L55.0879 120.107L55.0789 120.102L55.0698 120.097C54.2878 119.647 53.639 118.999 53.1881 118.221C52.7372 117.442 52.5 116.559 52.5 115.661V70.3158C52.5 69.4173 52.7372 68.5343 53.1881 67.7557C53.639 66.977 54.2878 66.3299 55.0698 65.8797L55.0789 65.8745L55.0879 65.8691L94.9353 42.1824C95.7153 41.7354 96.5996 41.4999 97.5 41.4999C98.4004 41.4999 99.2847 41.7353 100.065 42.1824L139.912 65.8691L139.921 65.8745L139.93 65.8797C140.712 66.3299 141.361 66.977 141.812 67.7557C142.263 68.5343 142.5 69.4173 142.5 70.3157V115.661C142.5 115.661 142.5 115.661 142.5 115.661C142.5 116.559 142.263 117.442 141.812 118.221C141.361 118.999 140.712 119.647 139.93 120.097Z" stroke="#212151" stroke-width="3"/>
<path d="M88.9302 210.097L88.9211 210.102L88.9121 210.107L49.0645 233.794C48.2846 234.241 47.4003 234.477 46.5 234.477C45.5997 234.477 44.7154 234.241 43.9354 233.794L4.08788 210.107L4.07887 210.102L4.06979 210.097C3.28781 209.647 2.63898 208.999 2.18809 208.221C1.73722 207.442 1.50002 206.559 1.5 205.661V160.316C1.50002 159.417 1.73722 158.534 2.18809 157.756C2.63897 156.977 3.2878 156.33 4.06979 155.88L4.07887 155.874L4.08788 155.869L43.9353 132.182C44.7153 131.735 45.5996 131.5 46.5 131.5C47.4004 131.5 48.2847 131.735 49.0647 132.182L88.9121 155.869L88.9211 155.874L88.9302 155.88C89.7122 156.33 90.361 156.977 90.8119 157.756C91.2628 158.534 91.5 159.417 91.5 160.316V205.661C91.5 205.661 91.5 205.661 91.5 205.661C91.5 206.559 91.2628 207.442 90.8119 208.221C90.361 208.999 89.7122 209.647 88.9302 210.097Z" stroke="#212151" stroke-width="3"/>
<defs>
<filter id="filter0_d" x="114" y="0" width="173" height="185.977" filterUnits="userSpaceOnUse" color-interpolation-filters="sRGB">
<feFlood flood-opacity="0" result="BackgroundImageFix"/>
<feColorMatrix in="SourceAlpha" type="matrix" values="0 0 0 0 0 0 0 0 0 0 0 0 0 0 0 0 0 0 127 0"/>
<feOffset/>
<feGaussianBlur stdDeviation="20"/>
<feColorMatrix type="matrix" values="0 0 0 0 0.945098 0 0 0 0 0.756863 0 0 0 0 0.168627 0 0 0 1 0"/>
<feBlend mode="normal" in2="BackgroundImageFix" result="effect1_dropShadow"/>
<feBlend mode="normal" in="SourceGraphic" in2="effect1_dropShadow" result="shape"/>
</filter>
</defs>
</svg>
