<svg width="326" height="302" viewBox="0 0 326 302" fill="none" xmlns="http://www.w3.org/2000/svg">
<g clip-path="url(#clip0)">
<path d="M-4.26594 192C-4.99127 192 -5.35394 191.638 -5.35394 190.912V181.808C-5.35394 181.083 -4.99127 180.72 -4.26594 180.72H1.44606C2.00073 180.72 2.27806 180.987 2.27806 181.52C2.27806 182.075 2.00073 182.352 1.44606 182.352H-3.38594V185.456H1.09406C1.64873 185.456 1.92606 185.728 1.92606 186.272C1.92606 186.816 1.64873 187.088 1.09406 187.088H-3.38594V190.368H1.44606C2.00073 190.368 2.27806 190.64 2.27806 191.184C2.27806 191.728 2.00073 192 1.44606 192H-4.26594ZM7.92469 192.16C7.21002 192.16 6.51135 192.08 5.82869 191.92C5.15669 191.76 4.57002 191.52 4.06869 191.2C3.82335 191.04 3.67402 190.843 3.62069 190.608C3.56735 190.374 3.58335 190.155 3.66869 189.952C3.76469 189.739 3.90869 189.595 4.10069 189.52C4.30335 189.435 4.53269 189.472 4.78869 189.632C5.25802 189.91 5.75402 190.112 6.27669 190.24C6.79935 190.368 7.34869 190.432 7.92469 190.432C8.76735 190.432 9.38069 190.294 9.76469 190.016C10.1487 189.728 10.3407 189.36 10.3407 188.912C10.3407 188.539 10.202 188.246 9.92469 188.032C9.65802 187.819 9.19402 187.643 8.53269 187.504L6.77269 187.136C4.76735 186.71 3.76469 185.68 3.76469 184.048C3.76469 183.344 3.95135 182.731 4.32469 182.208C4.69802 181.686 5.21535 181.28 5.87669 180.992C6.53802 180.704 7.30069 180.56 8.16469 180.56C8.80469 180.56 9.41269 180.64 9.98869 180.8C10.5647 180.96 11.082 181.195 11.5407 181.504C11.754 181.654 11.882 181.84 11.9247 182.064C11.9674 182.278 11.9407 182.48 11.8447 182.672C11.7487 182.854 11.594 182.982 11.3807 183.056C11.178 183.12 10.938 183.072 10.6607 182.912C10.266 182.688 9.86602 182.528 9.46069 182.432C9.05535 182.336 8.61802 182.288 8.14869 182.288C7.41269 182.288 6.83669 182.443 6.42069 182.752C6.00469 183.062 5.79669 183.467 5.79669 183.968C5.79669 184.352 5.92469 184.662 6.18069 184.896C6.43669 185.12 6.87402 185.296 7.49269 185.424L9.23669 185.792C10.2927 186.016 11.0767 186.368 11.5887 186.848C12.1114 187.328 12.3727 187.968 12.3727 188.768C12.3727 189.44 12.1914 190.032 11.8287 190.544C11.466 191.056 10.9487 191.456 10.2767 191.744C9.61535 192.022 8.83135 192.16 7.92469 192.16ZM17.6401 192.128C16.9574 192.128 16.6161 191.776 16.6161 191.072V182.432H13.4961C12.9094 182.432 12.6161 182.144 12.6161 181.568C12.6161 181.003 12.9094 180.72 13.4961 180.72H21.7841C22.3707 180.72 22.6641 181.003 22.6641 181.568C22.6641 182.144 22.3707 182.432 21.7841 182.432H18.6641V191.072C18.6641 191.776 18.3227 192.128 17.6401 192.128ZM22.6956 192.128C22.3222 192.128 22.0556 192 21.8956 191.744C21.7356 191.488 21.7409 191.179 21.9116 190.816L26.1356 181.456C26.2742 181.147 26.4396 180.928 26.6316 180.8C26.8342 180.662 27.0636 180.592 27.3196 180.592C27.5649 180.592 27.7836 180.662 27.9756 180.8C28.1782 180.928 28.3489 181.147 28.4876 181.456L32.7276 190.816C32.8982 191.19 32.9089 191.504 32.7596 191.76C32.6102 192.006 32.3542 192.128 31.9916 192.128C31.6929 192.128 31.4582 192.059 31.2876 191.92C31.1276 191.771 30.9836 191.547 30.8556 191.248L30.0556 189.392H24.5516L23.7676 191.248C23.6289 191.558 23.4849 191.782 23.3356 191.92C23.1862 192.059 22.9729 192.128 22.6956 192.128ZM27.2876 182.944L25.2556 187.76H29.3516L27.3196 182.944H27.2876ZM35.5778 192C34.8525 192 34.4898 191.638 34.4898 190.912V181.808C34.4898 181.083 34.8525 180.72 35.5778 180.72H39.4178C40.6018 180.72 41.5191 180.982 42.1698 181.504C42.8205 182.016 43.1458 182.731 43.1458 183.648C43.1458 184.256 42.9911 184.779 42.6818 185.216C42.3725 185.654 41.9458 185.974 41.4018 186.176C42.0418 186.358 42.5378 186.678 42.8898 187.136C43.2525 187.584 43.4338 188.155 43.4338 188.848C43.4338 189.851 43.0925 190.63 42.4098 191.184C41.7378 191.728 40.7991 192 39.5938 192H35.5778ZM36.4578 185.504H39.0658C40.4631 185.504 41.1618 184.966 41.1618 183.888C41.1618 182.811 40.4631 182.272 39.0658 182.272H36.4578V185.504ZM36.4578 190.448H39.3378C40.7458 190.448 41.4498 189.883 41.4498 188.752C41.4498 187.622 40.7458 187.056 39.3378 187.056H36.4578V190.448ZM46.5454 192C45.8521 192 45.5054 191.648 45.5054 190.944V181.712C45.5054 181.019 45.8468 180.672 46.5294 180.672C47.2121 180.672 47.5534 181.019 47.5534 181.712V190.256H52.1934C52.7908 190.256 53.0894 190.544 53.0894 191.12C53.0894 191.707 52.7908 192 52.1934 192H46.5454ZM55.5138 192.128C54.8311 192.128 54.4898 191.776 54.4898 191.072V181.648C54.4898 180.944 54.8311 180.592 55.5138 180.592C56.1965 180.592 56.5378 180.944 56.5378 181.648V191.072C56.5378 191.776 56.1965 192.128 55.5138 192.128ZM62.8934 192.16C62.1788 192.16 61.4801 192.08 60.7974 191.92C60.1254 191.76 59.5388 191.52 59.0374 191.2C58.7921 191.04 58.6428 190.843 58.5894 190.608C58.5361 190.374 58.5521 190.155 58.6374 189.952C58.7334 189.739 58.8774 189.595 59.0694 189.52C59.2721 189.435 59.5014 189.472 59.7574 189.632C60.2268 189.91 60.7228 190.112 61.2454 190.24C61.7681 190.368 62.3174 190.432 62.8934 190.432C63.7361 190.432 64.3494 190.294 64.7334 190.016C65.1174 189.728 65.3094 189.36 65.3094 188.912C65.3094 188.539 65.1708 188.246 64.8934 188.032C64.6268 187.819 64.1628 187.643 63.5014 187.504L61.7414 187.136C59.7361 186.71 58.7334 185.68 58.7334 184.048C58.7334 183.344 58.9201 182.731 59.2934 182.208C59.6668 181.686 60.1841 181.28 60.8454 180.992C61.5068 180.704 62.2694 180.56 63.1334 180.56C63.7734 180.56 64.3814 180.64 64.9574 180.8C65.5334 180.96 66.0508 181.195 66.5094 181.504C66.7228 181.654 66.8508 181.84 66.8934 182.064C66.9361 182.278 66.9094 182.48 66.8134 182.672C66.7174 182.854 66.5628 182.982 66.3494 183.056C66.1468 183.12 65.9068 183.072 65.6294 182.912C65.2348 182.688 64.8348 182.528 64.4294 182.432C64.0241 182.336 63.5868 182.288 63.1174 182.288C62.3814 182.288 61.8054 182.443 61.3894 182.752C60.9734 183.062 60.7654 183.467 60.7654 183.968C60.7654 184.352 60.8934 184.662 61.1494 184.896C61.4054 185.12 61.8428 185.296 62.4614 185.424L64.2054 185.792C65.2614 186.016 66.0454 186.368 66.5574 186.848C67.0801 187.328 67.3414 187.968 67.3414 188.768C67.3414 189.44 67.1601 190.032 66.7974 190.544C66.4348 191.056 65.9174 191.456 65.2454 191.744C64.5841 192.022 63.8001 192.16 62.8934 192.16ZM70.1232 192.128C69.4405 192.128 69.0992 191.776 69.0992 191.072V181.648C69.0992 180.944 69.4405 180.592 70.1232 180.592C70.8059 180.592 71.1472 180.944 71.1472 181.648V185.424H76.9552V181.648C76.9552 180.944 77.2965 180.592 77.9792 180.592C78.6619 180.592 79.0032 180.944 79.0032 181.648V191.072C79.0032 191.776 78.6619 192.128 77.9792 192.128C77.2965 192.128 76.9552 191.776 76.9552 191.072V187.136H71.1472V191.072C71.1472 191.776 70.8059 192.128 70.1232 192.128ZM82.4342 192.128C81.8155 192.128 81.5062 191.808 81.5062 191.168V181.552C81.5062 180.912 81.8262 180.592 82.4662 180.592C82.7329 180.592 82.9409 180.646 83.0902 180.752C83.2502 180.848 83.3942 181.019 83.5222 181.264L87.2182 188.096L90.9142 181.264C91.0422 181.019 91.1809 180.848 91.3302 180.752C91.4795 180.646 91.6875 180.592 91.9542 180.592C92.5729 180.592 92.8822 180.912 92.8822 181.552V191.168C92.8822 191.808 92.5729 192.128 91.9542 192.128C91.3355 192.128 91.0262 191.808 91.0262 191.168V184.4L88.0182 189.888C87.9115 190.07 87.7995 190.203 87.6822 190.288C87.5649 190.374 87.4049 190.416 87.2022 190.416C86.9995 190.416 86.8342 190.374 86.7062 190.288C86.5782 190.192 86.4662 190.059 86.3702 189.888L83.3622 184.432V191.168C83.3622 191.808 83.0529 192.128 82.4342 192.128ZM96.4528 192C95.7275 192 95.3648 191.638 95.3648 190.912V181.808C95.3648 181.083 95.7275 180.72 96.4528 180.72H102.165C102.719 180.72 102.997 180.987 102.997 181.52C102.997 182.075 102.719 182.352 102.165 182.352H97.3328V185.456H101.813C102.367 185.456 102.645 185.728 102.645 186.272C102.645 186.816 102.367 187.088 101.813 187.088H97.3328V190.368H102.165C102.719 190.368 102.997 190.64 102.997 191.184C102.997 191.728 102.719 192 102.165 192H96.4528ZM105.872 192.128C105.232 192.128 104.912 191.798 104.912 191.136V181.616C104.912 181.286 104.992 181.035 105.152 180.864C105.322 180.683 105.541 180.592 105.808 180.592C106.053 180.592 106.234 180.64 106.352 180.736C106.48 180.822 106.629 180.971 106.8 181.184L112.512 188.592V181.568C112.512 180.918 112.832 180.592 113.472 180.592C114.101 180.592 114.416 180.918 114.416 181.568V191.168C114.416 191.467 114.341 191.702 114.192 191.872C114.042 192.043 113.84 192.128 113.584 192.128C113.338 192.128 113.141 192.08 112.992 191.984C112.853 191.888 112.698 191.734 112.528 191.52L106.816 184.096V191.136C106.816 191.798 106.501 192.128 105.872 192.128ZM120.624 192.128C119.942 192.128 119.6 191.776 119.6 191.072V182.432H116.48C115.894 182.432 115.6 182.144 115.6 181.568C115.6 181.003 115.894 180.72 116.48 180.72H124.768C125.355 180.72 125.648 181.003 125.648 181.568C125.648 182.144 125.355 182.432 124.768 182.432H121.648V191.072C121.648 191.776 121.307 192.128 120.624 192.128Z" fill="white"/>
<path d="M211.208 192.128C210.568 192.128 210.248 191.798 210.248 191.136V181.616C210.248 181.286 210.328 181.035 210.488 180.864C210.658 180.683 210.877 180.592 211.144 180.592C211.389 180.592 211.57 180.64 211.688 180.736C211.816 180.822 211.965 180.971 212.136 181.184L217.848 188.592V181.568C217.848 180.918 218.168 180.592 218.808 180.592C219.437 180.592 219.752 180.918 219.752 181.568V191.168C219.752 191.467 219.677 191.702 219.528 191.872C219.378 192.043 219.176 192.128 218.92 192.128C218.674 192.128 218.477 192.08 218.328 191.984C218.189 191.888 218.034 191.734 217.864 191.52L212.152 184.096V191.136C212.152 191.798 211.837 192.128 211.208 192.128ZM223.272 192.128C222.568 192.128 222.216 191.766 222.216 191.04V181.808C222.216 181.083 222.579 180.72 223.304 180.72H228.888C229.443 180.72 229.72 180.987 229.72 181.52C229.72 182.075 229.443 182.352 228.888 182.352H224.264V185.536H228.552C229.107 185.536 229.384 185.803 229.384 186.336C229.384 186.891 229.107 187.168 228.552 187.168H224.264V191.04C224.264 191.766 223.934 192.128 223.272 192.128ZM235.07 192.128C234.387 192.128 234.046 191.776 234.046 191.072V182.432H230.926C230.339 182.432 230.046 182.144 230.046 181.568C230.046 181.003 230.339 180.72 230.926 180.72H239.214C239.8 180.72 240.094 181.003 240.094 181.568C240.094 182.144 239.8 182.432 239.214 182.432H236.094V191.072C236.094 191.776 235.752 192.128 235.07 192.128ZM246.647 192C245.954 192 245.607 191.648 245.607 190.944V181.712C245.607 181.019 245.948 180.672 246.631 180.672C247.314 180.672 247.655 181.019 247.655 181.712V190.256H252.295C252.892 190.256 253.191 190.544 253.191 191.12C253.191 191.707 252.892 192 252.295 192H246.647ZM254.469 192.128C254.096 192.128 253.829 192 253.669 191.744C253.509 191.488 253.514 191.179 253.685 190.816L257.909 181.456C258.048 181.147 258.213 180.928 258.405 180.8C258.608 180.662 258.837 180.592 259.093 180.592C259.338 180.592 259.557 180.662 259.749 180.8C259.952 180.928 260.122 181.147 260.261 181.456L264.501 190.816C264.672 191.19 264.682 191.504 264.533 191.76C264.384 192.006 264.128 192.128 263.765 192.128C263.466 192.128 263.232 192.059 263.061 191.92C262.901 191.771 262.757 191.547 262.629 191.248L261.829 189.392H256.325L255.541 191.248C255.402 191.558 255.258 191.782 255.109 191.92C254.96 192.059 254.746 192.128 254.469 192.128ZM259.061 182.944L257.029 187.76H261.125L259.093 182.944H259.061ZM270.873 192.16C269.326 192.16 268.142 191.76 267.321 190.96C266.51 190.15 266.105 188.955 266.105 187.376V181.632C266.105 180.939 266.446 180.592 267.129 180.592C267.812 180.592 268.153 180.939 268.153 181.632V187.36C268.153 188.374 268.382 189.136 268.841 189.648C269.31 190.15 269.988 190.4 270.873 190.4C272.676 190.4 273.577 189.387 273.577 187.36V181.632C273.577 180.939 273.918 180.592 274.601 180.592C275.273 180.592 275.609 180.939 275.609 181.632V187.376C275.609 188.955 275.209 190.15 274.409 190.96C273.609 191.76 272.43 192.16 270.873 192.16ZM278.958 192.128C278.318 192.128 277.998 191.798 277.998 191.136V181.616C277.998 181.286 278.078 181.035 278.238 180.864C278.408 180.683 278.627 180.592 278.894 180.592C279.139 180.592 279.32 180.64 279.438 180.736C279.566 180.822 279.715 180.971 279.886 181.184L285.598 188.592V181.568C285.598 180.918 285.918 180.592 286.558 180.592C287.187 180.592 287.502 180.918 287.502 181.568V191.168C287.502 191.467 287.427 191.702 287.278 191.872C287.128 192.043 286.926 192.128 286.67 192.128C286.424 192.128 286.227 192.08 286.078 191.984C285.939 191.888 285.784 191.734 285.614 191.52L279.902 184.096V191.136C279.902 191.798 279.587 192.128 278.958 192.128ZM295.214 192.16C294.041 192.16 293.033 191.926 292.19 191.456C291.358 190.976 290.718 190.304 290.27 189.44C289.822 188.566 289.598 187.536 289.598 186.352C289.598 185.168 289.822 184.144 290.27 183.28C290.718 182.416 291.358 181.75 292.19 181.28C293.033 180.8 294.041 180.56 295.214 180.56C295.801 180.56 296.377 180.635 296.942 180.784C297.508 180.934 298.004 181.147 298.43 181.424C298.708 181.606 298.873 181.824 298.926 182.08C298.98 182.326 298.948 182.555 298.83 182.768C298.713 182.971 298.537 183.11 298.302 183.184C298.068 183.248 297.806 183.184 297.518 182.992C297.188 182.779 296.83 182.624 296.446 182.528C296.062 182.432 295.673 182.384 295.278 182.384C294.137 182.384 293.268 182.731 292.67 183.424C292.073 184.107 291.774 185.083 291.774 186.352C291.774 187.622 292.073 188.603 292.67 189.296C293.268 189.99 294.137 190.336 295.278 190.336C295.684 190.336 296.084 190.288 296.478 190.192C296.873 190.086 297.246 189.926 297.598 189.712C297.886 189.531 298.142 189.472 298.366 189.536C298.59 189.6 298.756 189.734 298.862 189.936C298.98 190.128 299.017 190.342 298.974 190.576C298.932 190.811 298.788 191.019 298.542 191.2C298.116 191.51 297.604 191.75 297.006 191.92C296.42 192.08 295.822 192.16 295.214 192.16ZM301.865 192.128C301.183 192.128 300.841 191.776 300.841 191.072V181.648C300.841 180.944 301.183 180.592 301.865 180.592C302.548 180.592 302.889 180.944 302.889 181.648V185.424H308.697V181.648C308.697 180.944 309.039 180.592 309.721 180.592C310.404 180.592 310.745 180.944 310.745 181.648V191.072C310.745 191.776 310.404 192.128 309.721 192.128C309.039 192.128 308.697 191.776 308.697 191.072V187.136H302.889V191.072C302.889 191.776 302.548 192.128 301.865 192.128Z" fill="white"/>
<path d="M37.4405 112C37.0992 112 36.8485 111.926 36.6885 111.776C36.5392 111.616 36.4645 111.387 36.4645 111.088C36.4645 110.907 36.5125 110.731 36.6085 110.56C36.7045 110.39 36.8432 110.208 37.0245 110.016L40.2405 106.592C40.7312 106.08 41.0832 105.616 41.2965 105.2C41.5098 104.774 41.6165 104.347 41.6165 103.92C41.6165 102.832 40.9605 102.288 39.6485 102.288C39.2858 102.288 38.9232 102.342 38.5605 102.448C38.1978 102.544 37.8298 102.715 37.4565 102.96C37.2218 103.12 37.0032 103.168 36.8005 103.104C36.5978 103.04 36.4432 102.912 36.3365 102.72C36.2298 102.518 36.1925 102.304 36.2245 102.08C36.2672 101.856 36.4058 101.664 36.6405 101.504C37.0992 101.195 37.6112 100.96 38.1765 100.8C38.7525 100.64 39.3285 100.56 39.9045 100.56C41.1098 100.56 42.0325 100.832 42.6725 101.376C43.3232 101.92 43.6485 102.699 43.6485 103.712C43.6485 104.395 43.4832 105.051 43.1525 105.68C42.8325 106.31 42.3258 106.987 41.6325 107.712L39.1525 110.304H43.3285C43.9152 110.304 44.2085 110.582 44.2085 111.136C44.2085 111.712 43.9152 112 43.3285 112H37.4405ZM49.7063 112.16C48.3729 112.16 47.3543 111.659 46.6503 110.656C45.9463 109.643 45.5943 108.203 45.5943 106.336C45.5943 104.448 45.9463 103.014 46.6503 102.032C47.3543 101.051 48.3729 100.56 49.7063 100.56C51.0503 100.56 52.0689 101.051 52.7623 102.032C53.4663 103.014 53.8183 104.443 53.8183 106.32C53.8183 108.198 53.4663 109.643 52.7623 110.656C52.0583 111.659 51.0396 112.16 49.7063 112.16ZM49.7063 110.48C50.4316 110.48 50.9649 110.144 51.3063 109.472C51.6583 108.8 51.8343 107.75 51.8343 106.32C51.8343 104.891 51.6583 103.856 51.3063 103.216C50.9649 102.566 50.4316 102.24 49.7063 102.24C48.9916 102.24 48.4583 102.566 48.1063 103.216C47.7543 103.856 47.5783 104.891 47.5783 106.32C47.5783 107.75 47.7543 108.8 48.1063 109.472C48.4583 110.144 48.9916 110.48 49.7063 110.48ZM56.628 112C56.2867 112 56.036 111.926 55.876 111.776C55.7267 111.616 55.652 111.387 55.652 111.088C55.652 110.907 55.7 110.731 55.796 110.56C55.892 110.39 56.0307 110.208 56.212 110.016L59.428 106.592C59.9187 106.08 60.2707 105.616 60.484 105.2C60.6973 104.774 60.804 104.347 60.804 103.92C60.804 102.832 60.148 102.288 58.836 102.288C58.4733 102.288 58.1107 102.342 57.748 102.448C57.3853 102.544 57.0173 102.715 56.644 102.96C56.4093 103.12 56.1907 103.168 55.988 103.104C55.7853 103.04 55.6307 102.912 55.524 102.72C55.4173 102.518 55.38 102.304 55.412 102.08C55.4547 101.856 55.5933 101.664 55.828 101.504C56.2867 101.195 56.7987 100.96 57.364 100.8C57.94 100.64 58.516 100.56 59.092 100.56C60.2973 100.56 61.22 100.832 61.86 101.376C62.5107 101.92 62.836 102.699 62.836 103.712C62.836 104.395 62.6707 105.051 62.34 105.68C62.02 106.31 61.5133 106.987 60.82 107.712L58.34 110.304H62.516C63.1027 110.304 63.396 110.582 63.396 111.136C63.396 111.712 63.1027 112 62.516 112H56.628ZM66.5898 112C66.0031 112 65.7098 111.712 65.7098 111.136C65.7098 110.582 66.0031 110.304 66.5898 110.304H68.3818V103.056L67.0218 103.872C66.7658 104.022 66.5311 104.059 66.3178 103.984C66.1151 103.91 65.9604 103.776 65.8538 103.584C65.7471 103.392 65.7151 103.184 65.7578 102.96C65.8004 102.726 65.9498 102.534 66.2057 102.384L68.4138 101.056C68.6271 100.928 68.8404 100.822 69.0538 100.736C69.2671 100.64 69.4644 100.592 69.6458 100.592C69.8698 100.592 70.0564 100.656 70.2058 100.784C70.3551 100.902 70.4298 101.099 70.4298 101.376V110.304H72.0618C72.6484 110.304 72.9418 110.582 72.9418 111.136C72.9418 111.712 72.6484 112 72.0618 112H66.5898Z" fill="#F1C12B"/>
<path d="M243.441 112C243.099 112 242.849 111.926 242.689 111.776C242.539 111.616 242.465 111.387 242.465 111.088C242.465 110.907 242.513 110.731 242.609 110.56C242.705 110.39 242.843 110.208 243.025 110.016L246.241 106.592C246.731 106.08 247.083 105.616 247.297 105.2C247.51 104.774 247.617 104.347 247.617 103.92C247.617 102.832 246.961 102.288 245.649 102.288C245.286 102.288 244.923 102.342 244.561 102.448C244.198 102.544 243.83 102.715 243.457 102.96C243.222 103.12 243.003 103.168 242.801 103.104C242.598 103.04 242.443 102.912 242.337 102.72C242.23 102.518 242.193 102.304 242.225 102.08C242.267 101.856 242.406 101.664 242.641 101.504C243.099 101.195 243.611 100.96 244.177 100.8C244.753 100.64 245.329 100.56 245.905 100.56C247.11 100.56 248.033 100.832 248.673 101.376C249.323 101.92 249.649 102.699 249.649 103.712C249.649 104.395 249.483 105.051 249.153 105.68C248.833 106.31 248.326 106.987 247.633 107.712L245.153 110.304H249.329C249.915 110.304 250.209 110.582 250.209 111.136C250.209 111.712 249.915 112 249.329 112H243.441ZM255.706 112.16C254.373 112.16 253.354 111.659 252.65 110.656C251.946 109.643 251.594 108.203 251.594 106.336C251.594 104.448 251.946 103.014 252.65 102.032C253.354 101.051 254.373 100.56 255.706 100.56C257.05 100.56 258.069 101.051 258.762 102.032C259.466 103.014 259.818 104.443 259.818 106.32C259.818 108.198 259.466 109.643 258.762 110.656C258.058 111.659 257.04 112.16 255.706 112.16ZM255.706 110.48C256.432 110.48 256.965 110.144 257.306 109.472C257.658 108.8 257.834 107.75 257.834 106.32C257.834 104.891 257.658 103.856 257.306 103.216C256.965 102.566 256.432 102.24 255.706 102.24C254.992 102.24 254.458 102.566 254.106 103.216C253.754 103.856 253.578 104.891 253.578 106.32C253.578 107.75 253.754 108.8 254.106 109.472C254.458 110.144 254.992 110.48 255.706 110.48ZM262.628 112C262.287 112 262.036 111.926 261.876 111.776C261.727 111.616 261.652 111.387 261.652 111.088C261.652 110.907 261.7 110.731 261.796 110.56C261.892 110.39 262.031 110.208 262.212 110.016L265.428 106.592C265.919 106.08 266.271 105.616 266.484 105.2C266.697 104.774 266.804 104.347 266.804 103.92C266.804 102.832 266.148 102.288 264.836 102.288C264.473 102.288 264.111 102.342 263.748 102.448C263.385 102.544 263.017 102.715 262.644 102.96C262.409 103.12 262.191 103.168 261.988 103.104C261.785 103.04 261.631 102.912 261.524 102.72C261.417 102.518 261.38 102.304 261.412 102.08C261.455 101.856 261.593 101.664 261.828 101.504C262.287 101.195 262.799 100.96 263.364 100.8C263.94 100.64 264.516 100.56 265.092 100.56C266.297 100.56 267.22 100.832 267.86 101.376C268.511 101.92 268.836 102.699 268.836 103.712C268.836 104.395 268.671 105.051 268.34 105.68C268.02 106.31 267.513 106.987 266.82 107.712L264.34 110.304H268.516C269.103 110.304 269.396 110.582 269.396 111.136C269.396 111.712 269.103 112 268.516 112H262.628ZM272.222 112C271.88 112 271.63 111.926 271.47 111.776C271.32 111.616 271.246 111.387 271.246 111.088C271.246 110.907 271.294 110.731 271.39 110.56C271.486 110.39 271.624 110.208 271.806 110.016L275.022 106.592C275.512 106.08 275.864 105.616 276.078 105.2C276.291 104.774 276.398 104.347 276.398 103.92C276.398 102.832 275.742 102.288 274.43 102.288C274.067 102.288 273.704 102.342 273.342 102.448C272.979 102.544 272.611 102.715 272.238 102.96C272.003 103.12 271.784 103.168 271.582 103.104C271.379 103.04 271.224 102.912 271.118 102.72C271.011 102.518 270.974 102.304 271.006 102.08C271.048 101.856 271.187 101.664 271.422 101.504C271.88 101.195 272.392 100.96 272.958 100.8C273.534 100.64 274.11 100.56 274.686 100.56C275.891 100.56 276.814 100.832 277.454 101.376C278.104 101.92 278.43 102.699 278.43 103.712C278.43 104.395 278.264 105.051 277.934 105.68C277.614 106.31 277.107 106.987 276.414 107.712L273.934 110.304H278.11C278.696 110.304 278.99 110.582 278.99 111.136C278.99 111.712 278.696 112 278.11 112H272.222Z" fill="#F1C12B"/>
<g filter="url(#filter0_d)">
<path d="M302.93 132.097L302.921 132.102L302.912 132.108L263.065 155.794C262.285 156.241 261.4 156.477 260.5 156.477C259.6 156.477 258.715 156.241 257.935 155.794L218.088 132.108L218.079 132.102L218.07 132.097C217.288 131.647 216.639 131 216.188 130.221C215.737 129.442 215.5 128.559 215.5 127.661V82.316C215.5 81.4175 215.737 80.5346 216.188 79.756C216.639 78.9773 217.288 78.3301 218.07 77.88L218.079 77.8747L218.088 77.8694L257.935 54.1826C258.715 53.7356 259.6 53.5001 260.5 53.5001C261.4 53.5001 262.285 53.7356 263.065 54.1826L302.912 77.8694L302.921 77.8747L302.93 77.88C303.712 78.3301 304.361 78.9773 304.812 79.756C305.263 80.5346 305.5 81.4175 305.5 82.316V127.661C305.5 127.661 305.5 127.661 305.5 127.661C305.5 128.559 305.263 129.442 304.812 130.221C304.361 131 303.712 131.647 302.93 132.097Z" stroke="#F1C12B" stroke-width="3"/>
</g>
<g filter="url(#filter1_d)">
<path d="M96.9302 132.097L96.9211 132.102L96.9121 132.108L57.0645 155.794C56.2846 156.241 55.4003 156.477 54.5 156.477C53.5997 156.477 52.7154 156.241 51.9354 155.794L12.0879 132.108L12.0789 132.102L12.0698 132.097C11.2878 131.647 10.639 131 10.1881 130.221C9.73722 129.442 9.50002 128.559 9.5 127.661V82.316C9.50002 81.4175 9.73722 80.5346 10.1881 79.756C10.639 78.9773 11.2878 78.3301 12.0698 77.88L12.0789 77.8747L12.0879 77.8694L51.9353 54.1826C52.7153 53.7356 53.5996 53.5001 54.5 53.5001C55.4004 53.5001 56.2847 53.7356 57.0647 54.1826L96.9121 77.8694L96.9211 77.8747L96.9302 77.88C97.7122 78.3301 98.361 78.9773 98.8119 79.756C99.2628 80.5346 99.5 81.4175 99.5 82.316V127.661C99.5 127.661 99.5 127.661 99.5 127.661C99.5 128.559 99.2628 129.442 98.8119 130.221C98.361 131 97.7122 131.647 96.9302 132.097Z" stroke="#F1C12B" stroke-width="3"/>
</g>
<path d="M199.93 132.097L199.921 132.102L199.912 132.108L160.065 155.794C159.285 156.241 158.4 156.477 157.5 156.477C156.6 156.477 155.715 156.241 154.935 155.794L115.088 132.108L115.079 132.102L115.07 132.097C114.288 131.647 113.639 131 113.188 130.221C112.737 129.442 112.5 128.559 112.5 127.661V82.316C112.5 81.4175 112.737 80.5346 113.188 79.756C113.639 78.9773 114.288 78.3301 115.07 77.88L115.079 77.8747L115.088 77.8694L154.935 54.1826C155.715 53.7356 156.6 53.5001 157.5 53.5001C158.4 53.5001 159.285 53.7356 160.065 54.1826L199.912 77.8694L199.921 77.8747L199.93 77.88C200.712 78.3301 201.361 78.9773 201.812 79.756C202.263 80.5346 202.5 81.4175 202.5 82.316V127.661C202.5 127.661 202.5 127.661 202.5 127.661C202.5 128.559 202.263 129.442 201.812 130.221C201.361 131 200.712 131.647 199.93 132.097Z" stroke="#212151" stroke-width="3"/>
</g>
<defs>
<filter id="filter0_d" x="174" y="12" width="173" height="185.977" filterUnits="userSpaceOnUse" color-interpolation-filters="sRGB">
<feFlood flood-opacity="0" result="BackgroundImageFix"/>
<feColorMatrix in="SourceAlpha" type="matrix" values="0 0 0 0 0 0 0 0 0 0 0 0 0 0 0 0 0 0 127 0"/>
<feOffset/>
<feGaussianBlur stdDeviation="20"/>
<feColorMatrix type="matrix" values="0 0 0 0 0.945098 0 0 0 0 0.756863 0 0 0 0 0.168627 0 0 0 1 0"/>
<feBlend mode="normal" in2="BackgroundImageFix" result="effect1_dropShadow"/>
<feBlend mode="normal" in="SourceGraphic" in2="effect1_dropShadow" result="shape"/>
</filter>
<filter id="filter1_d" x="-32" y="12" width="173" height="185.977" filterUnits="userSpaceOnUse" color-interpolation-filters="sRGB">
<feFlood flood-opacity="0" result="BackgroundImageFix"/>
<feColorMatrix in="SourceAlpha" type="matrix" values="0 0 0 0 0 0 0 0 0 0 0 0 0 0 0 0 0 0 127 0"/>
<feOffset/>
<feGaussianBlur stdDeviation="20"/>
<feColorMatrix type="matrix" values="0 0 0 0 0.945098 0 0 0 0 0.756863 0 0 0 0 0.168627 0 0 0 1 0"/>
<feBlend mode="normal" in2="BackgroundImageFix" result="effect1_dropShadow"/>
<feBlend mode="normal" in="SourceGraphic" in2="effect1_dropShadow" result="shape"/>
</filter>
<clipPath id="clip0">
<rect width="326" height="302" fill="white"/>
</clipPath>
</defs>
</svg>
