<svg width="356" height="302" viewBox="0 0 356 302" fill="none" xmlns="http://www.w3.org/2000/svg">
<g clip-path="url(#clip0)">
<path d="M15.6948 260.128C15.0121 260.128 14.6708 259.776 14.6708 259.072V250.432H11.5508C10.9641 250.432 10.6707 250.144 10.6707 249.568C10.6707 249.003 10.9641 248.72 11.5508 248.72H19.8388C20.4254 248.72 20.7188 249.003 20.7188 249.568C20.7188 250.144 20.4254 250.432 19.8388 250.432H16.7188V259.072C16.7188 259.776 16.3774 260.128 15.6948 260.128ZM26.2568 260.16C25.1688 260.16 24.2141 259.92 23.3928 259.44C22.5821 258.96 21.9528 258.288 21.5048 257.424C21.0568 256.549 20.8328 255.525 20.8328 254.352C20.8328 253.168 21.0568 252.144 21.5048 251.28C21.9528 250.416 22.5821 249.749 23.3928 249.28C24.2034 248.8 25.1581 248.56 26.2568 248.56C27.3554 248.56 28.3101 248.8 29.1208 249.28C29.9314 249.749 30.5608 250.416 31.0088 251.28C31.4568 252.144 31.6808 253.163 31.6808 254.336C31.6808 255.52 31.4568 256.549 31.0088 257.424C30.5608 258.288 29.9314 258.96 29.1208 259.44C28.3101 259.92 27.3554 260.16 26.2568 260.16ZM26.2568 258.4C27.2914 258.4 28.0968 258.043 28.6728 257.328C29.2488 256.613 29.5368 255.621 29.5368 254.352C29.5368 253.072 29.2488 252.08 28.6728 251.376C28.1074 250.672 27.3021 250.32 26.2568 250.32C25.2221 250.32 24.4168 250.672 23.8408 251.376C23.2648 252.08 22.9768 253.072 22.9768 254.352C22.9768 255.621 23.2648 256.613 23.8408 257.328C24.4168 258.043 25.2221 258.4 26.2568 258.4ZM34.7873 260.128C34.1046 260.128 33.7633 259.776 33.7633 259.072V249.632C33.7633 248.939 34.1046 248.592 34.7873 248.592C35.4699 248.592 35.8113 248.939 35.8113 249.632V253.712H35.8433L40.4353 249.104C40.6059 248.933 40.7766 248.805 40.9473 248.72C41.1179 248.635 41.3099 248.592 41.5233 248.592C41.8326 248.592 42.0513 248.672 42.1793 248.832C42.3179 248.992 42.3713 249.179 42.3393 249.392C42.3179 249.605 42.2166 249.803 42.0353 249.984L37.8273 254.144L42.2593 258.64C42.4833 258.853 42.6006 259.077 42.6113 259.312C42.6219 259.547 42.5473 259.744 42.3873 259.904C42.2379 260.053 42.0139 260.128 41.7153 260.128C41.4593 260.128 41.2513 260.075 41.0913 259.968C40.9419 259.861 40.7659 259.707 40.5633 259.504L35.8433 254.784H35.8113V259.072C35.8113 259.776 35.4699 260.128 34.7873 260.128ZM45.4919 260C44.7665 260 44.4039 259.637 44.4039 258.912V249.808C44.4039 249.083 44.7665 248.72 45.4919 248.72H51.2039C51.7585 248.72 52.0359 248.987 52.0359 249.52C52.0359 250.075 51.7585 250.352 51.2039 250.352H46.3719V253.456H50.8519C51.4065 253.456 51.6839 253.728 51.6839 254.272C51.6839 254.816 51.4065 255.088 50.8519 255.088H46.3719V258.368H51.2039C51.7585 258.368 52.0359 258.64 52.0359 259.184C52.0359 259.728 51.7585 260 51.2039 260H45.4919ZM54.9108 260.128C54.2708 260.128 53.9508 259.797 53.9508 259.136V249.616C53.9508 249.285 54.0308 249.035 54.1908 248.864C54.3614 248.683 54.5801 248.592 54.8468 248.592C55.0921 248.592 55.2734 248.64 55.3908 248.736C55.5188 248.821 55.6681 248.971 55.8388 249.184L61.5508 256.592V249.568C61.5508 248.917 61.8708 248.592 62.5108 248.592C63.1401 248.592 63.4548 248.917 63.4548 249.568V259.168C63.4548 259.467 63.3801 259.701 63.2308 259.872C63.0814 260.043 62.8788 260.128 62.6228 260.128C62.3774 260.128 62.1801 260.08 62.0308 259.984C61.8921 259.888 61.7374 259.733 61.5668 259.52L55.8548 252.096V259.136C55.8548 259.797 55.5401 260.128 54.9108 260.128ZM71.2873 260.128C70.6046 260.128 70.2633 259.776 70.2633 259.072V249.76C70.2633 249.067 70.6099 248.72 71.3033 248.72H75.1593C76.3966 248.72 77.3513 249.029 78.0233 249.648C78.6953 250.267 79.0312 251.131 79.0312 252.24C79.0312 253.349 78.6953 254.219 78.0233 254.848C77.3513 255.467 76.3966 255.776 75.1593 255.776H72.3113V259.072C72.3113 259.776 71.9699 260.128 71.2873 260.128ZM72.3113 254.16H74.8393C76.3113 254.16 77.0473 253.52 77.0473 252.24C77.0473 250.971 76.3113 250.336 74.8393 250.336H72.3113V254.16ZM81.7248 260.128C81.0421 260.128 80.7008 259.776 80.7008 259.072V249.76C80.7008 249.067 81.0474 248.72 81.7408 248.72H85.5968C86.8341 248.72 87.7888 249.019 88.4608 249.616C89.1328 250.203 89.4688 251.029 89.4688 252.096C89.4688 252.939 89.2501 253.637 88.8128 254.192C88.3754 254.736 87.7461 255.104 86.9248 255.296C87.4688 255.467 87.9168 255.877 88.2688 256.528L89.4688 258.752C89.6501 259.093 89.6821 259.408 89.5648 259.696C89.4581 259.984 89.1861 260.128 88.7488 260.128C88.4608 260.128 88.2261 260.069 88.0448 259.952C87.8634 259.824 87.7034 259.632 87.5648 259.376L85.9488 256.4C85.7568 256.037 85.5274 255.797 85.2608 255.68C85.0048 255.552 84.6741 255.488 84.2688 255.488H82.7488V259.072C82.7488 259.776 82.4074 260.128 81.7248 260.128ZM82.7488 253.968H85.2448C86.7381 253.968 87.4848 253.36 87.4848 252.144C87.4848 250.939 86.7381 250.336 85.2448 250.336H82.7488V253.968ZM92.7575 260C92.0322 260 91.6695 259.637 91.6695 258.912V249.808C91.6695 249.083 92.0322 248.72 92.7575 248.72H98.4695C99.0242 248.72 99.3015 248.987 99.3015 249.52C99.3015 250.075 99.0242 250.352 98.4695 250.352H93.6375V253.456H98.1175C98.6722 253.456 98.9495 253.728 98.9495 254.272C98.9495 254.816 98.6722 255.088 98.1175 255.088H93.6375V258.368H98.4695C99.0242 258.368 99.3015 258.64 99.3015 259.184C99.3015 259.728 99.0242 260 98.4695 260H92.7575ZM104.948 260.16C104.233 260.16 103.535 260.08 102.852 259.92C102.18 259.76 101.593 259.52 101.092 259.2C100.847 259.04 100.697 258.843 100.644 258.608C100.591 258.373 100.607 258.155 100.692 257.952C100.788 257.739 100.932 257.595 101.124 257.52C101.327 257.435 101.556 257.472 101.812 257.632C102.281 257.909 102.777 258.112 103.3 258.24C103.823 258.368 104.372 258.432 104.948 258.432C105.791 258.432 106.404 258.293 106.788 258.016C107.172 257.728 107.364 257.36 107.364 256.912C107.364 256.539 107.225 256.245 106.948 256.032C106.681 255.819 106.217 255.643 105.556 255.504L103.796 255.136C101.791 254.709 100.788 253.68 100.788 252.048C100.788 251.344 100.975 250.731 101.348 250.208C101.721 249.685 102.239 249.28 102.9 248.992C103.561 248.704 104.324 248.56 105.188 248.56C105.828 248.56 106.436 248.64 107.012 248.8C107.588 248.96 108.105 249.195 108.564 249.504C108.777 249.653 108.905 249.84 108.948 250.064C108.991 250.277 108.964 250.48 108.868 250.672C108.772 250.853 108.617 250.981 108.404 251.056C108.201 251.12 107.961 251.072 107.684 250.912C107.289 250.688 106.889 250.528 106.484 250.432C106.079 250.336 105.641 250.288 105.172 250.288C104.436 250.288 103.86 250.443 103.444 250.752C103.028 251.061 102.82 251.467 102.82 251.968C102.82 252.352 102.948 252.661 103.204 252.896C103.46 253.12 103.897 253.296 104.516 253.424L106.26 253.792C107.316 254.016 108.1 254.368 108.612 254.848C109.135 255.328 109.396 255.968 109.396 256.768C109.396 257.44 109.215 258.032 108.852 258.544C108.489 259.056 107.972 259.456 107.3 259.744C106.639 260.021 105.855 260.16 104.948 260.16ZM111.188 260.128C110.814 260.128 110.548 260 110.388 259.744C110.228 259.488 110.233 259.179 110.404 258.816L114.628 249.456C114.766 249.147 114.932 248.928 115.124 248.8C115.326 248.661 115.556 248.592 115.812 248.592C116.057 248.592 116.276 248.661 116.468 248.8C116.67 248.928 116.841 249.147 116.98 249.456L121.22 258.816C121.39 259.189 121.401 259.504 121.252 259.76C121.102 260.005 120.846 260.128 120.484 260.128C120.185 260.128 119.95 260.059 119.78 259.92C119.62 259.771 119.476 259.547 119.348 259.248L118.548 257.392H113.044L112.26 259.248C112.121 259.557 111.977 259.781 111.828 259.92C111.678 260.059 111.465 260.128 111.188 260.128ZM115.78 250.944L113.748 255.76H117.844L115.812 250.944H115.78ZM124.022 260C123.329 260 122.982 259.648 122.982 258.944V249.712C122.982 249.019 123.323 248.672 124.006 248.672C124.689 248.672 125.03 249.019 125.03 249.712V258.256H129.67C130.267 258.256 130.566 258.544 130.566 259.12C130.566 259.707 130.267 260 129.67 260H124.022ZM133.054 260C132.329 260 131.966 259.637 131.966 258.912V249.808C131.966 249.083 132.329 248.72 133.054 248.72H138.766C139.321 248.72 139.598 248.987 139.598 249.52C139.598 250.075 139.321 250.352 138.766 250.352H133.934V253.456H138.414C138.969 253.456 139.246 253.728 139.246 254.272C139.246 254.816 138.969 255.088 138.414 255.088H133.934V258.368H138.766C139.321 258.368 139.598 258.64 139.598 259.184C139.598 259.728 139.321 260 138.766 260H133.054Z" fill="white"/>
<path d="M230.208 258.128C229.568 258.128 229.248 257.797 229.248 257.136V247.616C229.248 247.285 229.328 247.035 229.488 246.864C229.658 246.683 229.877 246.592 230.144 246.592C230.389 246.592 230.57 246.64 230.688 246.736C230.816 246.821 230.965 246.971 231.136 247.184L236.848 254.592V247.568C236.848 246.917 237.168 246.592 237.808 246.592C238.437 246.592 238.752 246.917 238.752 247.568V257.168C238.752 257.467 238.677 257.701 238.528 257.872C238.378 258.043 238.176 258.128 237.92 258.128C237.674 258.128 237.477 258.08 237.328 257.984C237.189 257.888 237.034 257.733 236.864 257.52L231.152 250.096V257.136C231.152 257.797 230.837 258.128 230.208 258.128ZM242.272 258.128C241.568 258.128 241.216 257.765 241.216 257.04V247.808C241.216 247.083 241.579 246.72 242.304 246.72H247.888C248.443 246.72 248.72 246.987 248.72 247.52C248.72 248.075 248.443 248.352 247.888 248.352H243.264V251.536H247.552C248.107 251.536 248.384 251.803 248.384 252.336C248.384 252.891 248.107 253.168 247.552 253.168H243.264V257.04C243.264 257.765 242.934 258.128 242.272 258.128ZM254.07 258.128C253.387 258.128 253.046 257.776 253.046 257.072V248.432H249.926C249.339 248.432 249.046 248.144 249.046 247.568C249.046 247.003 249.339 246.72 249.926 246.72H258.214C258.8 246.72 259.094 247.003 259.094 247.568C259.094 248.144 258.8 248.432 258.214 248.432H255.094V257.072C255.094 257.776 254.752 258.128 254.07 258.128ZM265.647 258C264.954 258 264.607 257.648 264.607 256.944V247.712C264.607 247.019 264.948 246.672 265.631 246.672C266.314 246.672 266.655 247.019 266.655 247.712V256.256H271.295C271.892 256.256 272.191 256.544 272.191 257.12C272.191 257.707 271.892 258 271.295 258H265.647ZM273.469 258.128C273.096 258.128 272.829 258 272.669 257.744C272.509 257.488 272.514 257.179 272.685 256.816L276.909 247.456C277.048 247.147 277.213 246.928 277.405 246.8C277.608 246.661 277.837 246.592 278.093 246.592C278.338 246.592 278.557 246.661 278.749 246.8C278.952 246.928 279.122 247.147 279.261 247.456L283.501 256.816C283.672 257.189 283.682 257.504 283.533 257.76C283.384 258.005 283.128 258.128 282.765 258.128C282.466 258.128 282.232 258.059 282.061 257.92C281.901 257.771 281.757 257.547 281.629 257.248L280.829 255.392H275.325L274.541 257.248C274.402 257.557 274.258 257.781 274.109 257.92C273.96 258.059 273.746 258.128 273.469 258.128ZM278.061 248.944L276.029 253.76H280.125L278.093 248.944H278.061ZM289.873 258.16C288.326 258.16 287.142 257.76 286.321 256.96C285.51 256.149 285.105 254.955 285.105 253.376V247.632C285.105 246.939 285.446 246.592 286.129 246.592C286.812 246.592 287.153 246.939 287.153 247.632V253.36C287.153 254.373 287.382 255.136 287.841 255.648C288.31 256.149 288.988 256.4 289.873 256.4C291.676 256.4 292.577 255.387 292.577 253.36V247.632C292.577 246.939 292.918 246.592 293.601 246.592C294.273 246.592 294.609 246.939 294.609 247.632V253.376C294.609 254.955 294.209 256.149 293.409 256.96C292.609 257.76 291.43 258.16 289.873 258.16ZM297.958 258.128C297.318 258.128 296.998 257.797 296.998 257.136V247.616C296.998 247.285 297.078 247.035 297.238 246.864C297.408 246.683 297.627 246.592 297.894 246.592C298.139 246.592 298.32 246.64 298.438 246.736C298.566 246.821 298.715 246.971 298.886 247.184L304.598 254.592V247.568C304.598 246.917 304.918 246.592 305.558 246.592C306.187 246.592 306.502 246.917 306.502 247.568V257.168C306.502 257.467 306.427 257.701 306.278 257.872C306.128 258.043 305.926 258.128 305.67 258.128C305.424 258.128 305.227 258.08 305.078 257.984C304.939 257.888 304.784 257.733 304.614 257.52L298.902 250.096V257.136C298.902 257.797 298.587 258.128 297.958 258.128ZM314.214 258.16C313.041 258.16 312.033 257.925 311.19 257.456C310.358 256.976 309.718 256.304 309.27 255.44C308.822 254.565 308.598 253.536 308.598 252.352C308.598 251.168 308.822 250.144 309.27 249.28C309.718 248.416 310.358 247.749 311.19 247.28C312.033 246.8 313.041 246.56 314.214 246.56C314.801 246.56 315.377 246.635 315.942 246.784C316.508 246.933 317.004 247.147 317.43 247.424C317.708 247.605 317.873 247.824 317.926 248.08C317.98 248.325 317.948 248.555 317.83 248.768C317.713 248.971 317.537 249.109 317.302 249.184C317.068 249.248 316.806 249.184 316.518 248.992C316.188 248.779 315.83 248.624 315.446 248.528C315.062 248.432 314.673 248.384 314.278 248.384C313.137 248.384 312.268 248.731 311.67 249.424C311.073 250.107 310.774 251.083 310.774 252.352C310.774 253.621 311.073 254.603 311.67 255.296C312.268 255.989 313.137 256.336 314.278 256.336C314.684 256.336 315.084 256.288 315.478 256.192C315.873 256.085 316.246 255.925 316.598 255.712C316.886 255.531 317.142 255.472 317.366 255.536C317.59 255.6 317.756 255.733 317.862 255.936C317.98 256.128 318.017 256.341 317.974 256.576C317.932 256.811 317.788 257.019 317.542 257.2C317.116 257.509 316.604 257.749 316.006 257.92C315.42 258.08 314.822 258.16 314.214 258.16ZM320.865 258.128C320.183 258.128 319.841 257.776 319.841 257.072V247.648C319.841 246.944 320.183 246.592 320.865 246.592C321.548 246.592 321.889 246.944 321.889 247.648V251.424H327.697V247.648C327.697 246.944 328.039 246.592 328.721 246.592C329.404 246.592 329.745 246.944 329.745 247.648V257.072C329.745 257.776 329.404 258.128 328.721 258.128C328.039 258.128 327.697 257.776 327.697 257.072V253.136H321.889V257.072C321.889 257.776 321.548 258.128 320.865 258.128Z" fill="white"/>
<path d="M58.4405 180C58.0992 180 57.8485 179.925 57.6885 179.776C57.5392 179.616 57.4645 179.387 57.4645 179.088C57.4645 178.907 57.5125 178.731 57.6085 178.56C57.7045 178.389 57.8432 178.208 58.0245 178.016L61.2405 174.592C61.7312 174.08 62.0832 173.616 62.2965 173.2C62.5098 172.773 62.6165 172.347 62.6165 171.92C62.6165 170.832 61.9605 170.288 60.6485 170.288C60.2858 170.288 59.9232 170.341 59.5605 170.448C59.1978 170.544 58.8298 170.715 58.4565 170.96C58.2218 171.12 58.0032 171.168 57.8005 171.104C57.5978 171.04 57.4432 170.912 57.3365 170.72C57.2298 170.517 57.1925 170.304 57.2245 170.08C57.2672 169.856 57.4058 169.664 57.6405 169.504C58.0992 169.195 58.6112 168.96 59.1765 168.8C59.7525 168.64 60.3285 168.56 60.9045 168.56C62.1098 168.56 63.0325 168.832 63.6725 169.376C64.3232 169.92 64.6485 170.699 64.6485 171.712C64.6485 172.395 64.4832 173.051 64.1525 173.68C63.8325 174.309 63.3258 174.987 62.6325 175.712L60.1525 178.304H64.3285C64.9152 178.304 65.2085 178.581 65.2085 179.136C65.2085 179.712 64.9152 180 64.3285 180H58.4405ZM70.7063 180.16C69.3729 180.16 68.3543 179.659 67.6503 178.656C66.9463 177.643 66.5943 176.203 66.5943 174.336C66.5943 172.448 66.9463 171.013 67.6503 170.032C68.3543 169.051 69.3729 168.56 70.7063 168.56C72.0503 168.56 73.0689 169.051 73.7623 170.032C74.4663 171.013 74.8183 172.443 74.8183 174.32C74.8183 176.197 74.4663 177.643 73.7623 178.656C73.0583 179.659 72.0396 180.16 70.7063 180.16ZM70.7063 178.48C71.4316 178.48 71.9649 178.144 72.3063 177.472C72.6583 176.8 72.8343 175.749 72.8343 174.32C72.8343 172.891 72.6583 171.856 72.3063 171.216C71.9649 170.565 71.4316 170.24 70.7063 170.24C69.9916 170.24 69.4583 170.565 69.1063 171.216C68.7543 171.856 68.5783 172.891 68.5783 174.32C68.5783 175.749 68.7543 176.8 69.1063 177.472C69.4583 178.144 69.9916 178.48 70.7063 178.48ZM77.996 180C77.4093 180 77.116 179.712 77.116 179.136C77.116 178.581 77.4093 178.304 77.996 178.304H79.788V171.056L78.428 171.872C78.172 172.021 77.9373 172.059 77.724 171.984C77.5213 171.909 77.3667 171.776 77.26 171.584C77.1533 171.392 77.1213 171.184 77.164 170.96C77.2067 170.725 77.356 170.533 77.612 170.384L79.82 169.056C80.0333 168.928 80.2467 168.821 80.46 168.736C80.6733 168.64 80.8707 168.592 81.052 168.592C81.276 168.592 81.4627 168.656 81.612 168.784C81.7613 168.901 81.836 169.099 81.836 169.376V178.304H83.468C84.0547 178.304 84.348 178.581 84.348 179.136C84.348 179.712 84.0547 180 83.468 180H77.996ZM90.3098 180.16C88.9124 180.16 87.8298 179.669 87.0618 178.688C86.3044 177.707 85.9258 176.331 85.9258 174.56C85.9258 172.651 86.3524 171.173 87.2057 170.128C88.0698 169.083 89.2591 168.56 90.7738 168.56C91.2431 168.56 91.7178 168.635 92.1978 168.784C92.6884 168.923 93.1471 169.136 93.5738 169.424C93.7871 169.563 93.9098 169.744 93.9418 169.968C93.9738 170.181 93.9418 170.389 93.8458 170.592C93.7498 170.784 93.6004 170.917 93.3978 170.992C93.2058 171.056 92.9818 171.013 92.7258 170.864C92.3631 170.651 92.0218 170.501 91.7018 170.416C91.3818 170.331 91.0618 170.288 90.7418 170.288C89.8138 170.288 89.1044 170.613 88.6138 171.264C88.1231 171.915 87.8778 172.885 87.8778 174.176V174.64C88.1018 174.053 88.4644 173.595 88.9658 173.264C89.4671 172.933 90.0431 172.768 90.6938 172.768C91.3444 172.768 91.9204 172.923 92.4218 173.232C92.9231 173.541 93.3177 173.968 93.6058 174.512C93.8938 175.056 94.0378 175.68 94.0378 176.384C94.0378 177.109 93.8778 177.76 93.5578 178.336C93.2484 178.901 92.8111 179.349 92.2458 179.68C91.6911 180 91.0458 180.16 90.3098 180.16ZM90.1978 178.528C90.7738 178.528 91.2378 178.341 91.5898 177.968C91.9524 177.584 92.1338 177.083 92.1338 176.464C92.1338 175.845 91.9524 175.344 91.5898 174.96C91.2378 174.576 90.7738 174.384 90.1978 174.384C89.6218 174.384 89.1524 174.576 88.7898 174.96C88.4378 175.344 88.2618 175.845 88.2618 176.464C88.2618 177.083 88.4378 177.584 88.7898 177.968C89.1524 178.341 89.6218 178.528 90.1978 178.528Z" fill="#F1C12B"/>
<path d="M264.441 180C264.099 180 263.849 179.925 263.689 179.776C263.539 179.616 263.465 179.387 263.465 179.088C263.465 178.907 263.513 178.731 263.609 178.56C263.705 178.389 263.843 178.208 264.025 178.016L267.241 174.592C267.731 174.08 268.083 173.616 268.297 173.2C268.51 172.773 268.617 172.347 268.617 171.92C268.617 170.832 267.961 170.288 266.649 170.288C266.286 170.288 265.923 170.341 265.561 170.448C265.198 170.544 264.83 170.715 264.457 170.96C264.222 171.12 264.003 171.168 263.801 171.104C263.598 171.04 263.443 170.912 263.337 170.72C263.23 170.517 263.193 170.304 263.225 170.08C263.267 169.856 263.406 169.664 263.641 169.504C264.099 169.195 264.611 168.96 265.177 168.8C265.753 168.64 266.329 168.56 266.905 168.56C268.11 168.56 269.033 168.832 269.673 169.376C270.323 169.92 270.649 170.699 270.649 171.712C270.649 172.395 270.483 173.051 270.153 173.68C269.833 174.309 269.326 174.987 268.633 175.712L266.153 178.304H270.329C270.915 178.304 271.209 178.581 271.209 179.136C271.209 179.712 270.915 180 270.329 180H264.441ZM276.706 180.16C275.373 180.16 274.354 179.659 273.65 178.656C272.946 177.643 272.594 176.203 272.594 174.336C272.594 172.448 272.946 171.013 273.65 170.032C274.354 169.051 275.373 168.56 276.706 168.56C278.05 168.56 279.069 169.051 279.762 170.032C280.466 171.013 280.818 172.443 280.818 174.32C280.818 176.197 280.466 177.643 279.762 178.656C279.058 179.659 278.04 180.16 276.706 180.16ZM276.706 178.48C277.432 178.48 277.965 178.144 278.306 177.472C278.658 176.8 278.834 175.749 278.834 174.32C278.834 172.891 278.658 171.856 278.306 171.216C277.965 170.565 277.432 170.24 276.706 170.24C275.992 170.24 275.458 170.565 275.106 171.216C274.754 171.856 274.578 172.891 274.578 174.32C274.578 175.749 274.754 176.8 275.106 177.472C275.458 178.144 275.992 178.48 276.706 178.48ZM283.996 180C283.409 180 283.116 179.712 283.116 179.136C283.116 178.581 283.409 178.304 283.996 178.304H285.788V171.056L284.428 171.872C284.172 172.021 283.937 172.059 283.724 171.984C283.521 171.909 283.367 171.776 283.26 171.584C283.153 171.392 283.121 171.184 283.164 170.96C283.207 170.725 283.356 170.533 283.612 170.384L285.82 169.056C286.033 168.928 286.247 168.821 286.46 168.736C286.673 168.64 286.871 168.592 287.052 168.592C287.276 168.592 287.463 168.656 287.612 168.784C287.761 168.901 287.836 169.099 287.836 169.376V178.304H289.468C290.055 178.304 290.348 178.581 290.348 179.136C290.348 179.712 290.055 180 289.468 180H283.996ZM293.846 180.128C293.472 180.128 293.206 180 293.046 179.744C292.886 179.488 292.902 179.179 293.094 178.816L297.558 170.432H292.742C292.144 170.432 291.846 170.149 291.846 169.584C291.846 169.008 292.144 168.72 292.742 168.72H298.934C299.222 168.72 299.456 168.795 299.638 168.944C299.819 169.093 299.91 169.307 299.91 169.584C299.91 169.819 299.878 170.027 299.814 170.208C299.75 170.379 299.664 170.565 299.558 170.768L295.014 179.456C294.779 179.904 294.39 180.128 293.846 180.128Z" fill="#F1C12B"/>
<g filter="url(#filter0_d)">
<path d="M33.0698 145.88L33.0789 145.875L33.0879 145.869L72.9355 122.182C73.7154 121.735 74.5997 121.5 75.5 121.5C76.4003 121.5 77.2846 121.735 78.0646 122.183L117.912 145.869L117.921 145.875L117.93 145.88C118.712 146.33 119.361 146.977 119.812 147.756C120.263 148.534 120.5 149.417 120.5 150.316V195.661C120.5 196.559 120.263 197.442 119.812 198.221C119.361 199 118.712 199.647 117.93 200.097L117.921 200.102L117.912 200.107L78.0647 223.794C77.2847 224.241 76.4004 224.477 75.5 224.477C74.5996 224.477 73.7153 224.241 72.9353 223.794L33.0879 200.107L33.0789 200.102L33.0698 200.097C32.2878 199.647 31.639 199 31.1881 198.221C30.7372 197.442 30.5 196.559 30.5 195.661V150.316C30.5 150.316 30.5 150.316 30.5 150.316C30.5 149.417 30.7372 148.534 31.1881 147.756C31.639 146.977 32.2878 146.33 33.0698 145.88Z" stroke="#F1C12B" stroke-width="3"/>
</g>
<g filter="url(#filter1_d)">
<path d="M239.07 145.88L239.079 145.875L239.088 145.869L278.935 122.182C279.715 121.735 280.6 121.5 281.5 121.5C282.4 121.5 283.285 121.735 284.065 122.183L323.912 145.869L323.921 145.875L323.93 145.88C324.712 146.33 325.361 146.977 325.812 147.756C326.263 148.534 326.5 149.417 326.5 150.316V195.661C326.5 196.559 326.263 197.442 325.812 198.221C325.361 199 324.712 199.647 323.93 200.097L323.921 200.102L323.912 200.107L284.065 223.794C283.285 224.241 282.4 224.477 281.5 224.477C280.6 224.477 279.715 224.241 278.935 223.794L239.088 200.107L239.079 200.102L239.07 200.097C238.288 199.647 237.639 199 237.188 198.221C236.737 197.442 236.5 196.559 236.5 195.661V150.316C236.5 150.316 236.5 150.316 236.5 150.316C236.5 149.417 236.737 148.534 237.188 147.756C237.639 146.977 238.288 146.33 239.07 145.88Z" stroke="#F1C12B" stroke-width="3"/>
</g>
<path d="M136.07 145.88L136.079 145.875L136.088 145.869L175.935 122.182C176.715 121.735 177.6 121.5 178.5 121.5C179.4 121.5 180.285 121.735 181.065 122.183L220.912 145.869L220.921 145.875L220.93 145.88C221.712 146.33 222.361 146.977 222.812 147.756C223.263 148.534 223.5 149.417 223.5 150.316V195.661C223.5 196.559 223.263 197.442 222.812 198.221C222.361 199 221.712 199.647 220.93 200.097L220.921 200.102L220.912 200.107L181.065 223.794C180.285 224.241 179.4 224.477 178.5 224.477C177.6 224.477 176.715 224.241 175.935 223.794L136.088 200.107L136.079 200.102L136.07 200.097C135.288 199.647 134.639 199 134.188 198.221C133.737 197.442 133.5 196.559 133.5 195.661V150.316C133.5 150.316 133.5 150.316 133.5 150.316C133.5 149.417 133.737 148.534 134.188 147.756C134.639 146.977 135.288 146.33 136.07 145.88Z" stroke="#212151" stroke-width="3"/>
</g>
<defs>
<filter id="filter0_d" x="-11" y="80" width="173" height="185.977" filterUnits="userSpaceOnUse" color-interpolation-filters="sRGB">
<feFlood flood-opacity="0" result="BackgroundImageFix"/>
<feColorMatrix in="SourceAlpha" type="matrix" values="0 0 0 0 0 0 0 0 0 0 0 0 0 0 0 0 0 0 127 0"/>
<feOffset/>
<feGaussianBlur stdDeviation="20"/>
<feColorMatrix type="matrix" values="0 0 0 0 0.945098 0 0 0 0 0.756863 0 0 0 0 0.168627 0 0 0 1 0"/>
<feBlend mode="normal" in2="BackgroundImageFix" result="effect1_dropShadow"/>
<feBlend mode="normal" in="SourceGraphic" in2="effect1_dropShadow" result="shape"/>
</filter>
<filter id="filter1_d" x="195" y="80" width="173" height="185.977" filterUnits="userSpaceOnUse" color-interpolation-filters="sRGB">
<feFlood flood-opacity="0" result="BackgroundImageFix"/>
<feColorMatrix in="SourceAlpha" type="matrix" values="0 0 0 0 0 0 0 0 0 0 0 0 0 0 0 0 0 0 127 0"/>
<feOffset/>
<feGaussianBlur stdDeviation="20"/>
<feColorMatrix type="matrix" values="0 0 0 0 0.945098 0 0 0 0 0.756863 0 0 0 0 0.168627 0 0 0 1 0"/>
<feBlend mode="normal" in2="BackgroundImageFix" result="effect1_dropShadow"/>
<feBlend mode="normal" in="SourceGraphic" in2="effect1_dropShadow" result="shape"/>
</filter>
<clipPath id="clip0">
<rect width="356" height="302" fill="white"/>
</clipPath>
</defs>
</svg>
