<svg width="340" height="236" viewBox="0 0 340 236" fill="none" xmlns="http://www.w3.org/2000/svg">
<path d="M40.3072 173.768C40.3712 173.907 40.4032 174.045 40.4032 174.184C40.4032 174.429 40.3019 174.637 40.0992 174.808C39.9072 174.979 39.6832 175.064 39.4272 175.064C39.2565 175.064 39.0965 175.021 38.9472 174.936C38.7979 174.84 38.6805 174.696 38.5952 174.504L37.6352 172.36H32.0032L31.0432 174.504C30.9579 174.696 30.8405 174.84 30.6912 174.936C30.5419 175.021 30.3765 175.064 30.1952 175.064C29.9499 175.064 29.7259 174.979 29.5232 174.808C29.3205 174.637 29.2192 174.429 29.2192 174.184C29.2192 174.045 29.2512 173.907 29.3152 173.768L33.7312 164.28C33.8272 164.067 33.9712 163.907 34.1632 163.8C34.3659 163.683 34.5792 163.624 34.8032 163.624C35.0272 163.624 35.2352 163.683 35.4272 163.8C35.6299 163.907 35.7792 164.067 35.8752 164.28L40.3072 173.768ZM32.7072 170.76H36.9312L34.8192 166.008L32.7072 170.76ZM46.6388 175.144C45.5508 175.144 44.5961 174.909 43.7748 174.44C42.9641 173.971 42.3401 173.299 41.9028 172.424C41.4655 171.549 41.2468 170.525 41.2468 169.352C41.2468 168.179 41.4655 167.16 41.9028 166.296C42.3401 165.421 42.9641 164.749 43.7748 164.28C44.5961 163.811 45.5508 163.576 46.6388 163.576C47.3428 163.576 48.0041 163.683 48.6228 163.896C49.2415 164.099 49.7908 164.397 50.2708 164.792C50.4095 164.899 50.5055 165.011 50.5588 165.128C50.6121 165.245 50.6388 165.389 50.6388 165.56C50.6388 165.795 50.5748 165.992 50.4468 166.152C50.3188 166.312 50.1641 166.392 49.9828 166.392C49.7695 166.392 49.5508 166.317 49.3268 166.168C48.8681 165.827 48.4415 165.592 48.0468 165.464C47.6521 165.325 47.2148 165.256 46.7348 165.256C45.6255 165.256 44.7828 165.603 44.2068 166.296C43.6415 166.989 43.3588 168.008 43.3588 169.352C43.3588 170.707 43.6415 171.731 44.2068 172.424C44.7828 173.117 45.6255 173.464 46.7348 173.464C47.1935 173.464 47.6148 173.395 47.9988 173.256C48.3935 173.117 48.8361 172.883 49.3268 172.552C49.4335 172.488 49.5401 172.435 49.6468 172.392C49.7535 172.349 49.8655 172.328 49.9828 172.328C50.1641 172.328 50.3188 172.408 50.4468 172.568C50.5748 172.728 50.6388 172.925 50.6388 173.16C50.6388 173.32 50.6121 173.464 50.5588 173.592C50.5055 173.709 50.4095 173.821 50.2708 173.928C49.7908 174.323 49.2415 174.627 48.6228 174.84C48.0041 175.043 47.3428 175.144 46.6388 175.144ZM61.2586 163.64C61.5679 163.64 61.8132 163.736 61.9946 163.928C62.1759 164.109 62.2666 164.355 62.2666 164.664V174.056C62.2666 174.365 62.1706 174.616 61.9786 174.808C61.7972 175 61.5572 175.096 61.2586 175.096C60.9492 175.096 60.7039 175 60.5226 174.808C60.3412 174.616 60.2506 174.365 60.2506 174.056V170.104H54.4746V174.056C54.4746 174.365 54.3786 174.616 54.1866 174.808C54.0052 175 53.7599 175.096 53.4506 175.096C53.1519 175.096 52.9066 175 52.7146 174.808C52.5332 174.616 52.4426 174.365 52.4426 174.056V164.664C52.4426 164.355 52.5332 164.109 52.7146 163.928C52.8959 163.736 53.1412 163.64 53.4506 163.64C53.7599 163.64 54.0052 163.736 54.1866 163.928C54.3786 164.109 54.4746 164.355 54.4746 164.664V168.44H60.2506V164.664C60.2506 164.355 60.3412 164.109 60.5226 163.928C60.7039 163.736 60.9492 163.64 61.2586 163.64ZM65.7166 175.096C65.4072 175.096 65.1566 175 64.9646 174.808C64.7832 174.616 64.6926 174.365 64.6926 174.056V164.664C64.6926 164.355 64.7832 164.109 64.9646 163.928C65.1566 163.736 65.4072 163.64 65.7166 163.64C66.0366 163.64 66.2872 163.736 66.4686 163.928C66.6606 164.109 66.7566 164.355 66.7566 164.664V174.056C66.7566 174.365 66.6606 174.616 66.4686 174.808C66.2872 175 66.0366 175.096 65.7166 175.096ZM70.1846 175C69.8752 175 69.6299 174.915 69.4486 174.744C69.2779 174.573 69.1926 174.333 69.1926 174.024V164.696C69.1926 164.387 69.2779 164.147 69.4486 163.976C69.6299 163.805 69.8752 163.72 70.1846 163.72H75.9606C76.2699 163.72 76.5099 163.789 76.6806 163.928C76.8512 164.067 76.9366 164.264 76.9366 164.52C76.9366 164.787 76.8512 164.995 76.6806 165.144C76.5099 165.283 76.2699 165.352 75.9606 165.352H71.2086V168.456H75.6406C75.9499 168.456 76.1899 168.525 76.3606 168.664C76.5312 168.803 76.6166 169.005 76.6166 169.272C76.6166 169.528 76.5312 169.725 76.3606 169.864C76.1899 170.003 75.9499 170.072 75.6406 170.072H71.2086V173.368H75.9606C76.2699 173.368 76.5099 173.443 76.6806 173.592C76.8512 173.731 76.9366 173.933 76.9366 174.2C76.9366 174.456 76.8512 174.653 76.6806 174.792C76.5099 174.931 76.2699 175 75.9606 175H70.1846ZM86.8224 164.168C86.9931 163.805 87.2758 163.624 87.6704 163.624C87.9371 163.624 88.1771 163.709 88.3904 163.88C88.6038 164.051 88.7104 164.264 88.7104 164.52C88.7104 164.637 88.6784 164.771 88.6144 164.92L84.1824 174.456C84.0864 174.659 83.9371 174.819 83.7344 174.936C83.5424 175.043 83.3344 175.096 83.1104 175.096C82.8864 175.096 82.6731 175.043 82.4704 174.936C82.2784 174.819 82.1344 174.659 82.0384 174.456L77.6224 164.92C77.5584 164.771 77.5264 164.643 77.5264 164.536C77.5264 164.269 77.6331 164.051 77.8464 163.88C78.0704 163.709 78.3211 163.624 78.5984 163.624C78.7798 163.624 78.9451 163.672 79.0944 163.768C79.2544 163.853 79.3771 163.987 79.4624 164.168L83.1424 172.344L86.8224 164.168ZM91.0283 175C90.719 175 90.4736 174.915 90.2923 174.744C90.1216 174.573 90.0363 174.333 90.0363 174.024V164.696C90.0363 164.387 90.1216 164.147 90.2923 163.976C90.4736 163.805 90.719 163.72 91.0283 163.72H96.8043C97.1136 163.72 97.3536 163.789 97.5243 163.928C97.695 164.067 97.7803 164.264 97.7803 164.52C97.7803 164.787 97.695 164.995 97.5243 165.144C97.3536 165.283 97.1136 165.352 96.8043 165.352H92.0523V168.456H96.4843C96.7936 168.456 97.0336 168.525 97.2043 168.664C97.375 168.803 97.4603 169.005 97.4603 169.272C97.4603 169.528 97.375 169.725 97.2043 169.864C97.0336 170.003 96.7936 170.072 96.4843 170.072H92.0523V173.368H96.8043C97.1136 173.368 97.3536 173.443 97.5243 173.592C97.695 173.731 97.7803 173.933 97.7803 174.2C97.7803 174.456 97.695 174.653 97.5243 174.792C97.3536 174.931 97.1136 175 96.8043 175H91.0283ZM107.498 175.08C107.178 175.08 106.922 174.989 106.73 174.808C106.549 174.616 106.458 174.365 106.458 174.056V165.416H103.546C102.906 165.416 102.586 165.133 102.586 164.568C102.586 164.003 102.906 163.72 103.546 163.72H111.434C112.074 163.72 112.394 164.003 112.394 164.568C112.394 165.133 112.074 165.416 111.434 165.416H108.522V174.056C108.522 174.365 108.426 174.616 108.234 174.808C108.053 174.989 107.807 175.08 107.498 175.08ZM117.967 175.144C116.868 175.144 115.913 174.909 115.103 174.44C114.303 173.971 113.684 173.299 113.247 172.424C112.809 171.549 112.591 170.525 112.591 169.352C112.591 168.179 112.804 167.16 113.231 166.296C113.668 165.421 114.292 164.749 115.103 164.28C115.913 163.811 116.868 163.576 117.967 163.576C119.065 163.576 120.015 163.811 120.815 164.28C121.625 164.749 122.244 165.421 122.671 166.296C123.108 167.16 123.327 168.179 123.327 169.352C123.327 170.525 123.108 171.549 122.671 172.424C122.233 173.299 121.609 173.971 120.799 174.44C119.999 174.909 119.055 175.144 117.967 175.144ZM117.967 173.496C119.001 173.496 119.807 173.139 120.383 172.424C120.969 171.709 121.263 170.685 121.263 169.352C121.263 168.019 120.969 167 120.383 166.296C119.807 165.581 119.001 165.224 117.967 165.224C116.921 165.224 116.105 165.581 115.519 166.296C114.943 167 114.655 168.019 114.655 169.352C114.655 170.685 114.943 171.709 115.519 172.424C116.105 173.139 116.921 173.496 117.967 173.496ZM134.163 173.448C134.377 173.651 134.483 173.88 134.483 174.136C134.483 174.381 134.387 174.6 134.195 174.792C134.014 174.973 133.795 175.064 133.539 175.064C133.273 175.064 133.027 174.952 132.803 174.728L127.475 169.736V174.056C127.475 174.365 127.379 174.616 127.187 174.808C127.006 175 126.755 175.096 126.435 175.096C126.126 175.096 125.875 175 125.683 174.808C125.502 174.616 125.411 174.365 125.411 174.056V164.664C125.411 164.355 125.502 164.109 125.683 163.928C125.875 163.736 126.126 163.64 126.435 163.64C126.755 163.64 127.006 163.736 127.187 163.928C127.379 164.109 127.475 164.355 127.475 164.664V168.776L132.627 163.944C132.819 163.752 133.038 163.656 133.283 163.656C133.529 163.656 133.742 163.752 133.923 163.944C134.115 164.125 134.211 164.339 134.211 164.584C134.211 164.829 134.105 165.053 133.891 165.256L129.587 169.192L134.163 173.448ZM136.966 175C136.656 175 136.411 174.915 136.23 174.744C136.059 174.573 135.974 174.333 135.974 174.024V164.696C135.974 164.387 136.059 164.147 136.23 163.976C136.411 163.805 136.656 163.72 136.966 163.72H142.742C143.051 163.72 143.291 163.789 143.462 163.928C143.632 164.067 143.718 164.264 143.718 164.52C143.718 164.787 143.632 164.995 143.462 165.144C143.291 165.283 143.051 165.352 142.742 165.352H137.99V168.456H142.422C142.731 168.456 142.971 168.525 143.142 168.664C143.312 168.803 143.398 169.005 143.398 169.272C143.398 169.528 143.312 169.725 143.142 169.864C142.971 170.003 142.731 170.072 142.422 170.072H137.99V173.368H142.742C143.051 173.368 143.291 173.443 143.462 173.592C143.632 173.731 143.718 173.933 143.718 174.2C143.718 174.456 143.632 174.653 143.462 174.792C143.291 174.931 143.051 175 142.742 175H136.966ZM153.94 163.64C154.238 163.64 154.473 163.736 154.644 163.928C154.825 164.109 154.916 164.355 154.916 164.664V174.056C154.916 174.365 154.825 174.616 154.644 174.808C154.462 175 154.228 175.096 153.94 175.096C153.598 175.096 153.337 174.973 153.156 174.728L147.316 167.128V174.056C147.316 174.365 147.23 174.616 147.06 174.808C146.889 175 146.654 175.096 146.356 175.096C146.057 175.096 145.822 175 145.652 174.808C145.481 174.616 145.396 174.365 145.396 174.056V164.664C145.396 164.355 145.486 164.109 145.668 163.928C145.849 163.736 146.089 163.64 146.388 163.64C146.718 163.64 146.974 163.763 147.156 164.008L152.98 171.576V164.664C152.98 164.355 153.065 164.109 153.236 163.928C153.417 163.736 153.652 163.64 153.94 163.64ZM32.2429 183.64C32.5523 183.64 32.7976 183.736 32.9789 183.928C33.1603 184.109 33.2509 184.355 33.2509 184.664V194.056C33.2509 194.365 33.1549 194.616 32.9629 194.808C32.7816 195 32.5416 195.096 32.2429 195.096C31.9336 195.096 31.6883 195 31.5069 194.808C31.3256 194.616 31.2349 194.365 31.2349 194.056V190.104H25.4589V194.056C25.4589 194.365 25.3629 194.616 25.1709 194.808C24.9896 195 24.7443 195.096 24.4349 195.096C24.1363 195.096 23.8909 195 23.6989 194.808C23.5176 194.616 23.4269 194.365 23.4269 194.056V184.664C23.4269 184.355 23.5176 184.109 23.6989 183.928C23.8803 183.736 24.1256 183.64 24.4349 183.64C24.7443 183.64 24.9896 183.736 25.1709 183.928C25.3629 184.109 25.4589 184.355 25.4589 184.664V188.44H31.2349V184.664C31.2349 184.355 31.3256 184.109 31.5069 183.928C31.6883 183.736 31.9336 183.64 32.2429 183.64ZM40.7009 195.144C39.6023 195.144 38.6476 194.909 37.8369 194.44C37.0369 193.971 36.4183 193.299 35.9809 192.424C35.5436 191.549 35.3249 190.525 35.3249 189.352C35.3249 188.179 35.5383 187.16 35.9649 186.296C36.4023 185.421 37.0263 184.749 37.8369 184.28C38.6476 183.811 39.6023 183.576 40.7009 183.576C41.7996 183.576 42.7489 183.811 43.5489 184.28C44.3596 184.749 44.9783 185.421 45.4049 186.296C45.8423 187.16 46.0609 188.179 46.0609 189.352C46.0609 190.525 45.8423 191.549 45.4049 192.424C44.9676 193.299 44.3436 193.971 43.5329 194.44C42.7329 194.909 41.7889 195.144 40.7009 195.144ZM40.7009 193.496C41.7356 193.496 42.5409 193.139 43.1169 192.424C43.7036 191.709 43.9969 190.685 43.9969 189.352C43.9969 188.019 43.7036 187 43.1169 186.296C42.5409 185.581 41.7356 185.224 40.7009 185.224C39.6556 185.224 38.8396 185.581 38.2529 186.296C37.6769 187 37.3889 188.019 37.3889 189.352C37.3889 190.685 37.6769 191.709 38.2529 192.424C38.8396 193.139 39.6556 193.496 40.7009 193.496ZM49.1217 195C48.8124 195 48.5724 194.915 48.4017 194.744C48.231 194.573 48.1457 194.339 48.1457 194.04V184.664C48.1457 184.355 48.2364 184.109 48.4177 183.928C48.6097 183.736 48.8604 183.64 49.1697 183.64C49.4897 183.64 49.7404 183.736 49.9217 183.928C50.1137 184.109 50.2097 184.355 50.2097 184.664V193.304H54.7057C55.3457 193.304 55.6657 193.587 55.6657 194.152C55.6657 194.717 55.3457 195 54.7057 195H49.1217ZM58.0127 195C57.7034 195 57.458 194.915 57.2767 194.744C57.106 194.573 57.0207 194.333 57.0207 194.024V184.696C57.0207 184.387 57.106 184.147 57.2767 183.976C57.458 183.805 57.7034 183.72 58.0127 183.72H61.1807C63.026 183.72 64.4554 184.216 65.4687 185.208C66.4927 186.189 67.0047 187.571 67.0047 189.352C67.0047 191.144 66.4927 192.536 65.4687 193.528C64.4554 194.509 63.026 195 61.1807 195H58.0127ZM61.0527 193.32C63.6447 193.32 64.9407 191.997 64.9407 189.352C64.9407 186.717 63.6447 185.4 61.0527 185.4H59.0847V193.32H61.0527ZM70.0752 195C69.7659 195 69.5205 194.915 69.3392 194.744C69.1685 194.573 69.0832 194.333 69.0832 194.024V184.696C69.0832 184.387 69.1685 184.147 69.3392 183.976C69.5205 183.805 69.7659 183.72 70.0752 183.72H75.8512C76.1605 183.72 76.4005 183.789 76.5712 183.928C76.7419 184.067 76.8272 184.264 76.8272 184.52C76.8272 184.787 76.7419 184.995 76.5712 185.144C76.4005 185.283 76.1605 185.352 75.8512 185.352H71.0992V188.456H75.5312C75.8405 188.456 76.0805 188.525 76.2512 188.664C76.4219 188.803 76.5072 189.005 76.5072 189.272C76.5072 189.528 76.4219 189.725 76.2512 189.864C76.0805 190.003 75.8405 190.072 75.5312 190.072H71.0992V193.368H75.8512C76.1605 193.368 76.4005 193.443 76.5712 193.592C76.7419 193.731 76.8272 193.933 76.8272 194.2C76.8272 194.456 76.7419 194.653 76.5712 194.792C76.4005 194.931 76.1605 195 75.8512 195H70.0752ZM87.5291 193.704C87.6571 193.896 87.7211 194.083 87.7211 194.264C87.7211 194.509 87.6197 194.712 87.4171 194.872C87.2251 195.032 86.9957 195.112 86.7291 195.112C86.5584 195.112 86.3931 195.075 86.2331 195C86.0837 194.915 85.9557 194.792 85.8491 194.632L83.7211 191.4C83.5077 191.059 83.2784 190.819 83.0331 190.68C82.7984 190.541 82.4891 190.472 82.1051 190.472H80.5371V194.056C80.5371 194.376 80.4464 194.632 80.2651 194.824C80.0837 195.005 79.8384 195.096 79.5291 195.096C79.2197 195.096 78.9691 195.005 78.7771 194.824C78.5957 194.632 78.5051 194.376 78.5051 194.056V184.696C78.5051 184.387 78.5904 184.147 78.7611 183.976C78.9424 183.805 79.1877 183.72 79.4971 183.72H83.4971C84.7771 183.72 85.7477 184.008 86.4091 184.584C87.0811 185.149 87.4171 185.971 87.4171 187.048C87.4171 187.923 87.1664 188.643 86.6651 189.208C86.1744 189.763 85.4757 190.12 84.5691 190.28C84.8784 190.355 85.1504 190.488 85.3851 190.68C85.6197 190.872 85.8491 191.139 86.0731 191.48L87.5291 193.704ZM83.2091 188.888C83.9877 188.888 84.5584 188.744 84.9211 188.456C85.2837 188.157 85.4651 187.704 85.4651 187.096C85.4651 186.477 85.2837 186.029 84.9211 185.752C84.5584 185.464 83.9877 185.32 83.2091 185.32H80.5211V188.888H83.2091ZM98.9978 195.144C97.8991 195.144 96.9445 194.909 96.1338 194.44C95.3338 193.971 94.7151 193.299 94.2778 192.424C93.8405 191.549 93.6218 190.525 93.6218 189.352C93.6218 188.179 93.8351 187.16 94.2618 186.296C94.6991 185.421 95.3231 184.749 96.1338 184.28C96.9445 183.811 97.8991 183.576 98.9978 183.576C100.096 183.576 101.046 183.811 101.846 184.28C102.656 184.749 103.275 185.421 103.702 186.296C104.139 187.16 104.358 188.179 104.358 189.352C104.358 190.525 104.139 191.549 103.702 192.424C103.264 193.299 102.64 193.971 101.83 194.44C101.03 194.909 100.086 195.144 98.9978 195.144ZM98.9978 193.496C100.032 193.496 100.838 193.139 101.414 192.424C102 191.709 102.294 190.685 102.294 189.352C102.294 188.019 102 187 101.414 186.296C100.838 185.581 100.032 185.224 98.9978 185.224C97.9525 185.224 97.1365 185.581 96.5498 186.296C95.9738 187 95.6858 188.019 95.6858 189.352C95.6858 190.685 95.9738 191.709 96.5498 192.424C97.1365 193.139 97.9525 193.496 98.9978 193.496ZM107.467 195.096C107.157 195.096 106.907 195 106.715 194.808C106.533 194.616 106.443 194.365 106.443 194.056V184.696C106.443 184.387 106.528 184.147 106.699 183.976C106.88 183.805 107.125 183.72 107.435 183.72H113.051C113.701 183.72 114.027 183.997 114.027 184.552C114.027 185.096 113.701 185.368 113.051 185.368H108.475V188.44H112.731C113.381 188.44 113.707 188.717 113.707 189.272C113.707 189.816 113.381 190.088 112.731 190.088H108.475V194.056C108.475 194.365 108.384 194.616 108.203 194.808C108.021 195 107.776 195.096 107.467 195.096ZM124.873 195.144C123.774 195.144 122.819 194.909 122.009 194.44C121.209 193.971 120.59 193.299 120.153 192.424C119.715 191.549 119.497 190.525 119.497 189.352C119.497 188.179 119.71 187.16 120.137 186.296C120.574 185.421 121.198 184.749 122.009 184.28C122.819 183.811 123.774 183.576 124.873 183.576C125.971 183.576 126.921 183.811 127.721 184.28C128.531 184.749 129.15 185.421 129.577 186.296C130.014 187.16 130.233 188.179 130.233 189.352C130.233 190.525 130.014 191.549 129.577 192.424C129.139 193.299 128.515 193.971 127.705 194.44C126.905 194.909 125.961 195.144 124.873 195.144ZM124.873 193.496C125.907 193.496 126.713 193.139 127.289 192.424C127.875 191.709 128.169 190.685 128.169 189.352C128.169 188.019 127.875 187 127.289 186.296C126.713 185.581 125.907 185.224 124.873 185.224C123.827 185.224 123.011 185.581 122.425 186.296C121.849 187 121.561 188.019 121.561 189.352C121.561 190.685 121.849 191.709 122.425 192.424C123.011 193.139 123.827 193.496 124.873 193.496ZM140.244 184.168C140.415 183.805 140.698 183.624 141.092 183.624C141.359 183.624 141.599 183.709 141.812 183.88C142.026 184.051 142.132 184.264 142.132 184.52C142.132 184.637 142.1 184.771 142.036 184.92L137.604 194.456C137.508 194.659 137.359 194.819 137.156 194.936C136.964 195.043 136.756 195.096 136.532 195.096C136.308 195.096 136.095 195.043 135.892 194.936C135.7 194.819 135.556 194.659 135.46 194.456L131.044 184.92C130.98 184.771 130.948 184.643 130.948 184.536C130.948 184.269 131.055 184.051 131.268 183.88C131.492 183.709 131.743 183.624 132.02 183.624C132.202 183.624 132.367 183.672 132.516 183.768C132.676 183.853 132.799 183.987 132.884 184.168L136.564 192.344L140.244 184.168ZM144.45 195C144.141 195 143.896 194.915 143.714 194.744C143.544 194.573 143.458 194.333 143.458 194.024V184.696C143.458 184.387 143.544 184.147 143.714 183.976C143.896 183.805 144.141 183.72 144.45 183.72H150.226C150.536 183.72 150.776 183.789 150.946 183.928C151.117 184.067 151.202 184.264 151.202 184.52C151.202 184.787 151.117 184.995 150.946 185.144C150.776 185.283 150.536 185.352 150.226 185.352H145.474V188.456H149.906C150.216 188.456 150.456 188.525 150.626 188.664C150.797 188.803 150.882 189.005 150.882 189.272C150.882 189.528 150.797 189.725 150.626 189.864C150.456 190.003 150.216 190.072 149.906 190.072H145.474V193.368H150.226C150.536 193.368 150.776 193.443 150.946 193.592C151.117 193.731 151.202 193.933 151.202 194.2C151.202 194.456 151.117 194.653 150.946 194.792C150.776 194.931 150.536 195 150.226 195H144.45ZM161.904 193.704C162.032 193.896 162.096 194.083 162.096 194.264C162.096 194.509 161.995 194.712 161.792 194.872C161.6 195.032 161.371 195.112 161.104 195.112C160.933 195.112 160.768 195.075 160.608 195C160.459 194.915 160.331 194.792 160.224 194.632L158.096 191.4C157.883 191.059 157.653 190.819 157.408 190.68C157.173 190.541 156.864 190.472 156.48 190.472H154.912V194.056C154.912 194.376 154.821 194.632 154.64 194.824C154.459 195.005 154.213 195.096 153.904 195.096C153.595 195.096 153.344 195.005 153.152 194.824C152.971 194.632 152.88 194.376 152.88 194.056V184.696C152.88 184.387 152.965 184.147 153.136 183.976C153.317 183.805 153.563 183.72 153.872 183.72H157.872C159.152 183.72 160.123 184.008 160.784 184.584C161.456 185.149 161.792 185.971 161.792 187.048C161.792 187.923 161.541 188.643 161.04 189.208C160.549 189.763 159.851 190.12 158.944 190.28C159.253 190.355 159.525 190.488 159.76 190.68C159.995 190.872 160.224 191.139 160.448 191.48L161.904 193.704ZM157.584 188.888C158.363 188.888 158.933 188.744 159.296 188.456C159.659 188.157 159.84 187.704 159.84 187.096C159.84 186.477 159.659 186.029 159.296 185.752C158.933 185.464 158.363 185.32 157.584 185.32H154.896V188.888H157.584ZM78.2201 207.784C78.9241 207.784 79.5428 207.939 80.0761 208.248C80.6201 208.547 81.0415 208.968 81.3401 209.512C81.6388 210.056 81.7881 210.68 81.7881 211.384C81.7881 212.12 81.6175 212.771 81.2761 213.336C80.9455 213.901 80.4708 214.344 79.8521 214.664C79.2441 214.973 78.5401 215.128 77.7401 215.128C77.0788 215.128 76.4281 215.021 75.7881 214.808C75.1588 214.584 74.6201 214.285 74.1721 213.912C73.9268 213.699 73.8041 213.448 73.8041 213.16C73.8041 212.925 73.8681 212.728 73.9961 212.568C74.1348 212.397 74.2948 212.312 74.4761 212.312C74.5828 212.312 74.6841 212.333 74.7801 212.376C74.8761 212.408 74.9881 212.467 75.1161 212.552C75.5428 212.851 75.9588 213.08 76.3641 213.24C76.7695 213.4 77.2015 213.48 77.6601 213.48C78.3641 213.48 78.9028 213.304 79.2761 212.952C79.6495 212.6 79.8361 212.099 79.8361 211.448C79.8361 210.819 79.6441 210.323 79.2601 209.96C78.8868 209.587 78.3695 209.4 77.7081 209.4C77.2921 209.4 76.9188 209.459 76.5881 209.576C76.2681 209.693 75.9375 209.891 75.5961 210.168C75.3935 210.307 75.1855 210.376 74.9721 210.376C74.7588 210.376 74.5775 210.312 74.4281 210.184C74.2788 210.056 74.2041 209.885 74.2041 209.672V204.68C74.2041 204.381 74.2895 204.147 74.4601 203.976C74.6308 203.805 74.8708 203.72 75.1801 203.72H80.5081C81.1481 203.72 81.4681 203.987 81.4681 204.52C81.4681 205.053 81.1481 205.32 80.5081 205.32H76.2201V208.36C76.7641 207.976 77.4308 207.784 78.2201 207.784ZM87.2219 215.144C85.8885 215.144 84.8699 214.653 84.1659 213.672C83.4619 212.68 83.1099 211.24 83.1099 209.352C83.1099 207.475 83.4619 206.045 84.1659 205.064C84.8699 204.072 85.8885 203.576 87.2219 203.576C88.5552 203.576 89.5739 204.072 90.2779 205.064C90.9819 206.045 91.3339 207.475 91.3339 209.352C91.3339 211.229 90.9819 212.664 90.2779 213.656C89.5739 214.648 88.5552 215.144 87.2219 215.144ZM87.2219 213.528C87.9472 213.528 88.4752 213.197 88.8059 212.536C89.1365 211.864 89.3019 210.803 89.3019 209.352C89.3019 207.891 89.1365 206.835 88.8059 206.184C88.4752 205.523 87.9472 205.192 87.2219 205.192C86.4965 205.192 85.9685 205.523 85.6379 206.184C85.3072 206.845 85.1419 207.901 85.1419 209.352C85.1419 210.803 85.3072 211.864 85.6379 212.536C85.9685 213.197 86.4965 213.528 87.2219 213.528ZM96.8156 215.144C95.4823 215.144 94.4636 214.653 93.7596 213.672C93.0556 212.68 92.7036 211.24 92.7036 209.352C92.7036 207.475 93.0556 206.045 93.7596 205.064C94.4636 204.072 95.4823 203.576 96.8156 203.576C98.149 203.576 99.1676 204.072 99.8716 205.064C100.576 206.045 100.928 207.475 100.928 209.352C100.928 211.229 100.576 212.664 99.8716 213.656C99.1676 214.648 98.149 215.144 96.8156 215.144ZM96.8156 213.528C97.541 213.528 98.069 213.197 98.3996 212.536C98.7303 211.864 98.8956 210.803 98.8956 209.352C98.8956 207.891 98.7303 206.835 98.3996 206.184C98.069 205.523 97.541 205.192 96.8156 205.192C96.0903 205.192 95.5623 205.523 95.2316 206.184C94.901 206.845 94.7356 207.901 94.7356 209.352C94.7356 210.803 94.901 211.864 95.2316 212.536C95.5623 213.197 96.0903 213.528 96.8156 213.528ZM111.577 213.448C111.791 213.651 111.897 213.88 111.897 214.136C111.897 214.381 111.801 214.6 111.609 214.792C111.428 214.973 111.209 215.064 110.953 215.064C110.687 215.064 110.441 214.952 110.217 214.728L104.889 209.736V214.056C104.889 214.365 104.793 214.616 104.601 214.808C104.42 215 104.169 215.096 103.849 215.096C103.54 215.096 103.289 215 103.097 214.808C102.916 214.616 102.825 214.365 102.825 214.056V204.664C102.825 204.355 102.916 204.109 103.097 203.928C103.289 203.736 103.54 203.64 103.849 203.64C104.169 203.64 104.42 203.736 104.601 203.928C104.793 204.109 104.889 204.355 104.889 204.664V208.776L110.041 203.944C110.233 203.752 110.452 203.656 110.697 203.656C110.943 203.656 111.156 203.752 111.337 203.944C111.529 204.125 111.625 204.339 111.625 204.584C111.625 204.829 111.519 205.053 111.305 205.256L107.001 209.192L111.577 213.448Z" fill="white"/>
<path d="M75.2649 108.336C75.9049 108.336 76.2249 108.608 76.2249 109.152C76.2249 109.717 75.9049 110 75.2649 110H69.1849C68.9075 110 68.6889 109.92 68.5289 109.76C68.3689 109.589 68.2889 109.381 68.2889 109.136C68.2889 108.816 68.4115 108.528 68.6569 108.272L72.3049 104.352C72.7529 103.861 73.0782 103.413 73.2809 103.008C73.4942 102.592 73.6009 102.181 73.6009 101.776C73.6009 101.275 73.4569 100.891 73.1689 100.624C72.8809 100.357 72.4702 100.224 71.9369 100.224C71.4995 100.224 71.0729 100.309 70.6569 100.48C70.2515 100.64 69.8409 100.864 69.4249 101.152C69.3182 101.227 69.2115 101.291 69.1049 101.344C68.9982 101.387 68.8915 101.408 68.7849 101.408C68.6035 101.408 68.4435 101.323 68.3049 101.152C68.1769 100.981 68.1129 100.779 68.1129 100.544C68.1129 100.384 68.1395 100.245 68.1929 100.128C68.2569 100.011 68.3529 99.8987 68.4809 99.792C68.9502 99.4187 69.4995 99.1253 70.1289 98.912C70.7582 98.688 71.3875 98.576 72.0169 98.576C73.1155 98.576 73.9902 98.8533 74.6409 99.408C75.3022 99.9627 75.6329 100.709 75.6329 101.648C75.6329 102.299 75.4942 102.912 75.2169 103.488C74.9395 104.053 74.4702 104.688 73.8089 105.392L71.0409 108.336H75.2649ZM81.7063 110.144C80.3729 110.144 79.3543 109.653 78.6503 108.672C77.9463 107.68 77.5943 106.24 77.5943 104.352C77.5943 102.475 77.9463 101.045 78.6503 100.064C79.3543 99.072 80.3729 98.576 81.7063 98.576C83.0396 98.576 84.0583 99.072 84.7623 100.064C85.4663 101.045 85.8183 102.475 85.8183 104.352C85.8183 106.229 85.4663 107.664 84.7623 108.656C84.0583 109.648 83.0396 110.144 81.7063 110.144ZM81.7063 108.528C82.4316 108.528 82.9596 108.197 83.2903 107.536C83.6209 106.864 83.7863 105.803 83.7863 104.352C83.7863 102.891 83.6209 101.835 83.2903 101.184C82.9596 100.523 82.4316 100.192 81.7063 100.192C80.9809 100.192 80.4529 100.523 80.1223 101.184C79.7916 101.845 79.6263 102.901 79.6263 104.352C79.6263 105.803 79.7916 106.864 80.1223 107.536C80.4529 108.197 80.9809 108.528 81.7063 108.528ZM94.468 108.336C95.108 108.336 95.428 108.608 95.428 109.152C95.428 109.717 95.108 110 94.468 110H88.388C88.1107 110 87.892 109.92 87.732 109.76C87.572 109.589 87.492 109.381 87.492 109.136C87.492 108.816 87.6147 108.528 87.86 108.272L91.508 104.352C91.956 103.861 92.2813 103.413 92.484 103.008C92.6973 102.592 92.804 102.181 92.804 101.776C92.804 101.275 92.66 100.891 92.372 100.624C92.084 100.357 91.6733 100.224 91.14 100.224C90.7027 100.224 90.276 100.309 89.86 100.48C89.4547 100.64 89.044 100.864 88.628 101.152C88.5213 101.227 88.4147 101.291 88.308 101.344C88.2013 101.387 88.0947 101.408 87.988 101.408C87.8067 101.408 87.6467 101.323 87.508 101.152C87.38 100.981 87.316 100.779 87.316 100.544C87.316 100.384 87.3427 100.245 87.396 100.128C87.46 100.011 87.556 99.8987 87.684 99.792C88.1533 99.4187 88.7027 99.1253 89.332 98.912C89.9613 98.688 90.5907 98.576 91.22 98.576C92.3187 98.576 93.1933 98.8533 93.844 99.408C94.5053 99.9627 94.836 100.709 94.836 101.648C94.836 102.299 94.6973 102.912 94.42 103.488C94.1427 104.053 93.6733 104.688 93.012 105.392L90.244 108.336H94.468ZM104.125 108.336C104.765 108.336 105.085 108.608 105.085 109.152C105.085 109.717 104.765 110 104.125 110H98.7174C98.0667 110 97.7414 109.717 97.7414 109.152C97.7414 108.608 98.0667 108.336 98.7174 108.336H100.381V101.04L98.8454 101.984C98.696 102.069 98.5627 102.112 98.4454 102.112C98.2214 102.112 98.0294 102.016 97.8694 101.824C97.72 101.632 97.6454 101.419 97.6454 101.184C97.6454 100.875 97.784 100.635 98.0614 100.464L100.541 98.928C100.861 98.736 101.165 98.64 101.453 98.64C101.752 98.64 101.992 98.7307 102.173 98.912C102.355 99.0933 102.445 99.344 102.445 99.664V108.336H104.125Z" fill="#F1C12B"/>
<path d="M76.2556 92.144C75.157 92.144 74.2023 91.9093 73.3916 91.44C72.5916 90.9707 71.973 90.2987 71.5356 89.424C71.0983 88.5493 70.8796 87.5253 70.8796 86.352C70.8796 85.1787 71.093 84.16 71.5196 83.296C71.957 82.4213 72.581 81.7493 73.3916 81.28C74.2023 80.8107 75.157 80.576 76.2556 80.576C77.3543 80.576 78.3036 80.8107 79.1036 81.28C79.9143 81.7493 80.533 82.4213 80.9596 83.296C81.397 84.16 81.6156 85.1787 81.6156 86.352C81.6156 87.5253 81.397 88.5493 80.9596 89.424C80.5223 90.2987 79.8983 90.9707 79.0876 91.44C78.2876 91.9093 77.3436 92.144 76.2556 92.144ZM76.2556 90.496C77.2903 90.496 78.0956 90.1387 78.6716 89.424C79.2583 88.7093 79.5516 87.6853 79.5516 86.352C79.5516 85.0187 79.2583 84 78.6716 83.296C78.0956 82.5813 77.2903 82.224 76.2556 82.224C75.2103 82.224 74.3943 82.5813 73.8076 83.296C73.2316 84 72.9436 85.0187 72.9436 86.352C72.9436 87.6853 73.2316 88.7093 73.8076 89.424C74.3943 90.1387 75.2103 90.496 76.2556 90.496ZM88.7404 92.144C87.6524 92.144 86.6977 91.9093 85.8764 91.44C85.0657 90.9707 84.4417 90.2987 84.0044 89.424C83.567 88.5493 83.3484 87.5253 83.3484 86.352C83.3484 85.1787 83.567 84.16 84.0044 83.296C84.4417 82.4213 85.0657 81.7493 85.8764 81.28C86.6977 80.8107 87.6524 80.576 88.7404 80.576C89.4444 80.576 90.1057 80.6827 90.7244 80.896C91.343 81.0987 91.8924 81.3973 92.3724 81.792C92.511 81.8987 92.607 82.0107 92.6604 82.128C92.7137 82.2453 92.7404 82.3893 92.7404 82.56C92.7404 82.7947 92.6764 82.992 92.5484 83.152C92.4204 83.312 92.2657 83.392 92.0844 83.392C91.871 83.392 91.6524 83.3173 91.4284 83.168C90.9697 82.8267 90.543 82.592 90.1484 82.464C89.7537 82.3253 89.3164 82.256 88.8364 82.256C87.727 82.256 86.8844 82.6027 86.3084 83.296C85.743 83.9893 85.4604 85.008 85.4604 86.352C85.4604 87.7067 85.743 88.7307 86.3084 89.424C86.8844 90.1173 87.727 90.464 88.8364 90.464C89.295 90.464 89.7164 90.3947 90.1004 90.256C90.495 90.1173 90.9377 89.8827 91.4284 89.552C91.535 89.488 91.6417 89.4347 91.7484 89.392C91.855 89.3493 91.967 89.328 92.0844 89.328C92.2657 89.328 92.4204 89.408 92.5484 89.568C92.6764 89.728 92.7404 89.9253 92.7404 90.16C92.7404 90.32 92.7137 90.464 92.6604 90.592C92.607 90.7093 92.511 90.8213 92.3724 90.928C91.8924 91.3227 91.343 91.6267 90.7244 91.84C90.1057 92.0427 89.4444 92.144 88.7404 92.144ZM98.0839 92.08C97.7639 92.08 97.5079 91.9893 97.3159 91.808C97.1345 91.616 97.0439 91.3653 97.0439 91.056V82.416H94.1319C93.4919 82.416 93.1719 82.1333 93.1719 81.568C93.1719 81.0027 93.4919 80.72 94.1319 80.72H102.02C102.66 80.72 102.98 81.0027 102.98 81.568C102.98 82.1333 102.66 82.416 102.02 82.416H99.1079V91.056C99.1079 91.3653 99.0119 91.616 98.8199 91.808C98.6385 91.9893 98.3932 92.08 98.0839 92.08Z" fill="#F1C12B"/>
<g filter="url(#filter0_d)">
<path d="M128.93 120.097L128.921 120.102L128.912 120.107L89.0645 143.794C88.2846 144.241 87.4003 144.477 86.5 144.477C85.5997 144.477 84.7154 144.241 83.9354 143.794L44.0879 120.107L44.0789 120.102L44.0698 120.097C43.2878 119.647 42.639 118.999 42.1881 118.221C41.7372 117.442 41.5 116.559 41.5 115.661V70.3158C41.5 69.4173 41.7372 68.5343 42.1881 67.7557C42.639 66.977 43.2878 66.3299 44.0698 65.8797L44.0789 65.8745L44.0879 65.8691L83.9353 42.1824C84.7153 41.7354 85.5996 41.4999 86.5 41.4999C87.4004 41.4999 88.2847 41.7353 89.0647 42.1824L128.912 65.8691L128.921 65.8745L128.93 65.8797C129.712 66.3299 130.361 66.977 130.812 67.7557C131.263 68.5343 131.5 69.4173 131.5 70.3157V115.661C131.5 115.661 131.5 115.661 131.5 115.661C131.5 116.559 131.263 117.442 130.812 118.221C130.361 118.999 129.712 119.647 128.93 120.097Z" stroke="#F1C12B" stroke-width="3"/>
</g>
<path d="M282.93 210.097L282.921 210.102L282.912 210.107L243.065 233.794C242.285 234.241 241.4 234.477 240.5 234.477C239.6 234.477 238.715 234.241 237.935 233.794L198.088 210.107L198.079 210.102L198.07 210.097C197.288 209.647 196.639 208.999 196.188 208.221C195.737 207.442 195.5 206.559 195.5 205.661V160.316C195.5 159.417 195.737 158.534 196.188 157.756C196.639 156.977 197.288 156.33 198.07 155.88L198.079 155.874L198.088 155.869L237.935 132.182C238.715 131.735 239.6 131.5 240.5 131.5C241.4 131.5 242.285 131.735 243.065 132.182L282.912 155.869L282.921 155.874L282.93 155.88C283.712 156.33 284.361 156.977 284.812 157.756C285.263 158.534 285.5 159.417 285.5 160.316V205.661C285.5 205.661 285.5 205.661 285.5 205.661C285.5 206.559 285.263 207.442 284.812 208.221C284.361 208.999 283.712 209.647 282.93 210.097Z" stroke="#212151" stroke-width="3"/>
<path d="M232.93 120.097L232.921 120.102L232.912 120.107L193.065 143.794C192.285 144.241 191.4 144.477 190.5 144.477C189.6 144.477 188.715 144.241 187.935 143.794L148.088 120.107L148.079 120.102L148.07 120.097C147.288 119.647 146.639 118.999 146.188 118.221C145.737 117.442 145.5 116.559 145.5 115.661V70.3158C145.5 69.4173 145.737 68.5343 146.188 67.7557C146.639 66.977 147.288 66.3299 148.07 65.8797L148.079 65.8745L148.088 65.8691L187.935 42.1824C188.715 41.7354 189.6 41.4999 190.5 41.4999C191.4 41.4999 192.285 41.7353 193.065 42.1824L232.912 65.8691L232.921 65.8745L232.93 65.8797C233.712 66.3299 234.361 66.977 234.812 67.7557C235.263 68.5343 235.5 69.4173 235.5 70.3157V115.661C235.5 115.661 235.5 115.661 235.5 115.661C235.5 116.559 235.263 117.442 234.812 118.221C234.361 118.999 233.712 119.647 232.93 120.097Z" stroke="#212151" stroke-width="3"/>
<path d="M335.93 122.097L335.921 122.102L335.912 122.107L296.065 145.794C295.285 146.241 294.4 146.477 293.5 146.477C292.6 146.477 291.715 146.241 290.935 145.794L251.088 122.107L251.079 122.102L251.07 122.097C250.288 121.647 249.639 120.999 249.188 120.221C248.737 119.442 248.5 118.559 248.5 117.661V72.3158C248.5 71.4173 248.737 70.5343 249.188 69.7557C249.639 68.977 250.288 68.3299 251.07 67.8797L251.079 67.8745L251.088 67.8691L290.935 44.1824C291.715 43.7354 292.6 43.4999 293.5 43.4999C294.4 43.4999 295.285 43.7353 296.065 44.1824L335.912 67.8691L335.921 67.8745L335.93 67.8797C336.712 68.3299 337.361 68.977 337.812 69.7557C338.263 70.5343 338.5 71.4173 338.5 72.3157V117.661C338.5 117.661 338.5 117.661 338.5 117.661C338.5 118.559 338.263 119.442 337.812 120.221C337.361 120.999 336.712 121.647 335.93 122.097Z" stroke="#212151" stroke-width="3"/>
<defs>
<filter id="filter0_d" x="0" y="0" width="173" height="185.977" filterUnits="userSpaceOnUse" color-interpolation-filters="sRGB">
<feFlood flood-opacity="0" result="BackgroundImageFix"/>
<feColorMatrix in="SourceAlpha" type="matrix" values="0 0 0 0 0 0 0 0 0 0 0 0 0 0 0 0 0 0 127 0"/>
<feOffset/>
<feGaussianBlur stdDeviation="20"/>
<feColorMatrix type="matrix" values="0 0 0 0 0.945098 0 0 0 0 0.756863 0 0 0 0 0.168627 0 0 0 1 0"/>
<feBlend mode="normal" in2="BackgroundImageFix" result="effect1_dropShadow"/>
<feBlend mode="normal" in="SourceGraphic" in2="effect1_dropShadow" result="shape"/>
</filter>
</defs>
</svg>
