<svg width="448" height="244" viewBox="0 0 448 244" fill="none" xmlns="http://www.w3.org/2000/svg">
<path d="M63.1169 220C62.4822 220 62.1649 219.683 62.1649 219.048V211.082C62.1649 210.447 62.4822 210.13 63.1169 210.13H65.8329C67.4849 210.13 68.7589 210.555 69.6549 211.404C70.5602 212.253 71.0129 213.471 71.0129 215.058C71.0129 216.635 70.5602 217.853 69.6549 218.712C68.7589 219.571 67.4849 220 65.8329 220H63.1169ZM63.9569 218.516H65.7209C67.9982 218.516 69.1369 217.363 69.1369 215.058C69.1369 212.762 67.9982 211.614 65.7209 211.614H63.9569V218.516ZM73.781 220C73.1463 220 72.829 219.683 72.829 219.048V211.082C72.829 210.447 73.1463 210.13 73.781 210.13H78.779C79.2643 210.13 79.507 210.363 79.507 210.83C79.507 211.315 79.2643 211.558 78.779 211.558H74.551V214.274H78.471C78.9563 214.274 79.199 214.512 79.199 214.988C79.199 215.464 78.9563 215.702 78.471 215.702H74.551V218.572H78.779C79.2643 218.572 79.507 218.81 79.507 219.286C79.507 219.762 79.2643 220 78.779 220H73.781ZM85.0615 220.112C84.5855 220.112 84.2448 219.879 84.0395 219.412L80.3855 211.208C80.2361 210.853 80.2408 210.569 80.3995 210.354C80.5675 210.13 80.8101 210.018 81.1275 210.018C81.3981 210.018 81.5988 210.079 81.7295 210.2C81.8695 210.312 81.9861 210.485 82.0795 210.718L85.0895 217.704L88.0995 210.704C88.2021 210.48 88.3235 210.312 88.4635 210.2C88.6035 210.079 88.7995 210.018 89.0515 210.018C89.3501 210.018 89.5741 210.13 89.7235 210.354C89.8821 210.578 89.8821 210.863 89.7235 211.208L86.0695 219.412C85.9668 219.645 85.8361 219.823 85.6775 219.944C85.5281 220.056 85.3228 220.112 85.0615 220.112ZM92.0739 220C91.4393 220 91.1219 219.683 91.1219 219.048V211.082C91.1219 210.447 91.4393 210.13 92.0739 210.13H97.0719C97.5573 210.13 97.7999 210.363 97.7999 210.83C97.7999 211.315 97.5573 211.558 97.0719 211.558H92.8439V214.274H96.7639C97.2493 214.274 97.4919 214.512 97.4919 214.988C97.4919 215.464 97.2493 215.702 96.7639 215.702H92.8439V218.572H97.0719C97.5573 218.572 97.7999 218.81 97.7999 219.286C97.7999 219.762 97.5573 220 97.0719 220H92.0739ZM100.385 220C99.7788 220 99.4755 219.692 99.4755 219.076V210.998C99.4755 210.391 99.7741 210.088 100.371 210.088C100.969 210.088 101.267 210.391 101.267 210.998V218.474H105.327C105.85 218.474 106.111 218.726 106.111 219.23C106.111 219.743 105.85 220 105.327 220H100.385ZM111.228 220.14C110.276 220.14 109.44 219.93 108.722 219.51C108.012 219.09 107.462 218.502 107.07 217.746C106.678 216.981 106.482 216.085 106.482 215.058C106.482 214.022 106.678 213.126 107.07 212.37C107.462 211.614 108.012 211.031 108.722 210.62C109.431 210.2 110.266 209.99 111.228 209.99C112.189 209.99 113.024 210.2 113.734 210.62C114.443 211.031 114.994 211.614 115.386 212.37C115.778 213.126 115.974 214.017 115.974 215.044C115.974 216.08 115.778 216.981 115.386 217.746C114.994 218.502 114.443 219.09 113.734 219.51C113.024 219.93 112.189 220.14 111.228 220.14ZM111.228 218.6C112.133 218.6 112.838 218.287 113.342 217.662C113.846 217.037 114.098 216.169 114.098 215.058C114.098 213.938 113.846 213.07 113.342 212.454C112.847 211.838 112.142 211.53 111.228 211.53C110.322 211.53 109.618 211.838 109.114 212.454C108.61 213.07 108.358 213.938 108.358 215.058C108.358 216.169 108.61 217.037 109.114 217.662C109.618 218.287 110.322 218.6 111.228 218.6ZM118.692 220.112C118.094 220.112 117.796 219.804 117.796 219.188V211.04C117.796 210.433 118.099 210.13 118.706 210.13H122.08C123.162 210.13 123.998 210.401 124.586 210.942C125.174 211.483 125.468 212.239 125.468 213.21C125.468 214.181 125.174 214.941 124.586 215.492C123.998 216.033 123.162 216.304 122.08 216.304H119.588V219.188C119.588 219.804 119.289 220.112 118.692 220.112ZM119.588 214.89H121.8C123.088 214.89 123.732 214.33 123.732 213.21C123.732 212.099 123.088 211.544 121.8 211.544H119.588V214.89ZM127.769 220.112C127.227 220.112 126.957 219.832 126.957 219.272V210.858C126.957 210.298 127.237 210.018 127.797 210.018C128.03 210.018 128.212 210.065 128.343 210.158C128.483 210.242 128.609 210.391 128.721 210.606L131.955 216.584L135.189 210.606C135.301 210.391 135.422 210.242 135.553 210.158C135.683 210.065 135.865 210.018 136.099 210.018C136.64 210.018 136.911 210.298 136.911 210.858V219.272C136.911 219.832 136.64 220.112 136.099 220.112C135.557 220.112 135.287 219.832 135.287 219.272V213.35L132.655 218.152C132.561 218.311 132.463 218.427 132.361 218.502C132.258 218.577 132.118 218.614 131.941 218.614C131.763 218.614 131.619 218.577 131.507 218.502C131.395 218.418 131.297 218.301 131.213 218.152L128.581 213.378V219.272C128.581 219.832 128.31 220.112 127.769 220.112ZM140.035 220C139.4 220 139.083 219.683 139.083 219.048V211.082C139.083 210.447 139.4 210.13 140.035 210.13H145.033C145.518 210.13 145.761 210.363 145.761 210.83C145.761 211.315 145.518 211.558 145.033 211.558H140.805V214.274H144.725C145.21 214.274 145.453 214.512 145.453 214.988C145.453 215.464 145.21 215.702 144.725 215.702H140.805V218.572H145.033C145.518 218.572 145.761 218.81 145.761 219.286C145.761 219.762 145.518 220 145.033 220H140.035ZM148.276 220.112C147.716 220.112 147.436 219.823 147.436 219.244V210.914C147.436 210.625 147.506 210.405 147.646 210.256C147.796 210.097 147.987 210.018 148.22 210.018C148.435 210.018 148.594 210.06 148.696 210.144C148.808 210.219 148.939 210.349 149.088 210.536L154.086 217.018V210.872C154.086 210.303 154.366 210.018 154.926 210.018C155.477 210.018 155.752 210.303 155.752 210.872V219.272C155.752 219.533 155.687 219.739 155.556 219.888C155.426 220.037 155.248 220.112 155.024 220.112C154.81 220.112 154.637 220.07 154.506 219.986C154.385 219.902 154.25 219.767 154.1 219.58L149.102 213.084V219.244C149.102 219.823 148.827 220.112 148.276 220.112ZM161.185 220.112C160.588 220.112 160.289 219.804 160.289 219.188V211.628H157.559C157.046 211.628 156.789 211.376 156.789 210.872C156.789 210.377 157.046 210.13 157.559 210.13H164.811C165.324 210.13 165.581 210.377 165.581 210.872C165.581 211.376 165.324 211.628 164.811 211.628H162.081V219.188C162.081 219.804 161.782 220.112 161.185 220.112ZM174.829 220.14C173.877 220.14 173.042 219.93 172.323 219.51C171.614 219.09 171.063 218.502 170.671 217.746C170.279 216.981 170.083 216.085 170.083 215.058C170.083 214.022 170.279 213.126 170.671 212.37C171.063 211.614 171.614 211.031 172.323 210.62C173.032 210.2 173.868 209.99 174.829 209.99C175.79 209.99 176.626 210.2 177.335 210.62C178.044 211.031 178.595 211.614 178.987 212.37C179.379 213.126 179.575 214.017 179.575 215.044C179.575 216.08 179.379 216.981 178.987 217.746C178.595 218.502 178.044 219.09 177.335 219.51C176.626 219.93 175.79 220.14 174.829 220.14ZM174.829 218.6C175.734 218.6 176.439 218.287 176.943 217.662C177.447 217.037 177.699 216.169 177.699 215.058C177.699 213.938 177.447 213.07 176.943 212.454C176.448 211.838 175.744 211.53 174.829 211.53C173.924 211.53 173.219 211.838 172.715 212.454C172.211 213.07 171.959 213.938 171.959 215.058C171.959 216.169 172.211 217.037 172.715 217.662C173.219 218.287 173.924 218.6 174.829 218.6ZM182.321 220.112C181.705 220.112 181.397 219.795 181.397 219.16V211.082C181.397 210.447 181.715 210.13 182.349 210.13H187.235C187.721 210.13 187.963 210.363 187.963 210.83C187.963 211.315 187.721 211.558 187.235 211.558H183.189V214.344H186.941C187.427 214.344 187.669 214.577 187.669 215.044C187.669 215.529 187.427 215.772 186.941 215.772H183.189V219.16C183.189 219.795 182.9 220.112 182.321 220.112ZM193.395 220.112C193.162 220.112 192.971 220.051 192.821 219.93C192.672 219.799 192.583 219.641 192.555 219.454C192.537 219.258 192.602 219.062 192.751 218.866L195.663 214.974L192.905 211.278C192.756 211.073 192.691 210.877 192.709 210.69C192.728 210.494 192.812 210.335 192.961 210.214C193.111 210.083 193.297 210.018 193.521 210.018C193.867 210.018 194.179 210.209 194.459 210.592L196.685 213.672L198.911 210.592C199.191 210.209 199.509 210.018 199.863 210.018C200.097 210.018 200.288 210.079 200.437 210.2C200.587 210.321 200.671 210.48 200.689 210.676C200.708 210.863 200.638 211.063 200.479 211.278L197.721 214.974L200.619 218.866C200.769 219.062 200.834 219.258 200.815 219.454C200.797 219.641 200.713 219.799 200.563 219.93C200.414 220.051 200.218 220.112 199.975 220.112C199.639 220.112 199.327 219.916 199.037 219.524L196.685 216.304L194.347 219.524C194.058 219.916 193.741 220.112 193.395 220.112ZM203.376 220C202.769 220 202.466 219.692 202.466 219.076V210.998C202.466 210.391 202.764 210.088 203.362 210.088C203.959 210.088 204.258 210.391 204.258 210.998V218.474H208.318C208.84 218.474 209.102 218.726 209.102 219.23C209.102 219.743 208.84 220 208.318 220H203.376ZM211.279 220C210.644 220 210.327 219.683 210.327 219.048V211.082C210.327 210.447 210.644 210.13 211.279 210.13H213.995C215.647 210.13 216.921 210.555 217.817 211.404C218.722 212.253 219.175 213.471 219.175 215.058C219.175 216.635 218.722 217.853 217.817 218.712C216.921 219.571 215.647 220 213.995 220H211.279ZM212.119 218.516H213.883C216.16 218.516 217.299 217.363 217.299 215.058C217.299 212.762 216.16 211.614 213.883 211.614H212.119V218.516ZM58.5191 240.14C57.8937 240.14 57.2824 240.07 56.6851 239.93C56.0971 239.79 55.5837 239.58 55.1451 239.3C54.9304 239.16 54.7997 238.987 54.7531 238.782C54.7064 238.577 54.7204 238.385 54.7951 238.208C54.8791 238.021 55.0051 237.895 55.1731 237.83C55.3504 237.755 55.5511 237.788 55.7751 237.928C56.1857 238.171 56.6197 238.348 57.0771 238.46C57.5344 238.572 58.0151 238.628 58.5191 238.628C59.2564 238.628 59.7931 238.507 60.1291 238.264C60.4651 238.012 60.6331 237.69 60.6331 237.298C60.6331 236.971 60.5117 236.715 60.2691 236.528C60.0357 236.341 59.6297 236.187 59.0511 236.066L57.5111 235.744C55.7564 235.371 54.8791 234.47 54.8791 233.042C54.8791 232.426 55.0424 231.889 55.3691 231.432C55.6957 230.975 56.1484 230.62 56.7271 230.368C57.3057 230.116 57.9731 229.99 58.7291 229.99C59.2891 229.99 59.8211 230.06 60.3251 230.2C60.8291 230.34 61.2817 230.545 61.6831 230.816C61.8697 230.947 61.9817 231.11 62.0191 231.306C62.0564 231.493 62.0331 231.67 61.9491 231.838C61.8651 231.997 61.7297 232.109 61.5431 232.174C61.3657 232.23 61.1557 232.188 60.9131 232.048C60.5677 231.852 60.2177 231.712 59.8631 231.628C59.5084 231.544 59.1257 231.502 58.7151 231.502C58.0711 231.502 57.5671 231.637 57.2031 231.908C56.8391 232.179 56.6571 232.533 56.6571 232.972C56.6571 233.308 56.7691 233.579 56.9931 233.784C57.2171 233.98 57.5997 234.134 58.1411 234.246L59.6671 234.568C60.5911 234.764 61.2771 235.072 61.7251 235.492C62.1824 235.912 62.4111 236.472 62.4111 237.172C62.4111 237.76 62.2524 238.278 61.9351 238.726C61.6177 239.174 61.1651 239.524 60.5771 239.776C59.9984 240.019 59.3124 240.14 58.5191 240.14ZM67.02 240.112C66.4227 240.112 66.124 239.804 66.124 239.188V231.628H63.394C62.8807 231.628 62.624 231.376 62.624 230.872C62.624 230.377 62.8807 230.13 63.394 230.13H70.646C71.1593 230.13 71.416 230.377 71.416 230.872C71.416 231.376 71.1593 231.628 70.646 231.628H67.916V239.188C67.916 239.804 67.6173 240.112 67.02 240.112ZM71.4436 240.112C71.1169 240.112 70.8836 240 70.7436 239.776C70.6036 239.552 70.6082 239.281 70.7576 238.964L74.4536 230.774C74.5749 230.503 74.7196 230.312 74.8876 230.2C75.0649 230.079 75.2656 230.018 75.4896 230.018C75.7042 230.018 75.8956 230.079 76.0636 230.2C76.2409 230.312 76.3902 230.503 76.5116 230.774L80.2216 238.964C80.3709 239.291 80.3802 239.566 80.2496 239.79C80.1189 240.005 79.8949 240.112 79.5776 240.112C79.3162 240.112 79.1109 240.051 78.9616 239.93C78.8216 239.799 78.6956 239.603 78.5836 239.342L77.8836 237.718H73.0676L72.3816 239.342C72.2602 239.613 72.1342 239.809 72.0036 239.93C71.8729 240.051 71.6862 240.112 71.4436 240.112ZM75.4616 232.076L73.6836 236.29H77.2676L75.4896 232.076H75.4616ZM82.6595 240.112C82.0622 240.112 81.7635 239.804 81.7635 239.188V230.928C81.7635 230.321 82.0622 230.018 82.6595 230.018C83.2569 230.018 83.5555 230.321 83.5555 230.928V234.498H83.5835L87.6015 230.466C87.7509 230.317 87.9002 230.205 88.0495 230.13C88.1989 230.055 88.3669 230.018 88.5535 230.018C88.8242 230.018 89.0155 230.088 89.1275 230.228C89.2489 230.368 89.2955 230.531 89.2675 230.718C89.2489 230.905 89.1602 231.077 89.0015 231.236L85.3195 234.876L89.1975 238.81C89.3935 238.997 89.4962 239.193 89.5055 239.398C89.5149 239.603 89.4495 239.776 89.3095 239.916C89.1789 240.047 88.9829 240.112 88.7215 240.112C88.4975 240.112 88.3155 240.065 88.1755 239.972C88.0449 239.879 87.8909 239.743 87.7135 239.566L83.5835 235.436H83.5555V239.188C83.5555 239.804 83.2569 240.112 82.6595 240.112ZM92.0261 240C91.3914 240 91.0741 239.683 91.0741 239.048V231.082C91.0741 230.447 91.3914 230.13 92.0261 230.13H97.0241C97.5094 230.13 97.7521 230.363 97.7521 230.83C97.7521 231.315 97.5094 231.558 97.0241 231.558H92.7961V234.274H96.7161C97.2014 234.274 97.4441 234.512 97.4441 234.988C97.4441 235.464 97.2014 235.702 96.7161 235.702H92.7961V238.572H97.0241C97.5094 238.572 97.7521 238.81 97.7521 239.286C97.7521 239.762 97.5094 240 97.0241 240H92.0261ZM100.46 241.498C100.339 241.647 100.208 241.731 100.068 241.75C99.9377 241.778 99.821 241.755 99.7183 241.68C99.6157 241.605 99.5597 241.498 99.5503 241.358C99.541 241.227 99.6017 241.083 99.7323 240.924C99.8443 240.784 99.933 240.639 99.9983 240.49C100.064 240.341 100.115 240.201 100.152 240.07C99.863 240.042 99.6297 239.935 99.4523 239.748C99.275 239.561 99.1863 239.319 99.1863 239.02C99.1863 238.721 99.2797 238.479 99.4663 238.292C99.653 238.096 99.905 237.998 100.222 237.998C100.549 237.998 100.806 238.11 100.992 238.334C101.179 238.549 101.272 238.861 101.272 239.272C101.272 239.608 101.216 239.958 101.104 240.322C101.002 240.695 100.787 241.087 100.46 241.498ZM107.748 240C107.141 240 106.838 239.692 106.838 239.076V230.998C106.838 230.391 107.136 230.088 107.734 230.088C108.331 230.088 108.63 230.391 108.63 230.998V238.474H112.69C113.212 238.474 113.474 238.726 113.474 239.23C113.474 239.743 113.212 240 112.69 240H107.748ZM115.651 240C115.016 240 114.699 239.683 114.699 239.048V231.082C114.699 230.447 115.016 230.13 115.651 230.13H120.649C121.134 230.13 121.377 230.363 121.377 230.83C121.377 231.315 121.134 231.558 120.649 231.558H116.421V234.274H120.341C120.826 234.274 121.069 234.512 121.069 234.988C121.069 235.464 120.826 235.702 120.341 235.702H116.421V238.572H120.649C121.134 238.572 121.377 238.81 121.377 239.286C121.377 239.762 121.134 240 120.649 240H115.651ZM123.893 240.112C123.333 240.112 123.053 239.823 123.053 239.244V230.914C123.053 230.625 123.123 230.405 123.263 230.256C123.412 230.097 123.603 230.018 123.837 230.018C124.051 230.018 124.21 230.06 124.313 230.144C124.425 230.219 124.555 230.349 124.705 230.536L129.703 237.018V230.872C129.703 230.303 129.983 230.018 130.543 230.018C131.093 230.018 131.369 230.303 131.369 230.872V239.272C131.369 239.533 131.303 239.739 131.173 239.888C131.042 240.037 130.865 240.112 130.641 240.112C130.426 240.112 130.253 240.07 130.123 239.986C130.001 239.902 129.866 239.767 129.717 239.58L124.719 233.084V239.244C124.719 239.823 124.443 240.112 123.893 240.112ZM134.477 240C133.843 240 133.525 239.683 133.525 239.048V231.082C133.525 230.447 133.843 230.13 134.477 230.13H137.193C138.845 230.13 140.119 230.555 141.015 231.404C141.921 232.253 142.373 233.471 142.373 235.058C142.373 236.635 141.921 237.853 141.015 238.712C140.119 239.571 138.845 240 137.193 240H134.477ZM135.317 238.516H137.081C139.359 238.516 140.497 237.363 140.497 235.058C140.497 232.762 139.359 231.614 137.081 231.614H135.317V238.516ZM151.126 240.14C150.071 240.14 149.236 239.897 148.62 239.412C148.013 238.917 147.71 238.273 147.71 237.48C147.71 236.845 147.887 236.295 148.242 235.828C148.597 235.352 149.087 234.927 149.712 234.554L149.796 234.512C149.432 234.129 149.171 233.765 149.012 233.42C148.853 233.065 148.774 232.706 148.774 232.342C148.774 231.642 149.021 231.077 149.516 230.648C150.02 230.209 150.683 229.99 151.504 229.99C152.269 229.99 152.876 230.186 153.324 230.578C153.772 230.961 153.996 231.483 153.996 232.146C153.996 232.65 153.851 233.117 153.562 233.546C153.282 233.966 152.811 234.372 152.148 234.764L154.038 236.78C154.318 236.201 154.514 235.497 154.626 234.666C154.701 234.199 154.953 233.966 155.382 233.966C155.895 233.966 156.124 234.227 156.068 234.75C156.003 235.347 155.881 235.903 155.704 236.416C155.536 236.929 155.326 237.391 155.074 237.802L156.222 238.964C156.399 239.141 156.488 239.319 156.488 239.496C156.488 239.673 156.418 239.823 156.278 239.944C156.147 240.056 155.965 240.112 155.732 240.112C155.527 240.112 155.359 240.075 155.228 240C155.097 239.916 154.953 239.795 154.794 239.636L154.122 238.936C153.721 239.309 153.263 239.603 152.75 239.818C152.237 240.033 151.695 240.14 151.126 240.14ZM151.504 231.236C151.168 231.236 150.897 231.334 150.692 231.53C150.487 231.717 150.384 231.973 150.384 232.3C150.384 232.543 150.44 232.771 150.552 232.986C150.673 233.191 150.883 233.462 151.182 233.798C151.677 233.509 152.022 233.247 152.218 233.014C152.423 232.781 152.526 232.515 152.526 232.216C152.526 231.899 152.433 231.656 152.246 231.488C152.059 231.32 151.812 231.236 151.504 231.236ZM151.224 238.754C151.98 238.754 152.619 238.493 153.142 237.97L150.762 235.506C150.286 235.777 149.945 236.052 149.74 236.332C149.544 236.612 149.446 236.948 149.446 237.34C149.446 237.779 149.595 238.124 149.894 238.376C150.202 238.628 150.645 238.754 151.224 238.754ZM162.901 240C162.266 240 161.949 239.683 161.949 239.048V231.082C161.949 230.447 162.266 230.13 162.901 230.13H166.261C167.297 230.13 168.1 230.359 168.669 230.816C169.238 231.264 169.523 231.889 169.523 232.692C169.523 233.224 169.388 233.681 169.117 234.064C168.846 234.447 168.473 234.727 167.997 234.904C168.557 235.063 168.991 235.343 169.299 235.744C169.616 236.136 169.775 236.635 169.775 237.242C169.775 238.119 169.476 238.801 168.879 239.286C168.291 239.762 167.47 240 166.415 240H162.901ZM163.671 234.316H165.953C167.176 234.316 167.787 233.845 167.787 232.902C167.787 231.959 167.176 231.488 165.953 231.488H163.671V234.316ZM163.671 238.642H166.191C167.423 238.642 168.039 238.147 168.039 237.158C168.039 236.169 167.423 235.674 166.191 235.674H163.671V238.642ZM176.012 240.14C175.06 240.14 174.224 239.93 173.506 239.51C172.796 239.09 172.246 238.502 171.854 237.746C171.462 236.981 171.266 236.085 171.266 235.058C171.266 234.022 171.462 233.126 171.854 232.37C172.246 231.614 172.796 231.031 173.506 230.62C174.215 230.2 175.05 229.99 176.012 229.99C176.973 229.99 177.808 230.2 178.518 230.62C179.227 231.031 179.778 231.614 180.17 232.37C180.562 233.126 180.758 234.017 180.758 235.044C180.758 236.08 180.562 236.981 180.17 237.746C179.778 238.502 179.227 239.09 178.518 239.51C177.808 239.93 176.973 240.14 176.012 240.14ZM176.012 238.6C176.917 238.6 177.622 238.287 178.126 237.662C178.63 237.037 178.882 236.169 178.882 235.058C178.882 233.938 178.63 233.07 178.126 232.454C177.631 231.838 176.926 231.53 176.012 231.53C175.106 231.53 174.402 231.838 173.898 232.454C173.394 233.07 173.142 233.938 173.142 235.058C173.142 236.169 173.394 237.037 173.898 237.662C174.402 238.287 175.106 238.6 176.012 238.6ZM183.476 240.112C182.879 240.112 182.58 239.804 182.58 239.188V231.04C182.58 230.433 182.883 230.13 183.49 230.13H186.864C187.947 230.13 188.782 230.391 189.37 230.914C189.958 231.427 190.252 232.151 190.252 233.084C190.252 233.821 190.061 234.433 189.678 234.918C189.295 235.394 188.745 235.716 188.026 235.884C188.502 236.033 188.894 236.393 189.202 236.962L190.252 238.908C190.411 239.207 190.439 239.482 190.336 239.734C190.243 239.986 190.005 240.112 189.622 240.112C189.37 240.112 189.165 240.061 189.006 239.958C188.847 239.846 188.707 239.678 188.586 239.454L187.172 236.85C187.004 236.533 186.803 236.323 186.57 236.22C186.346 236.108 186.057 236.052 185.702 236.052H184.372V239.188C184.372 239.804 184.073 240.112 183.476 240.112ZM184.372 234.722H186.556C187.863 234.722 188.516 234.19 188.516 233.126C188.516 232.071 187.863 231.544 186.556 231.544H184.372V234.722ZM193.074 240.112C192.476 240.112 192.178 239.804 192.178 239.188V231.04C192.178 230.433 192.481 230.13 193.088 230.13H196.462C197.544 230.13 198.38 230.391 198.968 230.914C199.556 231.427 199.85 232.151 199.85 233.084C199.85 233.821 199.658 234.433 199.276 234.918C198.893 235.394 198.342 235.716 197.624 235.884C198.1 236.033 198.492 236.393 198.8 236.962L199.85 238.908C200.008 239.207 200.036 239.482 199.934 239.734C199.84 239.986 199.602 240.112 199.22 240.112C198.968 240.112 198.762 240.061 198.604 239.958C198.445 239.846 198.305 239.678 198.184 239.454L196.77 236.85C196.602 236.533 196.401 236.323 196.168 236.22C195.944 236.108 195.654 236.052 195.3 236.052H193.97V239.188C193.97 239.804 193.671 240.112 193.074 240.112ZM193.97 234.722H196.154C197.46 234.722 198.114 234.19 198.114 233.126C198.114 232.071 197.46 231.544 196.154 231.544H193.97V234.722ZM206.131 240.14C205.179 240.14 204.344 239.93 203.625 239.51C202.916 239.09 202.365 238.502 201.973 237.746C201.581 236.981 201.385 236.085 201.385 235.058C201.385 234.022 201.581 233.126 201.973 232.37C202.365 231.614 202.916 231.031 203.625 230.62C204.334 230.2 205.17 229.99 206.131 229.99C207.092 229.99 207.928 230.2 208.637 230.62C209.346 231.031 209.897 231.614 210.289 232.37C210.681 233.126 210.877 234.017 210.877 235.044C210.877 236.08 210.681 236.981 210.289 237.746C209.897 238.502 209.346 239.09 208.637 239.51C207.928 239.93 207.092 240.14 206.131 240.14ZM206.131 238.6C207.036 238.6 207.741 238.287 208.245 237.662C208.749 237.037 209.001 236.169 209.001 235.058C209.001 233.938 208.749 233.07 208.245 232.454C207.75 231.838 207.046 231.53 206.131 231.53C205.226 231.53 204.521 231.838 204.017 232.454C203.513 233.07 203.261 233.938 203.261 235.058C203.261 236.169 203.513 237.037 204.017 237.662C204.521 238.287 205.226 238.6 206.131 238.6ZM215.925 240.112C215.449 240.112 215.122 239.86 214.945 239.356L212.019 231.082C211.916 230.783 211.935 230.531 212.075 230.326C212.224 230.121 212.472 230.018 212.817 230.018C213.069 230.018 213.265 230.079 213.405 230.2C213.545 230.312 213.657 230.494 213.741 230.746L215.981 237.41L218.333 230.76C218.51 230.265 218.809 230.018 219.229 230.018C219.453 230.018 219.63 230.079 219.761 230.2C219.892 230.321 220.004 230.513 220.097 230.774L222.407 237.508L224.717 230.746C224.801 230.503 224.913 230.321 225.053 230.2C225.193 230.079 225.384 230.018 225.627 230.018C225.926 230.018 226.145 230.121 226.285 230.326C226.425 230.531 226.444 230.783 226.341 231.082L223.387 239.37C223.294 239.622 223.172 239.809 223.023 239.93C222.874 240.051 222.673 240.112 222.421 240.112C222.169 240.112 221.968 240.051 221.819 239.93C221.67 239.809 221.548 239.617 221.455 239.356L219.173 232.874L216.877 239.37C216.784 239.622 216.662 239.809 216.513 239.93C216.373 240.051 216.177 240.112 215.925 240.112Z" fill="white"/>
<path d="M268.117 218C267.482 218 267.165 217.683 267.165 217.048V209.082C267.165 208.447 267.482 208.13 268.117 208.13H270.833C272.485 208.13 273.759 208.555 274.655 209.404C275.56 210.253 276.013 211.471 276.013 213.058C276.013 214.635 275.56 215.853 274.655 216.712C273.759 217.571 272.485 218 270.833 218H268.117ZM268.957 216.516H270.721C272.998 216.516 274.137 215.363 274.137 213.058C274.137 210.762 272.998 209.614 270.721 209.614H268.957V216.516ZM278.781 218C278.146 218 277.829 217.683 277.829 217.048V209.082C277.829 208.447 278.146 208.13 278.781 208.13H283.779C284.264 208.13 284.507 208.363 284.507 208.83C284.507 209.315 284.264 209.558 283.779 209.558H279.551V212.274H283.471C283.956 212.274 284.199 212.512 284.199 212.988C284.199 213.464 283.956 213.702 283.471 213.702H279.551V216.572H283.779C284.264 216.572 284.507 216.81 284.507 217.286C284.507 217.762 284.264 218 283.779 218H278.781ZM290.061 218.112C289.585 218.112 289.245 217.879 289.039 217.412L285.385 209.208C285.236 208.853 285.241 208.569 285.399 208.354C285.567 208.13 285.81 208.018 286.127 208.018C286.398 208.018 286.599 208.079 286.729 208.2C286.869 208.312 286.986 208.485 287.079 208.718L290.089 215.704L293.099 208.704C293.202 208.48 293.323 208.312 293.463 208.2C293.603 208.079 293.799 208.018 294.051 208.018C294.35 208.018 294.574 208.13 294.723 208.354C294.882 208.578 294.882 208.863 294.723 209.208L291.069 217.412C290.967 217.645 290.836 217.823 290.677 217.944C290.528 218.056 290.323 218.112 290.061 218.112ZM297.074 218C296.439 218 296.122 217.683 296.122 217.048V209.082C296.122 208.447 296.439 208.13 297.074 208.13H302.072C302.557 208.13 302.8 208.363 302.8 208.83C302.8 209.315 302.557 209.558 302.072 209.558H297.844V212.274H301.764C302.249 212.274 302.492 212.512 302.492 212.988C302.492 213.464 302.249 213.702 301.764 213.702H297.844V216.572H302.072C302.557 216.572 302.8 216.81 302.8 217.286C302.8 217.762 302.557 218 302.072 218H297.074ZM305.385 218C304.779 218 304.475 217.692 304.475 217.076V208.998C304.475 208.391 304.774 208.088 305.371 208.088C305.969 208.088 306.267 208.391 306.267 208.998V216.474H310.327C310.85 216.474 311.111 216.726 311.111 217.23C311.111 217.743 310.85 218 310.327 218H305.385ZM316.228 218.14C315.276 218.14 314.44 217.93 313.722 217.51C313.012 217.09 312.462 216.502 312.07 215.746C311.678 214.981 311.482 214.085 311.482 213.058C311.482 212.022 311.678 211.126 312.07 210.37C312.462 209.614 313.012 209.031 313.722 208.62C314.431 208.2 315.266 207.99 316.228 207.99C317.189 207.99 318.024 208.2 318.734 208.62C319.443 209.031 319.994 209.614 320.386 210.37C320.778 211.126 320.974 212.017 320.974 213.044C320.974 214.08 320.778 214.981 320.386 215.746C319.994 216.502 319.443 217.09 318.734 217.51C318.024 217.93 317.189 218.14 316.228 218.14ZM316.228 216.6C317.133 216.6 317.838 216.287 318.342 215.662C318.846 215.037 319.098 214.169 319.098 213.058C319.098 211.938 318.846 211.07 318.342 210.454C317.847 209.838 317.142 209.53 316.228 209.53C315.322 209.53 314.618 209.838 314.114 210.454C313.61 211.07 313.358 211.938 313.358 213.058C313.358 214.169 313.61 215.037 314.114 215.662C314.618 216.287 315.322 216.6 316.228 216.6ZM323.692 218.112C323.094 218.112 322.796 217.804 322.796 217.188V209.04C322.796 208.433 323.099 208.13 323.706 208.13H327.08C328.162 208.13 328.998 208.401 329.586 208.942C330.174 209.483 330.468 210.239 330.468 211.21C330.468 212.181 330.174 212.941 329.586 213.492C328.998 214.033 328.162 214.304 327.08 214.304H324.588V217.188C324.588 217.804 324.289 218.112 323.692 218.112ZM324.588 212.89H326.8C328.088 212.89 328.732 212.33 328.732 211.21C328.732 210.099 328.088 209.544 326.8 209.544H324.588V212.89ZM332.769 218.112C332.227 218.112 331.957 217.832 331.957 217.272V208.858C331.957 208.298 332.237 208.018 332.797 208.018C333.03 208.018 333.212 208.065 333.343 208.158C333.483 208.242 333.609 208.391 333.721 208.606L336.955 214.584L340.189 208.606C340.301 208.391 340.422 208.242 340.553 208.158C340.683 208.065 340.865 208.018 341.099 208.018C341.64 208.018 341.911 208.298 341.911 208.858V217.272C341.911 217.832 341.64 218.112 341.099 218.112C340.557 218.112 340.287 217.832 340.287 217.272V211.35L337.655 216.152C337.561 216.311 337.463 216.427 337.361 216.502C337.258 216.577 337.118 216.614 336.941 216.614C336.763 216.614 336.619 216.577 336.507 216.502C336.395 216.418 336.297 216.301 336.213 216.152L333.581 211.378V217.272C333.581 217.832 333.31 218.112 332.769 218.112ZM345.035 218C344.4 218 344.083 217.683 344.083 217.048V209.082C344.083 208.447 344.4 208.13 345.035 208.13H350.033C350.518 208.13 350.761 208.363 350.761 208.83C350.761 209.315 350.518 209.558 350.033 209.558H345.805V212.274H349.725C350.21 212.274 350.453 212.512 350.453 212.988C350.453 213.464 350.21 213.702 349.725 213.702H345.805V216.572H350.033C350.518 216.572 350.761 216.81 350.761 217.286C350.761 217.762 350.518 218 350.033 218H345.035ZM353.276 218.112C352.716 218.112 352.436 217.823 352.436 217.244V208.914C352.436 208.625 352.506 208.405 352.646 208.256C352.796 208.097 352.987 208.018 353.22 208.018C353.435 208.018 353.594 208.06 353.696 208.144C353.808 208.219 353.939 208.349 354.088 208.536L359.086 215.018V208.872C359.086 208.303 359.366 208.018 359.926 208.018C360.477 208.018 360.752 208.303 360.752 208.872V217.272C360.752 217.533 360.687 217.739 360.556 217.888C360.426 218.037 360.248 218.112 360.024 218.112C359.81 218.112 359.637 218.07 359.506 217.986C359.385 217.902 359.25 217.767 359.1 217.58L354.102 211.084V217.244C354.102 217.823 353.827 218.112 353.276 218.112ZM366.185 218.112C365.588 218.112 365.289 217.804 365.289 217.188V209.628H362.559C362.046 209.628 361.789 209.376 361.789 208.872C361.789 208.377 362.046 208.13 362.559 208.13H369.811C370.324 208.13 370.581 208.377 370.581 208.872C370.581 209.376 370.324 209.628 369.811 209.628H367.081V217.188C367.081 217.804 366.782 218.112 366.185 218.112ZM379.829 218.14C378.877 218.14 378.042 217.93 377.323 217.51C376.614 217.09 376.063 216.502 375.671 215.746C375.279 214.981 375.083 214.085 375.083 213.058C375.083 212.022 375.279 211.126 375.671 210.37C376.063 209.614 376.614 209.031 377.323 208.62C378.032 208.2 378.868 207.99 379.829 207.99C380.79 207.99 381.626 208.2 382.335 208.62C383.044 209.031 383.595 209.614 383.987 210.37C384.379 211.126 384.575 212.017 384.575 213.044C384.575 214.08 384.379 214.981 383.987 215.746C383.595 216.502 383.044 217.09 382.335 217.51C381.626 217.93 380.79 218.14 379.829 218.14ZM379.829 216.6C380.734 216.6 381.439 216.287 381.943 215.662C382.447 215.037 382.699 214.169 382.699 213.058C382.699 211.938 382.447 211.07 381.943 210.454C381.448 209.838 380.744 209.53 379.829 209.53C378.924 209.53 378.219 209.838 377.715 210.454C377.211 211.07 376.959 211.938 376.959 213.058C376.959 214.169 377.211 215.037 377.715 215.662C378.219 216.287 378.924 216.6 379.829 216.6ZM387.321 218.112C386.705 218.112 386.397 217.795 386.397 217.16V209.082C386.397 208.447 386.715 208.13 387.349 208.13H392.235C392.721 208.13 392.963 208.363 392.963 208.83C392.963 209.315 392.721 209.558 392.235 209.558H388.189V212.344H391.941C392.427 212.344 392.669 212.577 392.669 213.044C392.669 213.529 392.427 213.772 391.941 213.772H388.189V217.16C388.189 217.795 387.9 218.112 387.321 218.112ZM398.395 218.112C398.162 218.112 397.971 218.051 397.821 217.93C397.672 217.799 397.583 217.641 397.555 217.454C397.537 217.258 397.602 217.062 397.751 216.866L400.663 212.974L397.905 209.278C397.756 209.073 397.691 208.877 397.709 208.69C397.728 208.494 397.812 208.335 397.961 208.214C398.111 208.083 398.297 208.018 398.521 208.018C398.867 208.018 399.179 208.209 399.459 208.592L401.685 211.672L403.911 208.592C404.191 208.209 404.509 208.018 404.863 208.018C405.097 208.018 405.288 208.079 405.437 208.2C405.587 208.321 405.671 208.48 405.689 208.676C405.708 208.863 405.638 209.063 405.479 209.278L402.721 212.974L405.619 216.866C405.769 217.062 405.834 217.258 405.815 217.454C405.797 217.641 405.713 217.799 405.563 217.93C405.414 218.051 405.218 218.112 404.975 218.112C404.639 218.112 404.327 217.916 404.037 217.524L401.685 214.304L399.347 217.524C399.058 217.916 398.741 218.112 398.395 218.112ZM408.376 218C407.769 218 407.466 217.692 407.466 217.076V208.998C407.466 208.391 407.764 208.088 408.362 208.088C408.959 208.088 409.258 208.391 409.258 208.998V216.474H413.318C413.84 216.474 414.102 216.726 414.102 217.23C414.102 217.743 413.84 218 413.318 218H408.376ZM416.279 218C415.644 218 415.327 217.683 415.327 217.048V209.082C415.327 208.447 415.644 208.13 416.279 208.13H418.995C420.647 208.13 421.921 208.555 422.817 209.404C423.722 210.253 424.175 211.471 424.175 213.058C424.175 214.635 423.722 215.853 422.817 216.712C421.921 217.571 420.647 218 418.995 218H416.279ZM417.119 216.516H418.883C421.16 216.516 422.299 215.363 422.299 213.058C422.299 210.762 421.16 209.614 418.883 209.614H417.119V216.516ZM303.538 238.112C303.062 238.112 302.736 237.86 302.558 237.356L299.632 229.082C299.53 228.783 299.548 228.531 299.688 228.326C299.838 228.121 300.085 228.018 300.43 228.018C300.682 228.018 300.878 228.079 301.018 228.2C301.158 228.312 301.27 228.494 301.354 228.746L303.594 235.41L305.946 228.76C306.124 228.265 306.422 228.018 306.842 228.018C307.066 228.018 307.244 228.079 307.374 228.2C307.505 228.321 307.617 228.513 307.71 228.774L310.02 235.508L312.33 228.746C312.414 228.503 312.526 228.321 312.666 228.2C312.806 228.079 312.998 228.018 313.24 228.018C313.539 228.018 313.758 228.121 313.898 228.326C314.038 228.531 314.057 228.783 313.954 229.082L311 237.37C310.907 237.622 310.786 237.809 310.636 237.93C310.487 238.051 310.286 238.112 310.034 238.112C309.782 238.112 309.582 238.051 309.432 237.93C309.283 237.809 309.162 237.617 309.068 237.356L306.786 230.874L304.49 237.37C304.397 237.622 304.276 237.809 304.126 237.93C303.986 238.051 303.79 238.112 303.538 238.112ZM316.548 238.112C315.951 238.112 315.652 237.804 315.652 237.188V228.942C315.652 228.326 315.951 228.018 316.548 228.018C317.146 228.018 317.444 228.326 317.444 228.942V232.246H322.526V228.942C322.526 228.326 322.825 228.018 323.422 228.018C324.02 228.018 324.318 228.326 324.318 228.942V237.188C324.318 237.804 324.02 238.112 323.422 238.112C322.825 238.112 322.526 237.804 322.526 237.188V233.744H317.444V237.188C317.444 237.804 317.146 238.112 316.548 238.112ZM327.376 238.112C326.779 238.112 326.48 237.804 326.48 237.188V228.942C326.48 228.326 326.779 228.018 327.376 228.018C327.974 228.018 328.272 228.326 328.272 228.942V237.188C328.272 237.804 327.974 238.112 327.376 238.112ZM333.708 238.112C333.11 238.112 332.812 237.804 332.812 237.188V229.628H330.082C329.568 229.628 329.312 229.376 329.312 228.872C329.312 228.377 329.568 228.13 330.082 228.13H337.334C337.847 228.13 338.104 228.377 338.104 228.872C338.104 229.376 337.847 229.628 337.334 229.628H334.604V237.188C334.604 237.804 334.305 238.112 333.708 238.112ZM340.079 238C339.444 238 339.127 237.683 339.127 237.048V229.082C339.127 228.447 339.444 228.13 340.079 228.13H345.077C345.562 228.13 345.805 228.363 345.805 228.83C345.805 229.315 345.562 229.558 345.077 229.558H340.849V232.274H344.769C345.254 232.274 345.497 232.512 345.497 232.988C345.497 233.464 345.254 233.702 344.769 233.702H340.849V236.572H345.077C345.562 236.572 345.805 236.81 345.805 237.286C345.805 237.762 345.562 238 345.077 238H340.079ZM348.376 238.112C347.779 238.112 347.48 237.804 347.48 237.188V229.04C347.48 228.433 347.784 228.13 348.39 228.13H351.764C352.847 228.13 353.682 228.401 354.27 228.942C354.858 229.483 355.152 230.239 355.152 231.21C355.152 232.181 354.858 232.941 354.27 233.492C353.682 234.033 352.847 234.304 351.764 234.304H349.272V237.188C349.272 237.804 348.974 238.112 348.376 238.112ZM349.272 232.89H351.484C352.772 232.89 353.416 232.33 353.416 231.21C353.416 230.099 352.772 229.544 351.484 229.544H349.272V232.89ZM355.686 238.112C355.359 238.112 355.126 238 354.986 237.776C354.846 237.552 354.85 237.281 355 236.964L358.696 228.774C358.817 228.503 358.962 228.312 359.13 228.2C359.307 228.079 359.508 228.018 359.732 228.018C359.946 228.018 360.138 228.079 360.306 228.2C360.483 228.312 360.632 228.503 360.754 228.774L364.464 236.964C364.613 237.291 364.622 237.566 364.492 237.79C364.361 238.005 364.137 238.112 363.82 238.112C363.558 238.112 363.353 238.051 363.204 237.93C363.064 237.799 362.938 237.603 362.826 237.342L362.126 235.718H357.31L356.624 237.342C356.502 237.613 356.376 237.809 356.246 237.93C356.115 238.051 355.928 238.112 355.686 238.112ZM359.704 230.076L357.926 234.29H361.51L359.732 230.076H359.704ZM366.902 238.112C366.304 238.112 366.006 237.804 366.006 237.188V229.04C366.006 228.433 366.309 228.13 366.916 228.13H370.29C371.372 228.13 372.208 228.401 372.796 228.942C373.384 229.483 373.678 230.239 373.678 231.21C373.678 232.181 373.384 232.941 372.796 233.492C372.208 234.033 371.372 234.304 370.29 234.304H367.798V237.188C367.798 237.804 367.499 238.112 366.902 238.112ZM367.798 232.89H370.01C371.298 232.89 371.942 232.33 371.942 231.21C371.942 230.099 371.298 229.544 370.01 229.544H367.798V232.89ZM376.091 238C375.456 238 375.139 237.683 375.139 237.048V229.082C375.139 228.447 375.456 228.13 376.091 228.13H381.089C381.574 228.13 381.817 228.363 381.817 228.83C381.817 229.315 381.574 229.558 381.089 229.558H376.861V232.274H380.781C381.266 232.274 381.509 232.512 381.509 232.988C381.509 233.464 381.266 233.702 380.781 233.702H376.861V236.572H381.089C381.574 236.572 381.817 236.81 381.817 237.286C381.817 237.762 381.574 238 381.089 238H376.091ZM384.388 238.112C383.791 238.112 383.492 237.804 383.492 237.188V229.04C383.492 228.433 383.795 228.13 384.402 228.13H387.776C388.859 228.13 389.694 228.391 390.282 228.914C390.87 229.427 391.164 230.151 391.164 231.084C391.164 231.821 390.973 232.433 390.59 232.918C390.207 233.394 389.657 233.716 388.938 233.884C389.414 234.033 389.806 234.393 390.114 234.962L391.164 236.908C391.323 237.207 391.351 237.482 391.248 237.734C391.155 237.986 390.917 238.112 390.534 238.112C390.282 238.112 390.077 238.061 389.918 237.958C389.759 237.846 389.619 237.678 389.498 237.454L388.084 234.85C387.916 234.533 387.715 234.323 387.482 234.22C387.258 234.108 386.969 234.052 386.614 234.052H385.284V237.188C385.284 237.804 384.985 238.112 384.388 238.112ZM385.284 232.722H387.468C388.775 232.722 389.428 232.19 389.428 231.126C389.428 230.071 388.775 229.544 387.468 229.544H385.284V232.722Z" fill="white"/>
<path d="M138.265 154.336C138.905 154.336 139.225 154.608 139.225 155.152C139.225 155.717 138.905 156 138.265 156H132.185C131.908 156 131.689 155.92 131.529 155.76C131.369 155.589 131.289 155.381 131.289 155.136C131.289 154.816 131.412 154.528 131.657 154.272L135.305 150.352C135.753 149.861 136.078 149.413 136.281 149.008C136.494 148.592 136.601 148.181 136.601 147.776C136.601 147.275 136.457 146.891 136.169 146.624C135.881 146.357 135.47 146.224 134.937 146.224C134.5 146.224 134.073 146.309 133.657 146.48C133.252 146.64 132.841 146.864 132.425 147.152C132.318 147.227 132.212 147.291 132.105 147.344C131.998 147.387 131.892 147.408 131.785 147.408C131.604 147.408 131.444 147.323 131.305 147.152C131.177 146.981 131.113 146.779 131.113 146.544C131.113 146.384 131.14 146.245 131.193 146.128C131.257 146.011 131.353 145.899 131.481 145.792C131.95 145.419 132.5 145.125 133.129 144.912C133.758 144.688 134.388 144.576 135.017 144.576C136.116 144.576 136.99 144.853 137.641 145.408C138.302 145.963 138.633 146.709 138.633 147.648C138.633 148.299 138.494 148.912 138.217 149.488C137.94 150.053 137.47 150.688 136.809 151.392L134.041 154.336H138.265ZM144.706 156.144C143.373 156.144 142.354 155.653 141.65 154.672C140.946 153.68 140.594 152.24 140.594 150.352C140.594 148.475 140.946 147.045 141.65 146.064C142.354 145.072 143.373 144.576 144.706 144.576C146.04 144.576 147.058 145.072 147.762 146.064C148.466 147.045 148.818 148.475 148.818 150.352C148.818 152.229 148.466 153.664 147.762 154.656C147.058 155.648 146.04 156.144 144.706 156.144ZM144.706 154.528C145.432 154.528 145.96 154.197 146.29 153.536C146.621 152.864 146.786 151.803 146.786 150.352C146.786 148.891 146.621 147.835 146.29 147.184C145.96 146.523 145.432 146.192 144.706 146.192C143.981 146.192 143.453 146.523 143.122 147.184C142.792 147.845 142.626 148.901 142.626 150.352C142.626 151.803 142.792 152.864 143.122 153.536C143.453 154.197 143.981 154.528 144.706 154.528ZM157.468 154.336C158.108 154.336 158.428 154.608 158.428 155.152C158.428 155.717 158.108 156 157.468 156H151.388C151.111 156 150.892 155.92 150.732 155.76C150.572 155.589 150.492 155.381 150.492 155.136C150.492 154.816 150.615 154.528 150.86 154.272L154.508 150.352C154.956 149.861 155.281 149.413 155.484 149.008C155.697 148.592 155.804 148.181 155.804 147.776C155.804 147.275 155.66 146.891 155.372 146.624C155.084 146.357 154.673 146.224 154.14 146.224C153.703 146.224 153.276 146.309 152.86 146.48C152.455 146.64 152.044 146.864 151.628 147.152C151.521 147.227 151.415 147.291 151.308 147.344C151.201 147.387 151.095 147.408 150.988 147.408C150.807 147.408 150.647 147.323 150.508 147.152C150.38 146.981 150.316 146.779 150.316 146.544C150.316 146.384 150.343 146.245 150.396 146.128C150.46 146.011 150.556 145.899 150.684 145.792C151.153 145.419 151.703 145.125 152.332 144.912C152.961 144.688 153.591 144.576 154.22 144.576C155.319 144.576 156.193 144.853 156.844 145.408C157.505 145.963 157.836 146.709 157.836 147.648C157.836 148.299 157.697 148.912 157.42 149.488C157.143 150.053 156.673 150.688 156.012 151.392L153.244 154.336H157.468ZM167.125 154.336C167.765 154.336 168.085 154.608 168.085 155.152C168.085 155.717 167.765 156 167.125 156H161.717C161.067 156 160.741 155.717 160.741 155.152C160.741 154.608 161.067 154.336 161.717 154.336H163.381V147.04L161.845 147.984C161.696 148.069 161.563 148.112 161.445 148.112C161.221 148.112 161.029 148.016 160.869 147.824C160.72 147.632 160.645 147.419 160.645 147.184C160.645 146.875 160.784 146.635 161.061 146.464L163.541 144.928C163.861 144.736 164.165 144.64 164.453 144.64C164.752 144.64 164.992 144.731 165.173 144.912C165.355 145.093 165.445 145.344 165.445 145.664V154.336H167.125Z" fill="#F1C12B"/>
<path d="M344.265 155.336C344.905 155.336 345.225 155.608 345.225 156.152C345.225 156.717 344.905 157 344.265 157H338.185C337.908 157 337.689 156.92 337.529 156.76C337.369 156.589 337.289 156.381 337.289 156.136C337.289 155.816 337.412 155.528 337.657 155.272L341.305 151.352C341.753 150.861 342.078 150.413 342.281 150.008C342.494 149.592 342.601 149.181 342.601 148.776C342.601 148.275 342.457 147.891 342.169 147.624C341.881 147.357 341.47 147.224 340.937 147.224C340.5 147.224 340.073 147.309 339.657 147.48C339.252 147.64 338.841 147.864 338.425 148.152C338.318 148.227 338.212 148.291 338.105 148.344C337.998 148.387 337.892 148.408 337.785 148.408C337.604 148.408 337.444 148.323 337.305 148.152C337.177 147.981 337.113 147.779 337.113 147.544C337.113 147.384 337.14 147.245 337.193 147.128C337.257 147.011 337.353 146.899 337.481 146.792C337.95 146.419 338.5 146.125 339.129 145.912C339.758 145.688 340.388 145.576 341.017 145.576C342.116 145.576 342.99 145.853 343.641 146.408C344.302 146.963 344.633 147.709 344.633 148.648C344.633 149.299 344.494 149.912 344.217 150.488C343.94 151.053 343.47 151.688 342.809 152.392L340.041 155.336H344.265ZM350.706 157.144C349.373 157.144 348.354 156.653 347.65 155.672C346.946 154.68 346.594 153.24 346.594 151.352C346.594 149.475 346.946 148.045 347.65 147.064C348.354 146.072 349.373 145.576 350.706 145.576C352.04 145.576 353.058 146.072 353.762 147.064C354.466 148.045 354.818 149.475 354.818 151.352C354.818 153.229 354.466 154.664 353.762 155.656C353.058 156.648 352.04 157.144 350.706 157.144ZM350.706 155.528C351.432 155.528 351.96 155.197 352.29 154.536C352.621 153.864 352.786 152.803 352.786 151.352C352.786 149.891 352.621 148.835 352.29 148.184C351.96 147.523 351.432 147.192 350.706 147.192C349.981 147.192 349.453 147.523 349.122 148.184C348.792 148.845 348.626 149.901 348.626 151.352C348.626 152.803 348.792 153.864 349.122 154.536C349.453 155.197 349.981 155.528 350.706 155.528ZM363.468 155.336C364.108 155.336 364.428 155.608 364.428 156.152C364.428 156.717 364.108 157 363.468 157H357.388C357.111 157 356.892 156.92 356.732 156.76C356.572 156.589 356.492 156.381 356.492 156.136C356.492 155.816 356.615 155.528 356.86 155.272L360.508 151.352C360.956 150.861 361.281 150.413 361.484 150.008C361.697 149.592 361.804 149.181 361.804 148.776C361.804 148.275 361.66 147.891 361.372 147.624C361.084 147.357 360.673 147.224 360.14 147.224C359.703 147.224 359.276 147.309 358.86 147.48C358.455 147.64 358.044 147.864 357.628 148.152C357.521 148.227 357.415 148.291 357.308 148.344C357.201 148.387 357.095 148.408 356.988 148.408C356.807 148.408 356.647 148.323 356.508 148.152C356.38 147.981 356.316 147.779 356.316 147.544C356.316 147.384 356.343 147.245 356.396 147.128C356.46 147.011 356.556 146.899 356.684 146.792C357.153 146.419 357.703 146.125 358.332 145.912C358.961 145.688 359.591 145.576 360.22 145.576C361.319 145.576 362.193 145.853 362.844 146.408C363.505 146.963 363.836 147.709 363.836 148.648C363.836 149.299 363.697 149.912 363.42 150.488C363.143 151.053 362.673 151.688 362.012 152.392L359.244 155.336H363.468ZM373.125 155.336C373.765 155.336 374.085 155.608 374.085 156.152C374.085 156.717 373.765 157 373.125 157H367.717C367.067 157 366.741 156.717 366.741 156.152C366.741 155.608 367.067 155.336 367.717 155.336H369.381V148.04L367.845 148.984C367.696 149.069 367.563 149.112 367.445 149.112C367.221 149.112 367.029 149.016 366.869 148.824C366.72 148.632 366.645 148.419 366.645 148.184C366.645 147.875 366.784 147.635 367.061 147.464L369.541 145.928C369.861 145.736 370.165 145.64 370.453 145.64C370.752 145.64 370.992 145.731 371.173 145.912C371.355 146.093 371.445 146.344 371.445 146.664V155.336H373.125Z" fill="#F1C12B"/>
<path d="M143.74 126.64C144.038 126.64 144.278 126.736 144.46 126.928C144.641 127.109 144.732 127.355 144.732 127.664V137.136C144.732 137.435 144.646 137.669 144.476 137.84C144.305 138.011 144.081 138.096 143.804 138.096C143.526 138.096 143.308 138.011 143.148 137.84C142.988 137.669 142.908 137.435 142.908 137.136V130.544L140.188 135.696C140.06 135.931 139.921 136.107 139.772 136.224C139.622 136.331 139.446 136.384 139.244 136.384C139.041 136.384 138.865 136.331 138.716 136.224C138.566 136.117 138.428 135.941 138.3 135.696L135.564 130.624V137.136C135.564 137.424 135.478 137.659 135.308 137.84C135.148 138.011 134.929 138.096 134.652 138.096C134.374 138.096 134.156 138.011 133.996 137.84C133.836 137.669 133.756 137.435 133.756 137.136V127.664C133.756 127.355 133.841 127.109 134.012 126.928C134.193 126.736 134.433 126.64 134.732 126.64C135.148 126.64 135.473 126.869 135.708 127.328L139.26 134.096L142.796 127.328C143.03 126.869 143.345 126.64 143.74 126.64ZM157.401 136.768C157.465 136.907 157.497 137.045 157.497 137.184C157.497 137.429 157.396 137.637 157.193 137.808C157.001 137.979 156.777 138.064 156.521 138.064C156.35 138.064 156.19 138.021 156.041 137.936C155.892 137.84 155.774 137.696 155.689 137.504L154.729 135.36H149.097L148.137 137.504C148.052 137.696 147.934 137.84 147.785 137.936C147.636 138.021 147.47 138.064 147.289 138.064C147.044 138.064 146.82 137.979 146.617 137.808C146.414 137.637 146.313 137.429 146.313 137.184C146.313 137.045 146.345 136.907 146.409 136.768L150.825 127.28C150.921 127.067 151.065 126.907 151.257 126.8C151.46 126.683 151.673 126.624 151.897 126.624C152.121 126.624 152.329 126.683 152.521 126.8C152.724 126.907 152.873 127.067 152.969 127.28L157.401 136.768ZM149.801 133.76H154.025L151.913 129.008L149.801 133.76ZM164.779 126.992C164.971 126.757 165.201 126.64 165.467 126.64C165.713 126.64 165.931 126.736 166.123 126.928C166.315 127.109 166.411 127.328 166.411 127.584C166.411 127.797 166.331 128 166.171 128.192L162.539 132.624V137.056C162.539 137.387 162.443 137.643 162.251 137.824C162.059 138.005 161.814 138.096 161.515 138.096C161.206 138.096 160.955 138.005 160.763 137.824C160.571 137.643 160.475 137.387 160.475 137.056V132.624L156.843 128.192C156.683 128 156.603 127.797 156.603 127.584C156.603 127.328 156.699 127.109 156.891 126.928C157.083 126.736 157.302 126.64 157.547 126.64C157.814 126.64 158.043 126.757 158.235 126.992L161.515 131.056L164.779 126.992Z" fill="#F1C12B"/>
<path d="M337.086 139.096C336.265 139.128 335.854 138.845 335.854 138.248C335.854 137.992 335.923 137.8 336.062 137.672C336.19 137.533 336.398 137.453 336.686 137.432L337.198 137.4C337.635 137.379 337.966 137.24 338.19 136.984C338.414 136.728 338.526 136.339 338.526 135.816V128.664C338.526 128.355 338.617 128.109 338.798 127.928C338.99 127.736 339.241 127.64 339.55 127.64C339.87 127.64 340.121 127.736 340.302 127.928C340.494 128.109 340.59 128.355 340.59 128.664V135.816C340.59 137.832 339.593 138.915 337.598 139.064L337.086 139.096ZM347.685 139.144C346.138 139.144 344.965 138.744 344.164 137.944C343.365 137.144 342.965 135.976 342.965 134.44V128.664C342.965 128.355 343.055 128.109 343.237 127.928C343.418 127.736 343.663 127.64 343.973 127.64C344.282 127.64 344.527 127.736 344.709 127.928C344.89 128.109 344.981 128.355 344.981 128.664V134.552C344.981 135.523 345.21 136.259 345.669 136.76C346.127 137.251 346.799 137.496 347.685 137.496C348.559 137.496 349.226 137.245 349.685 136.744C350.143 136.243 350.373 135.512 350.373 134.552V128.664C350.373 128.355 350.463 128.109 350.645 127.928C350.826 127.736 351.071 127.64 351.381 127.64C351.69 127.64 351.935 127.736 352.117 127.928C352.298 128.109 352.389 128.355 352.389 128.664V134.44C352.389 135.965 351.989 137.133 351.189 137.944C350.389 138.744 349.221 139.144 347.685 139.144ZM363.307 127.64C363.606 127.64 363.84 127.736 364.011 127.928C364.192 128.109 364.283 128.355 364.283 128.664V138.056C364.283 138.365 364.192 138.616 364.011 138.808C363.83 139 363.595 139.096 363.307 139.096C362.966 139.096 362.704 138.973 362.523 138.728L356.683 131.128V138.056C356.683 138.365 356.598 138.616 356.427 138.808C356.256 139 356.022 139.096 355.723 139.096C355.424 139.096 355.19 139 355.019 138.808C354.848 138.616 354.763 138.365 354.763 138.056V128.664C354.763 128.355 354.854 128.109 355.035 127.928C355.216 127.736 355.456 127.64 355.755 127.64C356.086 127.64 356.342 127.763 356.523 128.008L362.347 135.576V128.664C362.347 128.355 362.432 128.109 362.603 127.928C362.784 127.736 363.019 127.64 363.307 127.64ZM367.708 139C367.399 139 367.153 138.915 366.972 138.744C366.801 138.573 366.716 138.333 366.716 138.024V128.696C366.716 128.387 366.801 128.147 366.972 127.976C367.153 127.805 367.399 127.72 367.708 127.72H373.484C373.793 127.72 374.033 127.789 374.204 127.928C374.375 128.067 374.46 128.264 374.46 128.52C374.46 128.787 374.375 128.995 374.204 129.144C374.033 129.283 373.793 129.352 373.484 129.352H368.732V132.456H373.164C373.473 132.456 373.713 132.525 373.884 132.664C374.055 132.803 374.14 133.005 374.14 133.272C374.14 133.528 374.055 133.725 373.884 133.864C373.713 134.003 373.473 134.072 373.164 134.072H368.732V137.368H373.484C373.793 137.368 374.033 137.443 374.204 137.592C374.375 137.731 374.46 137.933 374.46 138.2C374.46 138.456 374.375 138.653 374.204 138.792C374.033 138.931 373.793 139 373.484 139H367.708Z" fill="#F1C12B"/>
<g filter="url(#filter0_d)">
<path d="M107.07 115.88L107.079 115.875L107.088 115.869L146.935 92.1825C147.715 91.7355 148.6 91.5 149.5 91.5C150.4 91.5 151.285 91.7355 152.065 92.1825L191.912 115.869L191.921 115.875L191.93 115.88C192.712 116.33 193.361 116.977 193.812 117.756C194.263 118.534 194.5 119.417 194.5 120.316V165.661C194.5 166.559 194.263 167.442 193.812 168.221C193.361 169 192.712 169.647 191.93 170.097L191.921 170.102L191.912 170.107L152.065 193.794C151.285 194.241 150.4 194.477 149.5 194.477C148.6 194.477 147.715 194.241 146.935 193.794L107.088 170.107L107.079 170.102L107.07 170.097C106.288 169.647 105.639 169 105.188 168.221C104.737 167.442 104.5 166.559 104.5 165.661V120.316C104.5 120.316 104.5 120.316 104.5 120.316C104.5 119.417 104.737 118.534 105.188 117.756C105.639 116.977 106.288 116.33 107.07 115.88Z" stroke="#F1C12B" stroke-width="3"/>
</g>
<g filter="url(#filter1_d)">
<path d="M313.07 115.88L313.079 115.875L313.088 115.869L352.935 92.1825C353.715 91.7355 354.6 91.5 355.5 91.5C356.4 91.5 357.285 91.7355 358.065 92.1825L397.912 115.869L397.921 115.875L397.93 115.88C398.712 116.33 399.361 116.977 399.812 117.756C400.263 118.534 400.5 119.417 400.5 120.316V165.661C400.5 166.559 400.263 167.442 399.812 168.221C399.361 169 398.712 169.647 397.93 170.097L397.921 170.102L397.912 170.107L358.065 193.794C357.285 194.241 356.4 194.477 355.5 194.477C354.6 194.477 353.715 194.241 352.935 193.794L313.088 170.107L313.079 170.102L313.07 170.097C312.288 169.647 311.639 169 311.188 168.221C310.737 167.442 310.5 166.559 310.5 165.661V120.316C310.5 120.316 310.5 120.316 310.5 120.316C310.5 119.417 310.737 118.534 311.188 117.756C311.639 116.977 312.288 116.33 313.07 115.88Z" stroke="#F1C12B" stroke-width="3"/>
</g>
<path d="M4.06979 115.88L4.07888 115.875L4.08789 115.869L43.9355 92.1825C44.7154 91.7355 45.5997 91.5 46.5 91.5C47.4003 91.5 48.2846 91.7355 49.0646 92.1825L88.9121 115.869L88.9211 115.875L88.9302 115.88C89.7122 116.33 90.361 116.977 90.8119 117.756C91.2628 118.534 91.5 119.417 91.5 120.316V165.661C91.5 166.559 91.2628 167.442 90.8119 168.221C90.361 169 89.7122 169.647 88.9302 170.097L88.9211 170.102L88.9121 170.107L49.0647 193.794C48.2847 194.241 47.4004 194.477 46.5 194.477C45.5996 194.477 44.7153 194.241 43.9353 193.794L4.08789 170.107L4.07888 170.102L4.0698 170.097C3.28781 169.647 2.63898 169 2.1881 168.221C1.73723 167.442 1.50002 166.559 1.5 165.661V120.316C1.5 120.316 1.5 120.316 1.5 120.316C1.50003 119.417 1.73723 118.534 2.1881 117.756C2.63899 116.977 3.28781 116.33 4.06979 115.88Z" stroke="#212151" stroke-width="3"/>
<path d="M58.0698 25.8799L58.0789 25.8746L58.0879 25.8693L97.9355 2.18248C98.7154 1.73546 99.5997 1.5 100.5 1.5C101.4 1.5 102.285 1.73547 103.065 2.1825L142.912 25.8693L142.921 25.8746L142.93 25.8799C143.712 26.33 144.361 26.9772 144.812 27.7559C145.263 28.5345 145.5 29.4174 145.5 30.3159V75.6608C145.5 76.5593 145.263 77.4422 144.812 78.2209C144.361 78.9995 143.712 79.6467 142.93 80.0968L142.921 80.1021L142.912 80.1074L103.065 103.794C102.285 104.241 101.4 104.477 100.5 104.477C99.5996 104.477 98.7153 104.241 97.9353 103.794L58.0879 80.1074L58.0789 80.1021L58.0698 80.0968C57.2878 79.6467 56.639 78.9995 56.1881 78.2209C55.7372 77.4422 55.5 76.5593 55.5 75.6608V30.3159C55.5 30.3159 55.5 30.3159 55.5 30.3159C55.5 29.4174 55.7372 28.5345 56.1881 27.7559C56.639 26.9772 57.2878 26.33 58.0698 25.8799Z" stroke="#212151" stroke-width="3"/>
<path d="M210.07 115.88L210.079 115.875L210.088 115.869L249.935 92.1825C250.715 91.7355 251.6 91.5 252.5 91.5C253.4 91.5 254.285 91.7355 255.065 92.1825L294.912 115.869L294.921 115.875L294.93 115.88C295.712 116.33 296.361 116.977 296.812 117.756C297.263 118.534 297.5 119.417 297.5 120.316V165.661C297.5 166.559 297.263 167.442 296.812 168.221C296.361 169 295.712 169.647 294.93 170.097L294.921 170.102L294.912 170.107L255.065 193.794C254.285 194.241 253.4 194.477 252.5 194.477C251.6 194.477 250.715 194.241 249.935 193.794L210.088 170.107L210.079 170.102L210.07 170.097C209.288 169.647 208.639 169 208.188 168.221C207.737 167.442 207.5 166.559 207.5 165.661V120.316C207.5 120.316 207.5 120.316 207.5 120.316C207.5 119.417 207.737 118.534 208.188 117.756C208.639 116.977 209.288 116.33 210.07 115.88Z" stroke="#212151" stroke-width="3"/>
<path d="M261.07 25.8799L261.079 25.8746L261.088 25.8693L300.935 2.18248C301.715 1.73546 302.6 1.5 303.5 1.5C304.4 1.5 305.285 1.73547 306.065 2.1825L345.912 25.8693L345.921 25.8746L345.93 25.8799C346.712 26.33 347.361 26.9772 347.812 27.7559C348.263 28.5345 348.5 29.4174 348.5 30.3159V75.6608C348.5 76.5593 348.263 77.4422 347.812 78.2209C347.361 78.9995 346.712 79.6467 345.93 80.0968L345.921 80.1021L345.912 80.1074L306.065 103.794C305.285 104.241 304.4 104.477 303.5 104.477C302.6 104.477 301.715 104.241 300.935 103.794L261.088 80.1074L261.079 80.1021L261.07 80.0968C260.288 79.6467 259.639 78.9995 259.188 78.2209C258.737 77.4422 258.5 76.5593 258.5 75.6608V30.3159C258.5 30.3159 258.5 30.3159 258.5 30.3159C258.5 29.4174 258.737 28.5345 259.188 27.7559C259.639 26.9772 260.288 26.33 261.07 25.8799Z" stroke="#212151" stroke-width="3"/>
<defs>
<filter id="filter0_d" x="63" y="50" width="173" height="185.977" filterUnits="userSpaceOnUse" color-interpolation-filters="sRGB">
<feFlood flood-opacity="0" result="BackgroundImageFix"/>
<feColorMatrix in="SourceAlpha" type="matrix" values="0 0 0 0 0 0 0 0 0 0 0 0 0 0 0 0 0 0 127 0"/>
<feOffset/>
<feGaussianBlur stdDeviation="20"/>
<feColorMatrix type="matrix" values="0 0 0 0 0.945098 0 0 0 0 0.756863 0 0 0 0 0.168627 0 0 0 1 0"/>
<feBlend mode="normal" in2="BackgroundImageFix" result="effect1_dropShadow"/>
<feBlend mode="normal" in="SourceGraphic" in2="effect1_dropShadow" result="shape"/>
</filter>
<filter id="filter1_d" x="269" y="50" width="173" height="185.977" filterUnits="userSpaceOnUse" color-interpolation-filters="sRGB">
<feFlood flood-opacity="0" result="BackgroundImageFix"/>
<feColorMatrix in="SourceAlpha" type="matrix" values="0 0 0 0 0 0 0 0 0 0 0 0 0 0 0 0 0 0 127 0"/>
<feOffset/>
<feGaussianBlur stdDeviation="20"/>
<feColorMatrix type="matrix" values="0 0 0 0 0.945098 0 0 0 0 0.756863 0 0 0 0 0.168627 0 0 0 1 0"/>
<feBlend mode="normal" in2="BackgroundImageFix" result="effect1_dropShadow"/>
<feBlend mode="normal" in="SourceGraphic" in2="effect1_dropShadow" result="shape"/>
</filter>
</defs>
</svg>
