<svg width="379" height="191" viewBox="0 0 379 191" fill="none" xmlns="http://www.w3.org/2000/svg">
<path d="M7.38351 169C6.77684 169 6.47351 168.692 6.47351 168.076V159.998C6.47351 159.391 6.77217 159.088 7.36951 159.088C7.96684 159.088 8.26551 159.391 8.26551 159.998V167.474H12.3255C12.8482 167.474 13.1095 167.726 13.1095 168.23C13.1095 168.743 12.8482 169 12.3255 169H7.38351ZM15.2308 169.112C14.6335 169.112 14.3348 168.804 14.3348 168.188V159.942C14.3348 159.326 14.6335 159.018 15.2308 159.018C15.8282 159.018 16.1268 159.326 16.1268 159.942V168.188C16.1268 168.804 15.8282 169.112 15.2308 169.112ZM21.688 169.14C21.0627 169.14 20.4513 169.07 19.854 168.93C19.266 168.79 18.7527 168.58 18.314 168.3C18.0993 168.16 17.9687 167.987 17.922 167.782C17.8753 167.577 17.8893 167.385 17.964 167.208C18.048 167.021 18.174 166.895 18.342 166.83C18.5193 166.755 18.72 166.788 18.944 166.928C19.3547 167.171 19.7887 167.348 20.246 167.46C20.7033 167.572 21.184 167.628 21.688 167.628C22.4253 167.628 22.962 167.507 23.298 167.264C23.634 167.012 23.802 166.69 23.802 166.298C23.802 165.971 23.6807 165.715 23.438 165.528C23.2047 165.341 22.7987 165.187 22.22 165.066L20.68 164.744C18.9253 164.371 18.048 163.47 18.048 162.042C18.048 161.426 18.2113 160.889 18.538 160.432C18.8647 159.975 19.3173 159.62 19.896 159.368C20.4747 159.116 21.142 158.99 21.898 158.99C22.458 158.99 22.99 159.06 23.494 159.2C23.998 159.34 24.4507 159.545 24.852 159.816C25.0387 159.947 25.1507 160.11 25.188 160.306C25.2253 160.493 25.202 160.67 25.118 160.838C25.034 160.997 24.8987 161.109 24.712 161.174C24.5347 161.23 24.3247 161.188 24.082 161.048C23.7367 160.852 23.3867 160.712 23.032 160.628C22.6773 160.544 22.2947 160.502 21.884 160.502C21.24 160.502 20.736 160.637 20.372 160.908C20.008 161.179 19.826 161.533 19.826 161.972C19.826 162.308 19.938 162.579 20.162 162.784C20.386 162.98 20.7687 163.134 21.31 163.246L22.836 163.568C23.76 163.764 24.446 164.072 24.894 164.492C25.3513 164.912 25.58 165.472 25.58 166.172C25.58 166.76 25.4213 167.278 25.104 167.726C24.7867 168.174 24.334 168.524 23.746 168.776C23.1673 169.019 22.4813 169.14 21.688 169.14ZM30.189 169.112C29.5916 169.112 29.293 168.804 29.293 168.188V160.628H26.563C26.0496 160.628 25.793 160.376 25.793 159.872C25.793 159.377 26.0496 159.13 26.563 159.13H33.815C34.3283 159.13 34.585 159.377 34.585 159.872C34.585 160.376 34.3283 160.628 33.815 160.628H31.085V168.188C31.085 168.804 30.7863 169.112 30.189 169.112ZM36.5603 169C35.9256 169 35.6083 168.683 35.6083 168.048V160.082C35.6083 159.447 35.9256 159.13 36.5603 159.13H41.5583C42.0436 159.13 42.2863 159.363 42.2863 159.83C42.2863 160.315 42.0436 160.558 41.5583 160.558H37.3303V163.274H41.2503C41.7356 163.274 41.9783 163.512 41.9783 163.988C41.9783 164.464 41.7356 164.702 41.2503 164.702H37.3303V167.572H41.5583C42.0436 167.572 42.2863 167.81 42.2863 168.286C42.2863 168.762 42.0436 169 41.5583 169H36.5603ZM44.9138 169C44.2791 169 43.9618 168.683 43.9618 168.048V160.082C43.9618 159.447 44.2791 159.13 44.9138 159.13H47.6298C49.2818 159.13 50.5558 159.555 51.4518 160.404C52.3571 161.253 52.8098 162.471 52.8098 164.058C52.8098 165.635 52.3571 166.853 51.4518 167.712C50.5558 168.571 49.2818 169 47.6298 169H44.9138ZM45.7538 167.516H47.5178C49.7951 167.516 50.9338 166.363 50.9338 164.058C50.9338 161.762 49.7951 160.614 47.5178 160.614H45.7538V167.516ZM58.7626 169.112C58.5293 169.112 58.338 169.051 58.1886 168.93C58.0393 168.799 57.9506 168.641 57.9226 168.454C57.904 168.258 57.9693 168.062 58.1186 167.866L61.0306 163.974L58.2726 160.278C58.1233 160.073 58.058 159.877 58.0766 159.69C58.0953 159.494 58.1793 159.335 58.3286 159.214C58.478 159.083 58.6646 159.018 58.8886 159.018C59.234 159.018 59.5466 159.209 59.8266 159.592L62.0526 162.672L64.2786 159.592C64.5586 159.209 64.876 159.018 65.2306 159.018C65.464 159.018 65.6553 159.079 65.8046 159.2C65.954 159.321 66.038 159.48 66.0566 159.676C66.0753 159.863 66.0053 160.063 65.8466 160.278L63.0886 163.974L65.9866 167.866C66.136 168.062 66.2013 168.258 66.1826 168.454C66.164 168.641 66.08 168.799 65.9306 168.93C65.7813 169.051 65.5853 169.112 65.3426 169.112C65.0066 169.112 64.694 168.916 64.4046 168.524L62.0526 165.304L59.7146 168.524C59.4253 168.916 59.108 169.112 58.7626 169.112ZM68.7429 169C68.1362 169 67.8329 168.692 67.8329 168.076V159.998C67.8329 159.391 68.1315 159.088 68.7289 159.088C69.3262 159.088 69.6249 159.391 69.6249 159.998V167.474H73.6849C74.2075 167.474 74.4689 167.726 74.4689 168.23C74.4689 168.743 74.2075 169 73.6849 169H68.7429ZM76.6462 169C76.0115 169 75.6942 168.683 75.6942 168.048V160.082C75.6942 159.447 76.0115 159.13 76.6462 159.13H79.3622C81.0142 159.13 82.2882 159.555 83.1842 160.404C84.0895 161.253 84.5422 162.471 84.5422 164.058C84.5422 165.635 84.0895 166.853 83.1842 167.712C82.2882 168.571 81.0142 169 79.3622 169H76.6462ZM77.4862 167.516H79.2502C81.5275 167.516 82.6662 166.363 82.6662 164.058C82.6662 161.762 81.5275 160.614 79.2502 160.614H77.4862V167.516ZM91.0551 169.112C90.4577 169.112 90.1591 168.804 90.1591 168.188V159.942C90.1591 159.326 90.4577 159.018 91.0551 159.018C91.6524 159.018 91.9511 159.326 91.9511 159.942V168.188C91.9511 168.804 91.6524 169.112 91.0551 169.112ZM94.9502 169.112C94.3902 169.112 94.1102 168.823 94.1102 168.244V159.914C94.1102 159.625 94.1802 159.405 94.3202 159.256C94.4696 159.097 94.6609 159.018 94.8942 159.018C95.1089 159.018 95.2676 159.06 95.3702 159.144C95.4822 159.219 95.6129 159.349 95.7622 159.536L100.76 166.018V159.872C100.76 159.303 101.04 159.018 101.6 159.018C102.151 159.018 102.426 159.303 102.426 159.872V168.272C102.426 168.533 102.361 168.739 102.23 168.888C102.1 169.037 101.922 169.112 101.698 169.112C101.484 169.112 101.311 169.07 101.18 168.986C101.059 168.902 100.924 168.767 100.774 168.58L95.7762 162.084V168.244C95.7762 168.823 95.5009 169.112 94.9502 169.112ZM108.72 169.112C108.486 169.112 108.295 169.051 108.146 168.93C107.996 168.799 107.908 168.641 107.88 168.454C107.861 168.258 107.926 168.062 108.076 167.866L110.988 163.974L108.23 160.278C108.08 160.073 108.015 159.877 108.034 159.69C108.052 159.494 108.136 159.335 108.286 159.214C108.435 159.083 108.622 159.018 108.846 159.018C109.191 159.018 109.504 159.209 109.784 159.592L112.01 162.672L114.236 159.592C114.516 159.209 114.833 159.018 115.188 159.018C115.421 159.018 115.612 159.079 115.762 159.2C115.911 159.321 115.995 159.48 116.014 159.676C116.032 159.863 115.962 160.063 115.804 160.278L113.046 163.974L115.944 167.866C116.093 168.062 116.158 168.258 116.14 168.454C116.121 168.641 116.037 168.799 115.888 168.93C115.738 169.051 115.542 169.112 115.3 169.112C114.964 169.112 114.651 168.916 114.362 168.524L112.01 165.304L109.672 168.524C109.382 168.916 109.065 169.112 108.72 169.112ZM121.985 169.14C120.959 169.14 120.077 168.935 119.339 168.524C118.611 168.104 118.051 167.516 117.659 166.76C117.267 165.995 117.071 165.094 117.071 164.058C117.071 163.022 117.267 162.126 117.659 161.37C118.051 160.614 118.611 160.031 119.339 159.62C120.077 159.2 120.959 158.99 121.985 158.99C122.499 158.99 123.003 159.055 123.497 159.186C123.992 159.317 124.426 159.503 124.799 159.746C125.042 159.905 125.187 160.096 125.233 160.32C125.28 160.535 125.252 160.735 125.149 160.922C125.047 161.099 124.893 161.221 124.687 161.286C124.482 161.342 124.253 161.286 124.001 161.118C123.712 160.931 123.399 160.796 123.063 160.712C122.727 160.628 122.387 160.586 122.041 160.586C121.043 160.586 120.282 160.889 119.759 161.496C119.237 162.093 118.975 162.947 118.975 164.058C118.975 165.169 119.237 166.027 119.759 166.634C120.282 167.241 121.043 167.544 122.041 167.544C122.396 167.544 122.746 167.502 123.091 167.418C123.437 167.325 123.763 167.185 124.071 166.998C124.323 166.839 124.547 166.788 124.743 166.844C124.939 166.9 125.084 167.017 125.177 167.194C125.28 167.362 125.313 167.549 125.275 167.754C125.238 167.959 125.112 168.141 124.897 168.3C124.524 168.571 124.076 168.781 123.553 168.93C123.04 169.07 122.517 169.14 121.985 169.14ZM127.861 169C127.226 169 126.909 168.683 126.909 168.048V160.082C126.909 159.447 127.226 159.13 127.861 159.13H132.859C133.344 159.13 133.587 159.363 133.587 159.83C133.587 160.315 133.344 160.558 132.859 160.558H128.631V163.274H132.551C133.036 163.274 133.279 163.512 133.279 163.988C133.279 164.464 133.036 164.702 132.551 164.702H128.631V167.572H132.859C133.344 167.572 133.587 167.81 133.587 168.286C133.587 168.762 133.344 169 132.859 169H127.861ZM136.173 169C135.566 169 135.263 168.692 135.263 168.076V159.998C135.263 159.391 135.561 159.088 136.159 159.088C136.756 159.088 137.055 159.391 137.055 159.998V167.474H141.115C141.637 167.474 141.899 167.726 141.899 168.23C141.899 168.743 141.637 169 141.115 169H136.173ZM144.582 169.112C143.984 169.112 143.686 168.804 143.686 168.188V160.628H140.956C140.442 160.628 140.186 160.376 140.186 159.872C140.186 159.377 140.442 159.13 140.956 159.13H148.208C148.721 159.13 148.978 159.377 148.978 159.872C148.978 160.376 148.721 160.628 148.208 160.628H145.478V168.188C145.478 168.804 145.179 169.112 144.582 169.112ZM150.897 169.112C150.3 169.112 150.001 168.804 150.001 168.188V160.04C150.001 159.433 150.304 159.13 150.911 159.13H154.285C155.368 159.13 156.203 159.391 156.791 159.914C157.379 160.427 157.673 161.151 157.673 162.084C157.673 162.821 157.482 163.433 157.099 163.918C156.716 164.394 156.166 164.716 155.447 164.884C155.923 165.033 156.315 165.393 156.623 165.962L157.673 167.908C157.832 168.207 157.86 168.482 157.757 168.734C157.664 168.986 157.426 169.112 157.043 169.112C156.791 169.112 156.586 169.061 156.427 168.958C156.268 168.846 156.128 168.678 156.007 168.454L154.593 165.85C154.425 165.533 154.224 165.323 153.991 165.22C153.767 165.108 153.478 165.052 153.123 165.052H151.793V168.188C151.793 168.804 151.494 169.112 150.897 169.112ZM151.793 163.722H153.977C155.284 163.722 155.937 163.19 155.937 162.126C155.937 161.071 155.284 160.544 153.977 160.544H151.793V163.722ZM160.495 169.112C159.897 169.112 159.599 168.804 159.599 168.188V159.942C159.599 159.326 159.897 159.018 160.495 159.018C161.092 159.018 161.391 159.326 161.391 159.942V168.188C161.391 168.804 161.092 169.112 160.495 169.112ZM164.446 169.112C163.848 169.112 163.55 168.804 163.55 168.188V160.04C163.55 159.433 163.853 159.13 164.46 159.13H167.834C168.916 159.13 169.752 159.401 170.34 159.942C170.928 160.483 171.222 161.239 171.222 162.21C171.222 163.181 170.928 163.941 170.34 164.492C169.752 165.033 168.916 165.304 167.834 165.304H165.342V168.188C165.342 168.804 165.043 169.112 164.446 169.112ZM165.342 163.89H167.554C168.842 163.89 169.486 163.33 169.486 162.21C169.486 161.099 168.842 160.544 167.554 160.544H165.342V163.89ZM41.4963 189.112C41.1696 189.112 40.9363 189 40.7963 188.776C40.6563 188.552 40.661 188.281 40.8103 187.964L44.5063 179.774C44.6276 179.503 44.7723 179.312 44.9403 179.2C45.1176 179.079 45.3183 179.018 45.5423 179.018C45.757 179.018 45.9483 179.079 46.1163 179.2C46.2936 179.312 46.443 179.503 46.5643 179.774L50.2743 187.964C50.4236 188.291 50.433 188.566 50.3023 188.79C50.1716 189.005 49.9476 189.112 49.6303 189.112C49.369 189.112 49.1636 189.051 49.0143 188.93C48.8743 188.799 48.7483 188.603 48.6363 188.342L47.9363 186.718H43.1203L42.4343 188.342C42.313 188.613 42.187 188.809 42.0563 188.93C41.9256 189.051 41.739 189.112 41.4963 189.112ZM45.5143 181.076L43.7363 185.29H47.3203L45.5423 181.076H45.5143ZM52.6563 189.112C52.0963 189.112 51.8163 188.823 51.8163 188.244V179.914C51.8163 179.625 51.8863 179.405 52.0263 179.256C52.1756 179.097 52.3669 179.018 52.6003 179.018C52.8149 179.018 52.9736 179.06 53.0763 179.144C53.1883 179.219 53.3189 179.349 53.4683 179.536L58.4663 186.018V179.872C58.4663 179.303 58.7463 179.018 59.3063 179.018C59.8569 179.018 60.1323 179.303 60.1323 179.872V188.272C60.1323 188.533 60.0669 188.739 59.9363 188.888C59.8056 189.037 59.6283 189.112 59.4043 189.112C59.1896 189.112 59.0169 189.07 58.8863 188.986C58.7649 188.902 58.6296 188.767 58.4803 188.58L53.4823 182.084V188.244C53.4823 188.823 53.2069 189.112 52.6563 189.112ZM63.2409 189C62.6063 189 62.2889 188.683 62.2889 188.048V180.082C62.2889 179.447 62.6063 179.13 63.2409 179.13H65.9569C67.6089 179.13 68.8829 179.555 69.7789 180.404C70.6843 181.253 71.1369 182.471 71.1369 184.058C71.1369 185.635 70.6843 186.853 69.7789 187.712C68.8829 188.571 67.6089 189 65.9569 189H63.2409ZM64.0809 187.516H65.8449C68.1223 187.516 69.2609 186.363 69.2609 184.058C69.2609 181.762 68.1223 180.614 65.8449 180.614H64.0809V187.516ZM77.0898 189.112C76.8564 189.112 76.6651 189.051 76.5158 188.93C76.3664 188.799 76.2778 188.641 76.2498 188.454C76.2311 188.258 76.2964 188.062 76.4458 187.866L79.3578 183.974L76.5998 180.278C76.4504 180.073 76.3851 179.877 76.4038 179.69C76.4224 179.494 76.5064 179.335 76.6558 179.214C76.8051 179.083 76.9918 179.018 77.2158 179.018C77.5611 179.018 77.8738 179.209 78.1538 179.592L80.3798 182.672L82.6058 179.592C82.8858 179.209 83.2031 179.018 83.5578 179.018C83.7911 179.018 83.9824 179.079 84.1318 179.2C84.2811 179.321 84.3651 179.48 84.3838 179.676C84.4024 179.863 84.3324 180.063 84.1738 180.278L81.4158 183.974L84.3138 187.866C84.4631 188.062 84.5284 188.258 84.5098 188.454C84.4911 188.641 84.4071 188.799 84.2578 188.93C84.1084 189.051 83.9124 189.112 83.6698 189.112C83.3338 189.112 83.0211 188.916 82.7318 188.524L80.3798 185.304L78.0418 188.524C77.7524 188.916 77.4351 189.112 77.0898 189.112ZM90.3555 189.14C89.3289 189.14 88.4469 188.935 87.7095 188.524C86.9815 188.104 86.4215 187.516 86.0295 186.76C85.6375 185.995 85.4415 185.094 85.4415 184.058C85.4415 183.022 85.6375 182.126 86.0295 181.37C86.4215 180.614 86.9815 180.031 87.7095 179.62C88.4469 179.2 89.3289 178.99 90.3555 178.99C90.8689 178.99 91.3729 179.055 91.8675 179.186C92.3622 179.317 92.7962 179.503 93.1695 179.746C93.4122 179.905 93.5569 180.096 93.6035 180.32C93.6502 180.535 93.6222 180.735 93.5195 180.922C93.4169 181.099 93.2629 181.221 93.0575 181.286C92.8522 181.342 92.6235 181.286 92.3715 181.118C92.0822 180.931 91.7695 180.796 91.4335 180.712C91.0975 180.628 90.7569 180.586 90.4115 180.586C89.4129 180.586 88.6522 180.889 88.1295 181.496C87.6069 182.093 87.3455 182.947 87.3455 184.058C87.3455 185.169 87.6069 186.027 88.1295 186.634C88.6522 187.241 89.4129 187.544 90.4115 187.544C90.7662 187.544 91.1162 187.502 91.4615 187.418C91.8069 187.325 92.1335 187.185 92.4415 186.998C92.6935 186.839 92.9175 186.788 93.1135 186.844C93.3095 186.9 93.4542 187.017 93.5475 187.194C93.6502 187.362 93.6829 187.549 93.6455 187.754C93.6082 187.959 93.4822 188.141 93.2675 188.3C92.8942 188.571 92.4462 188.781 91.9235 188.93C91.4102 189.07 90.8875 189.14 90.3555 189.14ZM96.2312 189C95.5965 189 95.2792 188.683 95.2792 188.048V180.082C95.2792 179.447 95.5965 179.13 96.2312 179.13H101.229C101.715 179.13 101.957 179.363 101.957 179.83C101.957 180.315 101.715 180.558 101.229 180.558H97.0012V183.274H100.921C101.407 183.274 101.649 183.512 101.649 183.988C101.649 184.464 101.407 184.702 100.921 184.702H97.0012V187.572H101.229C101.715 187.572 101.957 187.81 101.957 188.286C101.957 188.762 101.715 189 101.229 189H96.2312ZM104.543 189C103.936 189 103.633 188.692 103.633 188.076V179.998C103.633 179.391 103.931 179.088 104.529 179.088C105.126 179.088 105.425 179.391 105.425 179.998V187.474H109.485C110.007 187.474 110.269 187.726 110.269 188.23C110.269 188.743 110.007 189 109.485 189H104.543ZM112.39 189.112C111.793 189.112 111.494 188.804 111.494 188.188V180.04C111.494 179.433 111.797 179.13 112.404 179.13H115.778C116.861 179.13 117.696 179.401 118.284 179.942C118.872 180.483 119.166 181.239 119.166 182.21C119.166 183.181 118.872 183.941 118.284 184.492C117.696 185.033 116.861 185.304 115.778 185.304H113.286V188.188C113.286 188.804 112.987 189.112 112.39 189.112ZM113.286 183.89H115.498C116.786 183.89 117.43 183.33 117.43 182.21C117.43 181.099 116.786 180.544 115.498 180.544H113.286V183.89ZM119.699 189.112C119.373 189.112 119.139 189 118.999 188.776C118.859 188.552 118.864 188.281 119.013 187.964L122.709 179.774C122.831 179.503 122.975 179.312 123.143 179.2C123.321 179.079 123.521 179.018 123.745 179.018C123.96 179.018 124.151 179.079 124.319 179.2C124.497 179.312 124.646 179.503 124.767 179.774L128.477 187.964C128.627 188.291 128.636 188.566 128.505 188.79C128.375 189.005 128.151 189.112 127.833 189.112C127.572 189.112 127.367 189.051 127.217 188.93C127.077 188.799 126.951 188.603 126.839 188.342L126.139 186.718H121.323L120.637 188.342C120.516 188.613 120.39 188.809 120.259 188.93C120.129 189.051 119.942 189.112 119.699 189.112ZM123.717 181.076L121.939 185.29H125.523L123.745 181.076H123.717ZM132.351 189.112C131.754 189.112 131.455 188.799 131.455 188.174V184.464L128.459 180.25C128.338 180.082 128.282 179.905 128.291 179.718C128.31 179.522 128.389 179.359 128.529 179.228C128.669 179.088 128.865 179.018 129.117 179.018C129.481 179.018 129.799 179.209 130.069 179.592L132.379 182.868L134.703 179.592C134.853 179.387 134.997 179.242 135.137 179.158C135.277 179.065 135.45 179.018 135.655 179.018C136.019 179.018 136.257 179.153 136.369 179.424C136.491 179.685 136.444 179.965 136.229 180.264L133.247 184.478V188.174C133.247 188.799 132.949 189.112 132.351 189.112Z" fill="white"/>
<path d="M236.797 170.112C236.2 170.112 235.901 169.804 235.901 169.188V160.942C235.901 160.326 236.2 160.018 236.797 160.018C237.395 160.018 237.693 160.326 237.693 160.942V169.188C237.693 169.804 237.395 170.112 236.797 170.112ZM240.804 170C240.17 170 239.852 169.683 239.852 169.048V161.082C239.852 160.447 240.17 160.13 240.804 160.13H243.52C245.172 160.13 246.446 160.555 247.342 161.404C248.248 162.253 248.7 163.471 248.7 165.058C248.7 166.635 248.248 167.853 247.342 168.712C246.446 169.571 245.172 170 243.52 170H240.804ZM241.644 168.516H243.408C245.686 168.516 246.824 167.363 246.824 165.058C246.824 162.762 245.686 161.614 243.408 161.614H241.644V168.516ZM251.468 170C250.834 170 250.516 169.683 250.516 169.048V161.082C250.516 160.447 250.834 160.13 251.468 160.13H256.466C256.952 160.13 257.194 160.363 257.194 160.83C257.194 161.315 256.952 161.558 256.466 161.558H252.238V164.274H256.158C256.644 164.274 256.886 164.512 256.886 164.988C256.886 165.464 256.644 165.702 256.158 165.702H252.238V168.572H256.466C256.952 168.572 257.194 168.81 257.194 169.286C257.194 169.762 256.952 170 256.466 170H251.468ZM258.79 170.112C258.464 170.112 258.23 170 258.09 169.776C257.95 169.552 257.955 169.281 258.104 168.964L261.8 160.774C261.922 160.503 262.066 160.312 262.234 160.2C262.412 160.079 262.612 160.018 262.836 160.018C263.051 160.018 263.242 160.079 263.41 160.2C263.588 160.312 263.737 160.503 263.858 160.774L267.568 168.964C267.718 169.291 267.727 169.566 267.596 169.79C267.466 170.005 267.242 170.112 266.924 170.112C266.663 170.112 266.458 170.051 266.308 169.93C266.168 169.799 266.042 169.603 265.93 169.342L265.23 167.718H260.414L259.728 169.342C259.607 169.613 259.481 169.809 259.35 169.93C259.22 170.051 259.033 170.112 258.79 170.112ZM262.808 162.076L261.03 166.29H264.614L262.836 162.076H262.808ZM277.657 170.14C276.565 170.14 275.641 169.935 274.885 169.524C274.138 169.113 273.569 168.53 273.177 167.774C272.785 167.018 272.589 166.122 272.589 165.086C272.589 164.041 272.79 163.14 273.191 162.384C273.592 161.619 274.171 161.031 274.927 160.62C275.683 160.2 276.588 159.99 277.643 159.99C278.166 159.99 278.688 160.055 279.211 160.186C279.743 160.307 280.242 160.517 280.709 160.816C280.914 160.937 281.031 161.101 281.059 161.306C281.096 161.502 281.068 161.689 280.975 161.866C280.882 162.043 280.742 162.169 280.555 162.244C280.368 162.309 280.163 162.277 279.939 162.146C279.584 161.941 279.225 161.791 278.861 161.698C278.497 161.605 278.091 161.558 277.643 161.558C276.598 161.558 275.804 161.861 275.263 162.468C274.731 163.075 274.465 163.947 274.465 165.086C274.465 166.234 274.74 167.107 275.291 167.704C275.842 168.301 276.658 168.6 277.741 168.6C278.049 168.6 278.362 168.577 278.679 168.53C279.006 168.474 279.328 168.395 279.645 168.292V165.996H278.105C277.62 165.996 277.377 165.772 277.377 165.324C277.377 164.885 277.62 164.666 278.105 164.666H280.415C280.9 164.666 281.143 164.909 281.143 165.394V168.796C281.143 169.225 280.975 169.501 280.639 169.622C280.228 169.771 279.757 169.897 279.225 170C278.693 170.093 278.17 170.14 277.657 170.14ZM284.172 170C283.537 170 283.22 169.683 283.22 169.048V161.082C283.22 160.447 283.537 160.13 284.172 160.13H289.17C289.655 160.13 289.898 160.363 289.898 160.83C289.898 161.315 289.655 161.558 289.17 161.558H284.942V164.274H288.862C289.347 164.274 289.59 164.512 289.59 164.988C289.59 165.464 289.347 165.702 288.862 165.702H284.942V168.572H289.17C289.655 168.572 289.898 168.81 289.898 169.286C289.898 169.762 289.655 170 289.17 170H284.172ZM292.413 170.112C291.853 170.112 291.573 169.823 291.573 169.244V160.914C291.573 160.625 291.643 160.405 291.783 160.256C291.932 160.097 292.124 160.018 292.357 160.018C292.572 160.018 292.73 160.06 292.833 160.144C292.945 160.219 293.076 160.349 293.225 160.536L298.223 167.018V160.872C298.223 160.303 298.503 160.018 299.063 160.018C299.614 160.018 299.889 160.303 299.889 160.872V169.272C299.889 169.533 299.824 169.739 299.693 169.888C299.562 170.037 299.385 170.112 299.161 170.112C298.946 170.112 298.774 170.07 298.643 169.986C298.522 169.902 298.386 169.767 298.237 169.58L293.239 163.084V169.244C293.239 169.823 292.964 170.112 292.413 170.112ZM302.998 170C302.363 170 302.046 169.683 302.046 169.048V161.082C302.046 160.447 302.363 160.13 302.998 160.13H307.996C308.481 160.13 308.724 160.363 308.724 160.83C308.724 161.315 308.481 161.558 307.996 161.558H303.768V164.274H307.688C308.173 164.274 308.416 164.512 308.416 164.988C308.416 165.464 308.173 165.702 307.688 165.702H303.768V168.572H307.996C308.481 168.572 308.724 168.81 308.724 169.286C308.724 169.762 308.481 170 307.996 170H302.998ZM311.295 170.112C310.698 170.112 310.399 169.804 310.399 169.188V161.04C310.399 160.433 310.703 160.13 311.309 160.13H314.683C315.766 160.13 316.601 160.391 317.189 160.914C317.777 161.427 318.071 162.151 318.071 163.084C318.071 163.821 317.88 164.433 317.497 164.918C317.115 165.394 316.564 165.716 315.845 165.884C316.321 166.033 316.713 166.393 317.021 166.962L318.071 168.908C318.23 169.207 318.258 169.482 318.155 169.734C318.062 169.986 317.824 170.112 317.441 170.112C317.189 170.112 316.984 170.061 316.825 169.958C316.667 169.846 316.527 169.678 316.405 169.454L314.991 166.85C314.823 166.533 314.623 166.323 314.389 166.22C314.165 166.108 313.876 166.052 313.521 166.052H312.191V169.188C312.191 169.804 311.893 170.112 311.295 170.112ZM312.191 164.722H314.375C315.682 164.722 316.335 164.19 316.335 163.126C316.335 162.071 315.682 161.544 314.375 161.544H312.191V164.722ZM319.917 170.112C319.591 170.112 319.357 170 319.217 169.776C319.077 169.552 319.082 169.281 319.231 168.964L322.927 160.774C323.049 160.503 323.193 160.312 323.361 160.2C323.539 160.079 323.739 160.018 323.963 160.018C324.178 160.018 324.369 160.079 324.537 160.2C324.715 160.312 324.864 160.503 324.985 160.774L328.695 168.964C328.845 169.291 328.854 169.566 328.723 169.79C328.593 170.005 328.369 170.112 328.051 170.112C327.79 170.112 327.585 170.051 327.435 169.93C327.295 169.799 327.169 169.603 327.057 169.342L326.357 167.718H321.541L320.855 169.342C320.734 169.613 320.608 169.809 320.477 169.93C320.347 170.051 320.16 170.112 319.917 170.112ZM323.935 162.076L322.157 166.29H325.741L323.963 162.076H323.935ZM332.419 170.112C331.822 170.112 331.523 169.804 331.523 169.188V161.628H328.793C328.28 161.628 328.023 161.376 328.023 160.872C328.023 160.377 328.28 160.13 328.793 160.13H336.045C336.559 160.13 336.815 160.377 336.815 160.872C336.815 161.376 336.559 161.628 336.045 161.628H333.315V169.188C333.315 169.804 333.017 170.112 332.419 170.112ZM338.735 170.112C338.137 170.112 337.839 169.804 337.839 169.188V160.942C337.839 160.326 338.137 160.018 338.735 160.018C339.332 160.018 339.631 160.326 339.631 160.942V169.188C339.631 169.804 339.332 170.112 338.735 170.112ZM346.214 170.14C345.262 170.14 344.427 169.93 343.708 169.51C342.999 169.09 342.448 168.502 342.056 167.746C341.664 166.981 341.468 166.085 341.468 165.058C341.468 164.022 341.664 163.126 342.056 162.37C342.448 161.614 342.999 161.031 343.708 160.62C344.417 160.2 345.253 159.99 346.214 159.99C347.175 159.99 348.011 160.2 348.72 160.62C349.429 161.031 349.98 161.614 350.372 162.37C350.764 163.126 350.96 164.017 350.96 165.044C350.96 166.08 350.764 166.981 350.372 167.746C349.98 168.502 349.429 169.09 348.72 169.51C348.011 169.93 347.175 170.14 346.214 170.14ZM346.214 168.6C347.119 168.6 347.824 168.287 348.328 167.662C348.832 167.037 349.084 166.169 349.084 165.058C349.084 163.938 348.832 163.07 348.328 162.454C347.833 161.838 347.129 161.53 346.214 161.53C345.309 161.53 344.604 161.838 344.1 162.454C343.596 163.07 343.344 163.938 343.344 165.058C343.344 166.169 343.596 167.037 344.1 167.662C344.604 168.287 345.309 168.6 346.214 168.6ZM353.622 170.112C353.062 170.112 352.782 169.823 352.782 169.244V160.914C352.782 160.625 352.852 160.405 352.992 160.256C353.141 160.097 353.333 160.018 353.566 160.018C353.781 160.018 353.939 160.06 354.042 160.144C354.154 160.219 354.285 160.349 354.434 160.536L359.432 167.018V160.872C359.432 160.303 359.712 160.018 360.272 160.018C360.823 160.018 361.098 160.303 361.098 160.872V169.272C361.098 169.533 361.033 169.739 360.902 169.888C360.771 170.037 360.594 170.112 360.37 170.112C360.155 170.112 359.983 170.07 359.852 169.986C359.731 169.902 359.595 169.767 359.446 169.58L354.448 163.084V169.244C354.448 169.823 354.173 170.112 353.622 170.112ZM238.233 190.112C237.617 190.112 237.309 189.795 237.309 189.16V181.082C237.309 180.447 237.627 180.13 238.261 180.13H243.147C243.633 180.13 243.875 180.363 243.875 180.83C243.875 181.315 243.633 181.558 243.147 181.558H239.101V184.344H242.853C243.339 184.344 243.581 184.577 243.581 185.044C243.581 185.529 243.339 185.772 242.853 185.772H239.101V189.16C239.101 189.795 238.812 190.112 238.233 190.112ZM249.417 190.14C248.465 190.14 247.63 189.93 246.911 189.51C246.202 189.09 245.651 188.502 245.259 187.746C244.867 186.981 244.671 186.085 244.671 185.058C244.671 184.022 244.867 183.126 245.259 182.37C245.651 181.614 246.202 181.031 246.911 180.62C247.62 180.2 248.456 179.99 249.417 179.99C250.378 179.99 251.214 180.2 251.923 180.62C252.632 181.031 253.183 181.614 253.575 182.37C253.967 183.126 254.163 184.017 254.163 185.044C254.163 186.08 253.967 186.981 253.575 187.746C253.183 188.502 252.632 189.09 251.923 189.51C251.214 189.93 250.378 190.14 249.417 190.14ZM249.417 188.6C250.322 188.6 251.027 188.287 251.531 187.662C252.035 187.037 252.287 186.169 252.287 185.058C252.287 183.938 252.035 183.07 251.531 182.454C251.036 181.838 250.332 181.53 249.417 181.53C248.512 181.53 247.807 181.838 247.303 182.454C246.799 183.07 246.547 183.938 246.547 185.058C246.547 186.169 246.799 187.037 247.303 187.662C247.807 188.287 248.512 188.6 249.417 188.6ZM256.881 190.112C256.284 190.112 255.985 189.804 255.985 189.188V181.04C255.985 180.433 256.289 180.13 256.895 180.13H260.269C261.352 180.13 262.187 180.391 262.775 180.914C263.363 181.427 263.657 182.151 263.657 183.084C263.657 183.821 263.466 184.433 263.083 184.918C262.701 185.394 262.15 185.716 261.431 185.884C261.907 186.033 262.299 186.393 262.607 186.962L263.657 188.908C263.816 189.207 263.844 189.482 263.741 189.734C263.648 189.986 263.41 190.112 263.027 190.112C262.775 190.112 262.57 190.061 262.411 189.958C262.253 189.846 262.113 189.678 261.991 189.454L260.577 186.85C260.409 186.533 260.209 186.323 259.975 186.22C259.751 186.108 259.462 186.052 259.107 186.052H257.777V189.188C257.777 189.804 257.479 190.112 256.881 190.112ZM257.777 184.722H259.961C261.268 184.722 261.921 184.19 261.921 183.126C261.921 182.071 261.268 181.544 259.961 181.544H257.777V184.722ZM272.66 190.112C272.062 190.112 271.764 189.804 271.764 189.188V181.628H269.034C268.52 181.628 268.264 181.376 268.264 180.872C268.264 180.377 268.52 180.13 269.034 180.13H276.286C276.799 180.13 277.056 180.377 277.056 180.872C277.056 181.376 276.799 181.628 276.286 181.628H273.556V189.188C273.556 189.804 273.257 190.112 272.66 190.112ZM281.901 190.14C280.949 190.14 280.114 189.93 279.395 189.51C278.686 189.09 278.135 188.502 277.743 187.746C277.351 186.981 277.155 186.085 277.155 185.058C277.155 184.022 277.351 183.126 277.743 182.37C278.135 181.614 278.686 181.031 279.395 180.62C280.105 180.2 280.94 179.99 281.901 179.99C282.863 179.99 283.698 180.2 284.407 180.62C285.117 181.031 285.667 181.614 286.059 182.37C286.451 183.126 286.647 184.017 286.647 185.044C286.647 186.08 286.451 186.981 286.059 187.746C285.667 188.502 285.117 189.09 284.407 189.51C283.698 189.93 282.863 190.14 281.901 190.14ZM281.901 188.6C282.807 188.6 283.511 188.287 284.015 187.662C284.519 187.037 284.771 186.169 284.771 185.058C284.771 183.938 284.519 183.07 284.015 182.454C283.521 181.838 282.816 181.53 281.901 181.53C280.996 181.53 280.291 181.838 279.787 182.454C279.283 183.07 279.031 183.938 279.031 185.058C279.031 186.169 279.283 187.037 279.787 187.662C280.291 188.287 280.996 188.6 281.901 188.6ZM289.366 190.112C288.768 190.112 288.47 189.804 288.47 189.188V180.928C288.47 180.321 288.768 180.018 289.366 180.018C289.963 180.018 290.262 180.321 290.262 180.928V184.498H290.29L294.308 180.466C294.457 180.317 294.606 180.205 294.756 180.13C294.905 180.055 295.073 180.018 295.26 180.018C295.53 180.018 295.722 180.088 295.834 180.228C295.955 180.368 296.002 180.531 295.974 180.718C295.955 180.905 295.866 181.077 295.708 181.236L292.026 184.876L295.904 188.81C296.1 188.997 296.202 189.193 296.212 189.398C296.221 189.603 296.156 189.776 296.016 189.916C295.885 190.047 295.689 190.112 295.428 190.112C295.204 190.112 295.022 190.065 294.882 189.972C294.751 189.879 294.597 189.743 294.42 189.566L290.29 185.436H290.262V189.188C290.262 189.804 289.963 190.112 289.366 190.112ZM298.732 190C298.097 190 297.78 189.683 297.78 189.048V181.082C297.78 180.447 298.097 180.13 298.732 180.13H303.73C304.215 180.13 304.458 180.363 304.458 180.83C304.458 181.315 304.215 181.558 303.73 181.558H299.502V184.274H303.422C303.907 184.274 304.15 184.512 304.15 184.988C304.15 185.464 303.907 185.702 303.422 185.702H299.502V188.572H303.73C304.215 188.572 304.458 188.81 304.458 189.286C304.458 189.762 304.215 190 303.73 190H298.732ZM306.974 190.112C306.414 190.112 306.134 189.823 306.134 189.244V180.914C306.134 180.625 306.204 180.405 306.344 180.256C306.493 180.097 306.684 180.018 306.918 180.018C307.132 180.018 307.291 180.06 307.394 180.144C307.506 180.219 307.636 180.349 307.786 180.536L312.784 187.018V180.872C312.784 180.303 313.064 180.018 313.624 180.018C314.174 180.018 314.45 180.303 314.45 180.872V189.272C314.45 189.533 314.384 189.739 314.254 189.888C314.123 190.037 313.946 190.112 313.722 190.112C313.507 190.112 313.334 190.07 313.204 189.986C313.082 189.902 312.947 189.767 312.798 189.58L307.8 183.084V189.244C307.8 189.823 307.524 190.112 306.974 190.112ZM321.03 190.14C320.078 190.14 319.243 189.93 318.524 189.51C317.815 189.09 317.264 188.502 316.872 187.746C316.48 186.981 316.284 186.085 316.284 185.058C316.284 184.022 316.48 183.126 316.872 182.37C317.264 181.614 317.815 181.031 318.524 180.62C319.234 180.2 320.069 179.99 321.03 179.99C321.992 179.99 322.827 180.2 323.536 180.62C324.246 181.031 324.796 181.614 325.188 182.37C325.58 183.126 325.776 184.017 325.776 185.044C325.776 186.08 325.58 186.981 325.188 187.746C324.796 188.502 324.246 189.09 323.536 189.51C322.827 189.93 321.992 190.14 321.03 190.14ZM321.03 188.6C321.936 188.6 322.64 188.287 323.144 187.662C323.648 187.037 323.9 186.169 323.9 185.058C323.9 183.938 323.648 183.07 323.144 182.454C322.65 181.838 321.945 181.53 321.03 181.53C320.125 181.53 319.42 181.838 318.916 182.454C318.412 183.07 318.16 183.938 318.16 185.058C318.16 186.169 318.412 187.037 318.916 187.662C319.42 188.287 320.125 188.6 321.03 188.6ZM328.439 190.112C327.897 190.112 327.627 189.832 327.627 189.272V180.858C327.627 180.298 327.907 180.018 328.467 180.018C328.7 180.018 328.882 180.065 329.013 180.158C329.153 180.242 329.279 180.391 329.391 180.606L332.625 186.584L335.859 180.606C335.971 180.391 336.092 180.242 336.223 180.158C336.353 180.065 336.535 180.018 336.769 180.018C337.31 180.018 337.581 180.298 337.581 180.858V189.272C337.581 189.832 337.31 190.112 336.769 190.112C336.227 190.112 335.957 189.832 335.957 189.272V183.35L333.325 188.152C333.231 188.311 333.133 188.427 333.031 188.502C332.928 188.577 332.788 188.614 332.611 188.614C332.433 188.614 332.289 188.577 332.177 188.502C332.065 188.418 331.967 188.301 331.883 188.152L329.251 183.378V189.272C329.251 189.832 328.98 190.112 328.439 190.112ZM340.649 190.112C340.051 190.112 339.753 189.804 339.753 189.188V180.942C339.753 180.326 340.051 180.018 340.649 180.018C341.246 180.018 341.545 180.326 341.545 180.942V189.188C341.545 189.804 341.246 190.112 340.649 190.112ZM348.296 190.14C347.269 190.14 346.387 189.935 345.65 189.524C344.922 189.104 344.362 188.516 343.97 187.76C343.578 186.995 343.382 186.094 343.382 185.058C343.382 184.022 343.578 183.126 343.97 182.37C344.362 181.614 344.922 181.031 345.65 180.62C346.387 180.2 347.269 179.99 348.296 179.99C348.809 179.99 349.313 180.055 349.808 180.186C350.303 180.317 350.737 180.503 351.11 180.746C351.353 180.905 351.497 181.096 351.544 181.32C351.591 181.535 351.563 181.735 351.46 181.922C351.357 182.099 351.203 182.221 350.998 182.286C350.793 182.342 350.564 182.286 350.312 182.118C350.023 181.931 349.71 181.796 349.374 181.712C349.038 181.628 348.697 181.586 348.352 181.586C347.353 181.586 346.593 181.889 346.07 182.496C345.547 183.093 345.286 183.947 345.286 185.058C345.286 186.169 345.547 187.027 346.07 187.634C346.593 188.241 347.353 188.544 348.352 188.544C348.707 188.544 349.057 188.502 349.402 188.418C349.747 188.325 350.074 188.185 350.382 187.998C350.634 187.839 350.858 187.788 351.054 187.844C351.25 187.9 351.395 188.017 351.488 188.194C351.591 188.362 351.623 188.549 351.586 188.754C351.549 188.959 351.423 189.141 351.208 189.3C350.835 189.571 350.387 189.781 349.864 189.93C349.351 190.07 348.828 190.14 348.296 190.14ZM356.417 190.14C355.791 190.14 355.18 190.07 354.583 189.93C353.995 189.79 353.481 189.58 353.043 189.3C352.828 189.16 352.697 188.987 352.651 188.782C352.604 188.577 352.618 188.385 352.693 188.208C352.777 188.021 352.903 187.895 353.071 187.83C353.248 187.755 353.449 187.788 353.673 187.928C354.083 188.171 354.517 188.348 354.975 188.46C355.432 188.572 355.913 188.628 356.417 188.628C357.154 188.628 357.691 188.507 358.027 188.264C358.363 188.012 358.531 187.69 358.531 187.298C358.531 186.971 358.409 186.715 358.167 186.528C357.933 186.341 357.527 186.187 356.949 186.066L355.409 185.744C353.654 185.371 352.777 184.47 352.777 183.042C352.777 182.426 352.94 181.889 353.267 181.432C353.593 180.975 354.046 180.62 354.625 180.368C355.203 180.116 355.871 179.99 356.627 179.99C357.187 179.99 357.719 180.06 358.223 180.2C358.727 180.34 359.179 180.545 359.581 180.816C359.767 180.947 359.879 181.11 359.917 181.306C359.954 181.493 359.931 181.67 359.847 181.838C359.763 181.997 359.627 182.109 359.441 182.174C359.263 182.23 359.053 182.188 358.811 182.048C358.465 181.852 358.115 181.712 357.761 181.628C357.406 181.544 357.023 181.502 356.613 181.502C355.969 181.502 355.465 181.637 355.101 181.908C354.737 182.179 354.555 182.533 354.555 182.972C354.555 183.308 354.667 183.579 354.891 183.784C355.115 183.98 355.497 184.134 356.039 184.246L357.565 184.568C358.489 184.764 359.175 185.072 359.623 185.492C360.08 185.912 360.309 186.472 360.309 187.172C360.309 187.76 360.15 188.278 359.833 188.726C359.515 189.174 359.063 189.524 358.475 189.776C357.896 190.019 357.21 190.14 356.417 190.14Z" fill="white"/>
<path d="M75.2649 104.336C75.9049 104.336 76.2249 104.608 76.2249 105.152C76.2249 105.717 75.9049 106 75.2649 106H69.1849C68.9075 106 68.6889 105.92 68.5289 105.76C68.3689 105.589 68.2889 105.381 68.2889 105.136C68.2889 104.816 68.4115 104.528 68.6569 104.272L72.3049 100.352C72.7529 99.8613 73.0782 99.4133 73.2809 99.008C73.4942 98.592 73.6009 98.1813 73.6009 97.776C73.6009 97.2747 73.4569 96.8907 73.1689 96.624C72.8809 96.3573 72.4702 96.224 71.9369 96.224C71.4995 96.224 71.0729 96.3093 70.6569 96.48C70.2515 96.64 69.8409 96.864 69.4249 97.152C69.3182 97.2267 69.2115 97.2907 69.1049 97.344C68.9982 97.3867 68.8915 97.408 68.7849 97.408C68.6035 97.408 68.4435 97.3227 68.3049 97.152C68.1769 96.9813 68.1129 96.7787 68.1129 96.544C68.1129 96.384 68.1395 96.2453 68.1929 96.128C68.2569 96.0107 68.3529 95.8987 68.4809 95.792C68.9502 95.4187 69.4995 95.1253 70.1289 94.912C70.7582 94.688 71.3875 94.576 72.0169 94.576C73.1155 94.576 73.9902 94.8533 74.6409 95.408C75.3022 95.9627 75.6329 96.7093 75.6329 97.648C75.6329 98.2987 75.4942 98.912 75.2169 99.488C74.9395 100.053 74.4702 100.688 73.8089 101.392L71.0409 104.336H75.2649ZM81.7063 106.144C80.3729 106.144 79.3543 105.653 78.6503 104.672C77.9463 103.68 77.5943 102.24 77.5943 100.352C77.5943 98.4747 77.9463 97.0453 78.6503 96.064C79.3543 95.072 80.3729 94.576 81.7063 94.576C83.0396 94.576 84.0583 95.072 84.7623 96.064C85.4663 97.0453 85.8183 98.4747 85.8183 100.352C85.8183 102.229 85.4663 103.664 84.7623 104.656C84.0583 105.648 83.0396 106.144 81.7063 106.144ZM81.7063 104.528C82.4316 104.528 82.9596 104.197 83.2903 103.536C83.6209 102.864 83.7863 101.803 83.7863 100.352C83.7863 98.8907 83.6209 97.8347 83.2903 97.184C82.9596 96.5227 82.4316 96.192 81.7063 96.192C80.9809 96.192 80.4529 96.5227 80.1223 97.184C79.7916 97.8453 79.6263 98.9013 79.6263 100.352C79.6263 101.803 79.7916 102.864 80.1223 103.536C80.4529 104.197 80.9809 104.528 81.7063 104.528ZM94.468 104.336C95.108 104.336 95.428 104.608 95.428 105.152C95.428 105.717 95.108 106 94.468 106H88.388C88.1107 106 87.892 105.92 87.732 105.76C87.572 105.589 87.492 105.381 87.492 105.136C87.492 104.816 87.6147 104.528 87.86 104.272L91.508 100.352C91.956 99.8613 92.2813 99.4133 92.484 99.008C92.6973 98.592 92.804 98.1813 92.804 97.776C92.804 97.2747 92.66 96.8907 92.372 96.624C92.084 96.3573 91.6733 96.224 91.14 96.224C90.7027 96.224 90.276 96.3093 89.86 96.48C89.4547 96.64 89.044 96.864 88.628 97.152C88.5213 97.2267 88.4147 97.2907 88.308 97.344C88.2013 97.3867 88.0947 97.408 87.988 97.408C87.8067 97.408 87.6467 97.3227 87.508 97.152C87.38 96.9813 87.316 96.7787 87.316 96.544C87.316 96.384 87.3427 96.2453 87.396 96.128C87.46 96.0107 87.556 95.8987 87.684 95.792C88.1533 95.4187 88.7027 95.1253 89.332 94.912C89.9613 94.688 90.5907 94.576 91.22 94.576C92.3187 94.576 93.1933 94.8533 93.844 95.408C94.5053 95.9627 94.836 96.7093 94.836 97.648C94.836 98.2987 94.6973 98.912 94.42 99.488C94.1427 100.053 93.6733 100.688 93.012 101.392L90.244 104.336H94.468ZM104.125 104.336C104.765 104.336 105.085 104.608 105.085 105.152C105.085 105.717 104.765 106 104.125 106H98.7174C98.0667 106 97.7414 105.717 97.7414 105.152C97.7414 104.608 98.0667 104.336 98.7174 104.336H100.381V97.04L98.8454 97.984C98.696 98.0693 98.5627 98.112 98.4454 98.112C98.2214 98.112 98.0294 98.016 97.8694 97.824C97.72 97.632 97.6454 97.4187 97.6454 97.184C97.6454 96.8747 97.784 96.6347 98.0614 96.464L100.541 94.928C100.861 94.736 101.165 94.64 101.453 94.64C101.752 94.64 101.992 94.7307 102.173 94.912C102.355 95.0933 102.445 95.344 102.445 95.664V104.336H104.125Z" fill="#F1C12B"/>
<path d="M281.265 103.336C281.905 103.336 282.225 103.608 282.225 104.152C282.225 104.717 281.905 105 281.265 105H275.185C274.908 105 274.689 104.92 274.529 104.76C274.369 104.589 274.289 104.381 274.289 104.136C274.289 103.816 274.412 103.528 274.657 103.272L278.305 99.352C278.753 98.8613 279.078 98.4133 279.281 98.008C279.494 97.592 279.601 97.1813 279.601 96.776C279.601 96.2747 279.457 95.8907 279.169 95.624C278.881 95.3573 278.47 95.224 277.937 95.224C277.5 95.224 277.073 95.3093 276.657 95.48C276.252 95.64 275.841 95.864 275.425 96.152C275.318 96.2267 275.212 96.2907 275.105 96.344C274.998 96.3867 274.892 96.408 274.785 96.408C274.604 96.408 274.444 96.3227 274.305 96.152C274.177 95.9813 274.113 95.7787 274.113 95.544C274.113 95.384 274.14 95.2453 274.193 95.128C274.257 95.0107 274.353 94.8987 274.481 94.792C274.95 94.4187 275.5 94.1253 276.129 93.912C276.758 93.688 277.388 93.576 278.017 93.576C279.116 93.576 279.99 93.8533 280.641 94.408C281.302 94.9627 281.633 95.7093 281.633 96.648C281.633 97.2987 281.494 97.912 281.217 98.488C280.94 99.0533 280.47 99.688 279.809 100.392L277.041 103.336H281.265ZM287.706 105.144C286.373 105.144 285.354 104.653 284.65 103.672C283.946 102.68 283.594 101.24 283.594 99.352C283.594 97.4747 283.946 96.0453 284.65 95.064C285.354 94.072 286.373 93.576 287.706 93.576C289.04 93.576 290.058 94.072 290.762 95.064C291.466 96.0453 291.818 97.4747 291.818 99.352C291.818 101.229 291.466 102.664 290.762 103.656C290.058 104.648 289.04 105.144 287.706 105.144ZM287.706 103.528C288.432 103.528 288.96 103.197 289.29 102.536C289.621 101.864 289.786 100.803 289.786 99.352C289.786 97.8907 289.621 96.8347 289.29 96.184C288.96 95.5227 288.432 95.192 287.706 95.192C286.981 95.192 286.453 95.5227 286.122 96.184C285.792 96.8453 285.626 97.9013 285.626 99.352C285.626 100.803 285.792 101.864 286.122 102.536C286.453 103.197 286.981 103.528 287.706 103.528ZM300.468 103.336C301.108 103.336 301.428 103.608 301.428 104.152C301.428 104.717 301.108 105 300.468 105H294.388C294.111 105 293.892 104.92 293.732 104.76C293.572 104.589 293.492 104.381 293.492 104.136C293.492 103.816 293.615 103.528 293.86 103.272L297.508 99.352C297.956 98.8613 298.281 98.4133 298.484 98.008C298.697 97.592 298.804 97.1813 298.804 96.776C298.804 96.2747 298.66 95.8907 298.372 95.624C298.084 95.3573 297.673 95.224 297.14 95.224C296.703 95.224 296.276 95.3093 295.86 95.48C295.455 95.64 295.044 95.864 294.628 96.152C294.521 96.2267 294.415 96.2907 294.308 96.344C294.201 96.3867 294.095 96.408 293.988 96.408C293.807 96.408 293.647 96.3227 293.508 96.152C293.38 95.9813 293.316 95.7787 293.316 95.544C293.316 95.384 293.343 95.2453 293.396 95.128C293.46 95.0107 293.556 94.8987 293.684 94.792C294.153 94.4187 294.703 94.1253 295.332 93.912C295.961 93.688 296.591 93.576 297.22 93.576C298.319 93.576 299.193 93.8533 299.844 94.408C300.505 94.9627 300.836 95.7093 300.836 96.648C300.836 97.2987 300.697 97.912 300.42 98.488C300.143 99.0533 299.673 99.688 299.012 100.392L296.244 103.336H300.468ZM310.125 103.336C310.765 103.336 311.085 103.608 311.085 104.152C311.085 104.717 310.765 105 310.125 105H304.717C304.067 105 303.741 104.717 303.741 104.152C303.741 103.608 304.067 103.336 304.717 103.336H306.381V96.04L304.845 96.984C304.696 97.0693 304.563 97.112 304.445 97.112C304.221 97.112 304.029 97.016 303.869 96.824C303.72 96.632 303.645 96.4187 303.645 96.184C303.645 95.8747 303.784 95.6347 304.061 95.464L306.541 93.928C306.861 93.736 307.165 93.64 307.453 93.64C307.752 93.64 307.992 93.7307 308.173 93.912C308.355 94.0933 308.445 94.344 308.445 94.664V103.336H310.125Z" fill="#F1C12B"/>
<path d="M74.0146 88.128C73.3106 88.128 72.9586 87.7653 72.9586 87.04V77.808C72.9586 77.0827 73.3212 76.72 74.0466 76.72H79.6306C80.1852 76.72 80.4626 76.9867 80.4626 77.52C80.4626 78.0747 80.1852 78.352 79.6306 78.352H75.0066V81.536H79.2946C79.8492 81.536 80.1266 81.8027 80.1266 82.336C80.1266 82.8907 79.8492 83.168 79.2946 83.168H75.0066V87.04C75.0066 87.7653 74.6759 88.128 74.0146 88.128ZM83.0309 88C82.3056 88 81.9429 87.6373 81.9429 86.912V77.808C81.9429 77.0827 82.3056 76.72 83.0309 76.72H88.7429C89.2976 76.72 89.5749 76.9867 89.5749 77.52C89.5749 78.0747 89.2976 78.352 88.7429 78.352H83.9109V81.456H88.3909C88.9456 81.456 89.2229 81.728 89.2229 82.272C89.2229 82.816 88.9456 83.088 88.3909 83.088H83.9109V86.368H88.7429C89.2976 86.368 89.5749 86.64 89.5749 87.184C89.5749 87.728 89.2976 88 88.7429 88H83.0309ZM92.5778 88C91.8525 88 91.4898 87.6373 91.4898 86.912V77.808C91.4898 77.0827 91.8525 76.72 92.5778 76.72H96.4178C97.6018 76.72 98.5191 76.9813 99.1698 77.504C99.8205 78.016 100.146 78.7307 100.146 79.648C100.146 80.256 99.9911 80.7787 99.6818 81.216C99.3725 81.6533 98.9458 81.9733 98.4018 82.176C99.0418 82.3573 99.5378 82.6773 99.8898 83.136C100.252 83.584 100.434 84.1547 100.434 84.848C100.434 85.8507 100.092 86.6293 99.4098 87.184C98.7378 87.728 97.7991 88 96.5938 88H92.5778ZM93.4578 81.504H96.0658C97.4631 81.504 98.1618 80.9653 98.1618 79.888C98.1618 78.8107 97.4631 78.272 96.0658 78.272H93.4578V81.504ZM93.4578 86.448H96.3378C97.7458 86.448 98.4498 85.8827 98.4498 84.752C98.4498 83.6213 97.7458 83.056 96.3378 83.056H93.4578V86.448Z" fill="#F1C12B"/>
<path d="M264.723 87.128C264.105 87.128 263.795 86.808 263.795 86.168V76.552C263.795 75.912 264.115 75.592 264.755 75.592C265.022 75.592 265.23 75.6453 265.379 75.752C265.539 75.848 265.683 76.0187 265.811 76.264L269.507 83.096L273.203 76.264C273.331 76.0187 273.47 75.848 273.619 75.752C273.769 75.6453 273.977 75.592 274.243 75.592C274.862 75.592 275.171 75.912 275.171 76.552V86.168C275.171 86.808 274.862 87.128 274.243 87.128C273.625 87.128 273.315 86.808 273.315 86.168V79.4L270.307 84.888C270.201 85.0693 270.089 85.2027 269.971 85.288C269.854 85.3733 269.694 85.416 269.491 85.416C269.289 85.416 269.123 85.3733 268.995 85.288C268.867 85.192 268.755 85.0587 268.659 84.888L265.651 79.432V86.168C265.651 86.808 265.342 87.128 264.723 87.128ZM277.766 87.128C277.393 87.128 277.126 87 276.966 86.744C276.806 86.488 276.811 86.1787 276.982 85.816L281.206 76.456C281.345 76.1467 281.51 75.928 281.702 75.8C281.905 75.6613 282.134 75.592 282.39 75.592C282.635 75.592 282.854 75.6613 283.046 75.8C283.249 75.928 283.419 76.1467 283.558 76.456L287.798 85.816C287.969 86.1893 287.979 86.504 287.83 86.76C287.681 87.0053 287.425 87.128 287.062 87.128C286.763 87.128 286.529 87.0587 286.358 86.92C286.198 86.7707 286.054 86.5467 285.926 86.248L285.126 84.392H279.622L278.838 86.248C278.699 86.5573 278.555 86.7813 278.406 86.92C278.257 87.0587 278.043 87.128 277.766 87.128ZM282.358 77.944L280.326 82.76H284.422L282.39 77.944H282.358ZM290.584 87.128C289.901 87.128 289.56 86.776 289.56 86.072V76.76C289.56 76.0667 289.907 75.72 290.6 75.72H294.456C295.693 75.72 296.648 76.0187 297.32 76.616C297.992 77.2027 298.328 78.0293 298.328 79.096C298.328 79.9387 298.109 80.6373 297.672 81.192C297.235 81.736 296.605 82.104 295.784 82.296C296.328 82.4667 296.776 82.8773 297.128 83.528L298.328 85.752C298.509 86.0933 298.541 86.408 298.424 86.696C298.317 86.984 298.045 87.128 297.608 87.128C297.32 87.128 297.085 87.0693 296.904 86.952C296.723 86.824 296.563 86.632 296.424 86.376L294.808 83.4C294.616 83.0373 294.387 82.7973 294.12 82.68C293.864 82.552 293.533 82.488 293.128 82.488H291.608V86.072C291.608 86.776 291.267 87.128 290.584 87.128ZM291.608 80.968H294.104C295.597 80.968 296.344 80.36 296.344 79.144C296.344 77.9387 295.597 77.336 294.104 77.336H291.608V80.968ZM305.699 87.16C304.525 87.16 303.517 86.9253 302.675 86.456C301.843 85.976 301.203 85.304 300.755 84.44C300.307 83.5653 300.083 82.536 300.083 81.352C300.083 80.168 300.307 79.144 300.755 78.28C301.203 77.416 301.843 76.7493 302.675 76.28C303.517 75.8 304.525 75.56 305.699 75.56C306.285 75.56 306.861 75.6347 307.427 75.784C307.992 75.9333 308.488 76.1467 308.915 76.424C309.192 76.6053 309.357 76.824 309.411 77.08C309.464 77.3253 309.432 77.5547 309.315 77.768C309.197 77.9707 309.021 78.1093 308.787 78.184C308.552 78.248 308.291 78.184 308.003 77.992C307.672 77.7787 307.315 77.624 306.931 77.528C306.547 77.432 306.157 77.384 305.763 77.384C304.621 77.384 303.752 77.7307 303.155 78.424C302.557 79.1067 302.259 80.0827 302.259 81.352C302.259 82.6213 302.557 83.6027 303.155 84.296C303.752 84.9893 304.621 85.336 305.763 85.336C306.168 85.336 306.568 85.288 306.963 85.192C307.357 85.0853 307.731 84.9253 308.083 84.712C308.371 84.5307 308.627 84.472 308.851 84.536C309.075 84.6 309.24 84.7333 309.347 84.936C309.464 85.128 309.501 85.3413 309.459 85.576C309.416 85.8107 309.272 86.0187 309.027 86.2C308.6 86.5093 308.088 86.7493 307.491 86.92C306.904 87.08 306.307 87.16 305.699 87.16ZM312.35 87.128C311.667 87.128 311.326 86.776 311.326 86.072V76.648C311.326 75.944 311.667 75.592 312.35 75.592C313.032 75.592 313.374 75.944 313.374 76.648V80.424H319.182V76.648C319.182 75.944 319.523 75.592 320.206 75.592C320.888 75.592 321.23 75.944 321.23 76.648V86.072C321.23 86.776 320.888 87.128 320.206 87.128C319.523 87.128 319.182 86.776 319.182 86.072V82.136H313.374V86.072C313.374 86.776 313.032 87.128 312.35 87.128Z" fill="#F1C12B"/>
<g filter="url(#filter0_d)">
<path d="M44.0698 65.8799L44.0789 65.8746L44.0879 65.8693L83.9355 42.1825C84.7154 41.7355 85.5997 41.5 86.5 41.5C87.4003 41.5 88.2846 41.7355 89.0645 42.1825L128.912 65.8693L128.921 65.8746L128.93 65.8799C129.712 66.33 130.361 66.9772 130.812 67.7559C131.263 68.5345 131.5 69.4174 131.5 70.3159V115.661C131.5 116.559 131.263 117.442 130.812 118.221C130.361 119 129.712 119.647 128.93 120.097L128.921 120.102L128.912 120.107L89.0643 143.794C88.2844 144.241 87.4002 144.477 86.5 144.477C85.5998 144.477 84.7156 144.241 83.9357 143.794L44.0879 120.107L44.0789 120.102L44.0698 120.097C43.2878 119.647 42.639 119 42.1881 118.221C41.7372 117.442 41.5 116.559 41.5 115.661V70.3159C41.5 70.3159 41.5 70.3159 41.5 70.3159C41.5 69.4174 41.7372 68.5345 42.1881 67.7559C42.639 66.9772 43.2878 66.33 44.0698 65.8799Z" stroke="#F1C12B" stroke-width="3"/>
</g>
<g filter="url(#filter1_d)">
<path d="M250.07 65.8799L250.079 65.8746L250.088 65.8693L289.935 42.1825C290.715 41.7355 291.6 41.5 292.5 41.5C293.4 41.5 294.285 41.7355 295.065 42.1825L334.912 65.8693L334.921 65.8746L334.93 65.8799C335.712 66.33 336.361 66.9772 336.812 67.7559C337.263 68.5345 337.5 69.4174 337.5 70.3159V115.661C337.5 116.559 337.263 117.442 336.812 118.221C336.361 119 335.712 119.647 334.93 120.097L334.921 120.102L334.912 120.107L295.064 143.794C294.284 144.241 293.4 144.477 292.5 144.477C291.6 144.477 290.716 144.241 289.936 143.794L250.088 120.107L250.079 120.102L250.07 120.097C249.288 119.647 248.639 119 248.188 118.221C247.737 117.442 247.5 116.559 247.5 115.661V70.3159C247.5 70.3159 247.5 70.3159 247.5 70.3159C247.5 69.4174 247.737 68.5345 248.188 67.7559C248.639 66.9772 249.288 66.33 250.07 65.8799Z" stroke="#F1C12B" stroke-width="3"/>
</g>
<path d="M147.07 65.8799L147.079 65.8746L147.088 65.8693L186.935 42.1825C187.715 41.7355 188.6 41.5 189.5 41.5C190.4 41.5 191.285 41.7355 192.065 42.1825L231.912 65.8693L231.921 65.8746L231.93 65.8799C232.712 66.33 233.361 66.9772 233.812 67.7559C234.263 68.5345 234.5 69.4174 234.5 70.3159V115.661C234.5 116.559 234.263 117.442 233.812 118.221C233.361 119 232.712 119.647 231.93 120.097L231.921 120.102L231.912 120.107L192.064 143.794C191.284 144.241 190.4 144.477 189.5 144.477C188.6 144.477 187.716 144.241 186.936 143.794L147.088 120.107L147.079 120.102L147.07 120.097C146.288 119.647 145.639 119 145.188 118.221C144.737 117.442 144.5 116.559 144.5 115.661V70.3159C144.5 70.3159 144.5 70.3159 144.5 70.3159C144.5 69.4174 144.737 68.5345 145.188 67.7559C145.639 66.9772 146.288 66.33 147.07 65.8799Z" stroke="#212151" stroke-width="3"/>
<defs>
<filter id="filter0_d" x="0" y="0" width="173" height="185.977" filterUnits="userSpaceOnUse" color-interpolation-filters="sRGB">
<feFlood flood-opacity="0" result="BackgroundImageFix"/>
<feColorMatrix in="SourceAlpha" type="matrix" values="0 0 0 0 0 0 0 0 0 0 0 0 0 0 0 0 0 0 127 0"/>
<feOffset/>
<feGaussianBlur stdDeviation="20"/>
<feColorMatrix type="matrix" values="0 0 0 0 0.945098 0 0 0 0 0.756863 0 0 0 0 0.168627 0 0 0 1 0"/>
<feBlend mode="normal" in2="BackgroundImageFix" result="effect1_dropShadow"/>
<feBlend mode="normal" in="SourceGraphic" in2="effect1_dropShadow" result="shape"/>
</filter>
<filter id="filter1_d" x="206" y="0" width="173" height="185.977" filterUnits="userSpaceOnUse" color-interpolation-filters="sRGB">
<feFlood flood-opacity="0" result="BackgroundImageFix"/>
<feColorMatrix in="SourceAlpha" type="matrix" values="0 0 0 0 0 0 0 0 0 0 0 0 0 0 0 0 0 0 127 0"/>
<feOffset/>
<feGaussianBlur stdDeviation="20"/>
<feColorMatrix type="matrix" values="0 0 0 0 0.945098 0 0 0 0 0.756863 0 0 0 0 0.168627 0 0 0 1 0"/>
<feBlend mode="normal" in2="BackgroundImageFix" result="effect1_dropShadow"/>
<feBlend mode="normal" in="SourceGraphic" in2="effect1_dropShadow" result="shape"/>
</filter>
</defs>
</svg>
