<svg width="392" height="202" viewBox="0 0 392 202" fill="none" xmlns="http://www.w3.org/2000/svg">
<path d="M13.3132 180C12.7065 180 12.4032 179.692 12.4032 179.076V170.998C12.4032 170.391 12.7019 170.088 13.2992 170.088C13.8965 170.088 14.1952 170.391 14.1952 170.998V178.474H18.2552C18.7779 178.474 19.0392 178.726 19.0392 179.23C19.0392 179.743 18.7779 180 18.2552 180H13.3132ZM20.1574 180.112C19.8308 180.112 19.5974 180 19.4574 179.776C19.3174 179.552 19.3221 179.281 19.4714 178.964L23.1674 170.774C23.2888 170.503 23.4334 170.312 23.6014 170.2C23.7788 170.079 23.9794 170.018 24.2034 170.018C24.4181 170.018 24.6094 170.079 24.7774 170.2C24.9548 170.312 25.1041 170.503 25.2254 170.774L28.9354 178.964C29.0848 179.291 29.0941 179.566 28.9634 179.79C28.8328 180.005 28.6088 180.112 28.2914 180.112C28.0301 180.112 27.8248 180.051 27.6754 179.93C27.5354 179.799 27.4094 179.603 27.2974 179.342L26.5974 177.718H21.7814L21.0954 179.342C20.9741 179.613 20.8481 179.809 20.7174 179.93C20.5868 180.051 20.4001 180.112 20.1574 180.112ZM24.1754 172.076L22.3974 176.29H25.9814L24.2034 172.076H24.1754ZM34.5111 180.14C33.1577 180.14 32.1217 179.79 31.4031 179.09C30.6937 178.381 30.3391 177.335 30.3391 175.954V170.928C30.3391 170.321 30.6377 170.018 31.2351 170.018C31.8324 170.018 32.1311 170.321 32.1311 170.928V175.94C32.1311 176.827 32.3317 177.494 32.7331 177.942C33.1437 178.381 33.7364 178.6 34.5111 178.6C36.0884 178.6 36.8771 177.713 36.8771 175.94V170.928C36.8771 170.321 37.1757 170.018 37.7731 170.018C38.3611 170.018 38.6551 170.321 38.6551 170.928V175.954C38.6551 177.335 38.3051 178.381 37.6051 179.09C36.9051 179.79 35.8737 180.14 34.5111 180.14ZM41.585 180.112C41.025 180.112 40.745 179.823 40.745 179.244V170.914C40.745 170.625 40.815 170.405 40.955 170.256C41.1043 170.097 41.2957 170.018 41.529 170.018C41.7437 170.018 41.9023 170.06 42.005 170.144C42.117 170.219 42.2477 170.349 42.397 170.536L47.395 177.018V170.872C47.395 170.303 47.675 170.018 48.235 170.018C48.7857 170.018 49.061 170.303 49.061 170.872V179.272C49.061 179.533 48.9957 179.739 48.865 179.888C48.7343 180.037 48.557 180.112 48.333 180.112C48.1183 180.112 47.9457 180.07 47.815 179.986C47.6937 179.902 47.5583 179.767 47.409 179.58L42.411 173.084V179.244C42.411 179.823 42.1357 180.112 41.585 180.112ZM55.8096 180.14C54.783 180.14 53.901 179.935 53.1636 179.524C52.4356 179.104 51.8756 178.516 51.4836 177.76C51.0916 176.995 50.8956 176.094 50.8956 175.058C50.8956 174.022 51.0916 173.126 51.4836 172.37C51.8756 171.614 52.4356 171.031 53.1636 170.62C53.901 170.2 54.783 169.99 55.8096 169.99C56.323 169.99 56.827 170.055 57.3216 170.186C57.8163 170.317 58.2503 170.503 58.6236 170.746C58.8663 170.905 59.011 171.096 59.0576 171.32C59.1043 171.535 59.0763 171.735 58.9736 171.922C58.871 172.099 58.717 172.221 58.5116 172.286C58.3063 172.342 58.0776 172.286 57.8256 172.118C57.5363 171.931 57.2236 171.796 56.8876 171.712C56.5516 171.628 56.211 171.586 55.8656 171.586C54.867 171.586 54.1063 171.889 53.5836 172.496C53.061 173.093 52.7996 173.947 52.7996 175.058C52.7996 176.169 53.061 177.027 53.5836 177.634C54.1063 178.241 54.867 178.544 55.8656 178.544C56.2203 178.544 56.5703 178.502 56.9156 178.418C57.261 178.325 57.5876 178.185 57.8956 177.998C58.1476 177.839 58.3716 177.788 58.5676 177.844C58.7636 177.9 58.9083 178.017 59.0016 178.194C59.1043 178.362 59.137 178.549 59.0996 178.754C59.0623 178.959 58.9363 179.141 58.7216 179.3C58.3483 179.571 57.9003 179.781 57.3776 179.93C56.8643 180.07 56.3416 180.14 55.8096 180.14ZM61.6293 180.112C61.0319 180.112 60.7333 179.804 60.7333 179.188V170.942C60.7333 170.326 61.0319 170.018 61.6293 170.018C62.2266 170.018 62.5253 170.326 62.5253 170.942V174.246H67.6073V170.942C67.6073 170.326 67.9059 170.018 68.5033 170.018C69.1006 170.018 69.3993 170.326 69.3993 170.942V179.188C69.3993 179.804 69.1006 180.112 68.5033 180.112C67.9059 180.112 67.6073 179.804 67.6073 179.188V175.744H62.5253V179.188C62.5253 179.804 62.2266 180.112 61.6293 180.112ZM75.6982 180.112C75.4648 180.112 75.2735 180.051 75.1242 179.93C74.9748 179.799 74.8862 179.641 74.8582 179.454C74.8395 179.258 74.9048 179.062 75.0542 178.866L77.9662 174.974L75.2082 171.278C75.0588 171.073 74.9935 170.877 75.0122 170.69C75.0308 170.494 75.1148 170.335 75.2642 170.214C75.4135 170.083 75.6002 170.018 75.8242 170.018C76.1695 170.018 76.4822 170.209 76.7622 170.592L78.9882 173.672L81.2142 170.592C81.4942 170.209 81.8115 170.018 82.1662 170.018C82.3995 170.018 82.5908 170.079 82.7402 170.2C82.8895 170.321 82.9735 170.48 82.9922 170.676C83.0108 170.863 82.9408 171.063 82.7822 171.278L80.0242 174.974L82.9222 178.866C83.0715 179.062 83.1368 179.258 83.1182 179.454C83.0995 179.641 83.0155 179.799 82.8662 179.93C82.7168 180.051 82.5208 180.112 82.2782 180.112C81.9422 180.112 81.6295 179.916 81.3402 179.524L78.9882 176.304L76.6502 179.524C76.3608 179.916 76.0435 180.112 75.6982 180.112ZM88.9639 180.14C87.9373 180.14 87.0553 179.935 86.3179 179.524C85.5899 179.104 85.0299 178.516 84.6379 177.76C84.2459 176.995 84.0499 176.094 84.0499 175.058C84.0499 174.022 84.2459 173.126 84.6379 172.37C85.0299 171.614 85.5899 171.031 86.3179 170.62C87.0553 170.2 87.9373 169.99 88.9639 169.99C89.4773 169.99 89.9813 170.055 90.4759 170.186C90.9706 170.317 91.4046 170.503 91.7779 170.746C92.0206 170.905 92.1653 171.096 92.2119 171.32C92.2586 171.535 92.2306 171.735 92.1279 171.922C92.0253 172.099 91.8713 172.221 91.6659 172.286C91.4606 172.342 91.2319 172.286 90.9799 172.118C90.6906 171.931 90.3779 171.796 90.0419 171.712C89.7059 171.628 89.3653 171.586 89.0199 171.586C88.0213 171.586 87.2606 171.889 86.7379 172.496C86.2153 173.093 85.9539 173.947 85.9539 175.058C85.9539 176.169 86.2153 177.027 86.7379 177.634C87.2606 178.241 88.0213 178.544 89.0199 178.544C89.3746 178.544 89.7246 178.502 90.0699 178.418C90.4153 178.325 90.7419 178.185 91.0499 177.998C91.3019 177.839 91.5259 177.788 91.7219 177.844C91.9179 177.9 92.0626 178.017 92.1559 178.194C92.2586 178.362 92.2913 178.549 92.2539 178.754C92.2166 178.959 92.0906 179.141 91.8759 179.3C91.5026 179.571 91.0546 179.781 90.5319 179.93C90.0186 180.07 89.4959 180.14 88.9639 180.14ZM94.8396 180C94.2049 180 93.8876 179.683 93.8876 179.048V171.082C93.8876 170.447 94.2049 170.13 94.8396 170.13H99.8376C100.323 170.13 100.566 170.363 100.566 170.83C100.566 171.315 100.323 171.558 99.8376 171.558H95.6096V174.274H99.5296C100.015 174.274 100.258 174.512 100.258 174.988C100.258 175.464 100.015 175.702 99.5296 175.702H95.6096V178.572H99.8376C100.323 178.572 100.566 178.81 100.566 179.286C100.566 179.762 100.323 180 99.8376 180H94.8396ZM103.151 180C102.544 180 102.241 179.692 102.241 179.076V170.998C102.241 170.391 102.54 170.088 103.137 170.088C103.734 170.088 104.033 170.391 104.033 170.998V178.474H108.093C108.616 178.474 108.877 178.726 108.877 179.23C108.877 179.743 108.616 180 108.093 180H103.151ZM111.054 180C110.42 180 110.102 179.683 110.102 179.048V171.082C110.102 170.447 110.42 170.13 111.054 170.13H113.77C115.422 170.13 116.696 170.555 117.592 171.404C118.498 172.253 118.95 173.471 118.95 175.058C118.95 176.635 118.498 177.853 117.592 178.712C116.696 179.571 115.422 180 113.77 180H111.054ZM111.894 178.516H113.658C115.936 178.516 117.074 177.363 117.074 175.058C117.074 172.762 115.936 171.614 113.658 171.614H111.894V178.516ZM121.718 180C121.084 180 120.766 179.683 120.766 179.048V171.082C120.766 170.447 121.084 170.13 121.718 170.13H126.716C127.202 170.13 127.444 170.363 127.444 170.83C127.444 171.315 127.202 171.558 126.716 171.558H122.488V174.274H126.408C126.894 174.274 127.136 174.512 127.136 174.988C127.136 175.464 126.894 175.702 126.408 175.702H122.488V178.572H126.716C127.202 178.572 127.444 178.81 127.444 179.286C127.444 179.762 127.202 180 126.716 180H121.718ZM130.044 180.112C129.428 180.112 129.12 179.795 129.12 179.16V171.082C129.12 170.447 129.437 170.13 130.072 170.13H134.958C135.443 170.13 135.686 170.363 135.686 170.83C135.686 171.315 135.443 171.558 134.958 171.558H130.912V174.344H134.664C135.149 174.344 135.392 174.577 135.392 175.044C135.392 175.529 135.149 175.772 134.664 175.772H130.912V179.16C130.912 179.795 130.623 180.112 130.044 180.112ZM137.877 180.112C137.28 180.112 136.981 179.804 136.981 179.188V170.942C136.981 170.326 137.28 170.018 137.877 170.018C138.475 170.018 138.773 170.326 138.773 170.942V179.188C138.773 179.804 138.475 180.112 137.877 180.112ZM144.831 180.112C144.505 180.112 144.271 180 144.131 179.776C143.991 179.552 143.996 179.281 144.145 178.964L147.841 170.774C147.963 170.503 148.107 170.312 148.275 170.2C148.453 170.079 148.653 170.018 148.877 170.018C149.092 170.018 149.283 170.079 149.451 170.2C149.629 170.312 149.778 170.503 149.899 170.774L153.609 178.964C153.759 179.291 153.768 179.566 153.637 179.79C153.507 180.005 153.283 180.112 152.965 180.112C152.704 180.112 152.499 180.051 152.349 179.93C152.209 179.799 152.083 179.603 151.971 179.342L151.271 177.718H146.455L145.769 179.342C145.648 179.613 145.522 179.809 145.391 179.93C145.261 180.051 145.074 180.112 144.831 180.112ZM148.849 172.076L147.071 176.29H150.655L148.877 172.076H148.849ZM157.333 180.112C156.736 180.112 156.437 179.804 156.437 179.188V171.628H153.707C153.194 171.628 152.937 171.376 152.937 170.872C152.937 170.377 153.194 170.13 153.707 170.13H160.959C161.473 170.13 161.729 170.377 161.729 170.872C161.729 171.376 161.473 171.628 160.959 171.628H158.229V179.188C158.229 179.804 157.931 180.112 157.333 180.112ZM82.4455 201.722C82.2401 201.722 82.0721 201.652 81.9415 201.512C81.8108 201.381 81.7455 201.218 81.7455 201.022V200.07C81.1761 200.033 80.6675 199.944 80.2195 199.804C79.7808 199.655 79.4028 199.491 79.0855 199.314C78.8708 199.193 78.7355 199.029 78.6795 198.824C78.6328 198.619 78.6468 198.423 78.7215 198.236C78.7961 198.049 78.9221 197.919 79.0995 197.844C79.2768 197.769 79.4868 197.802 79.7295 197.942C79.9908 198.091 80.3315 198.236 80.7515 198.376C81.1808 198.507 81.6941 198.572 82.2915 198.572C82.9915 198.572 83.4955 198.451 83.8035 198.208C84.1115 197.956 84.2655 197.643 84.2655 197.27C84.2655 196.962 84.1581 196.71 83.9435 196.514C83.7288 196.318 83.3461 196.159 82.7955 196.038L81.3115 195.716C79.6221 195.352 78.7775 194.465 78.7775 193.056C78.7775 192.272 79.0435 191.614 79.5755 191.082C80.1168 190.541 80.8401 190.214 81.7455 190.102V189.108C81.7455 188.912 81.8108 188.749 81.9415 188.618C82.0721 188.478 82.2401 188.408 82.4455 188.408C82.6415 188.408 82.8048 188.478 82.9355 188.618C83.0755 188.749 83.1455 188.912 83.1455 189.108V190.088C83.5188 190.125 83.9108 190.214 84.3215 190.354C84.7415 190.494 85.1055 190.685 85.4135 190.928C85.5908 191.068 85.6935 191.231 85.7215 191.418C85.7495 191.595 85.7168 191.763 85.6235 191.922C85.5395 192.071 85.4041 192.174 85.2175 192.23C85.0401 192.277 84.8301 192.23 84.5875 192.09C84.3168 191.931 84.0135 191.805 83.6775 191.712C83.3415 191.609 82.9401 191.558 82.4735 191.558C81.8761 191.558 81.4048 191.693 81.0595 191.964C80.7235 192.225 80.5555 192.571 80.5555 193C80.5555 193.317 80.6581 193.574 80.8635 193.77C81.0688 193.957 81.4188 194.106 81.9135 194.218L83.4395 194.554C84.3355 194.75 84.9935 195.063 85.4135 195.492C85.8335 195.912 86.0435 196.467 86.0435 197.158C86.0435 197.942 85.7728 198.586 85.2315 199.09C84.6995 199.585 84.0041 199.897 83.1455 200.028V201.022C83.1455 201.218 83.0801 201.381 82.9495 201.512C82.8188 201.652 82.6508 201.722 82.4455 201.722ZM90.784 200.14C90.2893 200.14 89.7853 200.075 89.272 199.944C88.7587 199.813 88.2873 199.613 87.858 199.342C87.634 199.202 87.4987 199.034 87.452 198.838C87.4147 198.633 87.4427 198.446 87.536 198.278C87.6293 198.101 87.7647 197.984 87.942 197.928C88.1287 197.863 88.3387 197.895 88.572 198.026C88.9173 198.222 89.2673 198.371 89.622 198.474C89.9767 198.577 90.3547 198.628 90.756 198.628C91.344 198.628 91.8013 198.479 92.128 198.18C92.464 197.872 92.632 197.461 92.632 196.948C92.632 196.425 92.4733 196.005 92.156 195.688C91.8387 195.361 91.4047 195.198 90.854 195.198C90.5553 195.198 90.266 195.249 89.986 195.352C89.706 195.445 89.4307 195.613 89.16 195.856C89.076 195.931 88.9687 196.005 88.838 196.08C88.7073 196.145 88.5673 196.178 88.418 196.178C87.942 196.178 87.704 195.949 87.704 195.492V190.914C87.704 190.391 87.9653 190.13 88.488 190.13H93.094C93.6167 190.13 93.878 190.377 93.878 190.872C93.878 191.367 93.6167 191.614 93.094 191.614H89.454V194.288C89.9487 193.915 90.5553 193.728 91.274 193.728C91.8993 193.728 92.4407 193.863 92.898 194.134C93.3647 194.395 93.724 194.764 93.976 195.24C94.2373 195.707 94.368 196.253 94.368 196.878C94.368 197.522 94.2233 198.091 93.934 198.586C93.6447 199.071 93.2293 199.454 92.688 199.734C92.156 200.005 91.5213 200.14 90.784 200.14Z" fill="white"/>
<path d="M187.573 180.112C187.34 180.112 187.149 180.051 186.999 179.93C186.85 179.799 186.761 179.641 186.733 179.454C186.715 179.258 186.78 179.062 186.929 178.866L189.841 174.974L187.083 171.278C186.934 171.073 186.869 170.877 186.887 170.69C186.906 170.494 186.99 170.335 187.139 170.214C187.289 170.083 187.475 170.018 187.699 170.018C188.045 170.018 188.357 170.209 188.637 170.592L190.863 173.672L193.089 170.592C193.369 170.209 193.687 170.018 194.041 170.018C194.275 170.018 194.466 170.079 194.615 170.2C194.765 170.321 194.849 170.48 194.867 170.676C194.886 170.863 194.816 171.063 194.657 171.278L191.899 174.974L194.797 178.866C194.947 179.062 195.012 179.258 194.993 179.454C194.975 179.641 194.891 179.799 194.741 179.93C194.592 180.051 194.396 180.112 194.153 180.112C193.817 180.112 193.505 179.916 193.215 179.524L190.863 176.304L188.525 179.524C188.236 179.916 187.919 180.112 187.573 180.112ZM197.553 180C196.947 180 196.643 179.692 196.643 179.076V170.998C196.643 170.391 196.942 170.088 197.539 170.088C198.137 170.088 198.435 170.391 198.435 170.998V178.474H202.495C203.018 178.474 203.279 178.726 203.279 179.23C203.279 179.743 203.018 180 202.495 180H197.553ZM205.457 180C204.822 180 204.505 179.683 204.505 179.048V171.082C204.505 170.447 204.822 170.13 205.457 170.13H208.173C209.825 170.13 211.099 170.555 211.995 171.404C212.9 172.253 213.353 173.471 213.353 175.058C213.353 176.635 212.9 177.853 211.995 178.712C211.099 179.571 209.825 180 208.173 180H205.457ZM206.297 178.516H208.061C210.338 178.516 211.477 177.363 211.477 175.058C211.477 172.762 210.338 171.614 208.061 171.614H206.297V178.516ZM219.81 180.112C219.268 180.112 218.998 179.832 218.998 179.272V170.858C218.998 170.298 219.278 170.018 219.838 170.018C220.071 170.018 220.253 170.065 220.384 170.158C220.524 170.242 220.65 170.391 220.762 170.606L223.996 176.584L227.23 170.606C227.342 170.391 227.463 170.242 227.594 170.158C227.724 170.065 227.906 170.018 228.14 170.018C228.681 170.018 228.952 170.298 228.952 170.858V179.272C228.952 179.832 228.681 180.112 228.14 180.112C227.598 180.112 227.328 179.832 227.328 179.272V173.35L224.696 178.152C224.602 178.311 224.504 178.427 224.402 178.502C224.299 178.577 224.159 178.614 223.982 178.614C223.804 178.614 223.66 178.577 223.548 178.502C223.436 178.418 223.338 178.301 223.254 178.152L220.622 173.378V179.272C220.622 179.832 220.351 180.112 219.81 180.112ZM232.02 180.112C231.423 180.112 231.124 179.804 231.124 179.188V170.942C231.124 170.326 231.423 170.018 232.02 170.018C232.617 170.018 232.916 170.326 232.916 170.942V179.188C232.916 179.804 232.617 180.112 232.02 180.112ZM239.821 180.14C238.729 180.14 237.805 179.935 237.049 179.524C236.302 179.113 235.733 178.53 235.341 177.774C234.949 177.018 234.753 176.122 234.753 175.086C234.753 174.041 234.954 173.14 235.355 172.384C235.756 171.619 236.335 171.031 237.091 170.62C237.847 170.2 238.752 169.99 239.807 169.99C240.33 169.99 240.852 170.055 241.375 170.186C241.907 170.307 242.406 170.517 242.873 170.816C243.078 170.937 243.195 171.101 243.223 171.306C243.26 171.502 243.232 171.689 243.139 171.866C243.046 172.043 242.906 172.169 242.719 172.244C242.532 172.309 242.327 172.277 242.103 172.146C241.748 171.941 241.389 171.791 241.025 171.698C240.661 171.605 240.255 171.558 239.807 171.558C238.762 171.558 237.968 171.861 237.427 172.468C236.895 173.075 236.629 173.947 236.629 175.086C236.629 176.234 236.904 177.107 237.455 177.704C238.006 178.301 238.822 178.6 239.905 178.6C240.213 178.6 240.526 178.577 240.843 178.53C241.17 178.474 241.492 178.395 241.809 178.292V175.996H240.269C239.784 175.996 239.541 175.772 239.541 175.324C239.541 174.885 239.784 174.666 240.269 174.666H242.579C243.064 174.666 243.307 174.909 243.307 175.394V178.796C243.307 179.225 243.139 179.501 242.803 179.622C242.392 179.771 241.921 179.897 241.389 180C240.857 180.093 240.334 180.14 239.821 180.14ZM246.28 180.112C245.682 180.112 245.384 179.804 245.384 179.188V171.04C245.384 170.433 245.687 170.13 246.294 170.13H249.668C250.75 170.13 251.586 170.391 252.174 170.914C252.762 171.427 253.056 172.151 253.056 173.084C253.056 173.821 252.864 174.433 252.482 174.918C252.099 175.394 251.548 175.716 250.83 175.884C251.306 176.033 251.698 176.393 252.006 176.962L253.056 178.908C253.214 179.207 253.242 179.482 253.14 179.734C253.046 179.986 252.808 180.112 252.426 180.112C252.174 180.112 251.968 180.061 251.81 179.958C251.651 179.846 251.511 179.678 251.39 179.454L249.976 176.85C249.808 176.533 249.607 176.323 249.374 176.22C249.15 176.108 248.86 176.052 248.506 176.052H247.176V179.188C247.176 179.804 246.877 180.112 246.28 180.112ZM247.176 174.722H249.36C250.666 174.722 251.32 174.19 251.32 173.126C251.32 172.071 250.666 171.544 249.36 171.544H247.176V174.722ZM254.902 180.112C254.575 180.112 254.342 180 254.202 179.776C254.062 179.552 254.066 179.281 254.216 178.964L257.912 170.774C258.033 170.503 258.178 170.312 258.346 170.2C258.523 170.079 258.724 170.018 258.948 170.018C259.162 170.018 259.354 170.079 259.522 170.2C259.699 170.312 259.848 170.503 259.97 170.774L263.68 178.964C263.829 179.291 263.838 179.566 263.708 179.79C263.577 180.005 263.353 180.112 263.036 180.112C262.774 180.112 262.569 180.051 262.42 179.93C262.28 179.799 262.154 179.603 262.042 179.342L261.342 177.718H256.526L255.84 179.342C255.718 179.613 255.592 179.809 255.462 179.93C255.331 180.051 255.144 180.112 254.902 180.112ZM258.92 172.076L257.142 176.29H260.726L258.948 172.076H258.92ZM267.404 180.112C266.806 180.112 266.508 179.804 266.508 179.188V171.628H263.778C263.264 171.628 263.008 171.376 263.008 170.872C263.008 170.377 263.264 170.13 263.778 170.13H271.03C271.543 170.13 271.8 170.377 271.8 170.872C271.8 171.376 271.543 171.628 271.03 171.628H268.3V179.188C268.3 179.804 268.001 180.112 267.404 180.112ZM273.719 180.112C273.122 180.112 272.823 179.804 272.823 179.188V170.942C272.823 170.326 273.122 170.018 273.719 170.018C274.316 170.018 274.615 170.326 274.615 170.942V179.188C274.615 179.804 274.316 180.112 273.719 180.112ZM281.198 180.14C280.246 180.14 279.411 179.93 278.692 179.51C277.983 179.09 277.432 178.502 277.04 177.746C276.648 176.981 276.452 176.085 276.452 175.058C276.452 174.022 276.648 173.126 277.04 172.37C277.432 171.614 277.983 171.031 278.692 170.62C279.402 170.2 280.237 169.99 281.198 169.99C282.16 169.99 282.995 170.2 283.704 170.62C284.414 171.031 284.964 171.614 285.356 172.37C285.748 173.126 285.944 174.017 285.944 175.044C285.944 176.08 285.748 176.981 285.356 177.746C284.964 178.502 284.414 179.09 283.704 179.51C282.995 179.93 282.16 180.14 281.198 180.14ZM281.198 178.6C282.104 178.6 282.808 178.287 283.312 177.662C283.816 177.037 284.068 176.169 284.068 175.058C284.068 173.938 283.816 173.07 283.312 172.454C282.818 171.838 282.113 171.53 281.198 171.53C280.293 171.53 279.588 171.838 279.084 172.454C278.58 173.07 278.328 173.938 278.328 175.058C278.328 176.169 278.58 177.037 279.084 177.662C279.588 178.287 280.293 178.6 281.198 178.6ZM288.606 180.112C288.046 180.112 287.766 179.823 287.766 179.244V170.914C287.766 170.625 287.836 170.405 287.976 170.256C288.126 170.097 288.317 170.018 288.55 170.018C288.765 170.018 288.924 170.06 289.026 170.144C289.138 170.219 289.269 170.349 289.418 170.536L294.416 177.018V170.872C294.416 170.303 294.696 170.018 295.256 170.018C295.807 170.018 296.082 170.303 296.082 170.872V179.272C296.082 179.533 296.017 179.739 295.886 179.888C295.756 180.037 295.578 180.112 295.354 180.112C295.14 180.112 294.967 180.07 294.836 179.986C294.715 179.902 294.58 179.767 294.43 179.58L289.432 173.084V179.244C289.432 179.823 289.157 180.112 288.606 180.112ZM301.641 180.14C301.016 180.14 300.404 180.07 299.807 179.93C299.219 179.79 298.706 179.58 298.267 179.3C298.052 179.16 297.922 178.987 297.875 178.782C297.828 178.577 297.842 178.385 297.917 178.208C298.001 178.021 298.127 177.895 298.295 177.83C298.472 177.755 298.673 177.788 298.897 177.928C299.308 178.171 299.742 178.348 300.199 178.46C300.656 178.572 301.137 178.628 301.641 178.628C302.378 178.628 302.915 178.507 303.251 178.264C303.587 178.012 303.755 177.69 303.755 177.298C303.755 176.971 303.634 176.715 303.391 176.528C303.158 176.341 302.752 176.187 302.173 176.066L300.633 175.744C298.878 175.371 298.001 174.47 298.001 173.042C298.001 172.426 298.164 171.889 298.491 171.432C298.818 170.975 299.27 170.62 299.849 170.368C300.428 170.116 301.095 169.99 301.851 169.99C302.411 169.99 302.943 170.06 303.447 170.2C303.951 170.34 304.404 170.545 304.805 170.816C304.992 170.947 305.104 171.11 305.141 171.306C305.178 171.493 305.155 171.67 305.071 171.838C304.987 171.997 304.852 172.109 304.665 172.174C304.488 172.23 304.278 172.188 304.035 172.048C303.69 171.852 303.34 171.712 302.985 171.628C302.63 171.544 302.248 171.502 301.837 171.502C301.193 171.502 300.689 171.637 300.325 171.908C299.961 172.179 299.779 172.533 299.779 172.972C299.779 173.308 299.891 173.579 300.115 173.784C300.339 173.98 300.722 174.134 301.263 174.246L302.789 174.568C303.713 174.764 304.399 175.072 304.847 175.492C305.304 175.912 305.533 176.472 305.533 177.172C305.533 177.76 305.374 178.278 305.057 178.726C304.74 179.174 304.287 179.524 303.699 179.776C303.12 180.019 302.434 180.14 301.641 180.14ZM311.768 180.112C311.171 180.112 310.872 179.804 310.872 179.188V170.942C310.872 170.326 311.171 170.018 311.768 170.018C312.365 170.018 312.664 170.326 312.664 170.942V179.188C312.664 179.804 312.365 180.112 311.768 180.112ZM315.663 180.112C315.103 180.112 314.823 179.823 314.823 179.244V170.914C314.823 170.625 314.893 170.405 315.033 170.256C315.182 170.097 315.374 170.018 315.607 170.018C315.822 170.018 315.98 170.06 316.083 170.144C316.195 170.219 316.326 170.349 316.475 170.536L321.473 177.018V170.872C321.473 170.303 321.753 170.018 322.313 170.018C322.864 170.018 323.139 170.303 323.139 170.872V179.272C323.139 179.533 323.074 179.739 322.943 179.888C322.812 180.037 322.635 180.112 322.411 180.112C322.196 180.112 322.024 180.07 321.893 179.986C321.772 179.902 321.636 179.767 321.487 179.58L316.489 173.084V179.244C316.489 179.823 316.214 180.112 315.663 180.112ZM330.049 180C329.414 180 329.097 179.683 329.097 179.048V171.082C329.097 170.447 329.414 170.13 330.049 170.13H333.409C334.445 170.13 335.247 170.359 335.817 170.816C336.386 171.264 336.671 171.889 336.671 172.692C336.671 173.224 336.535 173.681 336.265 174.064C335.994 174.447 335.621 174.727 335.145 174.904C335.705 175.063 336.139 175.343 336.447 175.744C336.764 176.136 336.923 176.635 336.923 177.242C336.923 178.119 336.624 178.801 336.027 179.286C335.439 179.762 334.617 180 333.563 180H330.049ZM330.819 174.316H333.101C334.323 174.316 334.935 173.845 334.935 172.902C334.935 171.959 334.323 171.488 333.101 171.488H330.819V174.316ZM330.819 178.642H333.339C334.571 178.642 335.187 178.147 335.187 177.158C335.187 176.169 334.571 175.674 333.339 175.674H330.819V178.642ZM339.631 180.112C339.034 180.112 338.735 179.804 338.735 179.188V170.942C338.735 170.326 339.034 170.018 339.631 170.018C340.229 170.018 340.527 170.326 340.527 170.942V179.188C340.527 179.804 340.229 180.112 339.631 180.112ZM343.526 180.112C342.966 180.112 342.686 179.823 342.686 179.244V170.914C342.686 170.625 342.756 170.405 342.896 170.256C343.046 170.097 343.237 170.018 343.47 170.018C343.685 170.018 343.844 170.06 343.946 170.144C344.058 170.219 344.189 170.349 344.338 170.536L349.336 177.018V170.872C349.336 170.303 349.616 170.018 350.176 170.018C350.727 170.018 351.002 170.303 351.002 170.872V179.272C351.002 179.533 350.937 179.739 350.806 179.888C350.676 180.037 350.498 180.112 350.274 180.112C350.06 180.112 349.887 180.07 349.756 179.986C349.635 179.902 349.5 179.767 349.35 179.58L344.352 173.084V179.244C344.352 179.823 344.077 180.112 343.526 180.112ZM353.257 180.112C352.93 180.112 352.697 180 352.557 179.776C352.417 179.552 352.422 179.281 352.571 178.964L356.267 170.774C356.388 170.503 356.533 170.312 356.701 170.2C356.878 170.079 357.079 170.018 357.303 170.018C357.518 170.018 357.709 170.079 357.877 170.2C358.054 170.312 358.204 170.503 358.325 170.774L362.035 178.964C362.184 179.291 362.194 179.566 362.063 179.79C361.932 180.005 361.708 180.112 361.391 180.112C361.13 180.112 360.924 180.051 360.775 179.93C360.635 179.799 360.509 179.603 360.397 179.342L359.697 177.718H354.881L354.195 179.342C354.074 179.613 353.948 179.809 353.817 179.93C353.686 180.051 353.5 180.112 353.257 180.112ZM357.275 172.076L355.497 176.29H359.081L357.303 172.076H357.275ZM364.417 180.112C363.857 180.112 363.577 179.823 363.577 179.244V170.914C363.577 170.625 363.647 170.405 363.787 170.256C363.936 170.097 364.128 170.018 364.361 170.018C364.576 170.018 364.734 170.06 364.837 170.144C364.949 170.219 365.08 170.349 365.229 170.536L370.227 177.018V170.872C370.227 170.303 370.507 170.018 371.067 170.018C371.618 170.018 371.893 170.303 371.893 170.872V179.272C371.893 179.533 371.828 179.739 371.697 179.888C371.566 180.037 371.389 180.112 371.165 180.112C370.95 180.112 370.778 180.07 370.647 179.986C370.526 179.902 370.39 179.767 370.241 179.58L365.243 173.084V179.244C365.243 179.823 364.968 180.112 364.417 180.112ZM378.642 180.14C377.615 180.14 376.733 179.935 375.996 179.524C375.268 179.104 374.708 178.516 374.316 177.76C373.924 176.995 373.728 176.094 373.728 175.058C373.728 174.022 373.924 173.126 374.316 172.37C374.708 171.614 375.268 171.031 375.996 170.62C376.733 170.2 377.615 169.99 378.642 169.99C379.155 169.99 379.659 170.055 380.154 170.186C380.648 170.317 381.082 170.503 381.456 170.746C381.698 170.905 381.843 171.096 381.89 171.32C381.936 171.535 381.908 171.735 381.806 171.922C381.703 172.099 381.549 172.221 381.344 172.286C381.138 172.342 380.91 172.286 380.658 172.118C380.368 171.931 380.056 171.796 379.72 171.712C379.384 171.628 379.043 171.586 378.698 171.586C377.699 171.586 376.938 171.889 376.416 172.496C375.893 173.093 375.632 173.947 375.632 175.058C375.632 176.169 375.893 177.027 376.416 177.634C376.938 178.241 377.699 178.544 378.698 178.544C379.052 178.544 379.402 178.502 379.748 178.418C380.093 178.325 380.42 178.185 380.728 177.998C380.98 177.839 381.204 177.788 381.4 177.844C381.596 177.9 381.74 178.017 381.834 178.194C381.936 178.362 381.969 178.549 381.932 178.754C381.894 178.959 381.768 179.141 381.554 179.3C381.18 179.571 380.732 179.781 380.21 179.93C379.696 180.07 379.174 180.14 378.642 180.14ZM384.517 180C383.883 180 383.565 179.683 383.565 179.048V171.082C383.565 170.447 383.883 170.13 384.517 170.13H389.515C390.001 170.13 390.243 170.363 390.243 170.83C390.243 171.315 390.001 171.558 389.515 171.558H385.287V174.274H389.207C389.693 174.274 389.935 174.512 389.935 174.988C389.935 175.464 389.693 175.702 389.207 175.702H385.287V178.572H389.515C390.001 178.572 390.243 178.81 390.243 179.286C390.243 179.762 390.001 180 389.515 180H384.517ZM243.775 200.14C243.15 200.14 242.538 200.07 241.941 199.93C241.353 199.79 240.84 199.58 240.401 199.3C240.186 199.16 240.056 198.987 240.009 198.782C239.962 198.577 239.976 198.385 240.051 198.208C240.135 198.021 240.261 197.895 240.429 197.83C240.606 197.755 240.807 197.788 241.031 197.928C241.442 198.171 241.876 198.348 242.333 198.46C242.79 198.572 243.271 198.628 243.775 198.628C244.512 198.628 245.049 198.507 245.385 198.264C245.721 198.012 245.889 197.69 245.889 197.298C245.889 196.971 245.768 196.715 245.525 196.528C245.292 196.341 244.886 196.187 244.307 196.066L242.767 195.744C241.012 195.371 240.135 194.47 240.135 193.042C240.135 192.426 240.298 191.889 240.625 191.432C240.952 190.975 241.404 190.62 241.983 190.368C242.562 190.116 243.229 189.99 243.985 189.99C244.545 189.99 245.077 190.06 245.581 190.2C246.085 190.34 246.538 190.545 246.939 190.816C247.126 190.947 247.238 191.11 247.275 191.306C247.312 191.493 247.289 191.67 247.205 191.838C247.121 191.997 246.986 192.109 246.799 192.174C246.622 192.23 246.412 192.188 246.169 192.048C245.824 191.852 245.474 191.712 245.119 191.628C244.764 191.544 244.382 191.502 243.971 191.502C243.327 191.502 242.823 191.637 242.459 191.908C242.095 192.179 241.913 192.533 241.913 192.972C241.913 193.308 242.025 193.579 242.249 193.784C242.473 193.98 242.856 194.134 243.397 194.246L244.923 194.568C245.847 194.764 246.533 195.072 246.981 195.492C247.438 195.912 247.667 196.472 247.667 197.172C247.667 197.76 247.508 198.278 247.191 198.726C246.874 199.174 246.421 199.524 245.833 199.776C245.254 200.019 244.568 200.14 243.775 200.14ZM250.045 200.112C249.504 200.112 249.233 199.832 249.233 199.272V190.858C249.233 190.298 249.513 190.018 250.073 190.018C250.306 190.018 250.488 190.065 250.619 190.158C250.759 190.242 250.885 190.391 250.997 190.606L254.231 196.584L257.465 190.606C257.577 190.391 257.698 190.242 257.829 190.158C257.96 190.065 258.142 190.018 258.375 190.018C258.916 190.018 259.187 190.298 259.187 190.858V199.272C259.187 199.832 258.916 200.112 258.375 200.112C257.834 200.112 257.563 199.832 257.563 199.272V193.35L254.931 198.152C254.838 198.311 254.74 198.427 254.637 198.502C254.534 198.577 254.394 198.614 254.217 198.614C254.04 198.614 253.895 198.577 253.783 198.502C253.671 198.418 253.573 198.301 253.489 198.152L250.857 193.378V199.272C250.857 199.832 250.586 200.112 250.045 200.112ZM261.457 200.112C261.131 200.112 260.897 200 260.757 199.776C260.617 199.552 260.622 199.281 260.771 198.964L264.467 190.774C264.589 190.503 264.733 190.312 264.901 190.2C265.079 190.079 265.279 190.018 265.503 190.018C265.718 190.018 265.909 190.079 266.077 190.2C266.255 190.312 266.404 190.503 266.525 190.774L270.235 198.964C270.385 199.291 270.394 199.566 270.263 199.79C270.133 200.005 269.909 200.112 269.591 200.112C269.33 200.112 269.125 200.051 268.975 199.93C268.835 199.799 268.709 199.603 268.597 199.342L267.897 197.718H263.081L262.395 199.342C262.274 199.613 262.148 199.809 262.017 199.93C261.887 200.051 261.7 200.112 261.457 200.112ZM265.475 192.076L263.697 196.29H267.281L265.503 192.076H265.475ZM272.673 200.112C272.076 200.112 271.777 199.804 271.777 199.188V191.04C271.777 190.433 272.081 190.13 272.687 190.13H276.061C277.144 190.13 277.979 190.391 278.567 190.914C279.155 191.427 279.449 192.151 279.449 193.084C279.449 193.821 279.258 194.433 278.875 194.918C278.493 195.394 277.942 195.716 277.223 195.884C277.699 196.033 278.091 196.393 278.399 196.962L279.449 198.908C279.608 199.207 279.636 199.482 279.533 199.734C279.44 199.986 279.202 200.112 278.819 200.112C278.567 200.112 278.362 200.061 278.203 199.958C278.045 199.846 277.905 199.678 277.783 199.454L276.369 196.85C276.201 196.533 276.001 196.323 275.767 196.22C275.543 196.108 275.254 196.052 274.899 196.052H273.569V199.188C273.569 199.804 273.271 200.112 272.673 200.112ZM273.569 194.722H275.753C277.06 194.722 277.713 194.19 277.713 193.126C277.713 192.071 277.06 191.544 275.753 191.544H273.569V194.722ZM284.377 200.112C283.78 200.112 283.481 199.804 283.481 199.188V191.628H280.751C280.238 191.628 279.981 191.376 279.981 190.872C279.981 190.377 280.238 190.13 280.751 190.13H288.003C288.517 190.13 288.773 190.377 288.773 190.872C288.773 191.376 288.517 191.628 288.003 191.628H285.273V199.188C285.273 199.804 284.975 200.112 284.377 200.112ZM298.19 200.14C297.163 200.14 296.281 199.935 295.544 199.524C294.816 199.104 294.256 198.516 293.864 197.76C293.472 196.995 293.276 196.094 293.276 195.058C293.276 194.022 293.472 193.126 293.864 192.37C294.256 191.614 294.816 191.031 295.544 190.62C296.281 190.2 297.163 189.99 298.19 189.99C298.703 189.99 299.207 190.055 299.702 190.186C300.196 190.317 300.63 190.503 301.004 190.746C301.246 190.905 301.391 191.096 301.438 191.32C301.484 191.535 301.456 191.735 301.354 191.922C301.251 192.099 301.097 192.221 300.892 192.286C300.686 192.342 300.458 192.286 300.206 192.118C299.916 191.931 299.604 191.796 299.268 191.712C298.932 191.628 298.591 191.586 298.246 191.586C297.247 191.586 296.486 191.889 295.964 192.496C295.441 193.093 295.18 193.947 295.18 195.058C295.18 196.169 295.441 197.027 295.964 197.634C296.486 198.241 297.247 198.544 298.246 198.544C298.6 198.544 298.95 198.502 299.296 198.418C299.641 198.325 299.968 198.185 300.276 197.998C300.528 197.839 300.752 197.788 300.948 197.844C301.144 197.9 301.288 198.017 301.382 198.194C301.484 198.362 301.517 198.549 301.48 198.754C301.442 198.959 301.316 199.141 301.102 199.3C300.728 199.571 300.28 199.781 299.758 199.93C299.244 200.07 298.722 200.14 298.19 200.14ZM304.009 200.112C303.412 200.112 303.113 199.804 303.113 199.188V190.942C303.113 190.326 303.412 190.018 304.009 190.018C304.606 190.018 304.905 190.326 304.905 190.942V194.246H309.987V190.942C309.987 190.326 310.286 190.018 310.883 190.018C311.48 190.018 311.779 190.326 311.779 190.942V199.188C311.779 199.804 311.48 200.112 310.883 200.112C310.286 200.112 309.987 199.804 309.987 199.188V195.744H304.905V199.188C304.905 199.804 304.606 200.112 304.009 200.112ZM314.039 200.112C313.713 200.112 313.479 200 313.339 199.776C313.199 199.552 313.204 199.281 313.353 198.964L317.049 190.774C317.171 190.503 317.315 190.312 317.483 190.2C317.661 190.079 317.861 190.018 318.085 190.018C318.3 190.018 318.491 190.079 318.659 190.2C318.837 190.312 318.986 190.503 319.107 190.774L322.817 198.964C322.967 199.291 322.976 199.566 322.845 199.79C322.715 200.005 322.491 200.112 322.173 200.112C321.912 200.112 321.707 200.051 321.557 199.93C321.417 199.799 321.291 199.603 321.179 199.342L320.479 197.718H315.663L314.977 199.342C314.856 199.613 314.73 199.809 314.599 199.93C314.469 200.051 314.282 200.112 314.039 200.112ZM318.057 192.076L316.279 196.29H319.863L318.085 192.076H318.057ZM325.255 200.112C324.658 200.112 324.359 199.804 324.359 199.188V190.942C324.359 190.326 324.658 190.018 325.255 190.018C325.853 190.018 326.151 190.326 326.151 190.942V199.188C326.151 199.804 325.853 200.112 325.255 200.112ZM329.15 200.112C328.59 200.112 328.31 199.823 328.31 199.244V190.914C328.31 190.625 328.38 190.405 328.52 190.256C328.67 190.097 328.861 190.018 329.094 190.018C329.309 190.018 329.468 190.06 329.57 190.144C329.682 190.219 329.813 190.349 329.962 190.536L334.96 197.018V190.872C334.96 190.303 335.24 190.018 335.8 190.018C336.351 190.018 336.626 190.303 336.626 190.872V199.272C336.626 199.533 336.561 199.739 336.43 199.888C336.3 200.037 336.122 200.112 335.898 200.112C335.684 200.112 335.511 200.07 335.38 199.986C335.259 199.902 335.124 199.767 334.974 199.58L329.976 193.084V199.244C329.976 199.823 329.701 200.112 329.15 200.112Z" fill="white"/>
<path d="M75.2649 108.336C75.9049 108.336 76.2249 108.608 76.2249 109.152C76.2249 109.717 75.9049 110 75.2649 110H69.1849C68.9075 110 68.6889 109.92 68.5289 109.76C68.3689 109.589 68.2889 109.381 68.2889 109.136C68.2889 108.816 68.4115 108.528 68.6569 108.272L72.3049 104.352C72.7529 103.861 73.0782 103.413 73.2809 103.008C73.4942 102.592 73.6009 102.181 73.6009 101.776C73.6009 101.275 73.4569 100.891 73.1689 100.624C72.8809 100.357 72.4702 100.224 71.9369 100.224C71.4995 100.224 71.0729 100.309 70.6569 100.48C70.2515 100.64 69.8409 100.864 69.4249 101.152C69.3182 101.227 69.2115 101.291 69.1049 101.344C68.9982 101.387 68.8915 101.408 68.7849 101.408C68.6035 101.408 68.4435 101.323 68.3049 101.152C68.1769 100.981 68.1129 100.779 68.1129 100.544C68.1129 100.384 68.1395 100.245 68.1929 100.128C68.2569 100.011 68.3529 99.8987 68.4809 99.792C68.9502 99.4187 69.4995 99.1253 70.1289 98.912C70.7582 98.688 71.3875 98.576 72.0169 98.576C73.1155 98.576 73.9902 98.8533 74.6409 99.408C75.3022 99.9627 75.6329 100.709 75.6329 101.648C75.6329 102.299 75.4942 102.912 75.2169 103.488C74.9395 104.053 74.4702 104.688 73.8089 105.392L71.0409 108.336H75.2649ZM81.7063 110.144C80.3729 110.144 79.3543 109.653 78.6503 108.672C77.9463 107.68 77.5943 106.24 77.5943 104.352C77.5943 102.475 77.9463 101.045 78.6503 100.064C79.3543 99.072 80.3729 98.576 81.7063 98.576C83.0396 98.576 84.0583 99.072 84.7623 100.064C85.4663 101.045 85.8183 102.475 85.8183 104.352C85.8183 106.229 85.4663 107.664 84.7623 108.656C84.0583 109.648 83.0396 110.144 81.7063 110.144ZM81.7063 108.528C82.4316 108.528 82.9596 108.197 83.2903 107.536C83.6209 106.864 83.7863 105.803 83.7863 104.352C83.7863 102.891 83.6209 101.835 83.2903 101.184C82.9596 100.523 82.4316 100.192 81.7063 100.192C80.9809 100.192 80.4529 100.523 80.1223 101.184C79.7916 101.845 79.6263 102.901 79.6263 104.352C79.6263 105.803 79.7916 106.864 80.1223 107.536C80.4529 108.197 80.9809 108.528 81.7063 108.528ZM94.468 108.336C95.108 108.336 95.428 108.608 95.428 109.152C95.428 109.717 95.108 110 94.468 110H88.388C88.1107 110 87.892 109.92 87.732 109.76C87.572 109.589 87.492 109.381 87.492 109.136C87.492 108.816 87.6147 108.528 87.86 108.272L91.508 104.352C91.956 103.861 92.2813 103.413 92.484 103.008C92.6973 102.592 92.804 102.181 92.804 101.776C92.804 101.275 92.66 100.891 92.372 100.624C92.084 100.357 91.6733 100.224 91.14 100.224C90.7027 100.224 90.276 100.309 89.86 100.48C89.4547 100.64 89.044 100.864 88.628 101.152C88.5213 101.227 88.4147 101.291 88.308 101.344C88.2013 101.387 88.0947 101.408 87.988 101.408C87.8067 101.408 87.6467 101.323 87.508 101.152C87.38 100.981 87.316 100.779 87.316 100.544C87.316 100.384 87.3427 100.245 87.396 100.128C87.46 100.011 87.556 99.8987 87.684 99.792C88.1533 99.4187 88.7027 99.1253 89.332 98.912C89.9613 98.688 90.5907 98.576 91.22 98.576C92.3187 98.576 93.1933 98.8533 93.844 99.408C94.5053 99.9627 94.836 100.709 94.836 101.648C94.836 102.299 94.6973 102.912 94.42 103.488C94.1427 104.053 93.6733 104.688 93.012 105.392L90.244 108.336H94.468ZM104.125 108.336C104.765 108.336 105.085 108.608 105.085 109.152C105.085 109.717 104.765 110 104.125 110H98.7174C98.0667 110 97.7414 109.717 97.7414 109.152C97.7414 108.608 98.0667 108.336 98.7174 108.336H100.381V101.04L98.8454 101.984C98.696 102.069 98.5627 102.112 98.4454 102.112C98.2214 102.112 98.0294 102.016 97.8694 101.824C97.72 101.632 97.6454 101.419 97.6454 101.184C97.6454 100.875 97.784 100.635 98.0614 100.464L100.541 98.928C100.861 98.736 101.165 98.64 101.453 98.64C101.752 98.64 101.992 98.7307 102.173 98.912C102.355 99.0933 102.445 99.344 102.445 99.664V108.336H104.125Z" fill="#F1C12B"/>
<path d="M281.265 107.336C281.905 107.336 282.225 107.608 282.225 108.152C282.225 108.717 281.905 109 281.265 109H275.185C274.908 109 274.689 108.92 274.529 108.76C274.369 108.589 274.289 108.381 274.289 108.136C274.289 107.816 274.412 107.528 274.657 107.272L278.305 103.352C278.753 102.861 279.078 102.413 279.281 102.008C279.494 101.592 279.601 101.181 279.601 100.776C279.601 100.275 279.457 99.8907 279.169 99.624C278.881 99.3573 278.47 99.224 277.937 99.224C277.5 99.224 277.073 99.3093 276.657 99.48C276.252 99.64 275.841 99.864 275.425 100.152C275.318 100.227 275.212 100.291 275.105 100.344C274.998 100.387 274.892 100.408 274.785 100.408C274.604 100.408 274.444 100.323 274.305 100.152C274.177 99.9813 274.113 99.7787 274.113 99.544C274.113 99.384 274.14 99.2453 274.193 99.128C274.257 99.0107 274.353 98.8987 274.481 98.792C274.95 98.4187 275.5 98.1253 276.129 97.912C276.758 97.688 277.388 97.576 278.017 97.576C279.116 97.576 279.99 97.8533 280.641 98.408C281.302 98.9627 281.633 99.7093 281.633 100.648C281.633 101.299 281.494 101.912 281.217 102.488C280.94 103.053 280.47 103.688 279.809 104.392L277.041 107.336H281.265ZM287.706 109.144C286.373 109.144 285.354 108.653 284.65 107.672C283.946 106.68 283.594 105.24 283.594 103.352C283.594 101.475 283.946 100.045 284.65 99.064C285.354 98.072 286.373 97.576 287.706 97.576C289.04 97.576 290.058 98.072 290.762 99.064C291.466 100.045 291.818 101.475 291.818 103.352C291.818 105.229 291.466 106.664 290.762 107.656C290.058 108.648 289.04 109.144 287.706 109.144ZM287.706 107.528C288.432 107.528 288.96 107.197 289.29 106.536C289.621 105.864 289.786 104.803 289.786 103.352C289.786 101.891 289.621 100.835 289.29 100.184C288.96 99.5227 288.432 99.192 287.706 99.192C286.981 99.192 286.453 99.5227 286.122 100.184C285.792 100.845 285.626 101.901 285.626 103.352C285.626 104.803 285.792 105.864 286.122 106.536C286.453 107.197 286.981 107.528 287.706 107.528ZM300.468 107.336C301.108 107.336 301.428 107.608 301.428 108.152C301.428 108.717 301.108 109 300.468 109H294.388C294.111 109 293.892 108.92 293.732 108.76C293.572 108.589 293.492 108.381 293.492 108.136C293.492 107.816 293.615 107.528 293.86 107.272L297.508 103.352C297.956 102.861 298.281 102.413 298.484 102.008C298.697 101.592 298.804 101.181 298.804 100.776C298.804 100.275 298.66 99.8907 298.372 99.624C298.084 99.3573 297.673 99.224 297.14 99.224C296.703 99.224 296.276 99.3093 295.86 99.48C295.455 99.64 295.044 99.864 294.628 100.152C294.521 100.227 294.415 100.291 294.308 100.344C294.201 100.387 294.095 100.408 293.988 100.408C293.807 100.408 293.647 100.323 293.508 100.152C293.38 99.9813 293.316 99.7787 293.316 99.544C293.316 99.384 293.343 99.2453 293.396 99.128C293.46 99.0107 293.556 98.8987 293.684 98.792C294.153 98.4187 294.703 98.1253 295.332 97.912C295.961 97.688 296.591 97.576 297.22 97.576C298.319 97.576 299.193 97.8533 299.844 98.408C300.505 98.9627 300.836 99.7093 300.836 100.648C300.836 101.299 300.697 101.912 300.42 102.488C300.143 103.053 299.673 103.688 299.012 104.392L296.244 107.336H300.468ZM310.125 107.336C310.765 107.336 311.085 107.608 311.085 108.152C311.085 108.717 310.765 109 310.125 109H304.717C304.067 109 303.741 108.717 303.741 108.152C303.741 107.608 304.067 107.336 304.717 107.336H306.381V100.04L304.845 100.984C304.696 101.069 304.563 101.112 304.445 101.112C304.221 101.112 304.029 101.016 303.869 100.824C303.72 100.632 303.645 100.419 303.645 100.184C303.645 99.8747 303.784 99.6347 304.061 99.464L306.541 97.928C306.861 97.736 307.165 97.64 307.453 97.64C307.752 97.64 307.992 97.7307 308.173 97.912C308.355 98.0933 308.445 98.344 308.445 98.664V107.336H310.125Z" fill="#F1C12B"/>
<path d="M80.3072 90.768C80.3712 90.9067 80.4032 91.0453 80.4032 91.184C80.4032 91.4293 80.3019 91.6373 80.0992 91.808C79.9072 91.9787 79.6832 92.064 79.4272 92.064C79.2565 92.064 79.0965 92.0213 78.9472 91.936C78.7979 91.84 78.6805 91.696 78.5952 91.504L77.6352 89.36H72.0032L71.0432 91.504C70.9579 91.696 70.8405 91.84 70.6912 91.936C70.5419 92.0213 70.3765 92.064 70.1952 92.064C69.9499 92.064 69.7259 91.9787 69.5232 91.808C69.3205 91.6373 69.2192 91.4293 69.2192 91.184C69.2192 91.0453 69.2512 90.9067 69.3152 90.768L73.7312 81.28C73.8272 81.0667 73.9712 80.9067 74.1632 80.8C74.3659 80.6827 74.5792 80.624 74.8032 80.624C75.0272 80.624 75.2352 80.6827 75.4272 80.8C75.6299 80.9067 75.7792 81.0667 75.8752 81.28L80.3072 90.768ZM72.7072 87.76H76.9312L74.8192 83.008L72.7072 87.76ZM86.5361 92.144C84.9894 92.144 83.8161 91.744 83.0161 90.944C82.2161 90.144 81.8161 88.976 81.8161 87.44V81.664C81.8161 81.3547 81.9067 81.1093 82.0881 80.928C82.2694 80.736 82.5147 80.64 82.8241 80.64C83.1334 80.64 83.3787 80.736 83.5601 80.928C83.7414 81.1093 83.8321 81.3547 83.8321 81.664V87.552C83.8321 88.5227 84.0614 89.2587 84.5201 89.76C84.9787 90.2507 85.6507 90.496 86.5361 90.496C87.4107 90.496 88.0774 90.2453 88.5361 89.744C88.9947 89.2427 89.2241 88.512 89.2241 87.552V81.664C89.2241 81.3547 89.3147 81.1093 89.4961 80.928C89.6774 80.736 89.9227 80.64 90.2321 80.64C90.5414 80.64 90.7867 80.736 90.9681 80.928C91.1494 81.1093 91.2401 81.3547 91.2401 81.664V87.44C91.2401 88.9653 90.8401 90.1333 90.0401 90.944C89.2401 91.744 88.0721 92.144 86.5361 92.144ZM102.206 85.904C102.452 85.904 102.649 85.9787 102.798 86.128C102.948 86.2667 103.022 86.4533 103.022 86.688V90.128C103.022 90.6187 102.958 90.9653 102.83 91.168C102.702 91.3707 102.441 91.536 102.046 91.664C101.62 91.8133 101.124 91.9307 100.558 92.016C99.9931 92.1013 99.4491 92.144 98.9264 92.144C97.7638 92.144 96.7558 91.9147 95.9024 91.456C95.0491 90.9973 94.3931 90.336 93.9344 89.472C93.4864 88.5973 93.2624 87.5573 93.2624 86.352C93.2624 85.168 93.4864 84.144 93.9344 83.28C94.3931 82.4053 95.0384 81.7387 95.8704 81.28C96.7024 80.8107 97.6838 80.576 98.8144 80.576C100.318 80.576 101.55 80.9813 102.51 81.792C102.638 81.9093 102.729 82.0267 102.782 82.144C102.846 82.2613 102.878 82.4 102.878 82.56C102.878 82.7947 102.814 82.992 102.686 83.152C102.558 83.312 102.404 83.392 102.222 83.392C102.105 83.392 101.998 83.376 101.902 83.344C101.806 83.3013 101.694 83.2373 101.566 83.152C101.097 82.8213 100.66 82.592 100.254 82.464C99.8491 82.3253 99.3904 82.256 98.8784 82.256C97.7158 82.256 96.8358 82.6027 96.2384 83.296C95.6518 83.9787 95.3584 84.9973 95.3584 86.352C95.3584 89.1253 96.5744 90.512 99.0064 90.512C99.7318 90.512 100.457 90.4107 101.182 90.208V87.376H99.3744C99.1184 87.376 98.9158 87.312 98.7664 87.184C98.6278 87.056 98.5584 86.8747 98.5584 86.64C98.5584 86.4053 98.6278 86.224 98.7664 86.096C98.9158 85.968 99.1184 85.904 99.3744 85.904H102.206Z" fill="#F1C12B"/>
<path d="M282.526 91.144C281.705 91.144 280.926 91.0373 280.19 90.824C279.465 90.6 278.873 90.3013 278.414 89.928C278.169 89.7467 278.046 89.4907 278.046 89.16C278.046 88.936 278.11 88.744 278.238 88.584C278.377 88.4133 278.537 88.328 278.718 88.328C278.91 88.328 279.129 88.4027 279.374 88.552C279.833 88.8827 280.313 89.1227 280.814 89.272C281.316 89.4213 281.87 89.496 282.478 89.496C283.257 89.496 283.854 89.3627 284.27 89.096C284.686 88.8187 284.894 88.4187 284.894 87.896C284.894 87.4907 284.697 87.1813 284.302 86.968C283.918 86.744 283.273 86.5307 282.366 86.328C281.428 86.1253 280.665 85.8907 280.078 85.624C279.492 85.3573 279.049 85.016 278.75 84.6C278.452 84.184 278.302 83.656 278.302 83.016C278.302 82.3547 278.489 81.7627 278.862 81.24C279.236 80.7173 279.753 80.312 280.414 80.024C281.086 79.7253 281.838 79.576 282.67 79.576C284.196 79.576 285.438 79.9813 286.398 80.792C286.537 80.9093 286.633 81.0267 286.686 81.144C286.75 81.2507 286.782 81.3893 286.782 81.56C286.782 81.784 286.713 81.9813 286.574 82.152C286.446 82.312 286.292 82.392 286.11 82.392C286.004 82.392 285.902 82.376 285.806 82.344C285.721 82.312 285.604 82.2533 285.454 82.168C285.017 81.848 284.59 81.6133 284.174 81.464C283.769 81.304 283.268 81.224 282.67 81.224C281.945 81.224 281.369 81.3733 280.942 81.672C280.526 81.96 280.318 82.3653 280.318 82.888C280.318 83.3253 280.505 83.6613 280.878 83.896C281.252 84.1307 281.886 84.3493 282.782 84.552C283.732 84.7653 284.5 85.0053 285.086 85.272C285.684 85.528 286.137 85.8587 286.446 86.264C286.766 86.6693 286.926 87.176 286.926 87.784C286.926 88.4453 286.74 89.032 286.366 89.544C286.004 90.0453 285.486 90.44 284.814 90.728C284.153 91.0053 283.39 91.144 282.526 91.144ZM289.817 91C289.508 91 289.263 90.9147 289.081 90.744C288.911 90.5733 288.825 90.3333 288.825 90.024V80.696C288.825 80.3867 288.911 80.1467 289.081 79.976C289.263 79.8053 289.508 79.72 289.817 79.72H295.593C295.903 79.72 296.143 79.7893 296.313 79.928C296.484 80.0667 296.569 80.264 296.569 80.52C296.569 80.7867 296.484 80.9947 296.313 81.144C296.143 81.2827 295.903 81.352 295.593 81.352H290.841V84.456H295.273C295.583 84.456 295.823 84.5253 295.993 84.664C296.164 84.8027 296.249 85.0053 296.249 85.272C296.249 85.528 296.164 85.7253 295.993 85.864C295.823 86.0027 295.583 86.072 295.273 86.072H290.841V89.368H295.593C295.903 89.368 296.143 89.4427 296.313 89.592C296.484 89.7307 296.569 89.9333 296.569 90.2C296.569 90.456 296.484 90.6533 296.313 90.792C296.143 90.9307 295.903 91 295.593 91H289.817ZM299.271 91.096C298.962 91.096 298.711 91.0053 298.519 90.824C298.338 90.632 298.247 90.376 298.247 90.056V80.696C298.247 80.3867 298.333 80.1467 298.503 79.976C298.685 79.8053 298.93 79.72 299.239 79.72H303.175C304.381 79.72 305.319 80.024 305.991 80.632C306.663 81.2293 306.999 82.072 306.999 83.16C306.999 84.248 306.663 85.096 305.991 85.704C305.319 86.312 304.381 86.616 303.175 86.616H300.311V90.056C300.311 90.376 300.215 90.632 300.023 90.824C299.842 91.0053 299.591 91.096 299.271 91.096ZM302.919 85.032C304.338 85.032 305.047 84.4133 305.047 83.176C305.047 81.9387 304.338 81.32 302.919 81.32H300.311V85.032H302.919Z" fill="#F1C12B"/>
<g filter="url(#filter0_d)">
<path d="M334.93 120.097L334.921 120.102L334.912 120.107L295.065 143.794C294.285 144.241 293.4 144.477 292.5 144.477C291.6 144.477 290.715 144.241 289.935 143.794L250.088 120.107L250.079 120.102L250.07 120.097C249.288 119.647 248.639 118.999 248.188 118.221C247.737 117.442 247.5 116.559 247.5 115.661V70.3158C247.5 69.4173 247.737 68.5343 248.188 67.7557C248.639 66.977 249.288 66.3299 250.07 65.8797L250.079 65.8745L250.088 65.8691L289.935 42.1824C290.715 41.7354 291.6 41.4999 292.5 41.4999C293.4 41.4999 294.285 41.7353 295.065 42.1824L334.912 65.8691L334.921 65.8745L334.93 65.8797C335.712 66.3299 336.361 66.977 336.812 67.7557C337.263 68.5343 337.5 69.4173 337.5 70.3157V115.661C337.5 115.661 337.5 115.661 337.5 115.661C337.5 116.559 337.263 117.442 336.812 118.221C336.361 118.999 335.712 119.647 334.93 120.097Z" stroke="#F1C12B" stroke-width="3"/>
</g>
<g filter="url(#filter1_d)">
<path d="M128.93 120.097L128.921 120.102L128.912 120.107L89.0645 143.794C88.2846 144.241 87.4003 144.477 86.5 144.477C85.5997 144.477 84.7154 144.241 83.9354 143.794L44.0879 120.107L44.0789 120.102L44.0698 120.097C43.2878 119.647 42.639 118.999 42.1881 118.221C41.7372 117.442 41.5 116.559 41.5 115.661V70.3158C41.5 69.4173 41.7372 68.5343 42.1881 67.7557C42.639 66.977 43.2878 66.3299 44.0698 65.8797L44.0789 65.8745L44.0879 65.8691L83.9353 42.1824C84.7153 41.7354 85.5996 41.4999 86.5 41.4999C87.4004 41.4999 88.2847 41.7353 89.0647 42.1824L128.912 65.8691L128.921 65.8745L128.93 65.8797C129.712 66.3299 130.361 66.977 130.812 67.7557C131.263 68.5343 131.5 69.4173 131.5 70.3157V115.661C131.5 115.661 131.5 115.661 131.5 115.661C131.5 116.559 131.263 117.442 130.812 118.221C130.361 118.999 129.712 119.647 128.93 120.097Z" stroke="#F1C12B" stroke-width="3"/>
</g>
<path d="M231.93 120.097L231.921 120.102L231.912 120.107L192.065 143.794C191.285 144.241 190.4 144.477 189.5 144.477C188.6 144.477 187.715 144.241 186.935 143.794L147.088 120.107L147.079 120.102L147.07 120.097C146.288 119.647 145.639 118.999 145.188 118.221C144.737 117.442 144.5 116.559 144.5 115.661V70.3158C144.5 69.4173 144.737 68.5343 145.188 67.7557C145.639 66.977 146.288 66.3299 147.07 65.8797L147.079 65.8745L147.088 65.8691L186.935 42.1824C187.715 41.7354 188.6 41.4999 189.5 41.4999C190.4 41.4999 191.285 41.7353 192.065 42.1824L231.912 65.8691L231.921 65.8745L231.93 65.8797C232.712 66.3299 233.361 66.977 233.812 67.7557C234.263 68.5343 234.5 69.4173 234.5 70.3157V115.661C234.5 115.661 234.5 115.661 234.5 115.661C234.5 116.559 234.263 117.442 233.812 118.221C233.361 118.999 232.712 119.647 231.93 120.097Z" stroke="#212151" stroke-width="3"/>
<defs>
<filter id="filter0_d" x="206" y="0" width="173" height="185.977" filterUnits="userSpaceOnUse" color-interpolation-filters="sRGB">
<feFlood flood-opacity="0" result="BackgroundImageFix"/>
<feColorMatrix in="SourceAlpha" type="matrix" values="0 0 0 0 0 0 0 0 0 0 0 0 0 0 0 0 0 0 127 0"/>
<feOffset/>
<feGaussianBlur stdDeviation="20"/>
<feColorMatrix type="matrix" values="0 0 0 0 0.945098 0 0 0 0 0.756863 0 0 0 0 0.168627 0 0 0 1 0"/>
<feBlend mode="normal" in2="BackgroundImageFix" result="effect1_dropShadow"/>
<feBlend mode="normal" in="SourceGraphic" in2="effect1_dropShadow" result="shape"/>
</filter>
<filter id="filter1_d" x="0" y="0" width="173" height="185.977" filterUnits="userSpaceOnUse" color-interpolation-filters="sRGB">
<feFlood flood-opacity="0" result="BackgroundImageFix"/>
<feColorMatrix in="SourceAlpha" type="matrix" values="0 0 0 0 0 0 0 0 0 0 0 0 0 0 0 0 0 0 127 0"/>
<feOffset/>
<feGaussianBlur stdDeviation="20"/>
<feColorMatrix type="matrix" values="0 0 0 0 0.945098 0 0 0 0 0.756863 0 0 0 0 0.168627 0 0 0 1 0"/>
<feBlend mode="normal" in2="BackgroundImageFix" result="effect1_dropShadow"/>
<feBlend mode="normal" in="SourceGraphic" in2="effect1_dropShadow" result="shape"/>
</filter>
</defs>
</svg>
