<svg width="334" height="302" viewBox="0 0 334 302" fill="none" xmlns="http://www.w3.org/2000/svg">
<g clip-path="url(#clip0)">
<path d="M20.9386 193.128C20.3946 193.128 20.0052 192.862 19.7706 192.328L15.5946 182.952C15.4239 182.547 15.4292 182.222 15.6106 181.976C15.8026 181.72 16.0799 181.592 16.4426 181.592C16.7519 181.592 16.9812 181.662 17.1306 181.8C17.2906 181.928 17.4239 182.126 17.5306 182.392L20.9706 190.376L24.4106 182.376C24.5279 182.12 24.6666 181.928 24.8266 181.8C24.9866 181.662 25.2106 181.592 25.4986 181.592C25.8399 181.592 26.0959 181.72 26.2666 181.976C26.4479 182.232 26.4479 182.558 26.2666 182.952L22.0906 192.328C21.9732 192.595 21.8239 192.798 21.6426 192.936C21.4719 193.064 21.2372 193.128 20.9386 193.128ZM28.8888 193.128C28.2061 193.128 27.8648 192.776 27.8648 192.072V182.648C27.8648 181.944 28.2061 181.592 28.8888 181.592C29.5715 181.592 29.9128 181.944 29.9128 182.648V192.072C29.9128 192.776 29.5715 193.128 28.8888 193.128ZM33.4044 193.128C32.7218 193.128 32.3804 192.776 32.3804 192.072V182.76C32.3804 182.067 32.7271 181.72 33.4204 181.72H37.2764C38.5138 181.72 39.4684 182.019 40.1404 182.616C40.8124 183.203 41.1484 184.03 41.1484 185.096C41.1484 185.939 40.9298 186.638 40.4924 187.192C40.0551 187.736 39.4258 188.104 38.6044 188.296C39.1484 188.467 39.5964 188.878 39.9484 189.528L41.1484 191.752C41.3298 192.094 41.3618 192.408 41.2444 192.696C41.1378 192.984 40.8658 193.128 40.4284 193.128C40.1404 193.128 39.9058 193.07 39.7244 192.952C39.5431 192.824 39.3831 192.632 39.2444 192.376L37.6284 189.4C37.4364 189.038 37.2071 188.798 36.9404 188.68C36.6844 188.552 36.3538 188.488 35.9484 188.488H34.4284V192.072C34.4284 192.776 34.0871 193.128 33.4044 193.128ZM34.4284 186.968H36.9244C38.4178 186.968 39.1644 186.36 39.1644 185.144C39.1644 183.939 38.4178 183.336 36.9244 183.336H34.4284V186.968ZM43.2581 193.128C42.8847 193.128 42.6181 193 42.4581 192.744C42.2981 192.488 42.3034 192.179 42.4741 191.816L46.6981 182.456C46.8367 182.147 47.0021 181.928 47.1941 181.8C47.3967 181.662 47.6261 181.592 47.8821 181.592C48.1274 181.592 48.3461 181.662 48.5381 181.8C48.7407 181.928 48.9114 182.147 49.0501 182.456L53.2901 191.816C53.4607 192.19 53.4714 192.504 53.3221 192.76C53.1727 193.006 52.9167 193.128 52.5541 193.128C52.2554 193.128 52.0207 193.059 51.8501 192.92C51.6901 192.771 51.5461 192.547 51.4181 192.248L50.6181 190.392H45.1141L44.3301 192.248C44.1914 192.558 44.0474 192.782 43.8981 192.92C43.7487 193.059 43.5354 193.128 43.2581 193.128ZM47.8501 183.944L45.8181 188.76H49.9141L47.8821 183.944H47.8501ZM59.5081 193.128C59.1347 193.128 58.8681 193 58.7081 192.744C58.5481 192.488 58.5534 192.179 58.7241 191.816L62.9481 182.456C63.0867 182.147 63.2521 181.928 63.4441 181.8C63.6467 181.662 63.8761 181.592 64.1321 181.592C64.3774 181.592 64.5961 181.662 64.7881 181.8C64.9907 181.928 65.1614 182.147 65.3001 182.456L69.5401 191.816C69.7107 192.19 69.7214 192.504 69.5721 192.76C69.4227 193.006 69.1667 193.128 68.8041 193.128C68.5054 193.128 68.2707 193.059 68.1001 192.92C67.9401 192.771 67.7961 192.547 67.6681 192.248L66.8681 190.392H61.3641L60.5801 192.248C60.4414 192.558 60.2974 192.782 60.1481 192.92C59.9987 193.059 59.7854 193.128 59.5081 193.128ZM64.1001 183.944L62.0681 188.76H66.1641L64.1321 183.944H64.1001ZM72.3423 193C71.649 193 71.3023 192.648 71.3023 191.944V182.712C71.3023 182.019 71.6436 181.672 72.3263 181.672C73.009 181.672 73.3503 182.019 73.3503 182.712V191.256H77.9903C78.5876 191.256 78.8863 191.544 78.8863 192.12C78.8863 192.707 78.5876 193 77.9903 193H72.3423ZM81.3107 193.128C80.628 193.128 80.2867 192.776 80.2867 192.072V182.76C80.2867 182.067 80.6334 181.72 81.3267 181.72H85.1827C86.42 181.72 87.3747 182.03 88.0467 182.648C88.7187 183.267 89.0547 184.131 89.0547 185.24C89.0547 186.35 88.7187 187.219 88.0467 187.848C87.3747 188.467 86.42 188.776 85.1827 188.776H82.3347V192.072C82.3347 192.776 81.9934 193.128 81.3107 193.128ZM82.3347 187.16H84.8627C86.3347 187.16 87.0707 186.52 87.0707 185.24C87.0707 183.971 86.3347 183.336 84.8627 183.336H82.3347V187.16ZM91.7482 193.128C91.0655 193.128 90.7242 192.776 90.7242 192.072V182.648C90.7242 181.944 91.0655 181.592 91.7482 181.592C92.4309 181.592 92.7722 181.944 92.7722 182.648V186.424H98.5802V182.648C98.5802 181.944 98.9215 181.592 99.6042 181.592C100.287 181.592 100.628 181.944 100.628 182.648V192.072C100.628 192.776 100.287 193.128 99.6042 193.128C98.9215 193.128 98.5802 192.776 98.5802 192.072V188.136H92.7722V192.072C92.7722 192.776 92.4309 193.128 91.7482 193.128ZM103.211 193.128C102.838 193.128 102.571 193 102.411 192.744C102.251 192.488 102.257 192.179 102.427 191.816L106.651 182.456C106.79 182.147 106.955 181.928 107.147 181.8C107.35 181.662 107.579 181.592 107.835 181.592C108.081 181.592 108.299 181.662 108.491 181.8C108.694 181.928 108.865 182.147 109.003 182.456L113.243 191.816C113.414 192.19 113.425 192.504 113.275 192.76C113.126 193.006 112.87 193.128 112.507 193.128C112.209 193.128 111.974 193.059 111.803 192.92C111.643 192.771 111.499 192.547 111.371 192.248L110.571 190.392H105.067L104.283 192.248C104.145 192.558 104.001 192.782 103.851 192.92C103.702 193.059 103.489 193.128 103.211 193.128ZM107.803 183.944L105.771 188.76H109.867L107.835 183.944H107.803Z" fill="white"/>
<path d="M47.4405 113C47.0992 113 46.8485 112.926 46.6885 112.776C46.5392 112.616 46.4645 112.387 46.4645 112.088C46.4645 111.907 46.5125 111.731 46.6085 111.56C46.7045 111.39 46.8432 111.208 47.0245 111.016L50.2405 107.592C50.7312 107.08 51.0832 106.616 51.2965 106.2C51.5098 105.774 51.6165 105.347 51.6165 104.92C51.6165 103.832 50.9605 103.288 49.6485 103.288C49.2858 103.288 48.9232 103.342 48.5605 103.448C48.1978 103.544 47.8298 103.715 47.4565 103.96C47.2218 104.12 47.0032 104.168 46.8005 104.104C46.5978 104.04 46.4432 103.912 46.3365 103.72C46.2298 103.518 46.1925 103.304 46.2245 103.08C46.2672 102.856 46.4058 102.664 46.6405 102.504C47.0992 102.195 47.6112 101.96 48.1765 101.8C48.7525 101.64 49.3285 101.56 49.9045 101.56C51.1098 101.56 52.0325 101.832 52.6725 102.376C53.3232 102.92 53.6485 103.699 53.6485 104.712C53.6485 105.395 53.4832 106.051 53.1525 106.68C52.8325 107.31 52.3258 107.987 51.6325 108.712L49.1525 111.304H53.3285C53.9152 111.304 54.2085 111.582 54.2085 112.136C54.2085 112.712 53.9152 113 53.3285 113H47.4405ZM59.7063 113.16C58.3729 113.16 57.3543 112.659 56.6503 111.656C55.9463 110.643 55.5943 109.203 55.5943 107.336C55.5943 105.448 55.9463 104.014 56.6503 103.032C57.3543 102.051 58.3729 101.56 59.7063 101.56C61.0503 101.56 62.0689 102.051 62.7623 103.032C63.4663 104.014 63.8183 105.443 63.8183 107.32C63.8183 109.198 63.4663 110.643 62.7623 111.656C62.0583 112.659 61.0396 113.16 59.7063 113.16ZM59.7063 111.48C60.4316 111.48 60.9649 111.144 61.3063 110.472C61.6583 109.8 61.8343 108.75 61.8343 107.32C61.8343 105.891 61.6583 104.856 61.3063 104.216C60.9649 103.566 60.4316 103.24 59.7063 103.24C58.9916 103.24 58.4583 103.566 58.1063 104.216C57.7543 104.856 57.5783 105.891 57.5783 107.32C57.5783 108.75 57.7543 109.8 58.1063 110.472C58.4583 111.144 58.9916 111.48 59.7063 111.48ZM66.628 113C66.2867 113 66.036 112.926 65.876 112.776C65.7267 112.616 65.652 112.387 65.652 112.088C65.652 111.907 65.7 111.731 65.796 111.56C65.892 111.39 66.0307 111.208 66.212 111.016L69.428 107.592C69.9187 107.08 70.2707 106.616 70.484 106.2C70.6973 105.774 70.804 105.347 70.804 104.92C70.804 103.832 70.148 103.288 68.836 103.288C68.4733 103.288 68.1107 103.342 67.748 103.448C67.3853 103.544 67.0173 103.715 66.644 103.96C66.4093 104.12 66.1907 104.168 65.988 104.104C65.7853 104.04 65.6307 103.912 65.524 103.72C65.4173 103.518 65.38 103.304 65.412 103.08C65.4547 102.856 65.5933 102.664 65.828 102.504C66.2867 102.195 66.7987 101.96 67.364 101.8C67.94 101.64 68.516 101.56 69.092 101.56C70.2973 101.56 71.22 101.832 71.86 102.376C72.5107 102.92 72.836 103.699 72.836 104.712C72.836 105.395 72.6707 106.051 72.34 106.68C72.02 107.31 71.5133 107.987 70.82 108.712L68.34 111.304H72.516C73.1027 111.304 73.396 111.582 73.396 112.136C73.396 112.712 73.1027 113 72.516 113H66.628ZM78.6698 113.16C78.0938 113.16 77.4964 113.086 76.8778 112.936C76.2591 112.787 75.7204 112.563 75.2618 112.264C74.9951 112.083 74.8351 111.88 74.7818 111.656C74.7284 111.422 74.7551 111.214 74.8618 111.032C74.9684 110.84 75.1284 110.712 75.3418 110.648C75.5658 110.584 75.8164 110.627 76.0938 110.776C76.5311 111.011 76.9524 111.182 77.3578 111.288C77.7631 111.384 78.1791 111.432 78.6058 111.432C80.0458 111.432 80.7658 110.867 80.7658 109.736C80.7658 109.203 80.5844 108.808 80.2218 108.552C79.8698 108.286 79.3524 108.152 78.6698 108.152H77.6458C77.3471 108.152 77.1178 108.078 76.9578 107.928C76.8084 107.779 76.7338 107.571 76.7338 107.304C76.7338 107.038 76.8084 106.83 76.9578 106.68C77.1178 106.531 77.3471 106.456 77.6458 106.456H78.4778C79.0751 106.456 79.5498 106.312 79.9018 106.024C80.2538 105.726 80.4298 105.315 80.4298 104.792C80.4298 104.302 80.2644 103.928 79.9338 103.672C79.6138 103.416 79.1444 103.288 78.5258 103.288C78.1311 103.288 77.7578 103.336 77.4058 103.432C77.0644 103.518 76.6858 103.683 76.2698 103.928C76.0244 104.078 75.8004 104.12 75.5978 104.056C75.3951 103.982 75.2351 103.854 75.1178 103.672C75.0111 103.48 74.9791 103.272 75.0218 103.048C75.0644 102.824 75.2138 102.632 75.4698 102.472C76.4084 101.864 77.4858 101.56 78.7018 101.56C79.8751 101.56 80.7871 101.827 81.4378 102.36C82.0884 102.883 82.4138 103.614 82.4138 104.552C82.4138 105.16 82.2591 105.694 81.9498 106.152C81.6404 106.611 81.2191 106.942 80.6858 107.144C81.3364 107.326 81.8431 107.662 82.2058 108.152C82.5684 108.632 82.7498 109.219 82.7498 109.912C82.7498 110.915 82.3871 111.71 81.6618 112.296C80.9364 112.872 79.9391 113.16 78.6698 113.16Z" fill="#F1C12B"/>
<g filter="url(#filter0_d)">
<path d="M106.93 133.097L106.921 133.102L106.912 133.108L67.0645 156.794C66.2846 157.241 65.4003 157.477 64.5 157.477C63.5997 157.477 62.7154 157.241 61.9355 156.794L22.0879 133.108L22.0789 133.102L22.0698 133.097C21.2878 132.647 20.639 132 20.1881 131.221C19.7372 130.442 19.5 129.559 19.5 128.661V83.316C19.5 82.4175 19.7372 81.5346 20.1881 80.756C20.639 79.9773 21.2878 79.3301 22.0698 78.88L22.0789 78.8747L22.0879 78.8694L61.9357 55.1824C62.7156 54.7355 63.5998 54.5001 64.5 54.5001C65.4002 54.5001 66.2844 54.7355 67.0643 55.1824L106.912 78.8694L106.921 78.8747L106.93 78.88C107.712 79.3301 108.361 79.9773 108.812 80.756C109.263 81.5346 109.5 82.4175 109.5 83.316V128.661C109.5 128.661 109.5 128.661 109.5 128.661C109.5 129.559 109.263 130.442 108.812 131.221C108.361 132 107.712 132.647 106.93 133.097Z" stroke="#F1C12B" stroke-width="3"/>
</g>
<path d="M260.93 223.097L260.921 223.102L260.912 223.108L221.065 246.794C220.285 247.241 219.4 247.477 218.5 247.477C217.6 247.477 216.715 247.241 215.935 246.794L176.088 223.108L176.079 223.102L176.07 223.097C175.288 222.647 174.639 222 174.188 221.221C173.737 220.442 173.5 219.559 173.5 218.661V173.316C173.5 172.418 173.737 171.535 174.188 170.756C174.639 169.977 175.288 169.33 176.07 168.88L176.079 168.875L176.088 168.869L215.936 145.182C216.716 144.736 217.6 144.5 218.5 144.5C219.4 144.5 220.284 144.736 221.064 145.182L260.912 168.869L260.921 168.875L260.93 168.88C261.712 169.33 262.361 169.977 262.812 170.756C263.263 171.535 263.5 172.418 263.5 173.316V218.661C263.5 218.661 263.5 218.661 263.5 218.661C263.5 219.559 263.263 220.442 262.812 221.221C262.361 222 261.712 222.647 260.93 223.097Z" stroke="#212151" stroke-width="3"/>
<path d="M210.93 133.097L210.921 133.102L210.912 133.108L171.065 156.794C170.285 157.241 169.4 157.477 168.5 157.477C167.6 157.477 166.715 157.241 165.935 156.794L126.088 133.108L126.079 133.102L126.07 133.097C125.288 132.647 124.639 132 124.188 131.221C123.737 130.442 123.5 129.559 123.5 128.661V83.316C123.5 82.4175 123.737 81.5346 124.188 80.756C124.639 79.9773 125.288 79.3301 126.07 78.88L126.079 78.8747L126.088 78.8694L165.936 55.1824C166.716 54.7355 167.6 54.5001 168.5 54.5001C169.4 54.5001 170.284 54.7355 171.064 55.1824L210.912 78.8694L210.921 78.8747L210.93 78.88C211.712 79.3301 212.361 79.9773 212.812 80.756C213.263 81.5346 213.5 82.4175 213.5 83.316V128.661C213.5 128.661 213.5 128.661 213.5 128.661C213.5 129.559 213.263 130.442 212.812 131.221C212.361 132 211.712 132.647 210.93 133.097Z" stroke="#212151" stroke-width="3"/>
<path d="M313.93 135.097L313.921 135.102L313.912 135.108L274.065 158.794C273.285 159.241 272.4 159.477 271.5 159.477C270.6 159.477 269.715 159.241 268.935 158.794L229.088 135.108L229.079 135.102L229.07 135.097C228.288 134.647 227.639 134 227.188 133.221C226.737 132.442 226.5 131.559 226.5 130.661V85.316C226.5 84.4175 226.737 83.5346 227.188 82.756C227.639 81.9773 228.288 81.3301 229.07 80.88L229.079 80.8747L229.088 80.8694L268.936 57.1824C269.716 56.7355 270.6 56.5001 271.5 56.5001C272.4 56.5001 273.284 56.7355 274.064 57.1824L313.912 80.8694L313.921 80.8747L313.93 80.88C314.712 81.3301 315.361 81.9773 315.812 82.756C316.263 83.5346 316.5 84.4175 316.5 85.316V130.661C316.5 130.661 316.5 130.661 316.5 130.661C316.5 131.559 316.263 132.442 315.812 133.221C315.361 134 314.712 134.647 313.93 135.097Z" stroke="#212151" stroke-width="3"/>
</g>
<defs>
<filter id="filter0_d" x="-22" y="13" width="173" height="185.977" filterUnits="userSpaceOnUse" color-interpolation-filters="sRGB">
<feFlood flood-opacity="0" result="BackgroundImageFix"/>
<feColorMatrix in="SourceAlpha" type="matrix" values="0 0 0 0 0 0 0 0 0 0 0 0 0 0 0 0 0 0 127 0"/>
<feOffset/>
<feGaussianBlur stdDeviation="20"/>
<feColorMatrix type="matrix" values="0 0 0 0 0.945098 0 0 0 0 0.756863 0 0 0 0 0.168627 0 0 0 1 0"/>
<feBlend mode="normal" in2="BackgroundImageFix" result="effect1_dropShadow"/>
<feBlend mode="normal" in="SourceGraphic" in2="effect1_dropShadow" result="shape"/>
</filter>
<clipPath id="clip0">
<rect width="334" height="302" fill="white"/>
</clipPath>
</defs>
</svg>
