<svg width="173" height="186" viewBox="0 0 173 186" fill="none" xmlns="http://www.w3.org/2000/svg">
<g filter="url(#filter0_d)">
<path d="M44.0698 65.8799L44.0789 65.8746L44.0879 65.8693L83.9355 42.1825C84.7154 41.7355 85.5997 41.5 86.5 41.5C87.4003 41.5 88.2846 41.7355 89.0646 42.1825L128.912 65.8693L128.921 65.8746L128.93 65.8799C129.712 66.33 130.361 66.9772 130.812 67.7559C131.263 68.5345 131.5 69.4174 131.5 70.3159V115.661C131.5 116.559 131.263 117.442 130.812 118.221C130.361 119 129.712 119.647 128.93 120.097L128.921 120.102L128.912 120.107L89.0647 143.794C88.2847 144.241 87.4004 144.477 86.5 144.477C85.5996 144.477 84.7153 144.241 83.9353 143.794L44.0879 120.107L44.0789 120.102L44.0698 120.097C43.2878 119.647 42.639 119 42.1881 118.221C41.7372 117.442 41.5 116.559 41.5 115.661V70.3159C41.5 70.3159 41.5 70.3159 41.5 70.3159C41.5 69.4174 41.7372 68.5345 42.1881 67.7559C42.639 66.9772 43.2878 66.33 44.0698 65.8799Z" stroke="#F1C12B" stroke-width="3"/>
</g>
<path d="M85.6624 64.1875C79.2595 64.1875 74.0552 69.3513 73.9554 75.7309C73.9429 75.7906 73.9368 75.8515 73.9375 75.9125C73.9367 75.974 73.9427 76.0355 73.9554 76.0957C74.0517 82.1931 78.8135 87.1683 84.825 87.5966V95.6232C83.4232 93.8193 81.2026 92.6958 78.9559 91.9477C77.0793 88.379 74.2058 86.0205 70.7756 85.1741C69.8861 84.9546 68.964 84.8346 68.0161 84.8158C65.1721 84.7595 62.0984 85.6096 59.0031 87.3807L58.2769 87.7962L58.6923 88.5241C61.3104 93.0993 65.0729 95.1638 68.7898 95.6117C72.3772 96.0441 75.8906 95.0389 78.5437 93.5883C80.6428 94.3281 82.6036 95.4025 83.6538 96.85H70.5875C69.2098 96.85 68.075 97.9848 68.075 99.3625V101.037C68.075 102.415 69.2098 103.55 70.5875 103.55H70.0051L71.3088 120.493C71.4087 121.794 72.5078 122.812 73.8131 122.812H97.5118C98.8171 122.812 99.9162 121.794 100.016 120.493L101.32 103.55H100.737C102.115 103.55 103.25 102.415 103.25 101.037V99.3625C103.25 97.9848 102.115 96.85 100.737 96.85H86.8336C88.2264 95.4429 90.267 93.6993 92.9775 92.2208C94.9514 93.492 98.3718 95.1809 102.286 95.5169C106.79 95.9033 111.962 94.3279 115.7 88.2591L116.105 87.5999L115.48 87.1435C111.967 84.5824 108.537 83.1706 105.322 82.8955C104.251 82.8038 103.203 82.8384 102.183 82.9985C98.1068 83.6392 94.5951 86.2957 91.965 90.5655L91.682 91.0251C89.537 92.2539 87.8164 93.6174 86.4999 94.8446V87.5966C92.5119 87.1683 97.2741 82.1922 97.3695 76.0941C97.382 76.0344 97.3881 75.9735 97.3874 75.9125C97.3887 75.8022 97.3681 75.6926 97.3269 75.5903C97.3264 75.5886 97.3258 75.587 97.3253 75.5854C97.2424 72.7214 96.1864 70.0892 94.4006 68.0953C92.2549 65.6981 89.1296 64.1875 85.6624 64.1875V64.1875ZM85.6624 65.8625C88.6441 65.8625 91.3117 67.1559 93.1525 69.2125C94.7457 70.9913 95.7125 73.3334 95.7125 75.9125C95.7125 81.4402 91.2726 85.9062 85.7573 85.9576C85.7215 85.9531 85.6855 85.9509 85.6494 85.951C85.6193 85.9516 85.5892 85.9538 85.5594 85.9576C80.0479 85.9019 75.6124 81.4374 75.6124 75.9125C75.6124 70.3528 80.1028 65.8625 85.6624 65.8625ZM84.825 68.375V69.2125V70.207C82.7912 70.4828 81.5666 71.6708 81.5666 73.4425C81.5666 75.0338 82.5641 76.1047 84.3898 76.557L84.825 76.6633V80.0607C83.913 79.8617 83.3196 79.2714 83.2595 78.4757H81.3245C81.3324 80.2527 82.6626 81.4642 84.825 81.7014V82.6125V83.45H86.5V82.6125V81.6949C88.72 81.4266 90.0004 80.2342 90.0004 78.3416C90.0004 76.6666 89.0383 75.6438 87.0283 75.1748L86.5 75.0685V71.8624C87.3112 72.0624 87.8594 72.657 87.8822 73.4H89.7747C89.7426 71.6926 88.4665 70.4651 86.4999 70.2005V69.2125V68.375L84.825 68.375ZM84.825 71.8379V74.6792C83.989 74.4239 83.5262 73.9475 83.5262 73.274C83.5262 72.5662 84.0534 72.0029 84.825 71.8379ZM86.5 77.0183C87.5562 77.2869 88.0654 77.7643 88.0654 78.5428C88.0654 79.4071 87.499 79.9603 86.5 80.1016V77.0183ZM103.791 84.528C104.249 84.513 104.716 84.5249 105.19 84.5656C107.818 84.791 110.703 85.9499 113.753 88.0317C110.385 92.9808 106.275 94.1769 102.429 93.8468C99.3643 93.5838 96.6591 92.3674 94.839 91.3065C95.6671 90.9411 96.5276 90.5967 97.4594 90.3087C99.3006 89.7395 101.014 89.4478 102.516 89.3125C102.965 89.2728 103.303 88.8834 103.278 88.4323C103.253 87.9813 102.876 87.6311 102.424 87.6408C102.404 87.6417 102.385 87.6433 102.365 87.6457C100.764 87.7901 98.9316 88.1006 96.9638 88.7089C96.2257 88.9371 95.5187 89.1927 94.8422 89.4679C97.0159 86.7392 99.5723 85.1051 102.444 84.6539C102.884 84.5846 103.333 84.5429 103.791 84.528H103.791ZM67.9768 86.4908C68.8081 86.5073 69.6096 86.6112 70.3748 86.8C72.8354 87.4072 74.9359 88.9207 76.5465 91.2672C73.4975 90.5481 70.877 90.4215 70.877 90.4215C70.8487 90.4195 70.8203 90.419 70.7919 90.4199C70.3338 90.4279 69.9672 90.8025 69.969 91.2606C69.9708 91.7188 70.3403 92.0905 70.7985 92.0949C70.7985 92.0949 73.1707 92.215 75.9609 92.8523C73.8699 93.7096 71.4368 94.2448 68.9893 93.9498C65.9546 93.5841 63.0037 92.0043 60.6798 88.4325C63.2536 87.1077 65.7303 86.4463 67.9768 86.4909V86.4908ZM70.5875 98.525H85.5218C85.6122 98.54 85.7045 98.54 85.7949 98.525H100.737C101.211 98.525 101.575 98.8893 101.575 99.3625V101.037C101.575 101.511 101.211 101.875 100.737 101.875H99.7691L98.346 120.364C98.3119 120.808 97.9568 121.138 97.5118 121.138H73.8131C73.3681 121.138 73.013 120.808 72.9789 120.364L71.5558 101.875H70.5875C70.1142 101.875 69.75 101.511 69.75 101.037V99.3625C69.75 98.8893 70.1142 98.525 70.5875 98.525ZM73.9375 101.875C73.4749 101.875 73.1 102.25 73.1 102.713C73.1 103.175 73.4749 103.55 73.9375 103.55C74.4 103.55 74.775 103.175 74.775 102.713C74.775 102.25 74.4 101.875 73.9375 101.875ZM77.2875 101.875C76.8249 101.875 76.45 102.25 76.45 102.713C76.45 103.175 76.8249 103.55 77.2875 103.55C77.75 103.55 78.125 103.175 78.125 102.713C78.125 102.25 77.75 101.875 77.2875 101.875ZM80.6374 101.875C80.1749 101.875 79.8 102.25 79.8 102.713C79.8 103.175 80.1749 103.55 80.6374 103.55C81.1 103.55 81.475 103.175 81.475 102.713C81.475 102.25 81.1 101.875 80.6374 101.875ZM83.9875 101.875C83.5249 101.875 83.15 102.25 83.15 102.713C83.15 103.175 83.5249 103.55 83.9875 103.55C84.45 103.55 84.825 103.175 84.825 102.713C84.825 102.25 84.45 101.875 83.9875 101.875ZM87.3375 101.875C86.8749 101.875 86.5 102.25 86.5 102.713C86.5 103.175 86.8749 103.55 87.3375 103.55C87.8 103.55 88.175 103.175 88.175 102.713C88.175 102.25 87.8 101.875 87.3375 101.875ZM90.6875 101.875C90.2249 101.875 89.8499 102.25 89.8499 102.713C89.8499 103.175 90.2249 103.55 90.6875 103.55C91.15 103.55 91.525 103.175 91.525 102.713C91.525 102.25 91.15 101.875 90.6875 101.875ZM94.0374 101.875C93.5749 101.875 93.2 102.25 93.2 102.713C93.2 103.175 93.5749 103.55 94.0374 103.55C94.5 103.55 94.875 103.175 94.875 102.713C94.875 102.25 94.5 101.875 94.0374 101.875ZM97.3875 101.875C96.9249 101.875 96.55 102.25 96.55 102.713C96.55 103.175 96.9249 103.55 97.3875 103.55C97.85 103.55 98.2249 103.175 98.2249 102.713C98.2249 102.25 97.85 101.875 97.3875 101.875ZM75.6125 117.788C75.1499 117.788 74.775 118.162 74.775 118.625C74.775 119.088 75.1499 119.462 75.6125 119.462C76.075 119.462 76.45 119.088 76.45 118.625C76.45 118.162 76.075 117.788 75.6125 117.788ZM78.9625 117.788C78.4999 117.788 78.125 118.162 78.125 118.625C78.125 119.088 78.4999 119.462 78.9625 119.462C79.425 119.462 79.8 119.088 79.8 118.625C79.8 118.162 79.425 117.788 78.9625 117.788ZM82.3125 117.788C81.8499 117.788 81.475 118.162 81.475 118.625C81.475 119.088 81.8499 119.462 82.3125 119.462C82.775 119.462 83.15 119.088 83.15 118.625C83.15 118.162 82.775 117.788 82.3125 117.788ZM85.6624 117.788C85.1999 117.788 84.825 118.162 84.825 118.625C84.825 119.088 85.1999 119.462 85.6624 119.462C86.125 119.462 86.5 119.088 86.5 118.625C86.5 118.162 86.125 117.788 85.6624 117.788ZM89.0125 117.788C88.5499 117.788 88.175 118.162 88.175 118.625C88.175 119.088 88.5499 119.462 89.0125 119.462C89.475 119.462 89.8499 119.088 89.8499 118.625C89.8499 118.162 89.475 117.788 89.0125 117.788ZM92.3625 117.788C91.8999 117.788 91.525 118.162 91.525 118.625C91.525 119.088 91.8999 119.462 92.3625 119.462C92.825 119.462 93.2 119.088 93.2 118.625C93.2 118.162 92.825 117.788 92.3625 117.788ZM95.7125 117.788C95.2499 117.788 94.875 118.162 94.875 118.625C94.875 119.088 95.2499 119.462 95.7125 119.462C96.175 119.462 96.55 119.088 96.55 118.625C96.55 118.162 96.175 117.788 95.7125 117.788Z" fill="#F1C12B"/>
<defs>
<filter id="filter0_d" x="0" y="0" width="173" height="185.977" filterUnits="userSpaceOnUse" color-interpolation-filters="sRGB">
<feFlood flood-opacity="0" result="BackgroundImageFix"/>
<feColorMatrix in="SourceAlpha" type="matrix" values="0 0 0 0 0 0 0 0 0 0 0 0 0 0 0 0 0 0 127 0"/>
<feOffset/>
<feGaussianBlur stdDeviation="20"/>
<feColorMatrix type="matrix" values="0 0 0 0 0.945098 0 0 0 0 0.756863 0 0 0 0 0.168627 0 0 0 1 0"/>
<feBlend mode="normal" in2="BackgroundImageFix" result="effect1_dropShadow"/>
<feBlend mode="normal" in="SourceGraphic" in2="effect1_dropShadow" result="shape"/>
</filter>
</defs>
</svg>
