<svg width="24" height="24" viewBox="0 0 24 24" fill="none" xmlns="http://www.w3.org/2000/svg">
<g clip-path="url(#clip0)">
<path d="M11.7 2.064C14.837 2.064 15.209 2.076 16.448 2.133C17.1929 2.14032 17.931 2.27562 18.63 2.533C19.1369 2.7282 19.5973 3.02751 19.9814 3.41161C20.3655 3.79571 20.6648 4.25608 20.86 4.763C21.1174 5.46204 21.2527 6.20012 21.26 6.945C21.316 8.183 21.328 8.555 21.328 11.692C21.328 14.829 21.316 15.201 21.259 16.44C21.2517 17.1849 21.1164 17.923 20.859 18.622C20.6638 19.1289 20.3645 19.5893 19.9804 19.9734C19.5963 20.3575 19.1359 20.6568 18.629 20.852C17.93 21.1094 17.1919 21.2447 16.447 21.252C15.209 21.308 14.837 21.32 11.7 21.32C8.563 21.32 8.191 21.308 6.952 21.251C6.20712 21.2437 5.46904 21.1084 4.77 20.851C4.26308 20.6558 3.80271 20.3565 3.41861 19.9724C3.03451 19.5883 2.7352 19.1279 2.54 18.621C2.28262 17.922 2.14732 17.1839 2.14 16.439C2.084 15.201 2.072 14.829 2.072 11.692C2.072 8.555 2.084 8.183 2.141 6.944C2.14832 6.19912 2.28362 5.46104 2.541 4.762C2.7362 4.25508 3.03551 3.79472 3.41961 3.41061C3.80371 3.02651 4.26408 2.7272 4.771 2.532C5.47004 2.27462 6.20812 2.13932 6.953 2.132C8.191 2.076 8.563 2.064 11.7 2.064ZM11.7 0C8.524 0 8.125 0.0139997 6.878 0.0699997C5.90775 0.0898533 4.94786 0.273785 4.039 0.614C3.26199 0.914566 2.55633 1.37412 1.96722 1.96322C1.37812 2.55233 0.918566 3.25799 0.618 4.035C0.277375 4.94375 0.0934304 5.90371 0.0740004 6.874C0.0140004 8.121 0 8.519 0 11.7C0 14.881 0.0139997 15.275 0.0699997 16.522C0.0898533 17.4922 0.273785 18.4521 0.614 19.361C0.914566 20.138 1.37412 20.8437 1.96322 21.4328C2.55233 22.0219 3.25799 22.4814 4.035 22.782C4.94375 23.1226 5.90371 23.3066 6.874 23.326C8.121 23.382 8.52 23.396 11.696 23.396C14.872 23.396 15.271 23.382 16.518 23.326C17.4882 23.3061 18.4481 23.1222 19.357 22.782C20.134 22.4814 20.8397 22.0219 21.4288 21.4328C22.0179 20.8437 22.4774 20.138 22.778 19.361C23.1186 18.4523 23.3026 17.4923 23.322 16.522C23.378 15.275 23.392 14.876 23.392 11.7C23.392 8.524 23.378 8.125 23.322 6.878C23.3021 5.90775 23.1182 4.94786 22.778 4.039C22.4774 3.26199 22.0179 2.55633 21.4288 1.96722C20.8397 1.37812 20.134 0.918566 19.357 0.618C18.4483 0.277375 17.4883 0.0934295 16.518 0.0739994C15.271 0.0139994 14.872 0 11.7 0Z" fill="#F1C12B"/>
<path d="M11.696 5.36694C10.4442 5.36694 9.2206 5.73813 8.1798 6.43357C7.139 7.12901 6.3278 8.11747 5.84877 9.27394C5.36975 10.4304 5.24441 11.703 5.48862 12.9307C5.73282 14.1584 6.3356 15.2861 7.22073 16.1712C8.10585 17.0563 9.23357 17.6591 10.4613 17.9033C11.689 18.1475 12.9615 18.0222 14.118 17.5432C15.2745 17.0642 16.2629 16.2529 16.9584 15.2121C17.6538 14.1713 18.025 12.9477 18.025 11.6959C18.0251 10.8648 17.8615 10.0417 17.5435 9.27378C17.2255 8.50586 16.7593 7.8081 16.1716 7.22037C15.5839 6.63264 14.8861 6.16646 14.1182 5.84844C13.3502 5.53043 12.5272 5.36681 11.696 5.36694ZM11.696 15.9149C10.8616 15.9149 10.0459 15.6675 9.35206 15.2039C8.65824 14.7403 8.11749 14.0814 7.79816 13.3105C7.47883 12.5396 7.39528 11.6913 7.55807 10.8729C7.72086 10.0545 8.12269 9.3027 8.71272 8.71266C9.30276 8.12262 10.0545 7.7208 10.8729 7.55801C11.6913 7.39522 12.5396 7.47877 13.3105 7.7981C14.0815 8.11742 14.7404 8.65818 15.204 9.35199C15.6676 10.0458 15.915 10.8615 15.915 11.6959C15.915 12.8149 15.4705 13.888 14.6793 14.6792C13.8881 15.4704 12.815 15.9149 11.696 15.9149Z" fill="#F1C12B"/>
<path d="M17.909 6.82609C18.6502 6.82609 19.251 6.22526 19.251 5.48409C19.251 4.74292 18.6502 4.14209 17.909 4.14209C17.1678 4.14209 16.567 4.74292 16.567 5.48409C16.567 6.22526 17.1678 6.82609 17.909 6.82609Z" fill="#F1C12B"/>
</g>
<defs>
<clipPath id="clip0">
<rect width="23.392" height="23.392" fill="white"/>
</clipPath>
</defs>
</svg>
