<svg width="50" height="50" viewBox="0 0 50 50" fill="none" xmlns="http://www.w3.org/2000/svg">
<rect width="50" height="50" rx="4" fill="#0A66C2"/>
<path d="M25.5 42C34.6127 42 42 34.6127 42 25.5C42 16.3873 34.6127 9 25.5 9C16.3873 9 9 16.3873 9 25.5C9 34.6127 16.3873 42 25.5 42Z" fill="#0A66C2"/>
<rect x="11" y="13" width="29" height="26" fill="white"/>
<path d="M37.1175 37.118H32.228V29.4606C32.228 27.6346 32.1954 25.284 29.6849 25.284C27.1383 25.284 26.7486 27.2736 26.7486 29.3277V37.1175H21.8592V21.3708H26.553V23.5228H26.6188C27.0885 22.7196 27.7673 22.0588 28.5829 21.6109C29.3985 21.1629 30.3203 20.9446 31.2501 20.9791C36.2059 20.9791 37.1196 24.2389 37.1196 28.4796L37.1175 37.118ZM16.342 19.2185C14.7749 19.2187 13.5042 17.9485 13.504 16.3814C13.5037 14.8143 14.7738 13.5436 16.341 13.5434C17.9081 13.543 19.1787 14.8132 19.179 16.3803C19.1791 17.1329 18.8803 17.8547 18.3482 18.3869C17.8162 18.9192 17.0945 19.2183 16.342 19.2185ZM18.7868 37.1181H13.8921V21.3708H18.7867V37.118L18.7868 37.1181ZM39.5552 9.0024H11.4352C10.1061 8.98745 9.01624 10.0521 9 11.3811V39.6184C9.01573 40.9481 10.1055 42.0137 11.435 41.9998H39.5552C40.8875 42.0163 41.9816 40.9506 42 39.6184V11.3789C41.9811 10.0473 40.8869 8.98281 39.5552 9.00021" fill="#0A66C2"/>
</svg>
