<svg width="50" height="50" viewBox="0 0 50 50" fill="none" xmlns="http://www.w3.org/2000/svg">
<rect width="50" height="50" rx="4" fill="#FF4500"/>
<path d="M25.5 46C36.8218 46 46 36.8218 46 25.5C46 14.1782 36.8218 5 25.5 5C14.1782 5 5 14.1782 5 25.5C5 36.8218 14.1782 46 25.5 46Z" fill="#FF4500"/>
<path d="M39.1373 25.6956C39.1373 24.0338 37.7934 22.7139 36.1557 22.7139C35.382 22.7129 34.6378 23.0106 34.0784 23.545C32.0255 22.0784 29.2148 21.1255 26.0866 21.0033L27.455 14.6001L31.903 15.553C31.9522 16.6773 32.8806 17.5817 34.0296 17.5817C35.2026 17.5817 36.1557 16.6288 36.1557 15.4552C36.1557 14.2822 35.2027 13.3291 34.0296 13.3291C33.1987 13.3291 32.4652 13.8179 32.1231 14.5268L27.1621 13.4758C27.0154 13.4511 26.8687 13.4758 26.7708 13.5492C26.6486 13.6225 26.5754 13.7445 26.5512 13.8912L25.0355 21.0275C21.8585 21.1255 18.9989 22.0784 16.9217 23.5695C16.3622 23.0351 15.618 22.7375 14.8443 22.7386C13.1824 22.7386 11.8627 24.0825 11.8627 25.7202C11.8627 26.9421 12.5957 27.9683 13.6225 28.4331C13.5726 28.7319 13.5481 29.0344 13.5491 29.3374C13.5491 33.9316 18.9015 37.6712 25.5001 37.6712C32.0989 37.6712 37.4513 33.9563 37.4513 29.3374C37.4511 29.0345 37.4266 28.7321 37.378 28.4331C38.4042 27.9683 39.1373 26.9174 39.1373 25.6956ZM18.6568 27.8216C18.6568 26.6487 19.6097 25.6956 20.7834 25.6956C21.9564 25.6956 22.9094 26.6485 22.9094 27.8216C22.9094 28.9948 21.9565 29.9482 20.7834 29.9482C19.6099 29.9722 18.6568 28.9948 18.6568 27.8216ZM30.5592 33.4673C29.0928 34.9339 26.3065 35.0317 25.5001 35.0317C24.6692 35.0317 21.8832 34.9092 20.4408 33.4673C20.2212 33.2474 20.2212 32.9052 20.4408 32.6853C20.6609 32.4657 21.0029 32.4657 21.223 32.6853C22.1519 33.6142 24.1071 33.9316 25.5001 33.9316C26.8933 33.9316 28.8727 33.614 29.7769 32.6853C29.997 32.4657 30.3391 32.4657 30.5592 32.6853C30.7545 32.9052 30.7545 33.2474 30.5592 33.4673ZM30.1679 29.9724C28.9947 29.9724 28.0418 29.0194 28.0418 27.8463C28.0418 26.6732 28.9947 25.7202 30.1679 25.7202C31.3414 25.7202 32.2943 26.6732 32.2943 27.8463C32.2943 28.9946 31.3414 29.9724 30.1679 29.9724Z" fill="white"/>
</svg>
