<svg width="44" height="44" viewBox="0 0 44 44" fill="none" xmlns="http://www.w3.org/2000/svg">
<path d="M7.25211 7.25211H18.1303V18.1303H7.25211V7.25211ZM36.2605 7.25211V18.1303H25.3824V7.25211H36.2605ZM25.3824 27.1954H29.0084V23.5694H25.3824V19.9433H29.0084V23.5694H32.6345V19.9433H36.2605V23.5694H32.6345V27.1954H36.2605V32.6345H32.6345V36.2605H29.0084V32.6345H23.5694V36.2605H19.9433V29.0084H25.3824V27.1954ZM29.0084 27.1954V32.6345H32.6345V27.1954H29.0084ZM7.25211 36.2605V25.3824H18.1303V36.2605H7.25211ZM10.8782 10.8782V14.5042H14.5042V10.8782H10.8782ZM29.0084 10.8782V14.5042H32.6345V10.8782H29.0084ZM10.8782 29.0084V32.6345H14.5042V29.0084H10.8782ZM7.25211 19.9433H10.8782V23.5694H7.25211V19.9433ZM16.3172 19.9433H23.5694V27.1954H19.9433V23.5694H16.3172V19.9433ZM19.9433 10.8782H23.5694V18.1303H19.9433V10.8782ZM3.62605 3.62605V10.8782H0V3.62605C0 2.66437 0.38203 1.74206 1.06205 1.06205C1.74206 0.38203 2.66437 0 3.62605 0L10.8782 0V3.62605H3.62605ZM39.8866 0C40.8483 0 41.7706 0.38203 42.4506 1.06205C43.1306 1.74206 43.5127 2.66437 43.5127 3.62605V10.8782H39.8866V3.62605H32.6345V0H39.8866ZM3.62605 32.6345V39.8866H10.8782V43.5127H3.62605C2.66437 43.5127 1.74206 43.1306 1.06205 42.4506C0.38203 41.7706 0 40.8483 0 39.8866V32.6345H3.62605ZM39.8866 39.8866V32.6345H43.5127V39.8866C43.5127 40.8483 43.1306 41.7706 42.4506 42.4506C41.7706 43.1306 40.8483 43.5127 39.8866 43.5127H32.6345V39.8866H39.8866Z" fill="white"/>
</svg>
