<svg width="24" height="19" viewBox="0 0 24 19" fill="none" xmlns="http://www.w3.org/2000/svg">
<g clip-path="url(#clip0)">
<path d="M20.688 4.66705C20.703 4.86705 20.703 5.07705 20.703 5.28105C20.7154 7.05025 20.376 8.80428 19.7047 10.4412C19.0333 12.0781 18.0434 13.5653 16.7923 14.8164C15.5413 16.0674 14.0541 17.0574 12.4172 17.7287C10.7802 18.4001 9.0262 18.7394 7.257 18.727C4.68419 18.7339 2.16417 17.9974 0 16.6061C0.378878 16.6476 0.759861 16.667 1.141 16.6641C3.26798 16.6695 5.33478 15.9582 7.008 14.6451C6.02201 14.627 5.06626 14.3016 4.27421 13.7141C3.48216 13.1266 2.89335 12.3064 2.59 11.3681C2.88508 11.4147 3.18326 11.4391 3.482 11.441C3.90178 11.4398 4.31974 11.3857 4.726 11.2801C3.65573 11.0638 2.69336 10.4836 2.00245 9.63811C1.31153 8.79261 0.934703 7.73395 0.936 6.64205V6.58405C1.59078 6.94954 2.32267 7.15513 3.072 7.18405C2.06913 6.51505 1.35933 5.48859 1.08746 4.31412C0.815583 3.13964 1.00212 1.90568 1.609 0.864049C2.79603 2.32502 4.27686 3.5202 5.95548 4.37208C7.63409 5.22397 9.47301 5.71354 11.353 5.80905C11.2772 5.45299 11.2379 5.0901 11.236 4.72605C11.237 3.77831 11.5227 2.85272 12.056 2.06927C12.5893 1.28583 13.3457 0.680666 14.227 0.332235C15.1084 -0.0161959 16.0741 -0.0918247 16.999 0.115156C17.9239 0.322136 18.7652 0.80218 19.414 1.49305C20.4726 1.28946 21.4877 0.903374 22.414 0.352048C22.0606 1.4426 21.3218 2.36695 20.336 2.95205C21.2744 2.84505 22.1916 2.59832 23.057 2.22005C22.4107 3.16323 21.6098 3.99052 20.688 4.66705Z" fill="#F1C12B"/>
</g>
<defs>
<clipPath id="clip0">
<rect width="23.058" height="18.727" fill="white"/>
</clipPath>
</defs>
</svg>
