<svg width="50" height="50" viewBox="0 0 50 50" fill="none" xmlns="http://www.w3.org/2000/svg">
<rect width="50" height="50" rx="4" fill="#55ACEE"/>
<path d="M25.5 42C34.6127 42 42 34.6127 42 25.5C42 16.3873 34.6127 9 25.5 9C16.3873 9 9 16.3873 9 25.5C9 34.6127 16.3873 42 25.5 42Z" fill="#55ACEE"/>
<path d="M42 15.459C40.7857 16.0084 39.4809 16.3798 38.1114 16.5468C39.5094 15.6918 40.5828 14.3379 41.0882 12.7247C39.7593 13.5294 38.3053 14.0964 36.7891 14.4012C35.554 13.0586 33.7946 12.2195 31.8472 12.2195C28.1082 12.2195 25.0767 15.3127 25.0767 19.1278C25.0767 19.6694 25.1366 20.1966 25.252 20.7023C19.6252 20.4141 14.6366 17.6638 11.2972 13.4841C10.7146 14.5044 10.3807 15.6913 10.3807 16.9572C10.3807 19.3541 11.5761 21.4685 13.3926 22.7075C12.3175 22.6731 11.266 22.3768 10.3259 21.8433C10.3255 21.8722 10.3255 21.9012 10.3255 21.9302C10.3255 25.2775 12.6593 28.0698 15.7564 28.7044C14.7594 28.9811 13.7136 29.0216 12.699 28.8228C13.5604 31.5675 16.0608 33.5647 19.0234 33.6206C16.7063 35.4735 13.7869 36.578 10.6151 36.578C10.0685 36.578 9.52968 36.5452 9 36.4814C11.9962 38.4416 15.5549 39.5853 19.3782 39.5853C31.8315 39.5853 38.6412 29.0583 38.6412 19.929C38.6412 19.6294 38.6348 19.3315 38.6216 19.0352C39.9471 18.0575 41.0911 16.8465 42 15.459Z" fill="white"/>
</svg>
