<svg width="196" height="47" viewBox="0 0 196 47" fill="none" xmlns="http://www.w3.org/2000/svg">
<path fill-rule="evenodd" clip-rule="evenodd" d="M22.0955 0.393552C21.6476 0.135731 21.1396 0 20.6225 0C20.1053 0 19.5973 0.135731 19.1494 0.393552L1.47303 10.901C1.02519 11.1588 0.653287 11.5297 0.394717 11.9762C0.136146 12.4227 1.31372e-05 12.9293 0 13.4449V33.5551C1.31372e-05 34.0707 0.136146 34.5773 0.394717 35.0238C0.653287 35.4704 1.02519 35.8412 1.47303 36.099L19.1494 46.6065C19.5973 46.8643 20.1053 47 20.6225 47C21.1396 47 21.6476 46.8643 22.0955 46.6065L39.7719 36.099C40.2197 35.8412 40.5916 35.4704 40.8502 35.0238C41.1088 34.5773 41.2449 34.0707 41.2449 33.5551V13.4449C41.2449 12.9293 41.1088 12.4227 40.8502 11.9762C40.5916 11.5297 40.2197 11.1588 39.7719 10.901L22.0955 0.393552Z" fill="#1E1F4B"/>
<path d="M12.679 19.3292L9.77644 24.2546L8.41051 22.0745L4.56885 24.2546L6.95922 28.5341L4.56885 33.5592L8.41051 35.4782L9.77644 33.0558L12.679 38.3042L19.7558 41.2336V39.3475L12.679 28.5341L19.7325 15.2621L12.679 19.3292Z" fill="#F1C12B"/>
<path d="M27.3968 17.8709L23.0447 15.3234V41.2918L36.6758 33.5809V15.3234L20.5813 5.7085L4.56885 15.3234V20.5006L20.5813 10.8857L31.9952 17.8709V31.2612L27.3968 33.4848V17.8709Z" fill="white"/>
<path d="M61.1409 20.3286L67.9975 12.3073H73.5548L63.896 23.5716L73.4922 34.7731H67.9662L61.1409 26.8145L54.3469 34.7731H48.8052L58.3857 23.5716L48.7739 12.3073H54.2843L61.1409 20.3286Z" fill="white"/>
<path d="M91.5573 34.7731H80.521C79.9574 34.7731 79.3417 34.6739 78.6737 34.4754C78.0058 34.277 77.3849 33.9532 76.8109 33.5041C76.2473 33.0446 75.7725 32.4545 75.3863 31.7338C75.0106 31.0027 74.8228 30.1097 74.8228 29.0548V23.5402C74.8228 23.1538 74.8645 22.7465 74.948 22.3182C75.0419 21.89 75.1828 21.467 75.3707 21.0493C75.5585 20.621 75.7986 20.2137 76.0908 19.8273C76.3934 19.4408 76.7535 19.1014 77.1709 18.8089C77.5988 18.5165 78.0893 18.2815 78.6424 18.104C79.1956 17.9264 79.8217 17.8376 80.521 17.8376H91.5573V21.9109H80.521C79.9887 21.9109 79.5817 22.0467 79.2999 22.3182C79.0286 22.5898 78.8929 23.0076 78.8929 23.5716V29.0548C78.8929 29.5875 79.0338 29.9948 79.3156 30.2768C79.5974 30.5588 80.0096 30.6998 80.5523 30.6998H91.5573V34.7731Z" fill="white"/>
<path d="M113.004 23.4462C113.004 24.0102 112.905 24.6212 112.706 25.2792C112.508 25.9268 112.185 26.5325 111.736 27.0965C111.297 27.6501 110.718 28.1148 109.998 28.4908C109.288 28.8668 108.422 29.0548 107.399 29.0548H100.058V25.1852H107.399C107.953 25.1852 108.381 25.0181 108.683 24.6839C108.986 24.3392 109.137 23.9162 109.137 23.4149C109.137 22.8822 108.965 22.4645 108.621 22.1616C108.287 21.8587 107.88 21.7072 107.399 21.7072H100.058C99.5045 21.7072 99.0766 21.8796 98.7739 22.2242C98.4713 22.5585 98.32 22.9762 98.32 23.4776V29.1645C98.32 29.7076 98.4869 30.1306 98.8209 30.4335C99.1653 30.7364 99.588 30.8878 100.089 30.8878H107.399V34.7731H100.058C99.494 34.7731 98.8835 34.6739 98.226 34.4754C97.579 34.277 96.9737 33.9584 96.4101 33.5198C95.857 33.0707 95.3926 32.491 95.0169 31.7808C94.6412 31.0601 94.4533 30.188 94.4533 29.1645V23.4462C94.4533 22.8822 94.5525 22.2765 94.7508 21.6289C94.9491 20.9709 95.2674 20.3651 95.7057 19.8116C96.1544 19.2476 96.7337 18.7776 97.4433 18.4016C98.1634 18.0256 99.0349 17.8376 100.058 17.8376H107.399C107.963 17.8376 108.568 17.9368 109.215 18.1353C109.873 18.3337 110.478 18.6575 111.031 19.1066C111.595 19.5453 112.064 20.1249 112.44 20.8456C112.816 21.5558 113.004 22.4227 113.004 23.4462Z" fill="white"/>
<path d="M123.179 34.7731H121.363C120.779 34.7731 120.153 34.6739 119.485 34.4754C118.827 34.277 118.211 33.9532 117.637 33.5041C117.063 33.0446 116.589 32.4545 116.213 31.7338C115.837 31.0027 115.649 30.1097 115.649 29.0548V10.678H119.719V29.0548C119.719 29.5562 119.876 29.9583 120.189 30.2611C120.502 30.5536 120.894 30.6998 121.363 30.6998H123.179V34.7731Z" fill="white"/>
<path d="M148.649 25.3732C148.649 26.7414 148.409 28 147.929 29.1488C147.459 30.2977 146.807 31.2899 145.972 32.1255C145.137 32.9506 144.145 33.5981 142.998 34.0681C141.85 34.5381 140.602 34.7731 139.256 34.7731H128.267C127.975 34.7731 127.703 34.7209 127.453 34.6164C127.202 34.512 126.983 34.371 126.795 34.1934C126.618 34.0054 126.477 33.7861 126.373 33.5354C126.268 33.2848 126.216 33.0132 126.216 32.7208V14.3597C126.216 14.0777 126.268 13.8113 126.373 13.5607C126.477 13.31 126.618 13.0907 126.795 12.9027C126.983 12.7147 127.202 12.5685 127.453 12.464C127.703 12.3596 127.975 12.3073 128.267 12.3073H139.256C140.602 12.3073 141.85 12.5423 142.998 13.0123C144.145 13.4823 145.137 14.1351 145.972 14.9707C146.807 15.7958 147.459 16.788 147.929 17.9473C148.409 19.0962 148.649 20.3495 148.649 21.7072V25.3732ZM144.579 21.7072C144.579 20.9135 144.448 20.1876 144.187 19.5296C143.937 18.8716 143.577 18.3128 143.107 17.8533C142.637 17.3833 142.074 17.023 141.416 16.7723C140.769 16.5112 140.049 16.3806 139.256 16.3806H130.286V30.6998H139.256C140.049 30.6998 140.769 30.5745 141.416 30.3238C142.074 30.0627 142.637 29.7024 143.107 29.2428C143.577 28.7728 143.937 28.2141 144.187 27.5665C144.448 26.9085 144.579 26.1774 144.579 25.3732V21.7072Z" fill="white"/>
<path d="M170.393 23.4462C170.393 24.0102 170.293 24.6212 170.095 25.2792C169.897 25.9268 169.573 26.5325 169.125 27.0965C168.686 27.6501 168.107 28.1148 167.387 28.4908C166.677 28.8668 165.811 29.0548 164.788 29.0548H157.446V25.1852H164.788C165.341 25.1852 165.769 25.0181 166.072 24.6839C166.375 24.3392 166.526 23.9162 166.526 23.4149C166.526 22.8822 166.354 22.4645 166.009 22.1616C165.675 21.8587 165.268 21.7072 164.788 21.7072H157.446C156.893 21.7072 156.465 21.8796 156.163 22.2242C155.86 22.5585 155.709 22.9762 155.709 23.4776V29.1645C155.709 29.7076 155.876 30.1306 156.21 30.4335C156.554 30.7364 156.977 30.8878 157.478 30.8878H164.788V34.7731H157.446C156.883 34.7731 156.272 34.6739 155.615 34.4754C154.968 34.277 154.363 33.9584 153.799 33.5198C153.246 33.0707 152.781 32.491 152.406 31.7808C152.03 31.0601 151.842 30.188 151.842 29.1645V23.4462C151.842 22.8822 151.941 22.2765 152.14 21.6289C152.338 20.9709 152.656 20.3651 153.095 19.8116C153.543 19.2476 154.123 18.7776 154.832 18.4016C155.552 18.0256 156.424 17.8376 157.446 17.8376H164.788C165.352 17.8376 165.957 17.9368 166.604 18.1353C167.262 18.3337 167.867 18.6575 168.42 19.1066C168.984 19.5453 169.453 20.1249 169.829 20.8456C170.205 21.5558 170.393 22.4227 170.393 23.4462Z" fill="white"/>
<path d="M188.113 14.5633H178.94C178.387 14.5633 177.969 14.7043 177.688 14.9863C177.406 15.2579 177.265 15.66 177.265 16.1926V34.7731H173.195V16.1926C173.195 15.4929 173.283 14.8662 173.461 14.3127C173.638 13.7591 173.873 13.2734 174.165 12.8557C174.468 12.4275 174.812 12.0671 175.199 11.7747C175.585 11.4718 175.986 11.2264 176.404 11.0384C176.832 10.8504 177.26 10.7146 177.688 10.631C178.115 10.537 178.522 10.49 178.909 10.49H188.113V14.5633ZM193.968 34.7731H189.898L189.867 21.9109H178.909V17.8376H193.999L193.968 34.7731ZM193.968 14.5633H189.898V10.5527H193.968V14.5633Z" fill="white"/>
</svg>
